<svg width="222" height="331" viewBox="0 0 222 331" fill="none" xmlns="http://www.w3.org/2000/svg">
<path d="M95.0138 132.037C95.6694 115.59 96.5623 98.3248 105.169 84.2939C110.474 75.6455 118.339 68.9008 126.346 62.6702C132.913 57.5597 139.707 52.6669 147.159 48.966C163.955 40.6246 185.372 37.1842 194.65 20.8881C196.63 38.1633 193.679 55.6697 188.973 72.4096C185.431 85.012 180.71 97.6478 172.096 107.505C154.083 128.119 123.985 131.927 96.718 134.358C95.8485 134.436 94.7379 134.375 94.4187 133.562C94.0995 132.749 95.9242 132.348 95.6306 133.171" fill="#8CC769"/>
<path d="M161.128 50.1909C159.737 54.2594 158.748 58.4422 157.289 62.4973C155.909 66.3316 154.355 70.1609 153.457 74.1438C152.85 76.8376 157.065 77.7772 158.048 75.3193C159.553 71.5561 160.285 67.4221 160.988 63.4446C161.732 59.2298 162.742 54.9706 163.164 50.7133C163.278 49.5515 161.53 49.0175 161.128 50.1909Z" fill="#1E6A30"/>
<path d="M186.922 33.9817C163.689 70.8857 125.047 93.2108 98.354 127.041C91.3611 135.905 84.2917 146.214 81.6781 157.334C81.2538 159.139 84.1538 160.303 85.0809 158.688C90.3097 149.585 94.7986 140.37 101.2 131.97C107.715 123.42 115.079 115.597 122.805 108.138C138.168 93.307 154.749 79.7491 169.009 63.7994C176.83 55.0523 183.709 45.6275 188.835 35.0451C189.379 33.9282 187.592 32.9181 186.922 33.9817Z" fill="#1E6A30"/>
<path d="M154.534 75.4746C158.137 75.7287 161.77 75.8214 165.375 75.5474C169.197 75.2575 172.931 74.3431 176.74 74.026C180.37 73.7231 178.907 67.6308 175.384 69.1645C169.172 71.8668 161.21 72.2533 154.511 72.4361C152.775 72.4829 152.816 75.3532 154.534 75.4746Z" fill="#1E6A30"/>
<path d="M142.106 61.4524C138.96 71.431 135.85 81.4185 132.803 91.4273C132.298 93.0882 133.139 95.5164 135.242 95.5443C147.448 95.7047 159.865 96.3966 172.053 95.6886C175.29 95.5004 175.226 90.2542 172.01 90.0126C160.095 89.1145 147.927 89.5938 135.98 89.5446C136.857 90.6672 137.734 91.7898 138.611 92.9125C140.727 82.6643 142.777 72.4072 144.791 62.1383C145.093 60.5953 142.583 59.9369 142.106 61.4524Z" fill="#1E6A30"/>
<path d="M117.576 81.8409C114.875 92.2951 112.219 102.761 109.586 113.231C109.126 115.06 111.105 116.342 112.644 116.244C124.419 115.49 135.482 116.972 146.81 120.179C149.654 120.984 151.405 116.974 148.544 115.824C137.138 111.243 124.11 109.723 111.902 110.879C112.922 111.883 113.941 112.888 114.961 113.891C116.961 103.494 118.937 93.0924 120.868 82.6824C121.217 80.8009 118.066 79.9472 117.576 81.8409Z" fill="#1E6A30"/>
<path d="M104.203 149.257C113.548 143.955 123.428 138.503 134.172 138.442C140.794 138.405 147.243 140.442 153.456 142.736C158.551 144.617 163.604 146.698 168.223 149.556C178.633 155.995 187.918 166.684 200.149 166.216C191.253 173.264 180.53 177.657 169.627 180.815C161.42 183.191 152.788 184.926 144.355 183.545C126.721 180.658 114.243 165.282 103.503 151.001C103.16 150.546 102.811 149.909 103.152 149.452C103.493 148.995 104.344 149.869 103.787 149.989" fill="#8CC769"/>
<path d="M172.356 157.722C169.621 158.353 166.961 159.245 164.21 159.833C161.609 160.388 158.95 160.846 156.433 161.72C154.73 162.311 155.661 164.971 157.362 164.67C159.967 164.208 162.511 163.19 164.959 162.21C167.552 161.171 170.261 160.264 172.767 159.031C173.451 158.694 173.145 157.541 172.356 157.722Z" fill="#1E6A30"/>
<path d="M190.227 166.441C161.763 166.271 136.075 152.535 108.123 149.388C100.8 148.564 92.649 148.195 85.5836 150.576C84.4366 150.963 84.7903 152.971 86.0049 152.929C92.8529 152.693 99.5083 152.008 106.371 152.663C113.356 153.331 120.229 154.719 127.027 156.434C140.541 159.844 153.769 164.367 167.525 166.779C175.068 168.103 182.663 168.67 190.297 167.868C191.103 167.785 191.048 166.446 190.227 166.441Z" fill="#1E6A30"/>
<path d="M156.066 162.775C157.166 164.861 158.366 166.907 159.759 168.811C161.237 170.831 163.03 172.586 164.517 174.588C165.936 176.497 168.81 173.587 166.746 172.162C163.108 169.649 160.151 165.367 157.743 161.716C157.119 160.77 155.541 161.781 156.066 162.775Z" fill="#1E6A30"/>
<path d="M159.559 151.055C152.943 152.748 146.334 154.463 139.735 156.221C138.64 156.513 137.584 157.816 138.293 158.992C142.408 165.814 146.301 172.938 150.892 179.451C152.112 181.181 154.998 179.339 154.024 177.473C150.418 170.557 145.961 163.975 141.874 157.334C141.553 158.207 141.233 159.08 140.912 159.953C147.323 157.596 153.716 155.2 160.104 152.78C161.063 152.415 160.564 150.797 159.559 151.055Z" fill="#1E6A30"/>
<path d="M139.806 144.477C133.079 146.58 126.361 148.712 119.649 150.859C118.476 151.233 118.447 152.772 119.032 153.592C123.506 159.861 126.495 166.505 128.618 173.891C129.152 175.745 131.979 175.335 131.63 173.352C130.242 165.45 126.597 157.703 121.751 151.333C121.546 152.244 121.34 153.155 121.134 154.066C127.588 151.594 134.036 149.107 140.473 146.592C141.636 146.137 141.024 144.096 139.806 144.477Z" fill="#1E6A30"/>
<path d="M90.9384 150.858C90.8715 150.994 90.8277 151.142 90.8088 151.302C90.1625 156.803 90.8108 161.679 92.7389 165.796C94.4097 169.361 97.1084 172.557 100.764 175.294C104.09 177.788 107.842 179.716 111.074 181.273C111.688 181.568 112.31 181.858 112.935 182.15C115.186 183.199 117.512 184.284 119.521 185.704C120.581 186.453 121.259 187.119 121.718 187.865C122.068 188.431 122.172 189.107 122.03 189.876C121.957 190.273 121.827 190.662 121.645 191.031C121.268 191.791 120.669 192.486 119.852 193.104C119.422 191.022 118.724 189.365 117.732 188.063C116.807 186.849 115.664 186.191 114.339 186.106C111.861 185.949 109.592 187.85 108.462 188.997C107.433 190.037 106.701 191.015 106.221 191.984C105.757 192.922 105.527 193.866 105.541 194.789C105.569 196.792 107.153 198.179 108.623 198.805C110.882 199.77 113.738 199.818 116.758 198.959C116.776 200.035 116.755 201.08 116.731 202.006C116.682 203.943 116.482 205.76 116.133 207.402C115.96 208.222 115.663 209.038 115.201 209.972C114.822 210.738 114.381 211.48 113.924 212.238C110.849 217.336 106.797 221.458 102.206 224.156C100.338 225.255 98.3268 226.01 96.3225 226.373C97.1184 224.375 97.7246 222.159 98.1317 219.767C98.99 214.718 98.3678 211.183 96.2347 208.96C93.2445 205.846 87.9567 207.604 84.007 210.29C82.6037 211.242 81.5405 212.438 80.8435 213.846C79.4429 216.676 79.6855 220.029 81.5068 223.046C83.5772 226.472 87.0919 228.687 91.4908 229.37C90.4287 230.815 89.0702 232.028 87.4173 233.339C84.2407 235.859 80.6997 238.02 77.2763 240.112C74.5036 241.804 71.6366 243.556 68.9514 245.501C66.7231 247.115 64.6075 248.939 62.5597 250.704C62.2305 250.987 61.9031 251.269 61.5751 251.55C58.7415 253.98 56.5336 256.104 54.6294 258.235C52.6002 260.503 51.0846 262.676 49.9935 264.88C49.7886 265.294 49.5967 265.714 49.4231 266.131C48.7371 267.767 48.3491 269.613 48.2642 271.62C47.7713 271.974 47.2726 272.37 46.7765 272.799C43.5005 275.634 40.9623 279.243 38.5071 282.732L38.1457 283.247C37.9891 283.471 37.8308 283.696 37.6742 283.919C36.6106 285.445 35.511 287.018 34.2157 288.328C31.8213 290.752 28.8484 292.998 25.3785 295.004C17.8628 299.35 9.6719 300.673 2.31264 298.729C1.64237 298.552 0.990537 298.843 0.689875 299.45C0.484345 299.865 0.473357 300.365 0.662134 300.789C0.845531 301.201 1.18949 301.496 1.63281 301.621C12.8076 304.779 25.7186 300.667 36.1714 290.62C38.2101 288.662 39.823 286.242 41.3836 283.9C41.9361 283.071 42.5075 282.212 43.0803 281.407C44.7486 279.057 46.4178 276.797 48.382 275.008C48.7697 278.685 50.6669 282.623 54.8373 282.708C57.5305 282.763 60.3299 280.945 61.6459 278.287C61.7392 278.098 61.8249 277.904 61.8993 277.712C62.4659 276.251 62.4195 274.736 61.7657 273.33C60.9911 271.666 59.3813 270.281 57.4623 269.625C55.4438 268.935 53.3172 269.057 51.1252 269.982C51.3441 268.612 51.7979 267.22 52.4849 265.832C54.3189 262.127 57.5546 258.849 60.7784 255.857C65.7769 251.216 71.1666 247.116 76.7963 243.671C77.4719 243.258 78.1498 242.85 78.826 242.438C81.2904 240.945 83.8393 239.4 86.2645 237.729C88.6148 236.111 91.5377 234.097 93.4727 231.54C93.9291 230.934 94.3651 230.28 94.7708 229.586C100.644 229.43 105.804 225.978 109.132 223.069C111.279 221.192 113.279 219.023 115.074 216.621C116.197 215.118 117.473 213.319 118.425 211.396C118.615 211.012 118.791 210.628 118.944 210.256C120.335 206.872 120.465 202.889 120.402 199.089C120.392 198.509 120.376 197.998 120.354 197.517C120.563 197.409 120.765 197.297 120.964 197.183C122.877 196.081 124.476 194.433 125.351 192.665C126.078 191.196 126.317 189.69 126.063 188.19C125.542 185.121 123.045 183.175 120.929 181.824C118.29 180.136 115.435 178.8 112.671 177.507C109.522 176.034 106.266 174.509 103.383 172.478C100.155 170.206 97.6739 167.592 96.0065 164.712C93.9707 161.195 93.08 156.68 93.4262 151.654C93.4715 150.993 93.0495 150.407 92.4011 150.231C91.8049 150.069 91.2015 150.327 90.9384 150.858ZM57.7653 272.693C58.8232 273.28 59.4312 274.155 59.5737 275.294C59.6495 275.898 59.5336 276.514 59.233 277.125C58.506 278.594 56.7958 279.793 55.1667 279.974C54.2554 280.076 53.5229 279.87 52.924 279.343C51.7768 278.333 51.0954 276.114 50.9872 273.065C51.3174 272.873 51.6506 272.698 51.9862 272.545C53.7323 271.739 56.1645 271.803 57.7653 272.693ZM93.0704 226.608C91.1283 226.527 89.3373 226.034 87.7359 225.139C84.1919 223.159 81.5674 218.677 83.3068 215.163C83.4841 214.805 83.7053 214.456 83.965 214.125C85.6589 211.963 88.7713 210.706 90.9216 210.286C92.0461 210.067 93.5865 210.07 94.5393 211.326C96.5468 213.972 95.6085 218.706 94.7292 222.034C94.3087 223.612 93.753 225.149 93.0704 226.608ZM116.41 194.828C115.67 195.065 114.903 195.245 114.159 195.355C112.25 195.637 110.809 195.502 109.752 194.942C109.56 194.839 109.198 194.647 109.731 193.569C109.815 193.4 109.921 193.217 110.042 193.026C110.939 191.605 112.493 190.05 113.725 189.83C114.161 189.753 114.574 189.939 115.201 191.101C115.757 192.13 116.153 193.354 116.41 194.828Z" fill="url(#paint0_linear_153_1485)"/>
<path d="M91.5847 151.394C91.0214 156.181 91.3825 161.056 93.4468 165.464C95.1803 169.166 97.9803 172.234 101.234 174.67C104.379 177.029 107.882 178.868 111.414 180.57C114.295 181.959 117.351 183.213 119.974 185.067C120.965 185.769 121.799 186.505 122.386 187.457C122.845 188.201 122.972 189.083 122.801 190.017C122.127 193.686 117.63 195.632 114.275 196.129C112.688 196.364 110.845 196.406 109.387 195.631C108.167 194.983 108.76 193.601 109.384 192.61C110.22 191.284 111.94 189.358 113.593 189.063C114.698 188.866 115.359 189.747 115.89 190.732C117.636 193.973 117.603 198.459 117.514 202.027C117.467 203.883 117.283 205.749 116.898 207.565C116.507 209.42 115.566 211.03 114.595 212.641C111.651 217.526 107.538 221.93 102.603 224.83C98.0439 227.509 92.1438 228.499 87.3556 225.821C83.2266 223.513 80.0162 217.905 83.3516 213.646C85.0337 211.498 88.1299 210.038 90.7723 209.522C92.4102 209.203 94.1068 209.467 95.1614 210.857C97.4385 213.86 96.3571 218.939 95.4842 222.237C94.929 224.331 94.1327 226.369 93.105 228.279C91.8422 230.63 89.9847 232.303 87.9052 233.952C82.1143 238.547 75.3899 241.804 69.4115 246.133C66.8609 247.982 64.4759 250.091 62.0866 252.143C59.6713 254.215 57.3357 256.382 55.2152 258.756C53.169 261.043 51.3369 263.589 50.1471 266.432C49.029 269.108 48.8654 272.017 49.1563 274.876C49.4922 278.16 51.09 281.852 54.8584 281.928C57.5593 281.983 60.2261 279.878 61.1771 277.432C62.3964 274.291 60.1629 271.373 57.2143 270.365C53.5329 269.107 50.0259 271.024 47.2903 273.391C43.9258 276.3 41.3297 280.085 38.7868 283.698C37.5366 285.475 36.3079 287.327 34.7761 288.879C32.1353 291.55 29.0174 293.805 25.7743 295.681C18.6254 299.814 10.2031 301.62 2.11851 299.485C1.2343 299.252 0.981741 300.627 1.85001 300.872C14.1343 304.343 26.8318 298.522 35.6369 290.059C38.3402 287.462 40.2947 283.994 42.451 280.956C44.8751 277.539 47.7519 273.64 51.6637 271.839C54.6584 270.459 59.8551 271.228 60.3529 275.2C60.7021 277.979 57.8102 280.468 55.2586 280.753C50.5336 281.281 50.1128 274.659 50.2089 271.481C50.4056 264.895 55.7225 259.495 60.2551 255.288C65.2384 250.663 70.6002 246.557 76.3976 243.009C79.5641 241.07 82.7687 239.197 85.8298 237.089C88.2969 235.39 91.0326 233.483 92.8569 231.071C95.316 227.822 96.6927 223.615 97.3675 219.64C97.9204 216.378 98.1535 212.084 95.6763 209.504C92.708 206.411 87.2662 209.023 84.4507 210.936C80.3687 213.71 79.7092 218.555 82.1806 222.645C84.754 226.903 89.494 228.788 94.2923 228.813C99.6476 228.841 104.709 225.908 108.627 222.484C110.796 220.588 112.733 218.461 114.455 216.155C115.875 214.256 117.325 212.163 118.23 209.962C119.596 206.638 119.689 202.642 119.629 199.104C119.572 195.681 119.278 191.375 117.117 188.539C114.722 185.395 111.253 187.285 109.022 189.548C107.648 190.94 106.299 192.735 106.328 194.782C106.352 196.34 107.594 197.52 108.937 198.092C112.581 199.646 117.314 198.394 120.583 196.509C123.41 194.88 125.888 191.77 125.302 188.324C124.845 185.64 122.687 183.871 120.518 182.483C114.912 178.899 108.416 176.972 102.942 173.119C99.8897 170.969 97.2194 168.352 95.341 165.105C92.9898 161.04 92.3382 156.228 92.657 151.603C92.6987 150.919 91.6683 150.685 91.5847 151.394Z" fill="url(#paint1_linear_153_1485)"/>
<defs>
<linearGradient id="paint0_linear_153_1485" x1="96.3281" y1="250.332" x2="67.4247" y2="236.025" gradientUnits="userSpaceOnUse">
<stop stop-color="#4F2408"/>
<stop offset="1" stop-color="#170000"/>
</linearGradient>
<linearGradient id="paint1_linear_153_1485" x1="96.3279" y1="250.333" x2="67.4238" y2="236.025" gradientUnits="userSpaceOnUse">
<stop stop-color="#613619"/>
<stop offset="1" stop-color="#301900"/>
</linearGradient>
</defs>
</svg>
