<svg width="378" height="307" viewBox="0 0 378 307" fill="none" xmlns="http://www.w3.org/2000/svg">
<path d="M374.528 190.162C370.825 206.142 366.738 222.878 355.701 235.012C348.898 242.492 339.943 247.632 330.944 252.241C323.565 256.022 316.003 259.548 308.018 261.784C290.023 266.825 268.416 266.208 256.299 280.435C257.576 263.154 263.723 246.565 271.445 231.052C277.258 219.373 284.231 207.881 294.499 199.834C315.97 183.005 346.144 184.878 373.291 187.572C374.157 187.658 375.233 187.924 375.394 188.779C375.555 189.635 373.694 189.688 374.135 188.937" fill="#8CC769"/>
<path d="M294.571 257.986C296.689 254.261 298.436 250.35 300.619 246.652C302.684 243.155 304.918 239.695 306.538 235.963C307.634 233.439 303.682 231.735 302.263 233.958C300.089 237.362 298.603 241.273 297.175 245.036C295.661 249.024 293.88 253.006 292.675 257.095C292.347 258.211 293.959 259.06 294.571 257.986Z" fill="#1E6A30"/>
<path d="M266.302 269.054C295.914 237.249 337.9 222.584 370.328 194.431C378.823 187.055 387.663 178.277 392.291 167.878C393.042 166.19 390.419 164.511 389.211 165.919C382.398 173.858 376.289 182.044 368.459 189.076C360.489 196.235 351.825 202.523 342.872 208.388C325.072 220.048 306.317 230.235 289.388 243.196C280.103 250.304 271.615 258.251 264.627 267.658C263.887 268.65 265.448 269.971 266.302 269.054Z" fill="#1E6A30"/>
<path d="M305.731 234.46C302.251 233.541 298.712 232.774 295.132 232.371C291.336 231.944 287.51 232.144 283.723 231.746C280.112 231.367 280.41 237.603 284.145 236.758C290.729 235.268 298.596 236.371 305.188 237.439C306.896 237.716 307.391 234.899 305.731 234.46Z" fill="#1E6A30"/>
<path d="M315.289 250.5C320.226 241.317 325.129 232.118 329.975 222.886C330.778 221.354 330.407 218.821 328.353 218.402C316.434 215.973 304.406 212.985 292.342 211.41C289.138 210.992 288.224 216.14 291.327 216.975C302.826 220.072 314.827 221.867 326.514 224.138C325.864 222.876 325.215 221.614 324.565 220.351C320.587 229.991 316.671 239.651 312.788 249.329C312.205 250.784 314.54 251.895 315.289 250.5Z" fill="#1E6A30"/>
<path d="M343.098 235.105C347.687 225.373 352.236 215.621 356.762 205.861C357.553 204.156 355.854 202.533 354.328 202.342C342.661 200.889 332.106 197.38 321.612 192.131C318.978 190.814 316.517 194.415 319.104 196.072C329.418 202.68 341.89 206.593 354.056 207.732C353.245 206.56 352.434 205.387 351.622 204.214C347.729 214.021 343.859 223.836 340.031 233.668C339.34 235.446 342.266 236.868 343.098 235.105Z" fill="#1E6A30"/>
<path d="M320.611 143.087C292.595 122.178 262.912 100.568 228.253 96.0098C206.889 93.2006 185.244 97.1598 164.256 102.043C147.044 106.045 129.886 110.714 113.816 118.063C77.5942 134.625 43.2825 165.365 3.98654 158.887C29.8452 185.251 62.6787 203.788 96.5926 218.405C122.124 229.41 149.286 238.515 177.07 237.48C235.168 235.318 281.692 190.746 322.163 149.003C323.453 147.672 324.838 145.758 323.923 144.144C323.008 142.53 319.907 145.005 321.657 145.621" fill="#8CC769"/>
<path d="M97.1598 142.75C105.733 145.895 113.957 149.855 122.599 152.87C130.772 155.719 139.168 158.275 146.941 162.119C152.198 164.718 148.113 172.929 142.743 171.265C134.521 168.717 126.72 164.398 119.217 160.239C111.267 155.833 102.888 151.805 95.2996 146.808C93.23 145.443 94.6865 141.844 97.1598 142.75Z" fill="#1E6A30"/>
<path d="M35.9242 163.641C127.883 174.647 216.388 140.733 307.9 141.92C331.876 142.232 358.34 144.351 380.182 154.905C383.728 156.619 381.771 162.96 377.867 162.331C355.856 158.788 334.649 153.874 312.228 153.205C289.408 152.525 266.655 154.216 244.015 156.992C199.003 162.513 154.462 171.745 109.077 173.95C84.1862 175.161 59.4376 173.909 35.1213 168.219C32.5513 167.623 33.2737 163.324 35.9242 163.641Z" fill="#1E6A30"/>
<path d="M147.696 165.676C143.298 171.96 138.594 178.078 133.322 183.661C127.732 189.581 121.232 194.519 115.616 200.38C110.262 205.966 102.165 195.406 109.407 191.642C122.171 185.006 133.454 172.385 142.712 161.575C145.111 158.773 149.793 162.678 147.696 165.676Z" fill="#1E6A30"/>
<path d="M141.175 126.42C161.847 134.571 182.486 142.793 203.076 151.147C206.491 152.534 209.374 157.168 206.608 160.676C190.553 181.031 175.092 202.446 157.628 221.611C152.989 226.701 144.418 219.581 148.319 213.951C162.769 193.089 179.828 173.651 195.721 153.872C196.401 156.82 197.081 159.768 197.761 162.716C178.021 152.506 158.355 142.174 138.717 131.768C135.768 130.202 138.037 125.18 141.175 126.42Z" fill="#1E6A30"/>
<path d="M207.616 113.203C228.478 122.724 249.299 132.333 270.097 141.988C273.729 143.675 273.199 148.654 270.978 151.063C253.992 169.484 241.645 189.72 231.791 212.702C229.317 218.47 220.357 215.999 222.286 209.741C229.977 184.795 244.888 161.263 263.118 142.666C263.411 145.691 263.706 148.716 263.999 151.741C244.168 141.139 224.362 130.492 204.603 119.761C201.032 117.82 203.837 111.479 207.616 113.203Z" fill="#1E6A30"/>
<path d="M370.528 116.131C366.825 100.151 362.738 83.4152 351.701 71.2805C344.898 63.801 335.943 58.6614 326.944 54.0519C319.565 50.2707 312.003 46.745 304.018 44.5086C286.023 39.4679 264.416 40.0853 252.299 25.8581C253.576 43.1389 259.723 59.7284 267.445 75.2412C273.258 86.9198 280.231 98.4117 290.499 106.459C311.97 123.288 342.144 121.415 369.291 118.721C370.157 118.635 371.233 118.369 371.394 117.514C371.555 116.658 369.694 116.605 370.135 117.356" fill="#8CC769"/>
<path d="M290.571 48.3072C292.689 52.0314 294.436 55.9424 296.619 59.6407C298.684 63.1377 300.918 66.5975 302.538 70.3296C303.634 72.8538 299.682 74.558 298.263 72.3347C296.089 68.9305 294.603 65.0196 293.175 61.2564C291.661 57.2688 289.88 53.287 288.675 49.1975C288.347 48.0813 289.959 47.2332 290.571 48.3072Z" fill="#1E6A30"/>
<path d="M262.302 37.2385C291.914 69.044 333.9 83.7092 366.328 111.862C374.823 119.238 383.663 128.016 388.291 138.415C389.042 140.103 386.419 141.782 385.211 140.374C378.398 132.435 372.289 124.249 364.459 117.217C356.489 110.058 347.825 103.77 338.872 97.9054C321.072 86.2452 302.317 76.0575 285.388 63.0965C276.103 55.9885 267.615 48.0416 260.627 38.6355C259.887 37.6432 261.448 36.3218 262.302 37.2385Z" fill="#1E6A30"/>
<path d="M301.731 71.8327C298.251 72.7519 294.712 73.5187 291.132 73.9213C287.336 74.3488 283.51 74.1485 279.723 74.5467C276.112 74.9259 276.41 68.6892 280.145 69.535C286.729 71.0246 294.596 69.9214 301.188 68.8537C302.896 68.5765 303.391 71.3941 301.731 71.8327Z" fill="#1E6A30"/>
<path d="M311.289 55.7924C316.226 64.9761 321.129 74.1751 325.975 83.4066C326.778 84.9387 326.407 87.4723 324.353 87.8911C312.434 90.3195 300.406 93.3077 288.342 94.8826C285.138 95.3008 284.224 90.1529 287.327 89.3179C298.826 86.2213 310.827 84.4261 322.514 82.1547C321.864 83.417 321.215 84.6792 320.565 85.9414C316.587 76.3022 312.671 66.642 308.788 56.9636C308.205 55.5091 310.54 54.3974 311.289 55.7924Z" fill="#1E6A30"/>
<path d="M339.098 71.188C343.687 80.9201 348.236 90.6716 352.762 100.432C353.553 102.137 351.854 103.76 350.328 103.951C338.661 105.404 328.106 108.913 317.612 114.162C314.978 115.479 312.517 111.878 315.104 110.221C325.418 103.613 337.89 99.7004 350.056 98.5606C349.245 99.7331 348.434 100.906 347.622 102.079C343.729 92.2718 339.859 82.4565 336.031 72.6245C335.34 70.8475 338.266 69.4252 339.098 71.188Z" fill="#1E6A30"/>
</svg>
