<svg width="146" height="232" viewBox="0 0 146 232" fill="none" xmlns="http://www.w3.org/2000/svg">
<path d="M113.148 124.911C112.638 138.153 111.938 152.054 105.017 163.342C100.751 170.3 94.4206 175.722 87.9738 180.729C82.6872 184.837 77.2169 188.769 71.2152 191.741C57.6877 198.438 40.431 201.184 32.9712 214.295C31.3562 200.383 33.7153 186.291 37.4889 172.817C40.3298 162.674 44.1201 152.505 51.0517 144.577C65.5461 128 89.7988 124.967 111.772 123.04C112.473 122.979 113.368 123.029 113.626 123.684C113.884 124.339 112.414 124.66 112.65 123.997" fill="#8CC769"/>
<path d="M59.9554 190.739C61.0718 187.464 61.8643 184.097 63.0357 180.834C64.1435 177.748 65.3917 174.667 66.1109 171.461C66.5976 169.292 63.1993 168.531 62.4099 170.509C61.2013 173.537 60.6157 176.865 60.0538 180.067C59.4583 183.46 58.649 186.888 58.314 190.316C58.2233 191.251 59.633 191.683 59.9554 190.739Z" fill="#1E6A30"/>
<path d="M39.1851 203.761C57.8683 174.072 88.9869 156.14 110.462 128.93C116.088 121.801 121.774 113.508 123.868 104.557C124.208 103.104 121.869 102.164 121.124 103.463C116.92 110.787 113.312 118.201 108.163 124.958C102.921 131.835 96.9957 138.126 90.7766 144.124C78.4116 156.048 65.0639 166.946 53.5889 179.772C47.2952 186.807 41.7621 194.388 37.6423 202.903C37.2052 203.802 38.6466 204.617 39.1851 203.761Z" fill="#1E6A30"/>
<path d="M65.2415 170.388C62.3375 170.179 59.4098 170.101 56.5047 170.317C53.424 170.546 50.416 171.278 47.3468 171.529C44.4209 171.769 45.6068 176.676 48.4451 175.445C53.4482 173.276 59.8647 172.974 65.2632 172.835C66.6623 172.799 66.6264 170.488 65.2415 170.388Z" fill="#1E6A30"/>
<path d="M75.2736 181.692C77.7978 173.661 80.2931 165.623 82.7379 157.567C83.143 156.23 82.4629 154.274 80.7674 154.25C70.9303 154.107 60.9217 153.536 51.0993 154.092C48.4907 154.24 48.5482 158.464 51.1403 158.662C60.7446 159.399 70.5506 159.027 80.1793 159.08C79.4713 158.175 78.7633 157.27 78.0554 156.365C76.3613 164.614 74.7208 172.871 73.1089 181.137C72.8674 182.379 74.8912 182.912 75.2736 181.692Z" fill="#1E6A30"/>
<path d="M95.0207 165.303C97.1856 156.889 99.3149 148.465 101.425 140.037C101.794 138.565 100.197 137.53 98.9567 137.608C89.4681 138.201 80.5503 136.996 71.4163 134.401C69.1239 133.749 67.7165 136.977 70.0238 137.905C79.2215 141.607 89.7235 142.846 99.5608 141.928C98.7378 141.119 97.9153 140.309 97.0922 139.499C95.4919 147.869 93.911 156.242 92.3663 164.622C92.0873 166.137 94.6283 166.827 95.0207 165.303Z" fill="#1E6A30"/>
<path d="M97.5167 110.116C88.1717 115.418 78.2915 120.869 67.5475 120.93C60.925 120.968 54.4765 118.93 48.2637 116.637C43.1683 114.756 38.1153 112.674 33.4966 109.817C23.0862 103.378 13.8019 92.6883 1.57052 93.1569C10.4669 86.1088 21.19 81.7153 32.0922 78.5583C40.2999 76.1816 48.9318 74.4466 57.3645 75.8274C74.9982 78.7145 87.4763 94.0906 98.2168 108.371C98.5592 108.827 98.9082 109.464 98.5673 109.921C98.2263 110.378 97.3754 109.504 97.9328 109.383" fill="#8CC769"/>
<path d="M29.3639 101.65C32.0988 101.02 34.7587 100.128 37.5096 99.5401C40.1108 98.9845 42.7693 98.5272 45.2869 97.6531C46.9898 97.0621 46.0588 94.4014 44.3574 94.703C41.7526 95.1648 39.2083 96.1827 36.7609 97.1631C34.1675 98.202 31.458 99.109 28.9523 100.342C28.2688 100.679 28.575 101.832 29.3639 101.65Z" fill="#1E6A30"/>
<path d="M11.4922 92.9318C39.9563 93.1021 65.6446 106.838 93.5961 109.985C100.919 110.809 109.07 111.178 116.136 108.797C117.283 108.41 116.929 106.401 115.715 106.444C108.867 106.68 102.211 107.365 95.3486 106.709C88.3637 106.042 81.4903 104.654 74.6928 102.939C61.1783 99.5293 47.9501 95.0062 34.1949 92.5934C26.651 91.2698 19.0562 90.7023 11.4229 91.505C10.6163 91.5882 10.6718 92.9269 11.4922 92.9318Z" fill="#1E6A30"/>
<path d="M45.6538 96.5974C44.5537 94.5123 43.3539 92.4663 41.9603 90.5619C40.4827 88.5421 38.6898 86.787 37.2021 84.7846C35.7836 82.8758 32.9095 85.7854 34.9737 87.2109C38.6115 89.7241 41.5683 94.0054 43.9769 97.6566C44.6008 98.603 46.1783 97.5919 45.6538 96.5974Z" fill="#1E6A30"/>
<path d="M42.1601 108.318C48.7763 106.625 55.3851 104.909 61.9842 103.152C63.079 102.859 64.1359 101.557 63.4267 100.381C59.3116 93.5585 55.4181 86.4353 50.8273 79.9213C49.608 78.1914 46.7213 80.0339 47.695 81.9001C51.3013 88.8161 55.7581 95.3975 59.8459 102.038C60.1664 101.166 60.4868 100.293 60.8072 99.4198C54.3961 101.776 48.003 104.173 41.6156 106.593C40.6561 106.957 41.1556 108.576 42.1601 108.318Z" fill="#1E6A30"/>
<path d="M61.9138 114.896C68.6405 112.793 75.3582 110.661 82.0707 108.514C83.243 108.139 83.2721 106.6 82.6872 105.781C78.2139 99.512 75.2248 92.8678 73.1011 85.4817C72.5679 83.6281 69.7409 84.0381 70.0892 86.0204C71.4779 93.9224 75.1226 101.67 79.9685 108.04C80.1737 107.129 80.3798 106.218 80.585 105.306C74.1311 107.779 67.6834 110.266 61.2464 112.781C60.0831 113.236 60.6952 115.277 61.9138 114.896Z" fill="#1E6A30"/>
<path d="M109.753 92.0471C99.2865 89.6216 88.3243 86.9441 80.3763 79.7146C75.4773 75.2583 72.1111 69.3929 69.092 63.4983C66.6155 58.6645 64.3063 53.7112 62.8417 48.4815C59.5405 36.694 59.9454 22.5413 50.6267 14.6047C61.9458 15.4413 72.8118 19.4683 82.9726 24.5265C90.622 28.3345 98.1491 32.902 103.42 39.6277C114.442 53.6916 113.215 73.4557 111.45 91.2373C111.393 91.8043 111.219 92.5092 110.659 92.6147C110.098 92.7202 110.064 91.5012 110.556 91.7898" fill="#8CC769"/>
<path d="M65.33 39.6731C67.7694 41.061 70.331 42.2052 72.7534 43.6352C75.0439 44.9876 77.31 46.451 79.7545 47.5123C81.4078 48.2303 82.5242 45.6419 81.068 44.7119C78.8383 43.2882 76.2767 42.3146 73.8118 41.379C71.1999 40.3877 68.5918 39.2207 65.9132 38.4312C65.1821 38.2164 64.6266 39.2725 65.33 39.6731Z" fill="#1E6A30"/>
<path d="M58.0807 21.1568C78.9128 40.5541 88.5176 68.0551 106.957 89.2962C111.788 94.861 117.537 100.651 124.349 103.683C125.455 104.175 126.554 102.457 125.632 101.666C120.432 97.2031 115.071 93.2012 110.464 88.0723C105.776 82.8518 101.657 77.1765 97.816 71.3122C90.179 59.6528 83.5065 47.3678 75.0173 36.279C70.3618 30.1972 65.1567 24.6374 58.9958 20.0599C58.3459 19.575 57.4803 20.5977 58.0807 21.1568Z" fill="#1E6A30"/>
<path d="M80.7393 46.9838C81.3415 44.7046 81.8438 42.3865 82.1076 40.0414C82.3877 37.5547 82.2566 35.0491 82.5175 32.5682C82.766 30.203 78.6809 30.3984 79.2348 32.845C80.2103 37.1575 79.4875 42.3102 78.788 46.628C78.6064 47.7469 80.4519 48.0709 80.7393 46.9838Z" fill="#1E6A30"/>
<path d="M70.2325 53.2438C76.2477 56.4776 82.273 59.6895 88.3196 62.8639C89.3231 63.3902 90.9827 63.1473 91.257 61.8017C92.8479 53.9946 94.8055 46.1162 95.8374 38.2142C96.1113 36.1156 92.7395 35.5171 92.1925 37.5497C90.1639 45.0811 88.9877 52.942 87.4997 60.5969C88.3265 60.1715 89.1533 59.7461 89.9801 59.3207C83.6664 56.7142 77.339 54.1493 70.9997 51.6057C70.047 51.2241 69.3188 52.7534 70.2325 53.2438Z" fill="#1E6A30"/>
<path d="M80.316 71.4594C86.6904 74.4658 93.0776 77.4453 99.4709 80.4103C100.588 80.9281 101.651 79.8153 101.775 78.8161C102.728 71.174 105.027 64.2606 108.464 57.3871C109.327 55.662 106.969 54.0497 105.883 55.7443C101.555 62.4998 98.9918 70.669 98.2449 78.638C99.0129 78.1063 99.7815 77.5754 100.549 77.0438C94.1259 74.4935 87.6969 71.9584 81.257 69.4508C80.093 68.9978 79.1614 70.9147 80.316 71.4594Z" fill="#1E6A30"/>
</svg>
