<svg width="85" height="240" viewBox="0 0 85 240" fill="none" xmlns="http://www.w3.org/2000/svg">
<rect x="29.5" y="29.5" width="33" height="209" rx="16.5" fill="#FEBD27" stroke="white" stroke-width="3"/>
<circle cx="46.4013" cy="48.4012" r="26" transform="rotate(-35.8988 46.4013 48.4012)" fill="#FEBD27" stroke="white" stroke-width="3"/>
<path d="M63.3359 23.4176C66.1139 22.9455 69.0257 22.4152 71.2191 20.6462C72.5711 19.5558 73.5437 18.0726 74.4259 16.5763C75.1496 15.3494 75.8313 14.0885 76.2961 12.7421C77.344 9.70744 77.4583 5.99581 80.0216 4.06302C77.0452 4.1058 74.1376 4.99091 71.3987 6.15699C69.3367 7.03487 67.2949 8.11349 65.8102 9.79227C62.7055 13.3027 62.7191 18.4963 62.9044 23.1792C62.9103 23.3285 62.9449 23.5157 63.09 23.5521C63.2351 23.5884 63.2631 23.2698 63.1298 23.3377" fill="#8CC769"/>
<path d="M75.7819 10.3973C75.1217 10.7227 74.4332 10.9824 73.7767 11.319C73.156 11.6374 72.5399 11.9853 71.8834 12.2251C71.4394 12.3873 71.1874 11.6923 71.5831 11.4715C72.1891 11.1334 72.8749 10.9184 73.5348 10.7119C74.234 10.493 74.935 10.2281 75.6486 10.0631C75.8433 10.0182 75.9723 10.3034 75.7819 10.3973Z" fill="#1E6A30"/>
<path d="M77.9677 5.66243C72.2117 10.4165 69.2688 17.467 64.1105 22.741C62.759 24.1227 61.1637 25.5491 59.3331 26.2367C59.0359 26.3484 58.7747 25.8815 59.0286 25.6887C60.4594 24.6013 61.9254 23.637 63.2113 22.3659C64.52 21.0722 65.6867 19.6504 66.7837 18.1749C68.9647 15.2413 70.9029 12.1288 73.2981 9.35786C74.6117 7.83807 76.061 6.4635 77.7453 5.36099C77.923 5.24416 78.1337 5.5254 77.9677 5.66243Z" fill="#1E6A30"/>
<path d="M71.6333 12.0713C71.5111 11.4652 71.4157 10.8505 71.3831 10.2324C71.3485 9.57699 71.4219 8.92305 71.3922 8.26946C71.3639 7.64637 72.4304 7.76111 72.2473 8.39304C71.9247 9.50691 72.0338 10.8672 72.1497 12.0085C72.1798 12.3043 71.6916 12.3604 71.6333 12.0713Z" fill="#1E6A30"/>
<path d="M74.2864 13.874C72.6612 14.627 71.0337 15.374 69.4012 16.111C69.1303 16.2331 68.6996 16.1437 68.6487 15.7871C68.3537 13.7184 67.9639 11.6253 67.8168 9.54038C67.7777 8.98666 68.6698 8.88248 68.7814 9.42316C69.1952 11.4265 69.3808 13.5029 69.6512 15.5302C69.4413 15.406 69.2315 15.2817 69.0216 15.1575C70.7152 14.5734 72.4117 14.0004 74.111 13.4331C74.3664 13.3481 74.5332 13.7598 74.2864 13.874Z" fill="#1E6A30"/>
<path d="M71.3631 18.486C69.6474 19.1739 67.9288 19.8545 66.2088 20.5312C65.9084 20.6494 65.6473 20.3415 65.6303 20.0779C65.5 18.0623 65.0057 16.2165 64.2127 14.3634C64.0137 13.8984 64.6561 13.5129 64.914 13.9735C65.942 15.8096 66.4859 17.9883 66.5574 20.0862C66.3646 19.9351 66.1716 19.7841 65.9788 19.633C67.7003 19.0653 69.423 18.5017 71.148 17.9455C71.4598 17.845 71.6739 18.3613 71.3631 18.486Z" fill="#1E6A30"/>
<path d="M65.1577 25.7555C66.3958 27.3387 67.7157 28.9861 69.5694 29.7628C70.712 30.2415 71.9725 30.349 73.2105 30.3953C74.2258 30.4334 75.2481 30.4338 76.2506 30.269C78.5102 29.8977 80.878 28.7111 82.9599 29.6644C81.924 27.8111 80.3828 26.2867 78.7225 24.9633C77.4726 23.9669 76.1035 23.0514 74.5467 22.6888C71.2912 21.9307 68.0368 23.7 65.161 25.4039C65.0694 25.4582 64.9636 25.5434 64.99 25.6468C65.0163 25.7501 65.2258 25.6597 65.138 25.5991" fill="#8CC769"/>
<path d="M77.5475 29.1512C77.1195 28.8472 76.7231 28.5032 76.2893 28.2054C75.879 27.9238 75.4519 27.6551 75.0788 27.3245C74.8265 27.1008 75.1772 26.7071 75.4499 26.8805C75.8675 27.1462 76.2349 27.5036 76.5883 27.8477C76.9627 28.2123 77.3666 28.5623 77.712 28.9542C77.8062 29.0612 77.671 29.2388 77.5475 29.1512Z" fill="#1E6A30"/>
<path d="M81.2601 28.9177C76.3254 26.9174 70.9034 27.461 65.8451 26.0121C64.5198 25.6325 63.0839 25.1149 62.0318 24.1994C61.861 24.0507 62.0654 23.7286 62.2724 23.8225C63.4399 24.3516 64.542 24.9447 65.7755 25.3207C67.0311 25.7033 68.3188 25.9534 69.6166 26.1416C72.1969 26.5156 74.8071 26.6767 77.358 27.2403C78.757 27.5493 80.1109 27.9928 81.3738 28.6759C81.5073 28.7478 81.4023 28.9754 81.2601 28.9177Z" fill="#1E6A30"/>
<path d="M81.2601 28.9177C76.3254 26.9174 70.9034 27.461 65.8451 26.0121C64.5198 25.6325 63.0839 25.1149 62.0318 24.1994C61.861 24.0507 62.0654 23.7286 62.2724 23.8225C63.4399 24.3516 64.542 24.9447 65.7755 25.3207C67.0311 25.7033 68.3188 25.9534 69.6166 26.1416C72.1969 26.5156 74.8071 26.6767 77.358 27.2403C78.757 27.5493 80.1109 27.9928 81.3738 28.6759C81.5073 28.7478 81.4023 28.9754 81.2601 28.9177Z" fill="#1E6A30"/>
<path d="M75.0906 27.1156C75.4295 26.8334 75.7829 26.5652 76.1597 26.3352C76.5593 26.0913 76.9945 25.9156 77.3946 25.6754C77.776 25.4464 78.0656 26.1546 77.6069 26.2539C76.7986 26.4291 75.982 26.9587 75.3051 27.4184C75.1297 27.5375 74.929 27.2502 75.0906 27.1156Z" fill="#1E6A30"/>
<path d="M74.8592 29.3916C73.8357 28.6271 72.8151 27.8591 71.7992 27.0845C71.6307 26.9559 71.5408 26.6553 71.7473 26.5025C72.9455 25.6161 74.1268 24.6618 75.3852 23.8627C75.7195 23.6504 76.0873 24.1749 75.7858 24.4283C74.669 25.3671 73.4289 26.1875 72.2484 27.0445C72.2552 26.8707 72.2621 26.6969 72.2689 26.5231C73.2096 27.3878 74.1443 28.2581 75.0764 29.1322C75.2163 29.2636 75.0145 29.5078 74.8592 29.3916Z" fill="#1E6A30"/>
<path d="M70.9737 29.1208C69.9604 28.2774 68.9507 27.4297 67.9429 26.5798C67.7669 26.4313 67.8716 26.1631 68.0312 26.0631C69.2519 25.298 70.2426 24.3621 71.1365 23.2362C71.3609 22.9536 71.8206 23.2261 71.619 23.5441C70.8154 24.8116 69.6326 25.8916 68.3403 26.6477C68.3698 26.4755 68.3991 26.3032 68.4286 26.131C69.3684 27.0188 70.3061 27.9087 71.24 28.8026C71.4088 28.9642 71.1573 29.2736 70.9737 29.1208Z" fill="#1E6A30"/>
<path d="M61.5292 19.6243C61.8935 17.6477 62.2516 15.5674 61.6039 13.6648C61.2046 12.492 60.4494 11.4772 59.6632 10.5197C59.0186 9.73439 58.341 8.9689 57.553 8.32767C55.7768 6.88239 53.3186 5.89658 52.6518 3.70608C51.9514 5.71036 51.832 7.87482 51.9422 9.99517C52.0251 11.5914 52.2475 13.2234 53.0083 14.6291C54.5993 17.5688 58.0815 18.8319 61.2638 19.8549C61.3653 19.8875 61.4992 19.9102 61.5591 19.8219C61.6189 19.7337 61.4124 19.6368 61.4252 19.7427" fill="#8CC769"/>
<path d="M55.8564 8.09804C55.9126 8.62002 55.9179 9.14482 55.9826 9.66703C56.0438 10.1608 56.1259 10.6587 56.1257 11.1572C56.1256 11.4944 55.5983 11.493 55.5474 11.1738C55.4694 10.6851 55.4933 10.173 55.5166 9.68038C55.5413 9.15836 55.5355 8.6239 55.5998 8.10549C55.6175 7.96405 55.8401 7.94748 55.8564 8.09804Z" fill="#1E6A30"/>
<path d="M53.2202 5.47404C54.9947 10.4943 58.9966 14.1927 61.2658 18.94C61.8603 20.1838 62.425 21.6019 62.4372 22.9965C62.4392 23.2229 62.0625 23.2835 61.9955 23.0663C61.6176 21.8415 61.3308 20.6232 60.7943 19.4505C60.2483 18.2569 59.5817 17.1271 58.8621 16.0308C57.4312 13.8512 55.8211 11.7905 54.5517 9.50726C53.8554 8.25507 53.2897 6.94753 52.9638 5.54924C52.929 5.40158 53.169 5.32934 53.2202 5.47404Z" fill="#1E6A30"/>
<path d="M53.2202 5.47391C54.9947 10.4942 58.9966 14.1926 61.2658 18.9399C61.8603 20.1837 62.425 21.6017 62.4372 22.9964C62.4392 23.2228 62.0625 23.2834 61.9955 23.0661C61.6176 21.8413 61.3308 20.6231 60.7943 19.4504C60.2483 18.2568 59.5817 17.127 58.8621 16.0307C57.4312 13.8511 55.8211 11.7904 54.5517 9.50714C53.8554 8.25495 53.2897 6.9474 52.9638 5.54911C52.929 5.40146 53.169 5.32922 53.2202 5.47391Z" fill="#1E6A30"/>
<path d="M55.9614 11.2871C55.5254 11.2205 55.0903 11.1338 54.6683 11.0042C54.2208 10.8668 53.8007 10.6575 53.3556 10.5173C52.9313 10.3836 53.2694 9.69728 53.6479 9.97474C54.315 10.4637 55.2529 10.7239 56.0458 10.9258C56.2513 10.9781 56.1693 11.3189 55.9614 11.2871Z" fill="#1E6A30"/>
<path d="M57.8191 9.95152C57.9254 11.2246 58.0271 12.4978 58.1209 13.7719C58.1364 13.9833 57.9709 14.2499 57.7196 14.1966C56.2616 13.8874 54.764 13.6358 53.3314 13.2236C52.9509 13.1142 53.0997 12.4911 53.4892 12.5488C54.9325 12.7623 56.3689 13.1467 57.7931 13.4622C57.6585 13.5723 57.5238 13.6824 57.3892 13.7925C57.4128 12.515 57.4446 11.2382 57.4809 9.96099C57.4864 9.7691 57.8031 9.7582 57.8191 9.95152Z" fill="#1E6A30"/>
<path d="M60.1924 13.0394C60.2329 14.3571 60.2678 15.6751 60.2998 16.993C60.3053 17.2232 60.0351 17.3226 59.8544 17.2695C58.4723 16.8631 57.1148 16.742 55.6793 16.8193C55.319 16.8386 55.2182 16.3139 55.5899 16.2539C57.0716 16.0151 58.6643 16.1845 60.0871 16.6505C59.9386 16.7427 59.7902 16.8349 59.6418 16.927C59.6832 15.6348 59.7277 14.3428 59.7776 13.051C59.7867 12.8176 60.185 12.8007 60.1924 13.0394Z" fill="#1E6A30"/>
<path d="M20.8863 66.3899C18.1082 66.862 15.1965 67.3923 13.0031 69.1613C11.6511 70.2517 10.6785 71.7349 9.79625 73.2312C9.0726 74.4581 8.39091 75.719 7.92602 77.0654C6.87819 80.1001 6.76383 83.8117 4.20054 85.7445C7.17701 85.7017 10.0846 84.8166 12.8235 83.6505C14.8855 82.7726 16.9273 81.694 18.412 80.0152C21.5167 76.5048 21.503 71.3112 21.3178 66.6283C21.3119 66.479 21.2773 66.2918 21.1322 66.2554C20.9871 66.219 20.959 66.5377 21.0923 66.4698" fill="#8CC769"/>
<path d="M8.44023 79.4102C9.10048 79.0848 9.78896 78.8251 10.4454 78.4885C11.0662 78.1701 11.6822 77.8222 12.3388 77.5824C12.7828 77.4202 13.0348 78.1152 12.639 78.336C12.0331 78.6741 11.3473 78.8891 10.6874 79.0956C9.98814 79.3145 9.28716 79.5794 8.57357 79.7444C8.37883 79.7893 8.24982 79.5041 8.44023 79.4102Z" fill="#1E6A30"/>
<path d="M6.25442 84.1451C12.0105 79.391 14.9533 72.3405 20.1117 67.0665C21.4632 65.6848 23.0585 64.2584 24.8891 63.5708C25.1862 63.4591 25.4474 63.926 25.1936 64.1188C23.7628 65.2062 22.2968 66.1705 21.0109 67.4416C19.7021 68.7353 18.5355 70.1571 17.4385 71.6326C15.2575 74.5662 13.3193 77.6787 10.924 80.4496C9.61048 81.9694 8.16118 83.344 6.47691 84.4465C6.29921 84.5633 6.08852 84.2821 6.25442 84.1451Z" fill="#1E6A30"/>
<path d="M12.5889 77.7362C12.7111 78.3423 12.8065 78.957 12.839 79.5751C12.8737 80.2305 12.8003 80.8844 12.83 81.538C12.8582 82.1611 11.7918 82.0464 11.9749 81.4145C12.2974 80.3006 12.1884 78.9403 12.0725 77.799C12.0424 77.5032 12.5306 77.4471 12.5889 77.7362Z" fill="#1E6A30"/>
<path d="M9.93579 75.9335C11.561 75.1805 13.1885 74.4335 14.821 73.6965C15.0919 73.5744 15.5226 73.6638 15.5735 74.0204C15.8684 76.0891 16.2583 78.1822 16.4054 80.2671C16.4444 80.8208 15.5523 80.925 15.4408 80.3843C15.0269 78.381 14.8414 76.3046 14.571 74.2773C14.7808 74.4015 14.9907 74.5258 15.2005 74.65C13.507 75.2341 11.8105 75.8071 10.1111 76.3743C9.85579 76.4594 9.68894 76.0477 9.93579 75.9335Z" fill="#1E6A30"/>
<path d="M12.859 71.3215C14.5748 70.6336 16.2934 69.953 18.0134 69.2763C18.3138 69.1581 18.5748 69.466 18.5919 69.7296C18.7222 71.7452 19.2164 73.591 20.0095 75.4441C20.2085 75.9091 19.566 76.2945 19.3081 75.834C18.2801 73.9979 17.7363 71.8192 17.6648 69.7213C17.8576 69.8724 18.0505 70.0234 18.2433 70.1745C16.5219 70.7422 14.7992 71.3058 13.0741 71.862C12.7623 71.9625 12.5483 71.4461 12.859 71.3215Z" fill="#1E6A30"/>
<path d="M19.0645 64.052C17.8264 62.4688 16.5065 60.8214 14.6528 60.0447C13.5101 59.566 12.2497 59.4585 11.0117 59.4122C9.99637 59.3741 8.97406 59.3737 7.97156 59.5385C5.71202 59.9098 3.34414 61.0963 1.26227 60.1431C2.29821 61.9964 3.83935 63.5208 5.49966 64.8442C6.7496 65.8405 8.11867 66.7561 9.67548 67.1187C12.9309 67.8768 16.1853 66.1075 19.0611 64.4036C19.1528 64.3493 19.2586 64.2641 19.2322 64.1607C19.2058 64.0574 18.9964 64.1478 19.0842 64.2084" fill="#8CC769"/>
<path d="M6.67467 60.6563C7.10269 60.9603 7.49907 61.3043 7.93289 61.6021C8.34313 61.8837 8.77027 62.1524 9.14333 62.483C9.39568 62.7067 9.04495 63.1004 8.77223 62.927C8.35468 62.6613 7.98725 62.3039 7.63391 61.9598C7.25949 61.5952 6.8556 61.2451 6.51015 60.8533C6.41598 60.7463 6.55117 60.5687 6.67467 60.6563Z" fill="#1E6A30"/>
<path d="M2.96211 60.8898C7.8968 62.8901 13.3188 62.3465 18.3771 63.7954C19.7024 64.175 21.1383 64.6926 22.1904 65.6081C22.3612 65.7568 22.1568 66.0789 21.9497 65.985C20.7823 65.4559 19.6802 64.8628 18.4466 64.4868C17.1911 64.1042 15.9034 63.8541 14.6056 63.6659C12.0252 63.2919 9.41502 63.1308 6.86417 62.5672C5.46514 62.2582 4.11123 61.8147 2.84838 61.1316C2.71482 61.0597 2.81987 60.8321 2.96211 60.8898Z" fill="#1E6A30"/>
<path d="M2.96211 60.8898C7.8968 62.8901 13.3188 62.3465 18.3771 63.7954C19.7024 64.175 21.1383 64.6926 22.1904 65.6081C22.3612 65.7568 22.1568 66.0789 21.9497 65.985C20.7823 65.4559 19.6802 64.8628 18.4466 64.4868C17.1911 64.1042 15.9034 63.8541 14.6056 63.6659C12.0252 63.2919 9.41502 63.1308 6.86417 62.5672C5.46514 62.2582 4.11123 61.8147 2.84838 61.1316C2.71482 61.0597 2.81987 60.8321 2.96211 60.8898Z" fill="#1E6A30"/>
<path d="M9.13157 62.6919C8.79263 62.9741 8.43924 63.2423 8.06243 63.4723C7.66288 63.7162 7.22765 63.8919 6.82758 64.1321C6.44615 64.3611 6.15659 63.6529 6.61522 63.5536C7.42355 63.3784 8.24019 62.8488 8.9171 62.3891C9.09249 62.27 9.29319 62.5573 9.13157 62.6919Z" fill="#1E6A30"/>
<path d="M9.36299 60.4159C10.3865 61.1804 11.407 61.9484 12.4229 62.723C12.5914 62.8516 12.6813 63.1522 12.4748 63.305C11.2767 64.1914 10.0954 65.1457 8.83694 65.9448C8.50272 66.157 8.13489 65.6326 8.43636 65.3792C9.5532 64.4404 10.7933 63.62 11.9738 62.763C11.9669 62.9368 11.9601 63.1106 11.9533 63.2844C11.0126 62.4197 10.0779 61.5494 9.14582 60.6753C9.00586 60.5439 9.20766 60.2997 9.36299 60.4159Z" fill="#1E6A30"/>
<path d="M13.2484 60.6867C14.2617 61.5301 15.2715 62.3778 16.2792 63.2277C16.4553 63.3762 16.3505 63.6444 16.191 63.7444C14.9703 64.5095 13.9796 65.4454 13.0856 66.5713C12.8612 66.8539 12.4016 66.5814 12.6032 66.2634C13.4068 64.9959 14.5896 63.9159 15.8819 63.1598C15.8524 63.332 15.8231 63.5043 15.7936 63.6765C14.8538 62.7887 13.916 61.8988 12.9822 61.0049C12.8134 60.8433 13.0649 60.5339 13.2484 60.6867Z" fill="#1E6A30"/>
<path d="M22.693 70.1832C22.3286 72.1598 21.9706 74.2401 22.6183 76.1427C23.0175 77.3155 23.7728 78.3303 24.559 79.2878C25.2036 80.0731 25.8812 80.8386 26.6692 81.4798C28.4453 82.9251 30.9036 83.9109 31.5703 86.1014C32.2708 84.0971 32.3902 81.9327 32.28 79.8123C32.197 78.2161 31.9747 76.5841 31.2138 75.1783C29.6229 72.2387 26.1406 70.9756 22.9584 69.9526C22.8569 69.92 22.723 69.8973 22.6631 69.9855C22.6032 70.0738 22.8098 70.1707 22.7969 70.0648" fill="#8CC769"/>
<path d="M28.3658 81.7095C28.3096 81.1875 28.3043 80.6627 28.2396 80.1405C28.1783 79.6467 28.0962 79.1488 28.0964 78.6503C28.0965 78.3131 28.6238 78.3145 28.6748 78.6337C28.7528 79.1224 28.7288 79.6345 28.7056 80.1271C28.6809 80.6491 28.6866 81.1836 28.6223 81.702C28.6047 81.8434 28.3821 81.86 28.3658 81.7095Z" fill="#1E6A30"/>
<path d="M31.002 84.3335C29.2275 79.3131 25.2256 75.6148 22.9563 70.8675C22.3619 69.6237 21.7972 68.2056 21.785 66.811C21.783 66.5846 22.1597 66.524 22.2267 66.7412C22.6046 67.966 22.8914 69.1843 23.4278 70.357C23.9739 71.5506 24.6405 72.6803 25.3601 73.7767C26.791 75.9562 28.401 78.017 29.6705 80.3002C30.3667 81.5524 30.9325 82.86 31.2584 84.2583C31.2931 84.4059 31.0531 84.4782 31.002 84.3335Z" fill="#1E6A30"/>
<path d="M31.002 84.3336C29.2275 79.3133 25.2256 75.6149 22.9563 70.8676C22.3619 69.6238 21.7972 68.2058 21.785 66.8111C21.783 66.5847 22.1597 66.5241 22.2267 66.7414C22.6046 67.9662 22.8914 69.1844 23.4278 70.3571C23.9739 71.5507 24.6405 72.6805 25.3601 73.7768C26.791 75.9564 28.401 78.0171 29.6705 80.3004C30.3667 81.5525 30.9325 82.8601 31.2584 84.2584C31.2931 84.406 31.0531 84.4783 31.002 84.3336Z" fill="#1E6A30"/>
<path d="M28.2603 78.5204C28.6963 78.587 29.1314 78.6737 29.5534 78.8033C30.0009 78.9407 30.421 79.15 30.8661 79.2902C31.2904 79.4239 30.9523 80.1102 30.5738 79.8328C29.9067 79.3438 28.9688 79.0836 28.1759 78.8817C27.9704 78.8294 28.0524 78.4886 28.2603 78.5204Z" fill="#1E6A30"/>
<path d="M26.4031 79.8559C26.2968 78.5828 26.195 77.3096 26.1013 76.0355C26.0858 75.8241 26.2512 75.5575 26.5025 75.6108C27.9606 75.92 29.4581 76.1716 30.8908 76.5837C31.2712 76.6932 31.1225 77.3163 30.733 77.2586C29.2896 77.0451 27.8533 76.6607 26.4291 76.3452C26.5637 76.2351 26.6983 76.125 26.833 76.0148C26.8094 77.2924 26.7776 78.5691 26.7413 79.8464C26.7357 80.0383 26.4191 80.0492 26.4031 79.8559Z" fill="#1E6A30"/>
<path d="M24.0298 76.7681C23.9893 75.4503 23.9544 74.1324 23.9224 72.8145C23.9168 72.5843 24.187 72.4849 24.3677 72.538C25.7498 72.9444 27.1073 73.0655 28.5429 72.9882C28.9032 72.9689 29.0039 73.4936 28.6323 73.5536C27.1506 73.7924 25.5579 73.623 24.1351 73.157C24.2835 73.0648 24.4319 72.9726 24.5804 72.8805C24.539 74.1726 24.4945 75.4646 24.4445 76.7564C24.4354 76.9899 24.0371 77.0068 24.0298 76.7681Z" fill="#1E6A30"/>
</svg>
