<svg width="142" height="168" viewBox="0 0 142 168" fill="none" xmlns="http://www.w3.org/2000/svg">
<path d="M10.8869 82.8248C12.0987 80.8478 13.3941 78.9314 14.7734 77.067C14.8627 76.9463 14.999 76.9293 15.1403 76.9655C16.7745 73.2043 18.8383 69.6043 21.5207 66.6256C23.5801 64.3385 26.1421 62.4668 29.1145 61.5677C32.2147 60.6297 35.5104 60.7133 38.649 61.4252C43.1656 62.4497 47.3853 64.5866 51.2312 67.209C51.4019 67.1495 51.5712 67.0903 51.7369 67.0303C53.2359 66.4874 54.7545 66.0001 56.288 65.5637C59.4389 64.6667 62.6533 63.9874 65.9011 63.5496C72.4651 62.665 79.1732 62.7418 85.7021 63.8571C86.4052 63.9771 87.1024 64.1233 87.7995 64.2704C88.8433 62.3284 90.1635 60.5565 91.8612 59.1323C95.5757 56.0155 100.358 55.5088 104.811 57.313C109.51 59.2173 113.379 63.0438 116.356 67.0507C119.658 71.4949 121.741 76.4522 123.137 81.7609C127.03 86.6053 130.155 92.0151 132.602 97.7886C136.191 106.256 138.611 115.484 139.698 124.613C140.276 129.467 140.148 134.44 138.207 138.997C136.548 142.893 133.797 146.281 130.578 149.009C123.014 155.418 112.993 158.324 103.588 160.854C93.3196 163.617 82.8108 165.488 72.2189 166.445C62.0748 167.362 51.6282 167.724 41.4996 166.441C32.2921 165.275 23.3946 162.233 16.2886 156.129C10.0096 150.734 5.43411 143.491 2.76312 135.7C-3.35095 117.868 1.26521 98.5207 10.8869 82.8248Z" fill="#1E6A30"/>
<path d="M17.7752 148.589C23.5589 155.199 31.1898 159.399 39.7304 161.318C49.1873 163.443 59.1493 163.356 68.7786 162.856C78.8689 162.333 88.9158 160.968 98.7788 158.775C103.772 157.665 108.719 156.347 113.598 154.812C118.098 153.396 122.57 151.772 126.699 149.468C134.342 145.203 140.744 138.179 141.535 129.151C141.961 124.299 141.059 119.391 140.098 114.651C139.22 110.322 138.106 106.04 136.694 101.854C134.175 94.3826 130.679 87.1791 126.036 80.7853C125.939 80.7404 125.849 80.6585 125.825 80.5572C125.818 80.5273 125.809 80.4983 125.802 80.4687C125.73 80.3709 125.657 80.2744 125.586 80.1762C125.384 79.5791 125.146 78.9955 124.873 78.4268C125.061 78.6454 125.253 78.8607 125.438 79.0818C124.277 75.0089 122.262 71.109 119.855 67.6604C117.196 63.8501 113.882 60.215 109.769 57.9569C105.608 55.6724 100.772 55.363 96.8688 58.34C95.9778 59.0194 95.1736 59.8062 94.4379 60.6602C92.3555 62.2649 91.3065 64.814 90.493 67.3312C90.2113 68.0338 89.9486 68.7396 89.7262 69.4455C88.0038 74.9121 87.7187 80.7121 88.047 86.3983C88.0626 86.6671 87.6829 86.5555 87.669 86.3462C87.3155 81.01 87.3795 75.5595 88.6249 70.3335C89.1864 67.9773 89.9507 65.5606 91.0561 63.3379C81.536 61.8626 71.5808 62.4083 62.3774 64.8218C60.6109 65.2852 58.8649 65.8257 57.1442 66.4374C57.0196 66.4816 56.8947 66.5309 56.77 66.5785C57.7985 67.3289 58.7991 68.1095 59.7669 68.9096C65.3277 73.5071 69.6845 79.0963 73.1045 85.4248C73.2583 85.7095 72.8968 85.8394 72.7564 85.5877C69.8106 80.3052 65.7897 75.5224 61.3056 71.4771C60.2519 70.5263 59.1469 69.6044 58.007 68.7168C57.4493 68.1873 56.8493 67.6968 56.2086 67.2519C56.2001 67.2453 56.1916 67.2394 56.1834 67.2328C56.1644 67.2196 56.1465 67.2052 56.1272 67.1921C55.7756 66.9207 55.4178 66.6578 55.0503 66.4096C54.4031 65.9726 53.6825 65.5425 52.9234 65.2167C50.5629 63.802 48.0849 62.6049 45.5135 61.7503C42.5369 60.7609 39.3347 60.2563 36.2125 60.7506C33.1716 61.2318 30.4627 62.7229 28.2509 64.8359C23.7903 69.0976 21.0703 75.2493 19.0954 80.9894C17.8609 84.578 16.9808 88.2789 16.3921 92.0265C15.8045 95.7674 15.6834 99.5017 15.6242 103.28C15.6167 103.768 14.8616 103.425 14.8301 103.072C14.2095 96.1617 15.2928 88.9717 17.3041 82.3624C17.6277 81.2995 17.9878 80.227 18.3665 79.1546C9.42138 93.3321 3.82235 110.323 7.29176 127.103C8.9174 134.967 12.4719 142.528 17.7752 148.589Z" fill="#8CC769"/>
<path d="M74.3403 65.9936C74.1612 66.0424 73.9999 66.1391 73.8472 66.251C75.2701 61.4699 76.7658 56.7127 78.0471 51.8865C79.5305 46.2982 80.8058 40.6576 82.1474 35.0347C83.5127 29.3123 85.0864 23.662 86.7171 18.0111C88.0438 13.4138 89.5404 8.46901 93.0173 4.99739C94.4988 3.51819 96.4572 2.23499 98.6378 2.33374C100.597 2.42278 102.237 3.74099 103.229 5.35703C104.282 7.07192 104.793 9.11376 104.947 11.1045C105.104 13.1247 105.026 15.4314 103.794 17.1413C102.386 19.0963 100.044 19.0221 97.9459 19.6178C95.6386 20.2728 93.9595 22.0959 92.6359 24.0065C89.6045 28.383 87.5421 33.4408 85.8179 38.4498C83.8284 44.2293 82.3199 50.1577 80.4906 55.9876C79.5607 58.9509 78.5479 61.8913 77.3499 64.7582C76.9225 65.781 76.4995 66.8774 75.9491 67.8639C75.8147 67.0231 75.4253 65.6985 74.3403 65.9936Z" fill="#144918"/>
<path d="M79.5079 55.1468C81.0407 50.2445 82.3504 45.2753 83.9019 40.3787C85.4016 35.6466 87.1465 30.979 89.5157 26.6064C91.4968 22.9502 93.9048 19.0219 98.2732 18.1117C100.533 17.6408 102.652 17.2883 103.434 14.7928C104.051 12.8233 103.828 10.4932 103.305 8.52467C102.826 6.71928 101.874 4.70922 99.9955 4.03197C97.8677 3.26476 95.6577 4.43867 94.0842 5.82193C90.4457 9.02048 88.9057 13.8834 87.6117 18.3851C86.0932 23.668 84.9961 29.0702 83.7472 34.4211C82.3785 40.2852 81.0151 46.1499 79.4452 51.9641C78.0827 57.0104 76.5979 62.1586 74.4341 66.9504C74.5033 66.9502 74.5725 66.9489 74.6414 66.9517C74.7626 66.9564 74.8839 66.9704 75.0046 66.9799C75.0265 66.9817 75.0486 66.9834 75.0705 66.985C75.2521 66.5892 75.3941 66.2088 75.4952 65.9803C76.029 64.7719 76.5444 63.5563 77.0239 62.3251C77.9428 59.9651 78.7524 57.564 79.5079 55.1468Z" fill="#79BA48"/>
<path d="M16.1113 17.7155C15.7303 12.8842 20.8438 10.1065 25.1105 10.5489C30.5265 11.1104 34.899 15.6518 38.5028 19.3196C42.6869 23.5779 46.526 28.1904 49.9265 33.0973C56.7621 42.9616 62.1611 53.6938 67.179 64.5683C67.4766 65.2138 67.7725 65.86 68.0691 66.5061C67.9463 66.3746 67.8096 66.2578 67.6447 66.1767C67.2747 65.9949 66.818 66.1275 66.6114 66.4852C66.4791 66.7144 66.4076 66.9737 66.3597 67.2369C65.7305 66.2423 65.2795 65.0412 64.7537 64.0445C61.7279 58.3058 58.3326 52.7606 54.5901 47.4606C51.1104 42.5325 47.4237 37.5261 42.889 33.5044C40.7841 31.6376 38.4279 30.0155 35.8181 28.94C32.9731 27.7678 29.9059 27.4363 26.9184 26.8009C22.2978 25.8182 16.5392 23.1378 16.1113 17.7155Z" fill="#144918"/>
<path d="M21.0533 23.4371C23.2756 24.9646 25.9985 25.4708 28.605 25.941C31.0979 26.3908 33.5925 26.8249 35.9476 27.7935C40.4544 29.6472 44.1792 32.9655 47.3803 36.5669C51.4735 41.1719 55.1302 46.2222 58.5083 51.3675C60.2564 54.0299 61.9213 56.7479 63.4932 59.5181C64.3082 60.9542 65.0987 62.4042 65.8651 63.867C66.2483 64.5981 66.6253 65.3327 66.9965 66.0704C67.1427 66.3613 67.276 66.6641 67.437 66.9477C67.4725 67.0187 67.5244 67.0796 67.5651 67.1476C67.5894 67.046 67.6264 66.9584 67.6781 66.8879C63.0946 57.9589 58.4899 49.0175 53.2156 40.4732C47.6841 31.5116 41.2961 22.6796 33.2459 15.7981C29.7513 12.8108 24.8814 10.2046 20.409 12.8001C18.6009 13.8495 17.3216 15.6777 17.4336 17.8289C17.5555 20.1681 19.1932 22.1587 21.0533 23.4371Z" fill="#79BA48"/>
<path d="M92.1036 80.7641C92.2044 77.2787 93.2877 73.7639 95.8249 71.2882C99.1119 68.0813 104.124 67.7081 108.314 69.1406C112.874 70.6998 116.667 74.1836 119.561 77.9411C122.432 81.6693 124.5 85.9953 125.664 90.5495C127.786 98.8482 127.396 110.932 117.741 114.176C108.89 117.15 100.393 111.164 96.3736 103.544C93.7012 98.4783 92.4028 92.576 91.9698 86.8942C91.8139 84.8479 91.8321 82.7803 92.1036 80.7641Z" fill="#144918"/>
<path d="M93.0552 87.7248C93.1238 88.187 93.2063 88.6497 93.2959 89.1123C93.6676 92.5066 94.4049 95.9027 95.5017 99.0836C98.2384 107.02 105.067 115.057 114.313 113.943C118.495 113.439 122.107 111.036 123.941 107.213C125.856 103.222 125.931 98.4659 125.33 94.1602C124.13 85.5575 119.363 76.8011 111.96 72.0022C107.762 69.2814 102.206 68.2757 97.7958 71.1282C97.3512 71.4156 96.9487 71.7478 96.5648 72.098C96.4178 72.195 96.2703 72.2912 96.1329 72.4043C95.3521 73.047 94.8751 73.9697 94.4876 74.886C93.6707 76.8173 93.2542 78.9869 92.9807 81.058C92.689 83.2701 92.7279 85.5181 93.0552 87.7248Z" fill="white"/>
<path d="M92.9805 81.0578C93.254 78.9867 93.6705 76.8172 94.4873 74.8858C94.8747 73.9695 95.3517 73.0469 96.1327 72.4041C96.2701 72.291 96.4176 72.1948 96.5646 72.0978C96.9484 71.7476 97.3511 71.4154 97.7955 71.128C102.206 68.2755 107.762 69.2811 111.959 72.002C119.363 76.8009 124.13 85.5573 125.33 94.16C125.931 98.4659 125.856 103.222 123.941 107.213C122.107 111.036 118.495 113.439 114.313 113.942C105.066 115.057 98.2384 107.02 95.5016 99.0834C94.4048 95.9025 93.6675 92.5065 93.2958 89.1121C93.2062 88.6495 93.1236 88.1868 93.0551 87.7246C92.7279 85.5181 92.6886 83.2702 92.9805 81.0578ZM97.7994 90.9312C98.1722 94.0129 98.9772 96.9899 100.472 99.7223C102.227 102.928 104.603 105.921 107.445 108.23C109.885 110.212 113.06 111.966 116.311 111.298C120.108 110.517 122.392 106.609 123.43 103.183C124.744 98.8445 124.476 94.1051 123.375 89.7523C122.425 85.9969 120.811 82.3118 118.453 79.2111C117.45 77.5503 116.207 76.0522 114.63 74.8991C111.603 72.6859 107.243 72.0815 103.8 73.6714C100.921 75.0007 99.225 77.8593 98.3891 80.8081C97.4641 84.0707 97.3942 87.5819 97.7994 90.9312Z" fill="#C0C2C4"/>
<path d="M22.6919 94.4563C23.4334 88.8826 25.2127 83.1958 28.901 78.8417C32.8054 74.2325 38.6617 72.135 44.6306 72.8129C50.6482 73.4962 56.0012 76.8449 59.8203 81.4508C59.889 81.5338 59.9477 81.6221 60.0154 81.7054C60.5765 82.2634 61.1238 82.838 61.6437 83.4442C65.1879 87.5753 67.7877 92.4809 69.1323 97.7586C70.5488 103.319 70.6624 109.625 68.3766 114.973C66.1473 120.188 61.5094 123.51 56.1424 124.989C50.5921 126.519 44.3274 126.357 38.79 124.859C32.8871 123.261 28.2376 119.32 25.4185 113.928C22.305 107.973 21.8182 101.024 22.6919 94.4563Z" fill="#144918"/>
<path d="M24.987 109.997C26.6914 115.292 30.2345 120.104 35.3426 122.524C40.4555 124.946 46.7821 125.437 52.3432 124.684C57.4025 123.999 62.4212 121.935 65.5202 117.712C68.9123 113.09 69.5219 106.792 68.7904 101.259C67.4256 90.9395 60.9008 81.7137 52.0411 76.3693C51.0835 75.7916 50.065 75.3162 49.0313 74.8864C48.9076 74.8441 48.7865 74.7967 48.6615 74.7569C43.0764 72.9722 36.6794 73.7697 32.1364 77.6207C28.0988 81.0431 25.8468 86.1611 24.6908 91.2253C23.3026 97.3068 23.0586 104.007 24.987 109.997Z" fill="white"/>
<path d="M24.6908 91.2252C25.8468 86.1611 28.0988 81.0431 32.1363 77.6207C36.6794 73.7697 43.0764 72.9722 48.6615 74.7569C48.7865 74.7967 48.9075 74.8441 49.0313 74.8864C50.065 75.3162 51.0834 75.7918 52.0411 76.3693C60.9007 81.7137 67.4256 90.9395 68.7902 101.259C69.522 106.792 68.9124 113.09 65.5203 117.712C62.4214 121.935 57.4026 123.999 52.3433 124.684C46.7821 125.437 40.4558 124.946 35.3427 122.524C30.2348 120.104 26.6915 115.292 24.9871 109.997C23.0586 104.007 23.3026 97.3069 24.6908 91.2252ZM28.3274 100.279C28.4865 102.602 28.7982 104.976 29.4418 107.219C30.0617 109.379 31.0677 111.428 32.3894 113.246C34.9716 116.797 38.6673 119.467 42.8044 120.92C46.7852 122.319 51.2496 122.573 55.2822 121.233C59.5987 119.798 63.0027 116.594 65.0067 112.546C67.6556 107.194 67.8112 100.939 65.8259 95.3472C64.9458 92.8686 63.6849 90.5403 62.1225 88.4345C60.394 85.3806 58.1664 82.6193 55.2244 80.6478C50.904 77.7522 45.1354 76.8308 40.0904 78.0551C35.6256 79.1386 32.2246 82.3082 30.3745 86.4531C28.4568 90.7491 28.0093 95.627 28.3274 100.279Z" fill="#C0C2C4"/>
<path d="M46.4065 114.275C37.6297 114.275 30.5146 107.165 30.5146 98.3947C30.5146 89.6244 37.6297 82.5146 46.4065 82.5146C55.1833 82.5146 62.2983 89.6244 62.2983 98.3947C62.2983 107.165 55.1833 114.275 46.4065 114.275Z" fill="#EBE350"/>
<path d="M46.4068 114.789C55.4533 114.789 62.8135 107.434 62.8135 98.3944C62.8135 89.3547 55.4533 82 46.4068 82C37.3601 82 29.9999 89.3547 29.9999 98.3944C29.9999 107.434 37.3601 114.789 46.4068 114.789ZM46.4068 83.0295C54.8858 83.0295 61.7833 89.9219 61.7833 98.3946C61.7833 106.867 54.8858 113.76 46.4068 113.76C37.9275 113.76 31.0303 106.868 31.0303 98.3946C31.0303 89.9217 37.9275 83.0295 46.4068 83.0295Z" fill="#420900"/>
<path d="M34.6156 98.2178C34.6156 104.725 39.8946 110 46.4065 110C52.9183 110 58.1973 104.725 58.1973 98.2178C58.1973 91.7108 52.9183 86.4358 46.4065 86.4358C39.8946 86.4359 34.6156 91.7109 34.6156 98.2178Z" fill="#003053"/>
<path d="M50.7774 89.3797C50.9164 88.6685 51.2882 88.0454 51.9644 87.7265C52.6943 87.3825 53.5448 87.5151 54.28 87.7535C56.3741 88.4328 58.0402 90.2194 59.0156 92.1305C59.4418 92.9656 59.7757 94.0212 59.8311 95.0579C59.8796 95.5815 59.8607 96.1062 59.743 96.6144C59.5114 97.6176 58.9662 98.7251 57.9051 99.059C56.4167 99.5271 55.1125 98.6445 54.0512 97.6826C52.4803 96.2583 51.4718 94.2337 50.976 92.2008C50.7624 91.3251 50.6037 90.2673 50.7774 89.3797Z" fill="white"/>
<path d="M55.2098 101.781C55.233 101.696 55.2501 101.598 55.2952 101.518C55.3623 101.399 55.4333 101.274 55.5315 101.178C55.5388 101.171 55.5466 101.166 55.5546 101.159C55.6004 101.122 55.7913 100.985 55.8418 100.957C55.8454 100.955 55.8487 100.953 55.8523 100.951C55.9741 100.894 56.1079 100.857 56.2409 100.84C56.2499 100.839 56.2586 100.839 56.2678 100.838C56.3375 100.836 56.5813 100.835 56.6488 100.843C56.6531 100.843 56.6571 100.843 56.6608 100.844C56.8113 100.867 56.96 100.907 57.1032 100.959C57.114 100.962 57.1243 100.967 57.1346 100.972C57.2553 101.027 57.428 101.114 57.5419 101.181C57.5616 101.193 57.5795 101.205 57.5975 101.219C57.9597 101.494 57.9079 101.442 58.1328 101.714C58.1839 101.776 58.2547 101.847 58.3001 101.922C58.3773 102.05 58.4538 102.2 58.5185 102.335C58.524 102.346 58.5298 102.358 58.5347 102.37C58.5387 102.38 58.542 102.391 58.5453 102.401C58.5736 102.488 58.6361 102.715 58.6551 102.803C58.6561 102.808 58.6574 102.813 58.6583 102.818C58.6688 102.875 58.6665 102.945 58.666 103C58.668 103.033 58.6731 103.193 58.6698 103.233C58.6589 103.422 58.5944 103.586 58.4754 103.724C58.4455 103.777 58.4114 103.827 58.3725 103.873C58.2561 103.986 58.1195 104.056 57.9736 104.107C57.939 104.157 57.9021 104.205 57.8741 104.241C57.8489 104.273 57.8213 104.302 57.788 104.326C57.6848 104.437 57.561 104.504 57.4169 104.529C57.2745 104.584 57.1262 104.596 56.9723 104.566C56.8664 104.538 56.7603 104.51 56.6545 104.483C56.4255 104.392 56.2237 104.26 56.0491 104.086C56.021 104.062 55.9952 104.036 55.9706 104.009C55.8589 103.881 55.7501 103.75 55.6459 103.616C55.5935 103.549 55.5465 103.478 55.5061 103.403C55.4381 103.277 55.3605 103.15 55.3046 103.018C55.2971 103 55.2914 102.982 55.2856 102.964C55.2407 102.82 55.1849 102.652 55.1634 102.494C55.1609 102.476 55.1595 102.458 55.1583 102.441C55.151 102.312 55.1468 102.177 55.1505 102.048C55.1531 101.957 55.186 101.868 55.2098 101.781Z" fill="white"/>
<path d="M95.6544 89.0922C95.6544 96.4314 101.609 102.381 108.953 102.381C116.298 102.381 122.252 96.4312 122.252 89.0922C122.252 81.7529 116.298 75.8032 108.953 75.8032C101.609 75.8032 95.6544 81.7529 95.6544 89.0922Z" fill="#EBE350"/>
<path d="M108.953 102.811C116.524 102.811 122.683 96.6566 122.683 89.0917C122.683 81.5269 116.524 75.3723 108.953 75.3723C101.383 75.3723 95.2233 81.5269 95.2233 89.0917C95.2233 96.6566 101.383 102.811 108.953 102.811ZM108.953 76.2338C116.049 76.2338 121.821 82.0014 121.821 89.0919C121.821 96.1822 116.049 101.95 108.953 101.95C101.858 101.95 96.0857 96.1822 96.0857 89.0919C96.0857 82.0014 101.858 76.2338 108.953 76.2338Z" fill="#420900"/>
<path d="M101.977 95.9152C98.1239 92.0647 98.1239 85.822 101.977 81.9716C105.831 78.1211 112.078 78.1211 115.931 81.9716C119.784 85.822 119.784 92.0647 115.931 95.9152C112.078 99.7656 105.831 99.7656 101.977 95.9152Z" fill="#003053"/>
<path d="M112.611 81.5479C112.727 80.9527 113.038 80.4315 113.604 80.1644C114.215 79.8765 114.927 79.9873 115.542 80.1869C117.294 80.7553 118.689 82.2503 119.505 83.8498C119.861 84.5485 120.141 85.4321 120.187 86.2995C120.228 86.7378 120.212 87.1767 120.113 87.602C119.92 88.4413 119.463 89.3684 118.575 89.6479C117.33 90.0396 116.239 89.3009 115.35 88.4958C114.036 87.3042 113.192 85.6097 112.777 83.9085C112.598 83.1758 112.465 82.2909 112.611 81.5479Z" fill="white"/>
<path d="M116.32 91.9261C116.34 91.8551 116.354 91.7726 116.392 91.7061C116.448 91.6065 116.507 91.5018 116.589 91.4215C116.596 91.4156 116.602 91.4107 116.609 91.4053C116.647 91.3742 116.807 91.2595 116.849 91.2367C116.852 91.2351 116.855 91.2331 116.858 91.2317C116.96 91.1837 117.072 91.1522 117.183 91.1382C117.191 91.1372 117.198 91.1374 117.206 91.1371C117.264 91.135 117.468 91.134 117.525 91.1405C117.528 91.1409 117.532 91.1412 117.535 91.1416C117.661 91.161 117.785 91.1947 117.905 91.2376C117.914 91.2408 117.923 91.245 117.931 91.2488C118.032 91.2946 118.177 91.3674 118.272 91.424C118.288 91.4336 118.303 91.4444 118.318 91.4559C118.622 91.6858 118.578 91.6424 118.767 91.8701C118.809 91.9217 118.869 91.981 118.907 92.0441C118.971 92.1512 119.035 92.2768 119.089 92.3893C119.094 92.3991 119.099 92.4087 119.103 92.4189C119.106 92.4275 119.109 92.4362 119.112 92.4449C119.135 92.518 119.188 92.7073 119.203 92.7814C119.205 92.7854 119.205 92.7896 119.206 92.7938C119.215 92.8415 119.213 92.9005 119.213 92.9458C119.214 92.9737 119.219 93.1072 119.216 93.1415C119.207 93.2994 119.153 93.4363 119.053 93.5522C119.028 93.5964 119 93.6379 118.967 93.6766C118.87 93.7713 118.755 93.8302 118.633 93.8728C118.604 93.9146 118.573 93.9543 118.55 93.9849C118.529 94.012 118.506 94.0358 118.478 94.0562C118.391 94.1488 118.288 94.2053 118.167 94.226C118.048 94.2718 117.924 94.282 117.795 94.2564C117.707 94.2333 117.618 94.2102 117.529 94.1871C117.338 94.1115 117.169 94.0009 117.023 93.8554C116.999 93.8348 116.978 93.8139 116.957 93.7903C116.863 93.6836 116.772 93.5736 116.685 93.4617C116.641 93.4055 116.602 93.3466 116.568 93.2839C116.511 93.1784 116.446 93.0718 116.399 92.9613C116.393 92.9465 116.388 92.9311 116.384 92.9159C116.346 92.7957 116.299 92.6554 116.281 92.523C116.279 92.508 116.278 92.4931 116.277 92.4782C116.271 92.3706 116.267 92.2579 116.271 92.1501C116.273 92.0731 116.3 91.999 116.32 91.9261Z" fill="white"/>
<path d="M52.9355 136.062C55.9254 139.748 59.0631 143.15 63.0452 145.789C66.9503 148.376 71.2992 150.299 75.8838 151.286C80.6352 152.31 85.6823 152.451 90.4094 151.225C95.1285 150.001 98.9526 147.166 101.908 143.334C103.466 141.312 104.743 139.057 105.816 136.744C106.953 134.291 108.026 131.706 108.706 129.087C108.754 128.902 109.034 129.047 108.997 129.199C107.811 134.028 106.697 138.76 104.106 143.079C101.54 147.357 97.8282 150.75 93.0891 152.439C83.6068 155.819 72.2995 153.389 63.9116 148.237C59.2509 145.375 54.6934 141.342 52.0992 136.455C51.7215 135.743 52.5142 135.543 52.9355 136.062Z" fill="#1E6A30"/>
</svg>
