<svg width="229" height="54" viewBox="0 0 229 54" fill="none" xmlns="http://www.w3.org/2000/svg">
<path d="M59.0637 21.0574C57.869 31.2342 28.6831 50.4998 28.6831 50.4998C28.6831 50.4998 6.74427 25.3571 8.37193 15.1804C9.99959 5.00365 17.3348 1.8435 23.905 2.609C30.4753 3.3745 33.9734 10.8806 33.9734 10.8806C33.9734 10.8806 37.732 4.51458 47.2031 5.60239C56.6742 6.69019 60.2585 10.8806 59.0637 21.0574Z" stroke="white" stroke-width="5"/>
<rect x="1.5" y="12.8284" width="226" height="31" rx="2.5" fill="#FEBD27" stroke="white" stroke-width="3"/>
<path d="M56.9571 21.3511C55.8794 30.0437 29.555 46.4998 29.555 46.4998C29.555 46.4998 9.76697 25.0238 11.2351 16.3311C12.7031 7.6385 19.3192 4.9392 25.2453 5.59307C31.1714 6.24693 34.3266 12.6584 34.3266 12.6584C34.3266 12.6584 37.7167 7.22075 46.2593 8.14992C54.8018 9.07909 58.0347 12.6584 56.9571 21.3511Z" fill="#EA2F2F" stroke="#FEBD27" stroke-width="3"/>
</svg>
