<svg width="160" height="160" viewBox="0 0 160 160" fill="none" xmlns="http://www.w3.org/2000/svg">
<circle cx="27.5902" cy="47.0918" r="15.4983" transform="rotate(-39.7459 27.5902 47.0918)" fill="#8CC769" stroke="#1E6A30" stroke-width="5" stroke-miterlimit="2.79043"/>
<path d="M30.6297 34.973C35.1738 40.4375 23.241 38.2336 17.8663 42.7031C13.4758 46.354 13.7287 55.8155 13.9518 56.4215C14.1442 56.9443 13.4903 56.0232 12.981 55.0342C12.7408 54.5677 11.3325 52.4692 11.0247 49.1631C10.5897 44.4926 11.3822 42.5544 12.5645 40.0189C13.8531 37.2557 15.5582 35.5178 17.522 33.8848C19.4166 32.3093 22.6089 30.8512 25.6651 30.3928C28.825 29.9188 31.9707 30.3872 33.9662 31.3503C35.516 32.0983 29.3435 33.4263 30.6297 34.973Z" fill="#4C3433"/>
<path d="M44.1189 45.4168C44.1189 45.4168 45.7451 53.417 38.988 59.4387C31.2165 66.3643 22.8012 62.8764 22.6682 62.9453C22.6682 62.9453 23.635 62.9895 24.6297 62.1623C24.9855 61.8664 24.7816 61.1878 25.2489 60.7992C25.8357 60.3113 27.324 60.9396 28.0716 60.3179C28.8592 59.6629 28.9145 57.7511 29.8618 56.9633C30.5077 56.4262 31.5385 56.4172 32.251 55.8247C32.7138 55.4398 33.0673 53.7889 33.556 53.3824C34.9545 52.2195 36.5052 52.7029 37.6879 51.7558C38.2744 51.2862 38.0449 49.6263 38.5701 49.2129C39.1605 48.7482 40.8257 49.1167 41.3314 48.726C41.7956 48.3673 41.6093 47.167 41.9958 46.8731C43.6006 45.6528 44.1189 45.4168 44.1189 45.4168Z" fill="#EBE350"/>
<circle cx="51.0555" cy="26.7583" r="15.4983" transform="rotate(-39.7459 51.0555 26.7583)" fill="#8CC769" stroke="#1E6A30" stroke-width="5" stroke-miterlimit="2.79043"/>
<path d="M54.0955 14.6395C58.6396 20.104 46.7068 17.9001 41.3321 22.3696C36.9416 26.0205 37.1945 35.482 37.4176 36.088C37.61 36.6108 36.9561 35.6897 36.4469 34.7008C36.2066 34.2342 34.7984 32.1358 34.4905 28.8296C34.0556 24.1591 34.848 22.2209 36.0303 19.6854C37.3189 16.9222 39.024 15.1843 40.9878 13.5513C42.8824 11.9758 46.0748 10.5177 49.131 10.0593C52.2908 9.58535 55.4365 10.0537 57.432 11.0168C58.9818 11.7648 52.8093 13.0928 54.0955 14.6395Z" fill="#4C3433"/>
<path d="M67.5847 25.0833C67.5847 25.0833 69.2109 33.0835 62.4538 39.1052C54.6823 46.0308 46.267 42.5429 46.1341 42.6118C46.1341 42.6118 47.1008 42.656 48.0955 41.8288C48.4513 41.5329 48.2475 40.8543 48.7148 40.4657C49.3015 39.9778 50.7898 40.6061 51.5374 39.9844C52.325 39.3294 52.3803 37.4176 53.3277 36.6298C53.9735 36.0927 55.0043 36.0837 55.7168 35.4912C56.1796 35.1064 56.5331 33.4554 57.0218 33.0489C58.4204 31.886 59.9711 32.3694 61.1537 31.4223C61.7402 30.9527 61.5107 29.2928 62.0359 28.8794C62.6264 28.4147 64.2916 28.7832 64.7973 28.3925C65.2615 28.0338 65.0751 26.8335 65.4616 26.5396C67.0664 25.3193 67.5847 25.0833 67.5847 25.0833Z" fill="#EBE350"/>
<circle cx="79.0873" cy="20.53" r="15.4983" transform="rotate(-8.76258 79.0873 20.53)" fill="#8CC769" stroke="#1E6A30" stroke-width="5" stroke-miterlimit="2.79043"/>
<path d="M87.9316 11.705C89.0143 18.7291 79.9186 10.6968 73.01 11.7616C67.3665 12.6315 62.7126 20.8732 62.5919 21.5076C62.4878 22.0548 62.4013 20.9285 62.4738 19.8185C62.508 19.2949 62.381 16.7709 63.819 13.778C65.8505 9.54997 67.5276 8.29624 69.8464 6.73121C72.3736 5.02557 74.7301 4.41344 77.2543 4.02436C79.6896 3.64898 83.1771 4.04231 86.0333 5.22261C88.9862 6.44292 91.442 8.46385 92.657 10.3168C93.6006 11.7559 87.6252 9.7169 87.9316 11.705Z" fill="#4C3433"/>
<path d="M94.1201 27.6029C94.1201 27.6029 91.3958 35.2988 82.503 36.9828C72.2751 38.9196 66.856 31.5972 66.7066 31.5878C66.7066 31.5878 67.5127 32.1234 68.7912 31.9263C69.2486 31.8558 69.4232 31.1691 70.0238 31.0765C70.778 30.9602 71.7306 32.265 72.6915 32.1169C73.7039 31.9608 74.7356 30.3502 75.9532 30.1625C76.7834 30.0346 77.6718 30.5574 78.5876 30.4163C79.1825 30.3246 80.3355 29.0912 80.9637 28.9943C82.7614 28.7172 83.842 29.93 85.3434 29.7268C86.0879 29.6261 86.7457 28.0849 87.4087 28.0009C88.1542 27.9064 89.3921 29.0796 90.0268 29.0049C90.6094 28.9364 91.0675 27.8114 91.5502 27.7584C93.5542 27.5384 94.1201 27.6029 94.1201 27.6029Z" fill="#EBE350"/>
<circle cx="109.929" cy="25.9677" r="15.4983" transform="rotate(21.2251 109.929 25.9677)" fill="#8CC769" stroke="#1E6A30" stroke-width="5" stroke-miterlimit="2.79043"/>
<path d="M122 22.7447C119.427 29.3696 115.564 17.8664 109.047 15.3357C103.725 13.2685 95.5746 18.0808 95.1529 18.5699C94.7892 18.9919 95.2773 17.9731 95.8949 17.048C96.1862 16.6115 97.3377 14.3619 100.079 12.4884C103.952 9.84172 106.031 9.59407 108.822 9.39754C111.863 9.18336 114.21 9.83098 116.591 10.7556C118.888 11.6477 121.712 13.7315 123.596 16.1813C125.543 18.7142 126.66 21.692 126.787 23.9042C126.885 25.6222 122.728 20.8696 122 22.7447Z" fill="#4C3433"/>
<path d="M119.415 39.6074C119.415 39.6074 113.208 44.9115 104.664 41.9253C94.8376 38.4908 93.8038 29.4401 93.6791 29.3573C93.6791 29.3573 94.1096 30.2241 95.3154 30.6924C95.7468 30.86 96.2413 30.3524 96.8078 30.5724C97.5191 30.8487 97.692 32.4549 98.5983 32.8069C99.5533 33.1778 101.252 32.2984 102.4 32.7444C103.183 33.0485 103.691 33.9454 104.555 34.2809C105.116 34.4988 106.731 34.0068 107.324 34.2369C109.019 34.8954 109.349 36.4859 110.751 37.0604C111.446 37.3453 112.786 36.3392 113.403 36.5978C114.096 36.8886 114.581 38.5234 115.168 38.776C115.707 39.0078 116.666 38.2624 117.111 38.4577C118.957 39.2688 119.415 39.6074 119.415 39.6074Z" fill="#EBE350"/>
<circle cx="130.247" cy="45.7496" r="15.4983" transform="rotate(56.0504 130.247 45.7496)" fill="#8CC769" stroke="#1E6A30" stroke-width="5" stroke-miterlimit="2.79043"/>
<path d="M141.997 49.9975C136.101 53.9665 139.499 42.3172 135.595 36.5186C132.406 31.7819 122.968 31.0779 122.342 31.2387C121.803 31.3774 122.785 30.8198 123.82 30.413C124.309 30.2211 126.539 29.032 129.859 29.0596C134.55 29.0986 136.398 30.0827 138.801 31.5151C141.42 33.0761 142.977 34.948 144.403 37.0667C145.779 39.1107 146.908 42.434 147.055 45.5209C147.207 48.7124 146.424 51.7947 145.264 53.6828C144.363 55.1491 143.665 48.8741 141.997 49.9975Z" fill="#4C3433"/>
<path d="M130.244 62.3633C130.244 62.3633 122.12 63.1732 116.812 55.8425C110.706 47.4113 115.026 39.3913 114.971 39.2521C114.971 39.2521 114.83 40.2094 115.552 41.2825C115.81 41.6664 116.506 41.5321 116.846 42.0363C117.272 42.6693 116.496 44.0865 117.039 44.8931C117.612 45.7428 119.508 45.991 120.196 47.013C120.665 47.7098 120.57 48.7362 121.088 49.5049C121.424 50.0042 123.031 50.5226 123.386 51.0499C124.401 52.5588 123.764 54.0527 124.587 55.325C124.995 55.9559 126.669 55.8952 127.027 56.4594C127.43 57.0938 126.895 58.7133 127.233 59.2559C127.543 59.7539 128.756 59.6897 129.009 60.1039C130.061 61.8237 130.244 62.3633 130.244 62.3633Z" fill="#EBE350"/>
<circle cx="140.779" cy="71.0985" r="15.4983" transform="rotate(86.2128 140.779 71.0985)" fill="#8CC769" stroke="#1E6A30" stroke-width="5" stroke-miterlimit="2.79043"/>
<path d="M148.804 80.6751C141.712 81.1445 150.503 72.7797 150.041 65.8048C149.664 60.1071 141.857 54.756 141.236 54.5807C140.7 54.4295 141.829 54.4411 142.929 54.6096C143.447 54.6891 145.973 54.7814 148.83 56.4736C152.866 58.8641 153.969 60.6436 155.327 63.0895C156.807 65.7551 157.213 68.1558 157.381 70.7042C157.544 73.1629 156.85 76.6031 155.426 79.3461C153.955 82.1821 151.728 84.4533 149.777 85.5031C148.261 86.3183 150.811 80.5423 148.804 80.6751Z" fill="#4C3433"/>
<path d="M132.429 85.4614C132.429 85.4614 124.998 82.08 124.092 73.0746C123.049 62.7173 130.814 57.9537 130.836 57.8056C130.836 57.8056 130.233 58.5622 130.318 59.853C130.349 60.3148 131.018 60.5483 131.058 61.1547C131.109 61.9161 129.726 62.7519 129.79 63.7221C129.858 64.7442 131.373 65.9117 131.454 67.141C131.51 67.9792 130.912 68.8189 130.973 69.7435C131.013 70.3441 132.142 71.5997 132.184 72.234C132.304 74.0489 131.002 75.0202 131.074 76.5336C131.11 77.2841 132.588 78.0731 132.614 78.7409C132.644 79.4917 131.368 80.6232 131.387 81.262C131.405 81.8483 132.486 82.4023 132.497 82.8877C132.542 84.9032 132.429 85.4614 132.429 85.4614Z" fill="#EBE350"/>
<circle cx="133.861" cy="93.9493" r="15.4983" transform="rotate(108.789 133.861 93.9493)" fill="#8CC769" stroke="#1E6A30" stroke-width="5" stroke-miterlimit="2.79043"/>
<path d="M137.594 105.873C130.866 103.584 142.194 99.2349 144.446 92.6172C146.285 87.2113 141.13 79.2731 140.624 78.8726C140.187 78.5272 141.225 78.9715 142.176 79.5492C142.624 79.8217 144.921 80.8766 146.909 83.5358C149.718 87.2926 150.054 89.3594 150.369 92.1392C150.712 95.1688 150.165 97.5412 149.342 99.9591C148.549 102.292 146.587 105.202 144.219 107.188C141.771 109.242 138.844 110.484 136.639 110.704C134.927 110.875 139.498 106.521 137.594 105.873Z" fill="#4C3433"/>
<path d="M120.636 104.006C120.636 104.006 115.073 98.0309 117.694 89.3676C120.707 79.4038 129.706 77.9862 129.783 77.8581C129.783 77.8581 128.936 78.325 128.519 79.5497C128.37 79.9878 128.898 80.4602 128.702 81.0356C128.456 81.758 126.859 81.999 126.546 82.9195C126.216 83.8893 127.167 85.5489 126.77 86.7153C126.499 87.5105 125.625 88.0563 125.326 88.9336C125.133 89.5034 125.693 91.0961 125.488 91.6979C124.902 93.4199 123.327 93.817 122.813 95.2422C122.558 95.9488 123.62 97.2449 123.388 97.8716C123.127 98.5762 121.514 99.1311 121.287 99.7283C121.078 100.277 121.863 101.203 121.687 101.656C120.955 103.534 120.636 104.006 120.636 104.006Z" fill="#EBE350"/>
<circle cx="125.766" cy="118.054" r="15.4983" transform="rotate(121.89 125.766 118.054)" fill="#8CC769" stroke="#1E6A30" stroke-width="5" stroke-miterlimit="2.79043"/>
<path d="M126.699 130.513C120.665 126.758 132.684 125.091 136.377 119.155C139.394 114.307 136.173 105.407 135.77 104.902C135.423 104.467 136.334 105.135 137.129 105.913C137.504 106.28 139.501 107.828 140.835 110.869C142.719 115.165 142.578 117.254 142.255 120.033C141.902 123.061 140.831 125.248 139.482 127.416C138.18 129.508 135.61 131.898 132.854 133.296C130.004 134.741 126.871 135.288 124.674 135.002C122.967 134.781 128.407 131.576 126.699 130.513Z" fill="#4C3433"/>
<path d="M110.606 124.851C110.606 124.851 106.542 117.77 111.058 109.927C116.252 100.905 125.338 101.564 125.442 101.457C125.442 101.457 124.511 101.72 123.827 102.818C123.583 103.211 123.99 103.791 123.669 104.307C123.266 104.955 121.655 104.827 121.142 105.653C120.6 106.523 121.15 108.355 120.499 109.401C120.056 110.114 119.08 110.447 118.591 111.234C118.273 111.745 118.457 113.423 118.122 113.963C117.161 115.507 115.537 115.537 114.713 116.809C114.304 117.439 115.045 118.942 114.676 119.5C114.262 120.127 112.566 120.302 112.209 120.832C111.882 121.319 112.437 122.399 112.162 122.8C111.024 124.464 110.606 124.851 110.606 124.851Z" fill="#EBE350"/>
<circle cx="109.378" cy="134.378" r="15.4983" transform="rotate(139.419 109.378 134.378)" fill="#8CC769" stroke="#1E6A30" stroke-width="5" stroke-miterlimit="2.79043"/>
<path d="M106.516 146.54C101.892 141.142 113.856 143.172 119.165 138.625C123.502 134.91 123.111 125.453 122.879 124.85C122.679 124.331 123.346 125.242 123.87 126.223C124.117 126.686 125.556 128.764 125.912 132.065C126.415 136.729 125.651 138.679 124.505 141.231C123.257 144.013 121.577 145.775 119.638 147.437C117.766 149.04 114.596 150.544 111.546 151.047C108.394 151.567 105.242 151.145 103.232 150.211C101.672 149.485 107.824 148.068 106.516 146.54Z" fill="#4C3433"/>
<path d="M92.8752 136.294C92.8752 136.294 91.1325 128.318 97.8012 122.199C105.471 115.16 113.936 118.525 114.068 118.455C114.068 118.455 113.101 118.424 112.118 119.266C111.767 119.567 111.981 120.243 111.519 120.638C110.939 121.134 109.442 120.528 108.704 121.16C107.926 121.827 107.898 123.739 106.962 124.541C106.325 125.087 105.294 125.111 104.59 125.714C104.133 126.106 103.804 127.761 103.321 128.175C101.939 129.358 100.382 128.897 99.2131 129.862C98.6335 130.34 98.8872 131.996 98.3681 132.417C97.7844 132.89 96.114 132.546 95.6141 132.944C95.1552 133.31 95.359 134.507 94.9768 134.807C93.39 136.05 92.8752 136.294 92.8752 136.294Z" fill="#EBE350"/>
<circle cx="79.0961" cy="139.096" r="15.4983" transform="rotate(176.389 79.0961 139.096)" fill="#8CC769" stroke="#1E6A30" stroke-width="5" stroke-miterlimit="2.79043"/>
<path d="M69.4953 147.092C69.0477 139.999 77.3854 148.815 84.3618 148.375C90.0606 148.015 95.4356 140.225 95.6128 139.604C95.7656 139.068 95.7506 140.198 95.5788 141.297C95.4977 141.815 95.3976 144.34 93.6967 147.192C91.2938 151.221 89.5109 152.319 87.0609 153.669C84.3907 155.141 81.9888 155.539 79.4399 155.7C76.9807 155.855 73.5426 155.15 70.804 153.718C67.9725 152.238 65.7081 150.004 64.6644 148.05C63.8538 146.532 69.622 149.099 69.4953 147.092Z" fill="#4C3433"/>
<path d="M64.7591 130.702C64.7591 130.702 68.1634 123.282 77.1715 122.403C87.532 121.393 92.2717 129.172 92.4197 129.195C92.4197 129.195 91.665 128.589 90.3739 128.671C89.912 128.7 89.6765 129.368 89.07 129.406C88.3084 129.454 87.4768 128.069 86.5065 128.131C85.4841 128.195 84.312 129.707 83.0824 129.784C82.2441 129.837 81.4063 129.237 80.4815 129.295C79.8808 129.333 78.6217 130.458 77.9873 130.498C76.172 130.612 75.2047 129.308 73.691 129.375C72.9405 129.408 72.147 130.884 71.4791 130.909C70.7281 130.936 69.6006 129.656 68.9618 129.673C68.3753 129.689 67.8181 130.769 67.3326 130.778C65.317 130.817 64.7591 130.702 64.7591 130.702Z" fill="#EBE350"/>
<circle cx="47.4507" cy="130.451" r="15.4983" transform="rotate(-135.853 47.4507 130.451)" fill="#8CC769" stroke="#1E6A30" stroke-width="5" stroke-miterlimit="2.79043"/>
<path d="M35.0772 128.718C40.0273 123.618 39.1054 135.718 44.1213 140.586C48.2186 144.564 57.5995 143.306 58.1783 143.019C58.6776 142.772 57.8313 143.521 56.9022 144.132C56.4639 144.421 54.5271 146.044 51.2725 146.702C46.6748 147.631 44.6633 147.05 42.0164 146.144C39.1318 145.156 37.2223 143.646 35.3897 141.867C33.6216 140.151 31.8321 137.132 31.0512 134.142C30.2438 131.05 30.3748 127.872 31.1202 125.786C31.699 124.165 33.6762 130.161 35.0772 128.718Z" fill="#4C3433"/>
<path d="M44.0269 114.194C44.0269 114.194 51.8087 111.726 58.5151 117.804C66.2282 124.794 63.6553 133.533 63.738 133.658C63.738 133.658 63.6791 132.692 62.7508 131.791C62.4187 131.469 61.7657 131.744 61.3296 131.32C60.782 130.789 61.2484 129.242 60.5507 128.565C59.8156 127.851 57.9087 128 57.0246 127.142C56.4219 126.557 56.3033 125.533 55.6383 124.887C55.2064 124.468 53.5272 124.292 53.0711 123.849C51.766 122.582 52.0817 120.989 51.0141 119.914C50.4848 119.381 48.8587 119.786 48.3918 119.307C47.8669 118.77 48.0562 117.075 47.6139 116.613C47.2078 116.19 46.0342 116.503 45.7008 116.15C44.3168 114.684 44.0269 114.194 44.0269 114.194Z" fill="#EBE350"/>
<circle cx="28.1796" cy="107.097" r="15.4983" transform="rotate(-115.648 28.1796 107.097)" fill="#8CC769" stroke="#1E6A30" stroke-width="5" stroke-miterlimit="2.79043"/>
<path d="M17.1664 101.197C23.5731 98.1206 18.5291 109.157 21.5548 115.459C24.0264 120.606 33.2644 122.666 33.9066 122.597C34.4604 122.537 33.4078 122.947 32.3246 123.2C31.8137 123.32 29.4354 124.174 26.1538 123.668C21.518 122.952 19.8312 121.711 17.6601 119.947C15.2939 118.024 14.0237 115.947 12.9182 113.645C11.8517 111.423 11.2151 107.972 11.5149 104.896C11.8248 101.716 13.0453 98.7793 14.4655 97.0784C15.5684 95.7575 15.353 102.068 17.1664 101.197Z" fill="#4C3433"/>
<path d="M30.581 90.6575C30.581 90.6575 38.7365 91.0289 42.9309 99.0492C47.755 108.274 42.3223 115.586 42.3568 115.732C42.3568 115.732 42.6351 114.805 42.0752 113.639C41.8749 113.221 41.167 113.254 40.904 112.706C40.5737 112.018 41.5455 110.728 41.1247 109.851C40.6813 108.928 38.8404 108.408 38.3072 107.298C37.9436 106.54 38.1859 105.538 37.7848 104.703C37.5242 104.16 36.0091 103.415 35.734 102.842C34.9467 101.203 35.7932 99.8165 35.1627 98.4388C34.8501 97.7556 33.1843 97.5739 32.9113 96.9638C32.6044 96.2779 33.3674 94.7527 33.1116 94.167C32.8768 93.6294 31.6673 93.5178 31.4764 93.0714C30.6838 91.2177 30.581 90.6575 30.581 90.6575Z" fill="#EBE350"/>
<circle cx="22.8168" cy="75.6368" r="15.4983" transform="rotate(-71.3099 22.8168 75.6368)" fill="#8CC769" stroke="#1E6A30" stroke-width="5" stroke-miterlimit="2.79043"/>
<path d="M19.0631 63.7196C25.7953 65.9971 14.4742 70.3655 12.2342 76.9871C10.4044 82.3961 15.5725 90.3255 16.0798 90.7251C16.5174 91.0697 15.478 90.6272 14.5265 90.0511C14.0776 89.7794 11.7792 88.7285 9.78633 86.0727C6.97095 82.3208 6.63158 80.2545 6.31182 77.4753C5.96333 74.4463 6.50651 72.073 7.32494 69.6537C8.11455 67.3196 10.0714 64.4061 12.4355 62.4158C14.8797 60.3579 17.8052 59.1104 20.0097 58.8864C21.7217 58.7125 17.1576 63.075 19.0631 63.7196Z" fill="#4C3433"/>
<path d="M36.0239 65.5573C36.0239 65.5573 41.5973 71.5227 38.9919 80.1905C35.9954 90.1595 26.9993 91.5926 26.9221 91.7209C26.9221 91.7209 27.7689 91.2525 28.1835 90.0271C28.3318 89.5887 27.8029 89.1172 27.9976 88.5415C28.2422 87.8186 29.8391 87.5749 30.1507 86.6539C30.479 85.6835 29.5253 84.0255 29.9201 82.8584C30.1893 82.0628 31.0629 81.5155 31.3598 80.6377C31.5527 80.0675 30.9897 78.4758 31.1934 77.8736C31.7763 76.1507 33.3506 75.7508 33.8626 74.3248C34.1164 73.6177 33.052 72.3234 33.2831 71.6964C33.543 70.9913 35.1547 70.4337 35.3811 69.836C35.5888 69.2874 34.8017 68.3622 34.9772 67.9095C35.7058 66.0298 36.0239 65.5573 36.0239 65.5573Z" fill="#EBE350"/>
</svg>
