<svg width="364" height="93" viewBox="0 0 364 93" fill="none" xmlns="http://www.w3.org/2000/svg">
<mask id="path-1-outside-1_311_5" maskUnits="userSpaceOnUse" x="120" y="31" width="124" height="55" fill="black">
<rect fill="white" x="120" y="31" width="124" height="55"/>
<path d="M134.824 63.08H145.704C146.584 63.08 147.224 63.1867 147.624 63.4C148.024 63.5867 148.29 63.8933 148.424 64.32C148.557 64.7467 148.624 65.32 148.624 66.04C148.624 66.7333 148.557 67.2933 148.424 67.72C148.29 68.1467 148.064 68.44 147.744 68.6C147.237 68.8667 146.544 69 145.664 69H131.264C129.397 69 128.304 68.4933 127.984 67.48C127.824 67.0533 127.744 66.3733 127.744 65.44V43.2C127.744 42.5867 127.757 42.1333 127.784 41.84C127.837 41.52 127.97 41.16 128.184 40.76C128.557 40.04 129.597 39.68 131.304 39.68C133.17 39.68 134.277 40.1733 134.624 41.16C134.757 41.6133 134.824 42.3067 134.824 43.24V63.08ZM152.22 58.48C152.22 55.28 153.34 52.64 155.58 50.56C157.82 48.48 160.38 47.44 163.26 47.44C166.14 47.44 168.687 48.48 170.9 50.56C173.114 52.6133 174.22 55.24 174.22 58.44C174.22 60.6533 173.647 62.6267 172.5 64.36C171.354 66.0667 169.954 67.3333 168.3 68.16C166.674 68.96 164.98 69.36 163.22 69.36C161.46 69.36 159.754 68.9333 158.1 68.08C156.447 67.2 155.047 65.92 153.9 64.24C152.78 62.5333 152.22 60.6133 152.22 58.48ZM160.58 61.36C161.434 62 162.3 62.32 163.18 62.32C164.06 62.32 164.94 61.9867 165.82 61.32C166.7 60.6533 167.14 59.6667 167.14 58.36C167.14 57.0533 166.727 56.08 165.9 55.44C165.074 54.8 164.18 54.48 163.22 54.48C162.26 54.48 161.367 54.8133 160.54 55.48C159.714 56.1467 159.3 57.1333 159.3 58.44C159.3 59.72 159.727 60.6933 160.58 61.36ZM191.765 66.36C190.751 67.6933 189.138 68.36 186.925 68.36C184.711 68.36 182.631 67.3467 180.685 65.32C178.765 63.2667 177.805 60.88 177.805 58.16C177.805 55.44 178.778 53.0533 180.725 51C182.671 48.9467 184.805 47.92 187.125 47.92C188.031 47.92 188.858 48.0933 189.605 48.44C190.351 48.76 190.858 49.0667 191.125 49.36C191.418 49.6267 191.645 49.88 191.805 50.12C191.885 49.3733 192.151 48.8133 192.605 48.44C193.085 48.04 193.845 47.84 194.885 47.84C195.925 47.84 196.685 47.92 197.165 48.08C197.645 48.24 197.978 48.52 198.165 48.92C198.378 49.2933 198.498 49.6267 198.525 49.92C198.578 50.2133 198.605 50.6667 198.605 51.28V67.84C198.605 70.9067 197.538 73.3733 195.405 75.24C193.271 77.1333 190.871 78.08 188.205 78.08C186.178 78.08 184.245 77.5867 182.405 76.6C180.565 75.6133 179.645 74.72 179.645 73.92C179.645 72.88 180.045 71.96 180.845 71.16C181.351 70.6 181.738 70.2133 182.005 70C182.298 69.7867 182.631 69.68 183.005 69.68C183.378 69.68 183.765 69.84 184.165 70.16C185.445 71.1467 186.831 71.64 188.325 71.64C189.338 71.64 190.165 71.24 190.805 70.44C191.445 69.64 191.765 68.68 191.765 67.56V66.36ZM184.645 58.2C184.645 59.0533 184.978 59.8267 185.645 60.52C186.338 61.2133 187.165 61.56 188.125 61.56C189.111 61.56 189.925 61.2133 190.565 60.52C191.205 59.8 191.525 59.0267 191.525 58.2C191.525 57.3467 191.218 56.56 190.605 55.84C189.991 55.0933 189.165 54.72 188.125 54.72C187.085 54.72 186.245 55.08 185.605 55.8C184.965 56.52 184.645 57.32 184.645 58.2ZM203.403 51.44C203.403 50.8267 203.416 50.3733 203.443 50.08C203.496 49.76 203.616 49.4 203.803 49C204.176 48.3067 205.216 47.96 206.923 47.96C208.203 47.96 209.11 48.1867 209.643 48.64C210.096 49.0133 210.336 49.5867 210.363 50.36C210.39 50.6267 210.403 51.0133 210.403 51.52V65.52C210.403 66.1333 210.376 66.6 210.323 66.92C210.296 67.2133 210.176 67.56 209.963 67.96C209.616 68.6533 208.59 69 206.883 69C205.203 69 204.176 68.64 203.803 67.92C203.616 67.52 203.496 67.1733 203.443 66.88C203.416 66.5867 203.403 66.12 203.403 65.48V51.44ZM209.963 44.04C209.776 44.4133 209.43 44.68 208.923 44.84C208.416 45 207.736 45.08 206.883 45.08C206.056 45.08 205.39 45 204.883 44.84C204.376 44.68 204.016 44.4 203.803 44C203.616 43.6 203.496 43.2533 203.443 42.96C203.416 42.64 203.403 42.1733 203.403 41.56C203.403 40.9467 203.416 40.4933 203.443 40.2C203.496 39.88 203.616 39.5333 203.803 39.16C204.176 38.44 205.216 38.08 206.923 38.08C208.603 38.08 209.616 38.44 209.963 39.16C210.176 39.56 210.296 39.92 210.323 40.24C210.376 40.5333 210.403 40.9867 210.403 41.6C210.403 42.2133 210.376 42.68 210.323 43C210.296 43.2933 210.176 43.64 209.963 44.04ZM226.918 47.92C229.585 47.92 231.798 48.9467 233.558 51C235.345 53.0267 236.238 55.5067 236.238 58.44V65.48C236.238 66.0933 236.212 66.56 236.158 66.88C236.132 67.1733 236.025 67.5067 235.838 67.88C235.465 68.6 234.425 68.96 232.718 68.96C230.825 68.96 229.732 68.4667 229.438 67.48C229.278 67.0267 229.198 66.3467 229.198 65.44V58.4C229.198 57.3067 228.878 56.4533 228.238 55.84C227.625 55.2267 226.785 54.92 225.718 54.92C224.678 54.92 223.825 55.24 223.158 55.88C222.518 56.52 222.198 57.36 222.198 58.4V65.48C222.198 66.0933 222.172 66.56 222.118 66.88C222.092 67.1733 221.972 67.5067 221.758 67.88C221.412 68.6 220.385 68.96 218.678 68.96C216.998 68.96 215.972 68.6 215.598 67.88C215.412 67.48 215.292 67.1333 215.238 66.84C215.212 66.52 215.198 66.0533 215.198 65.44V51.28C215.198 50.6933 215.212 50.2533 215.238 49.96C215.292 49.64 215.425 49.2933 215.638 48.92C216.012 48.2533 217.038 47.92 218.718 47.92C220.345 47.92 221.345 48.2267 221.718 48.84C221.985 49.2933 222.118 49.84 222.118 50.48C222.225 50.2933 222.465 50.0267 222.838 49.68C223.212 49.3333 223.572 49.0533 223.918 48.84C224.825 48.2267 225.825 47.92 226.918 47.92Z"/>
</mask>
<path d="M134.824 63.08H145.704C146.584 63.08 147.224 63.1867 147.624 63.4C148.024 63.5867 148.29 63.8933 148.424 64.32C148.557 64.7467 148.624 65.32 148.624 66.04C148.624 66.7333 148.557 67.2933 148.424 67.72C148.29 68.1467 148.064 68.44 147.744 68.6C147.237 68.8667 146.544 69 145.664 69H131.264C129.397 69 128.304 68.4933 127.984 67.48C127.824 67.0533 127.744 66.3733 127.744 65.44V43.2C127.744 42.5867 127.757 42.1333 127.784 41.84C127.837 41.52 127.97 41.16 128.184 40.76C128.557 40.04 129.597 39.68 131.304 39.68C133.17 39.68 134.277 40.1733 134.624 41.16C134.757 41.6133 134.824 42.3067 134.824 43.24V63.08ZM152.22 58.48C152.22 55.28 153.34 52.64 155.58 50.56C157.82 48.48 160.38 47.44 163.26 47.44C166.14 47.44 168.687 48.48 170.9 50.56C173.114 52.6133 174.22 55.24 174.22 58.44C174.22 60.6533 173.647 62.6267 172.5 64.36C171.354 66.0667 169.954 67.3333 168.3 68.16C166.674 68.96 164.98 69.36 163.22 69.36C161.46 69.36 159.754 68.9333 158.1 68.08C156.447 67.2 155.047 65.92 153.9 64.24C152.78 62.5333 152.22 60.6133 152.22 58.48ZM160.58 61.36C161.434 62 162.3 62.32 163.18 62.32C164.06 62.32 164.94 61.9867 165.82 61.32C166.7 60.6533 167.14 59.6667 167.14 58.36C167.14 57.0533 166.727 56.08 165.9 55.44C165.074 54.8 164.18 54.48 163.22 54.48C162.26 54.48 161.367 54.8133 160.54 55.48C159.714 56.1467 159.3 57.1333 159.3 58.44C159.3 59.72 159.727 60.6933 160.58 61.36ZM191.765 66.36C190.751 67.6933 189.138 68.36 186.925 68.36C184.711 68.36 182.631 67.3467 180.685 65.32C178.765 63.2667 177.805 60.88 177.805 58.16C177.805 55.44 178.778 53.0533 180.725 51C182.671 48.9467 184.805 47.92 187.125 47.92C188.031 47.92 188.858 48.0933 189.605 48.44C190.351 48.76 190.858 49.0667 191.125 49.36C191.418 49.6267 191.645 49.88 191.805 50.12C191.885 49.3733 192.151 48.8133 192.605 48.44C193.085 48.04 193.845 47.84 194.885 47.84C195.925 47.84 196.685 47.92 197.165 48.08C197.645 48.24 197.978 48.52 198.165 48.92C198.378 49.2933 198.498 49.6267 198.525 49.92C198.578 50.2133 198.605 50.6667 198.605 51.28V67.84C198.605 70.9067 197.538 73.3733 195.405 75.24C193.271 77.1333 190.871 78.08 188.205 78.08C186.178 78.08 184.245 77.5867 182.405 76.6C180.565 75.6133 179.645 74.72 179.645 73.92C179.645 72.88 180.045 71.96 180.845 71.16C181.351 70.6 181.738 70.2133 182.005 70C182.298 69.7867 182.631 69.68 183.005 69.68C183.378 69.68 183.765 69.84 184.165 70.16C185.445 71.1467 186.831 71.64 188.325 71.64C189.338 71.64 190.165 71.24 190.805 70.44C191.445 69.64 191.765 68.68 191.765 67.56V66.36ZM184.645 58.2C184.645 59.0533 184.978 59.8267 185.645 60.52C186.338 61.2133 187.165 61.56 188.125 61.56C189.111 61.56 189.925 61.2133 190.565 60.52C191.205 59.8 191.525 59.0267 191.525 58.2C191.525 57.3467 191.218 56.56 190.605 55.84C189.991 55.0933 189.165 54.72 188.125 54.72C187.085 54.72 186.245 55.08 185.605 55.8C184.965 56.52 184.645 57.32 184.645 58.2ZM203.403 51.44C203.403 50.8267 203.416 50.3733 203.443 50.08C203.496 49.76 203.616 49.4 203.803 49C204.176 48.3067 205.216 47.96 206.923 47.96C208.203 47.96 209.11 48.1867 209.643 48.64C210.096 49.0133 210.336 49.5867 210.363 50.36C210.39 50.6267 210.403 51.0133 210.403 51.52V65.52C210.403 66.1333 210.376 66.6 210.323 66.92C210.296 67.2133 210.176 67.56 209.963 67.96C209.616 68.6533 208.59 69 206.883 69C205.203 69 204.176 68.64 203.803 67.92C203.616 67.52 203.496 67.1733 203.443 66.88C203.416 66.5867 203.403 66.12 203.403 65.48V51.44ZM209.963 44.04C209.776 44.4133 209.43 44.68 208.923 44.84C208.416 45 207.736 45.08 206.883 45.08C206.056 45.08 205.39 45 204.883 44.84C204.376 44.68 204.016 44.4 203.803 44C203.616 43.6 203.496 43.2533 203.443 42.96C203.416 42.64 203.403 42.1733 203.403 41.56C203.403 40.9467 203.416 40.4933 203.443 40.2C203.496 39.88 203.616 39.5333 203.803 39.16C204.176 38.44 205.216 38.08 206.923 38.08C208.603 38.08 209.616 38.44 209.963 39.16C210.176 39.56 210.296 39.92 210.323 40.24C210.376 40.5333 210.403 40.9867 210.403 41.6C210.403 42.2133 210.376 42.68 210.323 43C210.296 43.2933 210.176 43.64 209.963 44.04ZM226.918 47.92C229.585 47.92 231.798 48.9467 233.558 51C235.345 53.0267 236.238 55.5067 236.238 58.44V65.48C236.238 66.0933 236.212 66.56 236.158 66.88C236.132 67.1733 236.025 67.5067 235.838 67.88C235.465 68.6 234.425 68.96 232.718 68.96C230.825 68.96 229.732 68.4667 229.438 67.48C229.278 67.0267 229.198 66.3467 229.198 65.44V58.4C229.198 57.3067 228.878 56.4533 228.238 55.84C227.625 55.2267 226.785 54.92 225.718 54.92C224.678 54.92 223.825 55.24 223.158 55.88C222.518 56.52 222.198 57.36 222.198 58.4V65.48C222.198 66.0933 222.172 66.56 222.118 66.88C222.092 67.1733 221.972 67.5067 221.758 67.88C221.412 68.6 220.385 68.96 218.678 68.96C216.998 68.96 215.972 68.6 215.598 67.88C215.412 67.48 215.292 67.1333 215.238 66.84C215.212 66.52 215.198 66.0533 215.198 65.44V51.28C215.198 50.6933 215.212 50.2533 215.238 49.96C215.292 49.64 215.425 49.2933 215.638 48.92C216.012 48.2533 217.038 47.92 218.718 47.92C220.345 47.92 221.345 48.2267 221.718 48.84C221.985 49.2933 222.118 49.84 222.118 50.48C222.225 50.2933 222.465 50.0267 222.838 49.68C223.212 49.3333 223.572 49.0533 223.918 48.84C224.825 48.2267 225.825 47.92 226.918 47.92Z" fill="#4E9A2E"/>
<path d="M134.824 63.08H127.824V70.08H134.824V63.08ZM147.624 63.4L144.33 69.5765L144.494 69.6643L144.664 69.7433L147.624 63.4ZM148.424 64.32L155.105 62.2321L155.105 62.2321L148.424 64.32ZM148.424 67.72L141.742 65.6321V65.6321L148.424 67.72ZM147.744 68.6L144.613 62.339L144.548 62.3716L144.484 62.4056L147.744 68.6ZM127.984 67.48L134.659 65.3721L134.603 65.1955L134.538 65.0221L127.984 67.48ZM127.784 41.84L120.879 40.6892L120.836 40.9465L120.812 41.2062L127.784 41.84ZM128.184 40.76L134.36 44.0541L134.379 44.0183L134.398 43.9822L128.184 40.76ZM134.624 41.16L141.339 39.1848L141.288 39.0108L141.228 38.8396L134.624 41.16ZM134.824 63.08V70.08H145.704V63.08V56.08H134.824V63.08ZM145.704 63.08V70.08C145.884 70.08 145.86 70.0926 145.693 70.0648C145.602 70.0497 145.438 70.0174 145.22 69.9505C145.005 69.8842 144.693 69.7703 144.33 69.5765L147.624 63.4L150.918 57.2235C148.935 56.1661 146.843 56.08 145.704 56.08V63.08ZM147.624 63.4L144.664 69.7433C144.053 69.4583 143.405 69.0112 142.842 68.3633C142.28 67.717 141.935 67.0245 141.742 66.4079L148.424 64.32L155.105 62.2321C154.393 59.9541 152.793 58.0876 150.584 57.0567L147.624 63.4ZM148.424 64.32L141.742 66.4079C141.693 66.2497 141.664 66.1239 141.647 66.0403C141.63 65.9561 141.623 65.9002 141.621 65.8785C141.616 65.8408 141.624 65.8873 141.624 66.04H148.624H155.624C155.624 64.9881 155.538 63.6185 155.105 62.2321L148.424 64.32ZM148.624 66.04H141.624C141.624 66.1701 141.617 66.2009 141.623 66.1525C141.628 66.1103 141.652 65.9198 141.742 65.6321L148.424 67.72L155.105 69.8079C155.532 68.4406 155.624 67.0968 155.624 66.04H148.624ZM148.424 67.72L141.742 65.6321C142.026 64.7243 142.828 63.2316 144.613 62.339L147.744 68.6L150.874 74.861C153.299 73.6484 154.555 71.569 155.105 69.8079L148.424 67.72ZM147.744 68.6L144.484 62.4056C144.962 62.1538 145.343 62.0603 145.522 62.026C145.702 61.9914 145.763 62 145.664 62V69V76C147.125 76 149.095 75.7993 151.004 74.7944L147.744 68.6ZM145.664 69V62H131.264V69V76H145.664V69ZM131.264 69V62C130.845 62 131.244 61.9247 131.987 62.2688C132.406 62.4631 132.962 62.8055 133.495 63.3784C134.043 63.9674 134.434 64.6598 134.659 65.3721L127.984 67.48L121.309 69.5879C123.142 75.3938 128.935 76 131.264 76V69ZM127.984 67.48L134.538 65.0221C134.642 65.2981 134.694 65.5118 134.72 65.6289C134.746 65.7503 134.755 65.823 134.756 65.8321C134.757 65.8435 134.754 65.8171 134.75 65.7458C134.747 65.6757 134.744 65.575 134.744 65.44H127.744H120.744C120.744 66.521 120.803 68.2674 121.429 69.9379L127.984 67.48ZM127.744 65.44H134.744V43.2H127.744H120.744V65.44H127.744ZM127.744 43.2H134.744C134.744 42.9398 134.747 42.7449 134.751 42.6058C134.755 42.4548 134.76 42.4239 134.755 42.4737L127.784 41.84L120.812 41.2062C120.756 41.8325 120.744 42.55 120.744 43.2H127.744ZM127.784 41.84L134.689 42.9908C134.631 43.3381 134.548 43.5993 134.488 43.7612C134.428 43.9245 134.376 44.0238 134.36 44.0541L128.184 40.76L122.007 37.4659C121.567 38.2907 121.096 39.3877 120.879 40.6892L127.784 41.84ZM128.184 40.76L134.398 43.9822C133.501 45.7113 132.092 46.3716 131.534 46.5649C131.027 46.7401 130.849 46.68 131.304 46.68V39.68V32.68C130.052 32.68 128.5 32.7999 126.954 33.3351C125.356 33.8884 123.239 35.0887 121.969 37.5378L128.184 40.76ZM131.304 39.68V46.68C131.733 46.68 131.38 46.7537 130.684 46.4435C130.291 46.2686 129.754 45.9544 129.227 45.417C128.683 44.8629 128.27 44.1944 128.02 43.4804L134.624 41.16L141.228 38.8396C139.257 33.2308 133.589 32.68 131.304 32.68V39.68ZM134.624 41.16L127.908 43.1352C127.879 43.037 127.859 42.955 127.845 42.8926C127.83 42.8299 127.821 42.7809 127.815 42.7478C127.804 42.6842 127.803 42.6617 127.806 42.69C127.808 42.7167 127.813 42.7756 127.817 42.8716C127.821 42.9669 127.824 43.0887 127.824 43.24H134.824H141.824C141.824 42.1555 141.766 40.6363 141.339 39.1848L134.624 41.16ZM134.824 43.24H127.824V63.08H134.824H141.824V43.24H134.824ZM155.58 50.56L160.343 55.6896V55.6896L155.58 50.56ZM170.9 50.56L166.107 55.661L166.123 55.6764L166.14 55.6918L170.9 50.56ZM172.5 64.36L178.311 68.2638L178.325 68.243L178.338 68.2222L172.5 64.36ZM168.3 68.16L171.39 74.4414L171.41 74.4313L171.431 74.421L168.3 68.16ZM158.1 68.08L154.811 74.2592L154.85 74.28L154.89 74.3003L158.1 68.08ZM153.9 64.24L148.048 68.0806L148.083 68.1337L148.119 68.1862L153.9 64.24ZM160.58 61.36L156.271 66.8762L156.325 66.9186L156.38 66.96L160.58 61.36ZM165.82 61.32L161.593 55.7404V55.7404L165.82 61.32ZM165.9 55.44L161.615 60.9751L161.615 60.9751L165.9 55.44ZM160.54 55.48L156.146 50.0311H156.146L160.54 55.48ZM152.22 58.48H159.22C159.22 57.1237 159.603 56.3767 160.343 55.6896L155.58 50.56L150.817 45.4304C147.077 48.9033 145.22 53.4363 145.22 58.48H152.22ZM155.58 50.56L160.343 55.6896C161.376 54.7309 162.263 54.44 163.26 54.44V47.44V40.44C158.498 40.44 154.265 42.2291 150.817 45.4304L155.58 50.56ZM163.26 47.44V54.44C164.255 54.44 165.113 54.7275 166.107 55.661L170.9 50.56L175.694 45.459C172.261 42.2325 168.026 40.44 163.26 40.44V47.44ZM170.9 50.56L166.14 55.6918C166.832 56.3339 167.22 57.0565 167.22 58.44H174.22H181.22C181.22 53.4235 179.396 48.8928 175.661 45.4282L170.9 50.56ZM174.22 58.44H167.22C167.22 59.3736 167.001 59.9858 166.662 60.4978L172.5 64.36L178.338 68.2222C180.293 65.2676 181.22 61.9331 181.22 58.44H174.22ZM172.5 64.36L166.69 60.4562C166.14 61.2741 165.623 61.6722 165.17 61.899L168.3 68.16L171.431 74.421C174.284 72.9945 176.567 70.8593 178.311 68.2638L172.5 64.36ZM168.3 68.16L165.211 61.8786C164.516 62.2205 163.876 62.36 163.22 62.36V69.36V76.36C166.084 76.36 168.831 75.6995 171.39 74.4414L168.3 68.16ZM163.22 69.36V62.36C162.641 62.36 162.03 62.2308 161.311 61.8597L158.1 68.08L154.89 74.3003C157.477 75.6359 160.279 76.36 163.22 76.36V69.36ZM158.1 68.08L161.389 61.9008C160.819 61.5975 160.247 61.1211 159.682 60.2938L153.9 64.24L148.119 68.1862C149.847 70.7189 152.074 72.8025 154.811 74.2592L158.1 68.08ZM153.9 64.24L159.753 60.3994C159.416 59.8867 159.22 59.3135 159.22 58.48H152.22H145.22C145.22 61.9132 146.144 65.1799 148.048 68.0806L153.9 64.24ZM160.58 61.36L156.38 66.96C158.182 68.3111 160.486 69.32 163.18 69.32V62.32V55.32C163.608 55.32 163.991 55.4012 164.295 55.5133C164.586 55.6209 164.747 55.7349 164.78 55.76L160.58 61.36ZM163.18 62.32V69.32C165.939 69.32 168.265 68.2498 170.047 66.8996L165.82 61.32L161.593 55.7404C161.615 55.7236 162.182 55.32 163.18 55.32V62.32ZM165.82 61.32L170.047 66.8996C173.006 64.658 174.14 61.4047 174.14 58.36H167.14H160.14C160.14 58.2326 160.162 57.8004 160.417 57.229C160.689 56.6204 161.114 56.1032 161.593 55.7404L165.82 61.32ZM167.14 58.36H174.14C174.14 55.4845 173.147 52.1976 170.186 49.9049L165.9 55.44L161.615 60.9751C161.07 60.5532 160.643 59.9884 160.387 59.3861C160.151 58.8293 160.14 58.4318 160.14 58.36H167.14ZM165.9 55.44L170.186 49.9049C168.248 48.4051 165.872 47.48 163.22 47.48V54.48V61.48C162.905 61.48 162.569 61.4245 162.25 61.31C161.937 61.1978 161.725 61.0602 161.615 60.9751L165.9 55.44ZM163.22 54.48V47.48C160.49 47.48 158.077 48.4741 156.146 50.0311L160.54 55.48L164.935 60.9289C164.829 61.0143 164.61 61.1641 164.277 61.2883C163.936 61.4158 163.57 61.48 163.22 61.48V54.48ZM160.54 55.48L156.146 50.0311C153.295 52.3305 152.3 55.5533 152.3 58.44H159.3H166.3C166.3 58.5151 166.289 58.8943 166.067 59.4247C165.828 59.9949 165.433 60.5273 164.935 60.9289L160.54 55.48ZM159.3 58.44H152.3C152.3 61.435 153.401 64.6338 156.271 66.8762L160.58 61.36L164.89 55.8438C165.359 56.2103 165.77 56.7234 166.031 57.3197C166.277 57.8808 166.3 58.3065 166.3 58.44H159.3ZM191.765 66.36H198.765V45.5808L186.192 62.1244L191.765 66.36ZM180.685 65.32L175.572 70.101L175.604 70.1352L175.636 70.1691L180.685 65.32ZM180.725 51L185.805 55.816V55.816L180.725 51ZM189.605 48.44L186.657 54.7891L186.751 54.833L186.847 54.874L189.605 48.44ZM191.125 49.36L185.945 54.0687L186.169 54.3154L186.416 54.5396L191.125 49.36ZM191.805 50.12L185.98 54.0029L196.705 70.09L198.765 50.8657L191.805 50.12ZM192.605 48.44L197.055 53.8435L197.07 53.8306L197.086 53.8175L192.605 48.44ZM197.165 48.08L194.951 54.7208L194.951 54.7208L197.165 48.08ZM198.165 48.92L191.821 51.8802L191.944 52.1421L192.087 52.393L198.165 48.92ZM198.525 49.92L191.553 50.5537L191.582 50.8648L191.638 51.1722L198.525 49.92ZM195.405 75.24L190.795 69.972L190.777 69.9882L190.758 70.0045L195.405 75.24ZM182.405 76.6L179.097 82.769V82.769L182.405 76.6ZM180.845 71.16L185.794 76.1097L185.918 75.9861L186.035 75.8564L180.845 71.16ZM182.005 70L177.887 64.3388L177.757 64.4334L177.632 64.5339L182.005 70ZM184.165 70.16L179.792 75.6261L179.841 75.6655L179.891 75.7041L184.165 70.16ZM190.805 70.44L196.271 74.8129V74.8129L190.805 70.44ZM185.645 60.52L180.599 65.3718L180.646 65.4212L180.695 65.4697L185.645 60.52ZM190.565 60.52L195.708 65.268L195.753 65.2197L195.797 65.1705L190.565 60.52ZM190.605 55.84L185.196 60.2832L185.235 60.3316L185.276 60.3793L190.605 55.84ZM191.765 66.36L186.192 62.1244C186.315 61.9625 186.47 61.8037 186.652 61.6657C186.831 61.5287 186.998 61.4417 187.121 61.3906C187.356 61.2935 187.35 61.36 186.925 61.36V68.36V75.36C190.562 75.36 194.599 74.1999 197.338 70.5956L191.765 66.36ZM186.925 68.36V61.36C186.911 61.36 186.906 61.359 186.898 61.3572C186.889 61.3551 186.848 61.3448 186.77 61.3071C186.611 61.2294 186.254 61.0136 185.733 60.4709L180.685 65.32L175.636 70.1691C178.527 73.1781 182.324 75.36 186.925 75.36V68.36ZM180.685 65.32L185.798 60.539C185.045 59.7344 184.805 59.04 184.805 58.16H177.805H170.805C170.805 62.72 172.484 66.799 175.572 70.101L180.685 65.32ZM177.805 58.16H184.805C184.805 57.3101 185.036 56.6269 185.805 55.816L180.725 51L175.645 46.184C172.52 49.4798 170.805 53.5699 170.805 58.16H177.805ZM180.725 51L185.805 55.816C186.304 55.2892 186.653 55.0778 186.82 54.9976C186.96 54.9304 187.038 54.92 187.125 54.92V47.92V40.92C182.473 40.92 178.602 43.0651 175.645 46.184L180.725 51ZM187.125 47.92V54.92C187.13 54.92 187.08 54.9204 186.988 54.901C186.894 54.8813 186.779 54.8458 186.657 54.7891L189.605 48.44L192.552 42.0909C190.792 41.2736 188.945 40.92 187.125 40.92V47.92ZM189.605 48.44L186.847 54.874C187.023 54.9493 187.026 54.9625 186.92 54.8985C186.862 54.8634 186.744 54.7885 186.589 54.6681C186.437 54.5504 186.205 54.3543 185.945 54.0687L191.125 49.36L196.304 44.6513C194.966 43.1794 193.263 42.3921 192.362 42.006L189.605 48.44ZM191.125 49.36L186.416 54.5396C186.413 54.5369 186.369 54.4967 186.298 54.4176C186.228 54.3397 186.113 54.202 185.98 54.0029L191.805 50.12L197.629 46.2371C197.058 45.381 196.405 44.6996 195.833 44.1804L191.125 49.36ZM191.805 50.12L198.765 50.8657C198.707 51.4099 198.38 52.7524 197.055 53.8435L192.605 48.44L188.155 43.0365C185.923 44.8742 185.063 47.3368 184.845 49.3743L191.805 50.12ZM192.605 48.44L197.086 53.8175C196.363 54.42 195.679 54.664 195.316 54.7595C194.962 54.8527 194.785 54.84 194.885 54.84V47.84V40.84C193.211 40.84 190.462 41.1138 188.123 43.0625L192.605 48.44ZM194.885 47.84V54.84C195.056 54.84 195.194 54.8433 195.301 54.8481C195.41 54.8529 195.474 54.8586 195.502 54.8615C195.532 54.8647 195.501 54.8627 195.422 54.8475C195.381 54.8395 195.321 54.8268 195.245 54.8074C195.169 54.7881 195.069 54.7602 194.951 54.7208L197.165 48.08L199.378 41.4392C197.769 40.9028 196.057 40.84 194.885 40.84V47.84ZM197.165 48.08L194.951 54.7208C194.488 54.5665 193.881 54.2815 193.272 53.7699C192.647 53.2443 192.153 52.5914 191.821 51.8802L198.165 48.92L204.508 45.9598C203.387 43.5574 201.39 42.1097 199.378 41.4392L197.165 48.08ZM198.165 48.92L192.087 52.393C192.034 52.2994 191.931 52.1062 191.828 51.821C191.726 51.5366 191.604 51.1056 191.553 50.5537L198.525 49.92L205.496 49.2863C205.347 47.6429 204.743 46.3232 204.242 45.447L198.165 48.92ZM198.525 49.92L191.638 51.1722C191.625 51.1043 191.617 51.0488 191.611 51.008C191.605 50.967 191.602 50.9357 191.6 50.9157C191.595 50.8776 191.595 50.8673 191.597 50.891C191.598 50.9136 191.6 50.9572 191.602 51.0249C191.604 51.0921 191.605 51.1766 191.605 51.28H198.605H205.605C205.605 50.5893 205.583 49.612 205.412 48.6678L198.525 49.92ZM198.605 51.28H191.605V67.84H198.605H205.605V51.28H198.605ZM198.605 67.84H191.605C191.605 69.0745 191.275 69.5525 190.795 69.972L195.405 75.24L200.014 80.508C203.802 77.1942 205.605 72.7388 205.605 67.84H198.605ZM195.405 75.24L190.758 70.0045C189.809 70.8472 189.033 71.08 188.205 71.08V78.08V85.08C192.709 85.08 196.734 83.4195 200.051 80.4755L195.405 75.24ZM188.205 78.08V71.08C187.368 71.08 186.567 70.8892 185.713 70.431L182.405 76.6L179.097 82.769C181.922 84.2841 184.988 85.08 188.205 85.08V78.08ZM182.405 76.6L185.713 70.431C185.055 70.0783 185.005 69.9677 185.211 70.168C185.331 70.2849 185.655 70.6195 185.968 71.1957C186.297 71.8011 186.645 72.7363 186.645 73.92H179.645H172.645C172.645 77.0859 174.431 79.2148 175.458 80.212C176.584 81.3056 177.914 82.135 179.097 82.769L182.405 76.6ZM179.645 73.92H186.645C186.645 74.3243 186.561 74.7879 186.364 75.2411C186.172 75.6828 185.937 75.9676 185.794 76.1097L180.845 71.16L175.895 66.2103C173.909 68.1959 172.645 70.8511 172.645 73.92H179.645ZM180.845 71.16L186.035 75.8564C186.238 75.6329 186.378 75.4864 186.464 75.3997C186.506 75.3578 186.523 75.3428 186.517 75.3482C186.514 75.351 186.465 75.3959 186.378 75.4661L182.005 70L177.632 64.5339C176.892 65.1255 176.186 65.876 175.654 66.4636L180.845 71.16ZM182.005 70L186.122 75.6612C185.182 76.3449 184.064 76.68 183.005 76.68V69.68V62.68C181.198 62.68 179.414 63.2285 177.887 64.3388L182.005 70ZM183.005 69.68V76.68C181.288 76.68 180.175 75.933 179.792 75.6261L184.165 70.16L188.538 64.6939C187.354 63.747 185.468 62.68 183.005 62.68V69.68ZM184.165 70.16L179.891 75.7041C182.289 77.5521 185.155 78.64 188.325 78.64V71.64V64.64C188.339 64.64 188.368 64.6413 188.407 64.648C188.446 64.6547 188.482 64.6646 188.511 64.6749C188.54 64.6852 188.55 64.6919 188.542 64.687C188.532 64.6817 188.497 64.6614 188.438 64.6159L184.165 70.16ZM188.325 71.64V78.64C191.492 78.64 194.319 77.252 196.271 74.8129L190.805 70.44L185.339 66.0671C185.595 65.7472 186.026 65.3436 186.656 65.0389C187.288 64.7331 187.886 64.64 188.325 64.64V71.64ZM190.805 70.44L196.271 74.8129C197.998 72.6537 198.765 70.1116 198.765 67.56H191.765H184.765C184.765 67.4474 184.782 67.2121 184.884 66.9064C184.988 66.5931 185.149 66.3038 185.339 66.0671L190.805 70.44ZM191.765 67.56H198.765V66.36H191.765H184.765V67.56H191.765ZM184.645 58.2H177.645C177.645 61.0973 178.851 63.5542 180.599 65.3718L185.645 60.52L190.691 55.6682C190.857 55.8417 191.114 56.1636 191.323 56.6492C191.539 57.1495 191.645 57.6868 191.645 58.2H184.645ZM185.645 60.52L180.695 65.4697C182.67 67.4444 185.264 68.56 188.125 68.56V61.56V54.56C188.508 54.56 188.988 54.6335 189.492 54.8446C189.992 55.0545 190.359 55.3348 190.594 55.5703L185.645 60.52ZM188.125 61.56V68.56C190.964 68.56 193.676 67.4692 195.708 65.268L190.565 60.52L185.421 55.772C185.726 55.4414 186.166 55.1008 186.73 54.8605C187.287 54.6233 187.784 54.56 188.125 54.56V61.56ZM190.565 60.52L195.797 65.1705C197.376 63.394 198.525 61.0197 198.525 58.2H191.525H184.525C184.525 57.6833 184.63 57.1747 184.817 56.7235C184.997 56.2878 185.21 56.0071 185.333 55.8694L190.565 60.52ZM191.525 58.2H198.525C198.525 55.4997 197.5 53.1402 195.933 51.3007L190.605 55.84L185.276 60.3793C185.137 60.2156 184.935 59.9285 184.773 59.5125C184.607 59.0866 184.525 58.6337 184.525 58.2H191.525ZM190.605 55.84L196.014 51.3968C193.959 48.8955 191.077 47.72 188.125 47.72V54.72V61.72C187.796 61.72 187.259 61.6576 186.644 61.3796C186.013 61.0949 185.526 60.6854 185.196 60.2832L190.605 55.84ZM188.125 54.72V47.72C185.264 47.72 182.456 48.8061 180.373 51.1495L185.605 55.8L190.837 60.4505C190.511 60.8171 190.049 61.1768 189.472 61.424C188.909 61.6656 188.422 61.72 188.125 61.72V54.72ZM185.605 55.8L180.373 51.1495C178.71 53.0197 177.645 55.4379 177.645 58.2H184.645H191.645C191.645 58.6311 191.562 59.0951 191.384 59.5397C191.21 59.9748 190.991 60.2763 190.837 60.4505L185.605 55.8ZM203.443 50.08L196.538 48.9292L196.495 49.1865L196.472 49.4463L203.443 50.08ZM203.803 49L197.64 45.6813L197.545 45.858L197.46 46.0398L203.803 49ZM209.643 48.64L205.11 53.9736L205.151 54.0089L205.193 54.0435L209.643 48.64ZM210.363 50.36L203.367 50.6012L203.375 50.8294L203.398 51.0565L210.363 50.36ZM210.323 66.92L203.418 65.7692L203.375 66.0265L203.352 66.2862L210.323 66.92ZM209.963 67.96L203.787 64.6659L203.743 64.7471L203.702 64.8295L209.963 67.96ZM203.803 67.92L197.46 70.8802L197.522 71.0126L197.589 71.1422L203.803 67.92ZM203.443 66.88L196.472 67.5137L196.5 67.8249L196.556 68.1322L203.443 66.88ZM209.963 44.04L203.787 40.7459L203.743 40.8271L203.702 40.9095L209.963 44.04ZM208.923 44.84L206.815 38.1649V38.1649L208.923 44.84ZM204.883 44.84L206.991 38.1649V38.1649L204.883 44.84ZM203.803 44L197.46 46.9602L197.539 47.1294L197.627 47.2941L203.803 44ZM203.443 42.96L196.467 43.5413L196.495 43.8789L196.556 44.2122L203.443 42.96ZM203.443 40.2L196.538 39.0492L196.495 39.3065L196.472 39.5662L203.443 40.2ZM203.803 39.16L197.589 35.9378L197.565 35.9835L197.542 36.0295L203.803 39.16ZM209.963 39.16L203.656 42.1967L203.719 42.3268L203.787 42.4541L209.963 39.16ZM210.323 40.24L203.347 40.8213L203.375 41.1589L203.436 41.4922L210.323 40.24ZM210.323 43L203.418 41.8492L203.375 42.1065L203.352 42.3662L210.323 43ZM203.403 51.44H210.403C210.403 51.1798 210.406 50.9849 210.41 50.8458C210.415 50.6948 210.419 50.6639 210.414 50.7137L203.443 50.08L196.472 49.4463C196.415 50.0725 196.403 50.79 196.403 51.44H203.403ZM203.443 50.08L210.348 51.2308C210.305 51.4859 210.251 51.6734 210.214 51.7836C210.177 51.895 210.149 51.9554 210.146 51.9602L203.803 49L197.46 46.0398C197.094 46.823 196.726 47.8044 196.538 48.9292L203.443 50.08ZM203.803 49L209.966 52.3187C209.024 54.0686 207.58 54.6931 207.077 54.8608C206.601 55.0195 206.452 54.96 206.923 54.96V47.96V40.96C205.688 40.96 204.166 41.0739 202.65 41.5792C201.106 42.0936 198.955 43.2381 197.64 45.6813L203.803 49ZM206.923 47.96V54.96C207.185 54.96 207.129 54.9868 206.865 54.921C206.608 54.8567 205.891 54.6377 205.11 53.9736L209.643 48.64L214.177 43.3064C211.685 41.1885 208.644 40.96 206.923 40.96V47.96ZM209.643 48.64L205.193 54.0435C204.49 53.4643 203.999 52.7532 203.706 52.053C203.43 51.3932 203.376 50.8613 203.367 50.6012L210.363 50.36L217.359 50.1188C217.286 48.0137 216.55 45.26 214.093 43.2365L209.643 48.64ZM210.363 50.36L203.398 51.0565C203.391 50.9884 203.394 50.9897 203.397 51.0912C203.4 51.1841 203.403 51.3241 203.403 51.52H210.403H217.403C217.403 50.9464 217.39 50.2825 217.328 49.6635L210.363 50.36ZM210.403 51.52H203.403V65.52H210.403H217.403V51.52H210.403ZM210.403 65.52H203.403C203.403 65.7319 203.398 65.8638 203.395 65.9307C203.393 65.9622 203.392 65.9652 203.394 65.9443C203.396 65.9252 203.403 65.8636 203.418 65.7692L210.323 66.92L217.228 68.0708C217.378 67.1713 217.403 66.2434 217.403 65.52H210.403ZM210.323 66.92L203.352 66.2862C203.401 65.7506 203.516 65.3476 203.598 65.1102C203.682 64.8685 203.76 64.7167 203.787 64.6659L209.963 67.96L216.14 71.2541C216.58 70.4282 217.15 69.1419 217.294 67.5538L210.323 66.92ZM209.963 67.96L203.702 64.8295C204.637 62.9594 206.163 62.287 206.694 62.1079C207.194 61.9391 207.36 62 206.883 62V69V76C208.113 76 209.646 75.8876 211.173 75.3721C212.73 74.8464 214.942 73.6539 216.224 71.0905L209.963 67.96ZM206.883 69V62C206.451 62 206.648 61.9415 207.169 62.1243C207.752 62.3286 209.136 62.9974 210.017 64.6978L203.803 67.92L197.589 71.1422C198.844 73.5626 200.928 74.7714 202.537 75.3357C204.085 75.8785 205.636 76 206.883 76V69ZM203.803 67.92L210.146 64.9598C210.135 64.9362 210.155 64.9753 210.188 65.0702C210.22 65.1614 210.28 65.3528 210.33 65.6278L203.443 66.88L196.556 68.1322C196.755 69.2249 197.129 70.1704 197.46 70.8802L203.803 67.92ZM203.443 66.88L210.414 66.2463C210.419 66.3019 210.415 66.2716 210.41 66.1101C210.406 65.9626 210.403 65.7558 210.403 65.48H203.403H196.403C196.403 66.146 196.414 66.8825 196.472 67.5137L203.443 66.88ZM203.403 65.48H210.403V51.44H203.403H196.403V65.48H203.403ZM209.963 44.04L203.702 40.9095C204.579 39.155 206.035 38.4112 206.815 38.1649L208.923 44.84L211.031 51.5151C212.824 50.9488 214.974 49.6717 216.224 47.1705L209.963 44.04ZM208.923 44.84L206.815 38.1649C206.955 38.1208 207.061 38.0965 207.123 38.0839C207.186 38.0712 207.218 38.0676 207.215 38.0679C207.213 38.0683 207.184 38.0715 207.126 38.0745C207.068 38.0775 206.988 38.08 206.883 38.08V45.08V52.08C208.074 52.08 209.557 51.9804 211.031 51.5151L208.923 44.84ZM206.883 45.08V38.08C206.789 38.08 206.717 38.0777 206.668 38.075C206.618 38.0723 206.595 38.0696 206.597 38.0699C206.599 38.0701 206.633 38.0742 206.696 38.087C206.758 38.0997 206.859 38.1233 206.991 38.1649L204.883 44.84L202.775 51.5151C204.233 51.9753 205.692 52.08 206.883 52.08V45.08ZM204.883 44.84L206.991 38.1649C207.402 38.2946 207.956 38.5378 208.531 38.9845C209.122 39.4444 209.621 40.033 209.98 40.7059L203.803 44L197.627 47.2941C198.849 49.5859 200.845 50.9056 202.775 51.5151L204.883 44.84ZM203.803 44L210.146 41.0398C210.135 41.0162 210.155 41.0553 210.188 41.1502C210.22 41.2414 210.28 41.4328 210.33 41.7078L203.443 42.96L196.556 44.2122C196.755 45.3049 197.129 46.2504 197.46 46.9602L203.803 44ZM203.443 42.96L210.419 42.3787C210.42 42.3882 210.415 42.3276 210.41 42.1701C210.406 42.0202 210.403 41.8193 210.403 41.56H203.403H196.403C196.403 42.2269 196.416 42.9258 196.467 43.5413L203.443 42.96ZM203.403 41.56H210.403C210.403 41.2998 210.406 41.1049 210.41 40.9658C210.415 40.8148 210.419 40.7839 210.414 40.8337L203.443 40.2L196.472 39.5662C196.415 40.1925 196.403 40.91 196.403 41.56H203.403ZM203.443 40.2L210.348 41.3508C210.259 41.8835 210.105 42.2088 210.064 42.2905L203.803 39.16L197.542 36.0295C197.128 36.8579 196.734 37.8765 196.538 39.0492L203.443 40.2ZM203.803 39.16L210.017 42.3822C209.121 44.1113 207.711 44.7716 207.153 44.9649C206.647 45.1401 206.469 45.08 206.923 45.08V38.08V31.08C205.671 31.08 204.119 31.1999 202.573 31.7351C200.975 32.2884 198.859 33.4887 197.589 35.9378L203.803 39.16ZM206.923 38.08V45.08C207.362 45.08 207.146 45.1401 206.6 44.9461C205.986 44.728 204.529 44.0091 203.656 42.1967L209.963 39.16L216.27 36.1233C215.051 33.5909 212.914 32.332 211.286 31.7539C209.727 31.1999 208.164 31.08 206.923 31.08V38.08ZM209.963 39.16L203.787 42.4541C203.723 42.3348 203.425 41.7563 203.347 40.8213L210.323 40.24L217.299 39.6587C217.168 38.0837 216.63 36.7852 216.14 35.8659L209.963 39.16ZM210.323 40.24L203.436 41.4922C203.424 41.4243 203.415 41.3688 203.409 41.328C203.404 41.287 203.4 41.2557 203.398 41.2357C203.394 41.1976 203.394 41.1873 203.395 41.2111C203.397 41.2336 203.399 41.2772 203.4 41.3449C203.402 41.4121 203.403 41.4966 203.403 41.6H210.403H217.403C217.403 40.9093 217.382 39.932 217.21 38.9878L210.323 40.24ZM210.403 41.6H203.403C203.403 41.8119 203.398 41.9438 203.395 42.0107C203.393 42.0421 203.392 42.0452 203.394 42.0243C203.396 42.0052 203.403 41.9436 203.418 41.8492L210.323 43L217.228 44.1508C217.378 43.2513 217.403 42.3234 217.403 41.6H210.403ZM210.323 43L203.352 42.3662C203.401 41.8306 203.516 41.4276 203.598 41.1902C203.682 40.9485 203.76 40.7967 203.787 40.7459L209.963 44.04L216.14 47.3341C216.58 46.5082 217.15 45.2219 217.294 43.6338L210.323 43ZM233.558 51L228.244 55.5555L228.275 55.5925L228.308 55.6291L233.558 51ZM236.158 66.88L229.254 65.7292L229.211 65.9865L229.187 66.2463L236.158 66.88ZM235.838 67.88L242.053 71.1022L242.076 71.0565L242.099 71.0105L235.838 67.88ZM229.438 67.48L236.148 65.4852L236.098 65.3164L236.039 65.1503L229.438 67.48ZM228.238 55.84L223.289 60.7897L223.341 60.8424L223.395 60.8939L228.238 55.84ZM223.158 55.88L218.311 50.8303L218.259 50.8798L218.209 50.9303L223.158 55.88ZM222.118 66.88L215.214 65.7292L215.171 65.9865L215.147 66.2463L222.118 66.88ZM221.758 67.88L215.681 64.407L215.558 64.6211L215.451 64.8433L221.758 67.88ZM215.598 67.88L209.255 70.8402L209.317 70.9726L209.384 71.1022L215.598 67.88ZM215.238 66.84L208.263 67.4213L208.291 67.7589L208.351 68.0922L215.238 66.84ZM215.238 49.96L208.334 48.8092L208.291 49.0665L208.267 49.3263L215.238 49.96ZM215.638 48.92L221.716 52.393L221.731 52.3667L221.746 52.3402L215.638 48.92ZM221.718 48.84L227.752 45.2909L227.725 45.2454L227.698 45.2004L221.718 48.84ZM222.118 50.48H215.118V76.839L228.196 53.953L222.118 50.48ZM222.838 49.68L227.602 54.8096V54.8096L222.838 49.68ZM223.918 48.84L227.587 54.8016L227.716 54.7225L227.841 54.638L223.918 48.84ZM226.918 47.92V54.92C227.509 54.92 227.792 55.0284 228.244 55.5555L233.558 51L238.873 46.4445C235.805 42.8649 231.662 40.92 226.918 40.92V47.92ZM233.558 51L228.308 55.6291C228.867 56.2633 229.238 57.0531 229.238 58.44H236.238H243.238C243.238 53.9602 241.824 49.79 238.809 46.3709L233.558 51ZM236.238 58.44H229.238V65.48H236.238H243.238V58.44H236.238ZM236.238 65.48H229.238C229.238 65.6919 229.234 65.8238 229.23 65.8906C229.228 65.9221 229.227 65.9252 229.229 65.9043C229.231 65.8852 229.238 65.8236 229.254 65.7292L236.158 66.88L243.063 68.0308C243.213 67.1313 243.238 66.2034 243.238 65.48H236.238ZM236.158 66.88L229.187 66.2463C229.265 65.3891 229.524 64.8566 229.577 64.7495L235.838 67.88L242.099 71.0105C242.526 70.1568 242.998 68.9576 243.13 67.5137L236.158 66.88ZM235.838 67.88L229.624 64.6578C230.521 62.9287 231.93 62.2684 232.489 62.0751C232.995 61.8999 233.173 61.96 232.718 61.96V68.96V75.96C233.971 75.96 235.522 75.8401 237.068 75.3049C238.667 74.7516 240.783 73.5513 242.053 71.1022L235.838 67.88ZM232.718 68.96V61.96C232.253 61.96 232.627 61.8797 233.357 62.2095C233.774 62.3974 234.355 62.742 234.917 63.3414C235.498 63.9622 235.917 64.706 236.148 65.4852L229.438 67.48L222.729 69.4748C223.553 72.2472 225.538 74.0406 227.599 74.9705C229.424 75.7936 231.291 75.96 232.718 75.96V68.96ZM229.438 67.48L236.039 65.1503C236.119 65.3755 236.161 65.5489 236.182 65.6473C236.203 65.7482 236.21 65.8068 236.21 65.8121C236.211 65.8189 236.208 65.7918 236.205 65.725C236.201 65.6591 236.198 65.5652 236.198 65.44H229.198H222.198C222.198 66.5667 222.273 68.2111 222.838 69.8097L229.438 67.48ZM229.198 65.44H236.198V58.4H229.198H222.198V65.44H229.198ZM229.198 58.4H236.198C236.198 55.8742 235.409 53.0162 233.082 50.7861L228.238 55.84L223.395 60.8939C222.936 60.4537 222.602 59.9254 222.404 59.3979C222.217 58.899 222.198 58.5295 222.198 58.4H229.198ZM228.238 55.84L233.188 50.8903C230.973 48.6752 228.189 47.92 225.718 47.92V54.92V61.92C225.587 61.92 225.229 61.9013 224.748 61.7255C224.24 61.5402 223.726 61.2268 223.289 60.7897L228.238 55.84ZM225.718 54.92V47.92C223.117 47.92 220.448 48.7784 218.311 50.8303L223.158 55.88L228.006 60.9297C227.663 61.2589 227.233 61.5356 226.756 61.7143C226.294 61.8875 225.921 61.92 225.718 61.92V54.92ZM223.158 55.88L218.209 50.9303C216.058 53.081 215.198 55.8036 215.198 58.4H222.198H229.198C229.198 58.5999 229.167 58.9917 228.98 59.482C228.786 59.9908 228.481 60.4568 228.108 60.8298L223.158 55.88ZM222.198 58.4H215.198V65.48H222.198H229.198V58.4H222.198ZM222.198 65.48H215.198C215.198 65.6919 215.194 65.8238 215.19 65.8907C215.188 65.9221 215.187 65.9252 215.189 65.9043C215.191 65.8852 215.198 65.8236 215.214 65.7292L222.118 66.88L229.023 68.0308C229.173 67.1313 229.198 66.2034 229.198 65.48H222.198ZM222.118 66.88L215.147 66.2463C215.197 65.6943 215.32 65.2634 215.422 64.979C215.525 64.6938 215.627 64.5006 215.681 64.407L221.758 67.88L227.836 71.353C228.337 70.4768 228.94 69.1571 229.09 67.5138L222.118 66.88ZM221.758 67.88L215.451 64.8433C216.339 63.0004 217.824 62.2907 218.412 62.0843C218.942 61.8984 219.139 61.96 218.678 61.96V68.96V75.96C219.925 75.96 221.488 75.8416 223.045 75.2957C224.66 74.7293 226.831 73.4796 228.065 70.9167L221.758 67.88ZM218.678 68.96V61.96C218.246 61.96 218.443 61.9015 218.965 62.0843C219.547 62.2886 220.931 62.9574 221.813 64.6578L215.598 67.88L209.384 71.1022C210.639 73.5226 212.723 74.7314 214.332 75.2957C215.88 75.8385 217.431 75.96 218.678 75.96V68.96ZM215.598 67.88L221.942 64.9198C221.931 64.8962 221.95 64.9353 221.983 65.0302C222.015 65.1214 222.076 65.3128 222.126 65.5878L215.238 66.84L208.351 68.0922C208.55 69.1849 208.924 70.1304 209.255 70.8402L215.598 67.88ZM215.238 66.84L222.214 66.2587C222.215 66.2682 222.21 66.2076 222.206 66.0501C222.201 65.9002 222.198 65.6993 222.198 65.44H215.198H208.198C208.198 66.1069 208.211 66.8058 208.263 67.4213L215.238 66.84ZM215.198 65.44H222.198V51.28H215.198H208.198V65.44H215.198ZM215.198 51.28H222.198C222.198 51.0357 222.201 50.8526 222.205 50.722C222.209 50.5814 222.214 50.55 222.21 50.5938L215.238 49.96L208.267 49.3263C208.211 49.947 208.198 50.6455 208.198 51.28H215.198ZM215.238 49.96L222.143 51.1108C222.024 51.8253 221.788 52.2677 221.716 52.393L215.638 48.92L209.561 45.447C209.062 46.319 208.559 47.4547 208.334 48.8092L215.238 49.96ZM215.638 48.92L221.746 52.3402C220.772 54.0787 219.321 54.6749 218.85 54.8279C218.39 54.9774 218.252 54.92 218.718 54.92V47.92V40.92C217.505 40.92 216.014 41.0293 214.527 41.5121C213.029 41.9984 210.878 43.0946 209.531 45.4998L215.638 48.92ZM218.718 47.92V54.92C219.177 54.92 219.063 54.9733 218.636 54.8424C218.233 54.7187 216.775 54.1824 215.739 52.4796L221.718 48.84L227.698 45.2004C226.288 42.8843 224.144 41.888 222.741 41.4576C221.314 41.0201 219.887 40.92 218.718 40.92V47.92ZM221.718 48.84L215.685 52.3891C215.195 51.5556 215.118 50.8179 215.118 50.48H222.118H229.118C229.118 48.8621 228.776 47.0311 227.752 45.2909L221.718 48.84ZM222.118 50.48L228.196 53.953C228.027 54.2483 227.873 54.4608 227.784 54.5771C227.69 54.7006 227.616 54.7842 227.581 54.8228C227.517 54.8942 227.51 54.8944 227.602 54.8096L222.838 49.68L218.075 44.5504C217.698 44.9004 216.731 45.7998 216.041 47.007L222.118 50.48ZM222.838 49.68L227.602 54.8096C227.628 54.7847 227.649 54.7665 227.663 54.7541C227.678 54.7417 227.686 54.7358 227.686 54.7355C227.686 54.7351 227.679 54.7411 227.663 54.7522C227.647 54.7633 227.622 54.7803 227.587 54.8016L223.918 48.84L220.25 42.8784C219.429 43.3837 218.705 43.9655 218.075 44.5504L222.838 49.68ZM223.918 48.84L227.841 54.638C227.745 54.7024 227.595 54.7827 227.401 54.8424C227.206 54.9021 227.036 54.92 226.918 54.92V47.92V40.92C224.425 40.92 222.059 41.6463 219.996 43.042L223.918 48.84Z" fill="white" mask="url(#path-1-outside-1_311_5)"/>
<path d="M249.57 47.9909C253.171 43.6307 257.007 39.0963 262.279 37.051C265.529 35.7903 269.082 35.5826 272.568 35.5452C275.426 35.5142 278.302 35.59 281.109 36.1287C287.437 37.3426 294.007 40.8578 299.935 38.3329C296.882 43.4678 292.433 47.6399 287.663 51.2375C284.073 53.9459 280.153 56.4183 275.747 57.3211C266.534 59.2091 257.514 53.9883 249.553 48.9801C249.299 48.8203 249.008 48.5728 249.09 48.284C249.172 47.9953 249.754 48.2653 249.503 48.4292" fill="#8CC769"/>
<path d="M284.674 39.3701C283.447 40.193 282.306 41.1308 281.064 41.9358C279.889 42.697 278.667 43.4206 277.593 44.3227C276.866 44.9327 277.823 46.0666 278.603 45.5991C279.798 44.8834 280.858 43.9055 281.878 42.9643C282.958 41.9669 284.12 41.0127 285.122 39.9364C285.394 39.6426 285.028 39.1328 284.674 39.3701Z" fill="#1E6A30"/>
<path d="M295.098 40.3052C281.068 45.5609 265.859 43.6249 251.523 47.3204C247.767 48.2888 243.689 49.6366 240.661 52.1328C240.17 52.5381 240.72 53.4595 241.31 53.2109C244.633 51.8102 247.778 50.2248 251.275 49.26C254.836 48.278 258.476 47.6713 262.141 47.2394C269.426 46.3811 276.78 46.124 283.997 44.7303C287.955 43.9661 291.797 42.8205 295.4 40.9939C295.781 40.8017 295.502 40.1538 295.098 40.3052Z" fill="#1E6A30"/>
<path d="M277.611 44.9104C278.543 45.7295 279.517 46.5106 280.559 47.1857C281.665 47.9018 282.876 48.4286 283.983 49.1342C285.038 49.8068 285.906 47.8368 284.624 47.523C282.363 46.9695 280.106 45.4187 278.237 44.075C277.752 43.7266 277.166 44.5198 277.611 44.9104Z" fill="#1E6A30"/>
<path d="M277.13 38.4913C274.194 40.5649 271.266 42.6484 268.35 44.7507C267.867 45.0998 267.591 45.9385 268.161 46.3838C271.464 48.967 274.715 51.7396 278.195 54.0819C279.119 54.7039 280.193 53.2563 279.364 52.5212C276.293 49.7966 272.867 47.3961 269.611 44.8971C269.617 45.3864 269.623 45.8758 269.629 46.3651C272.34 44.0036 275.034 41.6258 277.722 39.2374C278.125 38.8784 277.576 38.1762 277.13 38.4913Z" fill="#1E6A30"/>
<path d="M266.182 38.9619C263.269 41.2582 260.365 43.5667 257.467 45.8815C256.96 46.2858 257.235 47.048 257.676 47.3414C261.052 49.5851 263.768 52.2918 266.198 55.5257C266.808 56.3372 268.121 55.6053 267.578 54.6958C265.413 51.0703 262.167 47.9441 258.589 45.7204C258.659 46.207 258.729 46.6937 258.799 47.1803C261.509 44.7538 264.213 42.3212 266.907 39.877C267.394 39.4352 266.71 38.5461 266.182 38.9619Z" fill="#1E6A30"/>
<path d="M248.5 54.6105C252.158 55.1053 255.993 55.6704 258.943 57.889C260.761 59.2566 262.101 61.1552 263.322 63.075C264.324 64.6492 265.272 66.2696 265.94 68.0117C267.447 71.9381 267.761 76.7921 271.203 79.2088C267.304 79.2848 263.458 78.255 259.821 76.8499C257.082 75.792 254.361 74.4705 252.343 72.3385C248.123 67.8805 247.911 61.0807 247.945 54.9418C247.947 54.746 247.984 54.4994 248.172 54.4453C248.36 54.3913 248.411 54.8072 248.234 54.7242" fill="#8CC769"/>
<path d="M265.371 71.1045C264.492 70.7078 263.58 70.3983 262.705 69.9867C261.878 69.5974 261.057 69.1693 260.186 68.8845C259.598 68.6918 259.299 69.6129 259.827 69.8844C260.635 70.3001 261.542 70.5512 262.415 70.7923C263.341 71.0479 264.27 71.3636 265.212 71.5479C265.468 71.598 265.625 71.219 265.371 71.1045Z" fill="#1E6A30"/>
<path d="M268.443 77.2065C260.697 71.2379 256.531 62.1382 249.544 55.4624C247.714 53.7135 245.562 51.9169 243.135 51.0978C242.741 50.9649 242.42 51.5876 242.76 51.8288C244.682 53.189 246.644 54.3863 248.384 55.9933C250.154 57.629 251.745 59.4386 253.246 61.3216C256.232 65.0655 258.907 69.0542 262.166 72.5756C263.953 74.507 265.911 76.2423 268.165 77.611C268.403 77.756 268.666 77.3785 268.443 77.2065Z" fill="#1E6A30"/>
<path d="M259.866 69.0972C259.733 69.8961 259.635 70.7051 259.62 71.5157C259.604 72.3753 259.729 73.2281 259.719 74.0851C259.71 74.9021 261.101 74.7046 260.833 73.8854C260.361 72.4415 260.444 70.6558 260.545 69.1565C260.571 68.7679 259.93 68.7161 259.866 69.0972Z" fill="#1E6A30"/>
<path d="M263.26 66.6192C261.099 65.7055 258.935 64.7996 256.765 63.9073C256.405 63.7593 255.845 63.8955 255.794 64.3646C255.5 67.086 255.082 69.8435 254.982 72.5795C254.956 73.3061 256.128 73.403 256.25 72.6902C256.703 70.0491 256.854 67.3225 257.118 64.6565C256.849 64.8284 256.58 65.0004 256.31 65.1724C258.553 65.8619 260.8 66.5368 263.05 67.2041C263.388 67.3041 263.588 66.7577 263.26 66.6192Z" fill="#1E6A30"/>
<path d="M259.228 60.7111C256.951 59.8866 254.671 59.0719 252.389 58.2622C251.991 58.1208 251.662 58.5355 251.652 58.8813C251.571 61.5258 251.005 63.9642 250.049 66.4253C249.809 67.043 250.668 67.5191 250.985 66.9047C252.249 64.4554 252.865 61.579 252.865 58.8292C252.619 59.0356 252.374 59.2419 252.128 59.4483C254.407 60.1151 256.687 60.7766 258.97 61.4282C259.383 61.546 259.64 60.8605 259.228 60.7111Z" fill="#1E6A30"/>
<path d="M112.923 51.569C109.322 47.2088 105.486 42.6745 100.213 40.6291C96.9638 39.3684 93.4104 39.1607 89.9248 39.1233C87.0663 39.0923 84.1909 39.1682 81.3836 39.7068C75.0561 40.9207 68.4852 44.4359 62.5581 41.9111C65.6109 47.0459 70.0601 51.218 74.8293 54.8156C78.4198 57.524 82.3392 59.9965 86.7452 60.8992C95.9585 62.7872 104.979 57.5664 112.94 52.5582C113.194 52.3985 113.485 52.1509 113.403 51.8622C113.321 51.5734 112.739 51.8434 112.99 52.0073" fill="#8CC769"/>
<path d="M77.8191 42.9482C79.0458 43.7711 80.1865 44.7089 81.429 45.5139C82.604 46.2751 83.8256 46.9987 84.8997 47.9008C85.6263 48.5109 84.6694 49.6447 83.8893 49.1772C82.6949 48.4615 81.6346 47.4836 80.615 46.5424C79.5345 45.5451 78.3722 44.5908 77.3712 43.5146C77.0983 43.2207 77.4652 42.7109 77.8191 42.9482Z" fill="#1E6A30"/>
<path d="M67.3947 43.8833C81.4244 49.139 96.6337 47.203 110.97 50.8985C114.726 51.8669 118.803 53.2147 121.831 55.7109C122.323 56.1162 121.772 57.0377 121.183 56.7891C117.859 55.3883 114.715 53.803 111.217 52.8381C107.657 51.8561 104.017 51.2494 100.352 50.8175C93.0664 49.9592 85.7127 49.7021 78.4957 48.3084C74.5376 47.5442 70.6962 46.3986 67.0929 44.572C66.7119 44.3798 66.9903 43.7319 67.3947 43.8833Z" fill="#1E6A30"/>
<path d="M84.882 48.4886C83.9499 49.3076 82.9761 50.0887 81.9335 50.7638C80.828 51.4799 79.6171 52.0067 78.5098 52.7123C77.4542 53.3849 76.5866 51.415 77.8691 51.1012C80.1295 50.5476 82.3867 48.9968 84.2561 47.6531C84.7404 47.3047 85.3265 48.0979 84.882 48.4886Z" fill="#1E6A30"/>
<path d="M85.3624 42.0694C88.2986 44.143 91.2267 46.2265 94.1422 48.3289C94.6258 48.6779 94.9012 49.5166 94.3319 49.9619C91.0284 52.5451 87.7775 55.3178 84.2979 57.66C83.3738 58.282 82.2999 56.8344 83.1288 56.0993C86.1996 53.3747 89.6259 50.9742 92.8819 48.4752C92.8757 48.9645 92.8695 49.4539 92.8634 49.9433C90.1527 47.5817 87.4583 45.204 84.7711 42.8156C84.3676 42.4565 84.9168 41.7543 85.3624 42.0694Z" fill="#1E6A30"/>
<path d="M96.3107 42.5401C99.2241 44.8363 102.128 47.1448 105.026 49.4596C105.532 49.8639 105.258 50.6262 104.817 50.9196C101.441 53.1632 98.7245 55.87 96.2946 59.1038C95.6847 59.9154 94.3714 59.1834 94.9145 58.2739C97.0797 54.6485 100.325 51.5222 103.903 49.2985C103.833 49.7851 103.764 50.2719 103.694 50.7585C100.984 48.3319 98.2795 45.8993 95.5857 43.4551C95.0989 43.0133 95.7829 42.1242 96.3107 42.5401Z" fill="#1E6A30"/>
<path d="M113.993 58.1884C110.335 58.6832 106.5 59.2483 103.55 61.4669C101.731 62.8345 100.392 64.7331 99.1708 66.6528C98.169 68.2271 97.2207 69.8475 96.5524 71.5895C95.046 75.5159 94.7316 80.37 91.2902 82.7866C95.1887 82.8626 99.0344 81.8328 102.672 80.4277C105.41 79.3699 108.131 78.0484 110.149 75.9164C114.37 71.4584 114.582 64.6586 114.547 58.5197C114.546 58.3239 114.509 58.0772 114.321 58.0232C114.133 57.9692 114.082 58.385 114.259 58.3021" fill="#8CC769"/>
<path d="M97.1214 74.6824C98.0002 74.2857 98.9131 73.9762 99.7874 73.5646C100.614 73.1753 101.436 72.7472 102.306 72.4624C102.895 72.2697 103.194 73.1908 102.666 73.4623C101.858 73.878 100.95 74.129 100.077 74.3702C99.1521 74.6257 98.2227 74.9415 97.2811 75.1258C97.0242 75.1759 96.868 74.7969 97.1214 74.6824Z" fill="#1E6A30"/>
<path d="M94.0496 80.7843C101.796 74.8158 105.961 65.7161 112.948 59.0403C114.779 57.2914 116.931 55.4947 119.358 54.6757C119.752 54.5427 120.073 55.1655 119.732 55.4067C117.811 56.7668 115.849 57.9642 114.109 59.5712C112.338 61.2069 110.748 63.0164 109.246 64.8995C106.261 68.6434 103.585 72.6321 100.327 76.1535C98.5398 78.0849 96.5814 79.8202 94.3275 81.1888C94.0897 81.3339 93.8264 80.9564 94.0496 80.7843Z" fill="#1E6A30"/>
<path d="M102.627 72.6751C102.76 73.474 102.857 74.283 102.873 75.0936C102.889 75.9532 102.764 76.806 102.774 77.663C102.783 78.48 101.392 78.2825 101.66 77.4633C102.131 76.0193 102.049 74.2337 101.948 72.7343C101.921 72.3458 102.563 72.294 102.627 72.6751Z" fill="#1E6A30"/>
<path d="M99.233 70.1971C101.394 69.2834 103.558 68.3775 105.728 67.4851C106.088 67.3372 106.648 67.4734 106.698 67.9425C106.993 70.6639 107.41 73.4214 107.511 76.1574C107.537 76.884 106.365 76.9809 106.242 76.2681C105.79 73.627 105.639 70.9004 105.375 68.2343C105.644 68.4063 105.913 68.5783 106.182 68.7503C103.939 69.4398 101.693 70.1147 99.443 70.782C99.1049 70.882 98.9047 70.3356 99.233 70.1971Z" fill="#1E6A30"/>
<path d="M103.265 64.2889C105.542 63.4645 107.822 62.6497 110.104 61.8401C110.502 61.6987 110.83 62.1134 110.841 62.4591C110.922 65.1037 111.487 67.542 112.443 70.0032C112.683 70.6209 111.825 71.0969 111.508 70.4825C110.243 68.0333 109.628 65.1569 109.628 62.4071C109.873 62.6135 110.119 62.8197 110.365 63.0262C108.086 63.693 105.806 64.3544 103.523 65.0061C103.11 65.1238 102.853 64.4383 103.265 64.2889Z" fill="#1E6A30"/>
<path d="M118.486 48.3974C119.359 44.8108 120.231 41.0333 119.24 37.4775C118.63 35.2857 117.35 33.3466 116.008 31.5095C114.907 30.0027 113.744 28.5289 112.365 27.2715C109.258 24.4374 104.853 22.3751 103.857 18.2894C102.365 21.892 101.922 25.8484 101.905 29.7478C101.891 32.6834 102.13 35.6988 103.379 38.3553C105.992 43.9104 112.246 46.5872 117.976 48.7928C118.158 48.8631 118.401 48.9185 118.52 48.7629C118.639 48.6072 118.271 48.4082 118.283 48.6038" fill="#8CC769"/>
<path d="M109.278 26.6738C109.327 27.6368 109.283 28.5996 109.347 29.5639C109.408 30.4757 109.507 31.3971 109.455 32.3112C109.42 32.9295 108.453 32.8722 108.393 32.2816C108.301 31.3775 108.398 30.441 108.491 29.5401C108.591 28.5854 108.635 27.6049 108.807 26.6609C108.854 26.4034 109.264 26.3961 109.278 26.6738Z" fill="#1E6A30"/>
<path d="M104.716 21.5887C107.45 30.978 114.405 38.1741 118.074 47.114C119.035 49.4562 119.924 52.1149 119.802 54.6735C119.782 55.0889 119.085 55.1609 118.984 54.7556C118.418 52.4706 118.019 50.2071 117.157 48.0012C116.279 45.756 115.174 43.6154 113.968 41.5306C111.57 37.3858 108.831 33.4403 106.74 29.1221C105.593 26.7539 104.691 24.2978 104.238 21.7C104.19 21.4257 104.637 21.3181 104.716 21.5887Z" fill="#1E6A30"/>
<path d="M109.141 32.5315C108.348 32.3641 107.559 32.1601 106.799 31.8787C105.992 31.5805 105.244 31.1532 104.442 30.8499C103.678 30.5608 104.369 29.3374 105.034 29.8854C106.207 30.851 107.9 31.4253 109.333 31.8777C109.704 31.9949 109.518 32.6112 109.141 32.5315Z" fill="#1E6A30"/>
<path d="M112.685 30.275C112.748 32.6205 112.803 34.9656 112.843 37.3114C112.849 37.7007 112.518 38.1724 112.063 38.0487C109.421 37.3307 106.701 36.7142 104.117 35.81C103.431 35.5699 103.768 34.4427 104.476 34.5889C107.101 35.13 109.695 35.9836 112.274 36.7096C112.015 36.8976 111.757 37.0856 111.499 37.2735C111.674 34.9335 111.865 32.5956 112.064 30.2574C112.094 29.9061 112.676 29.9189 112.685 30.275Z" fill="#1E6A30"/>
<path d="M116.716 36.1836C116.654 38.6041 116.582 41.0244 116.504 43.4443C116.49 43.8669 115.984 44.0213 115.658 43.9052C113.166 43.0167 110.69 42.654 108.049 42.647C107.387 42.6452 107.256 41.6725 107.944 41.6012C110.686 41.3167 113.588 41.7923 116.149 42.7943C115.867 42.9478 115.586 43.1016 115.304 43.2552C115.514 40.89 115.729 38.5256 115.955 36.1621C115.995 35.7349 116.728 35.7451 116.716 36.1836Z" fill="#1E6A30"/>
</svg>
