<svg width="327" height="67" viewBox="0 0 327 67" fill="none" xmlns="http://www.w3.org/2000/svg">
<mask id="path-1-outside-1_193_2351" maskUnits="userSpaceOnUse" x="-0.235352" y="4" width="327" height="58" fill="black">
<rect fill="white" x="-0.235352" y="4" width="327" height="58"/>
<path d="M33.0152 15.39C33.3819 14.73 33.9135 14.29 34.6102 14.07C35.3069 13.85 36.1685 13.74 37.1952 13.74C38.2585 13.74 39.1019 13.8317 39.7252 14.015C40.3852 14.1983 40.8619 14.4183 41.1552 14.675C41.4852 14.9317 41.7235 15.3167 41.8702 15.83C42.0902 16.4167 42.2002 17.3517 42.2002 18.635V49.16C42.2002 50.04 42.1635 50.6817 42.0902 51.085C42.0535 51.4883 41.8885 51.965 41.5952 52.515C41.0819 53.505 39.6519 54 37.3052 54C35.8752 54 34.8852 53.89 34.3352 53.67C33.7852 53.45 33.3269 53.1017 32.9602 52.625C24.7102 41.625 19.2835 34.4383 16.6802 31.065V49.16C16.6802 50.04 16.6435 50.6817 16.5702 51.085C16.5335 51.4883 16.3685 51.965 16.0752 52.515C15.5619 53.505 14.1319 54 11.7852 54C9.51187 54 8.11853 53.505 7.6052 52.515C7.31187 51.965 7.12853 51.47 7.0552 51.03C7.01853 50.59 7.0002 49.9483 7.0002 49.105V18.415C7.0002 17.0217 7.1652 16.0133 7.4952 15.39C7.86187 14.73 8.39353 14.29 9.0902 14.07C9.78687 13.85 10.6852 13.74 11.7852 13.74C12.8852 13.74 13.7469 13.85 14.3702 14.07C15.0302 14.2533 15.4885 14.4733 15.7452 14.73C15.8919 14.84 16.3135 15.3167 17.0102 16.16C24.7469 26.6833 29.9169 33.6317 32.5202 37.005V18.415C32.5202 17.0217 32.6852 16.0133 33.0152 15.39ZM64.8452 25.125C68.5118 25.125 71.5552 26.5183 73.9752 29.305C76.4318 32.0917 77.6602 35.5017 77.6602 39.535V49.215C77.6602 50.0583 77.6235 50.7 77.5502 51.14C77.5135 51.5433 77.3485 52.02 77.0552 52.57C76.5785 53.5233 75.1668 54 72.8202 54C70.5835 54 69.1902 53.5233 68.6402 52.57C68.3468 52.02 68.1635 51.525 68.0902 51.085C68.0535 50.645 68.0352 49.985 68.0352 49.105V39.48C68.0352 37.9767 67.6135 36.8033 66.7702 35.96C65.9268 35.1167 64.8452 34.695 63.5252 34.695C62.2418 34.695 61.1052 35.0983 60.1152 35.905C59.1252 36.675 58.5568 37.555 58.4102 38.545V49.215C58.4102 50.0583 58.3735 50.7 58.3002 51.14C58.2635 51.5433 58.0985 52.02 57.8052 52.57C57.3285 53.5233 55.9168 54 53.5702 54C51.2602 54 49.8485 53.505 49.3352 52.515C49.0785 51.965 48.9135 51.4883 48.8402 51.085C48.8035 50.6817 48.7852 50.04 48.7852 49.16V16.27C48.7852 15.4267 48.8035 14.8033 48.8402 14.4C48.9135 13.96 49.0785 13.4833 49.3352 12.97C49.8485 11.98 51.2785 11.485 53.6252 11.485C55.9352 11.485 57.3285 11.98 57.8052 12.97C58.0985 13.52 58.2635 14.015 58.3002 14.455C58.3735 14.8583 58.4102 15.4817 58.4102 16.325V28.48C60.2435 26.2433 62.3885 25.125 64.8452 25.125ZM83.4609 39.535C83.4609 35.135 85.0009 31.505 88.0809 28.645C91.1609 25.785 94.6809 24.355 98.6409 24.355C102.601 24.355 106.103 25.785 109.146 28.645C112.189 31.4683 113.711 35.08 113.711 39.48C113.711 42.5233 112.923 45.2367 111.346 47.62C109.769 49.9667 107.844 51.7083 105.571 52.845C103.334 53.945 101.006 54.495 98.5859 54.495C96.1659 54.495 93.8193 53.9083 91.5459 52.735C89.2726 51.525 87.3476 49.765 85.7709 47.455C84.2309 45.1083 83.4609 42.4683 83.4609 39.535ZM94.9559 43.495C96.1293 44.375 97.3209 44.815 98.5309 44.815C99.7409 44.815 100.951 44.3567 102.161 43.44C103.371 42.5233 103.976 41.1667 103.976 39.37C103.976 37.5733 103.408 36.235 102.271 35.355C101.134 34.475 99.9059 34.035 98.5859 34.035C97.2659 34.035 96.0376 34.4933 94.9009 35.41C93.7643 36.3267 93.1959 37.6833 93.1959 39.48C93.1959 41.24 93.7826 42.5783 94.9559 43.495ZM128.539 39.535C128.539 41.075 129.053 42.285 130.079 43.165C131.106 44.0083 132.188 44.43 133.324 44.43C134.498 44.43 135.579 44.1 136.569 43.44C137.596 42.7433 138.421 42.395 139.044 42.395C140.144 42.395 141.483 43.3667 143.059 45.31C143.903 46.3733 144.324 47.3267 144.324 48.17C144.324 49.5633 143.316 50.865 141.299 52.075C139.209 53.5417 136.643 54.275 133.599 54.275C130.189 54.275 126.908 53.0467 123.754 50.59C122.251 49.4167 121.023 47.8583 120.069 45.915C119.116 43.935 118.639 41.7717 118.639 39.425C118.639 37.0417 119.116 34.8967 120.069 32.99C121.023 31.0467 122.251 29.4883 123.754 28.315C126.798 25.895 130.043 24.685 133.489 24.685C134.883 24.685 136.239 24.8867 137.559 25.29C138.879 25.6567 139.851 26.0233 140.474 26.39L141.354 26.94C142.014 27.38 142.528 27.7283 142.894 27.985C143.848 28.7183 144.324 29.5617 144.324 30.515C144.324 31.4317 143.939 32.4767 143.169 33.65C141.849 35.6667 140.584 36.675 139.374 36.675C138.678 36.675 137.688 36.2717 136.404 35.465C135.744 34.8417 134.791 34.53 133.544 34.53C132.334 34.53 131.198 34.97 130.134 35.85C129.071 36.73 128.539 37.9583 128.539 39.535ZM192.204 15.39C192.57 14.73 193.102 14.29 193.799 14.07C194.495 13.85 195.357 13.74 196.384 13.74C197.447 13.74 198.29 13.8317 198.914 14.015C199.574 14.1983 200.05 14.4183 200.344 14.675C200.674 14.9317 200.912 15.3167 201.059 15.83C201.279 16.4167 201.389 17.3517 201.389 18.635V49.16C201.389 50.04 201.352 50.6817 201.279 51.085C201.242 51.4883 201.077 51.965 200.784 52.515C200.27 53.505 198.84 54 196.494 54C195.064 54 194.074 53.89 193.524 53.67C192.974 53.45 192.515 53.1017 192.149 52.625C183.899 41.625 178.472 34.4383 175.869 31.065V49.16C175.869 50.04 175.832 50.6817 175.759 51.085C175.722 51.4883 175.557 51.965 175.264 52.515C174.75 53.505 173.32 54 170.974 54C168.7 54 167.307 53.505 166.794 52.515C166.5 51.965 166.317 51.47 166.244 51.03C166.207 50.59 166.189 49.9483 166.189 49.105V18.415C166.189 17.0217 166.354 16.0133 166.684 15.39C167.05 14.73 167.582 14.29 168.279 14.07C168.975 13.85 169.874 13.74 170.974 13.74C172.074 13.74 172.935 13.85 173.559 14.07C174.219 14.2533 174.677 14.4733 174.934 14.73C175.08 14.84 175.502 15.3167 176.199 16.16C183.935 26.6833 189.105 33.6317 191.709 37.005V18.415C191.709 17.0217 191.874 16.0133 192.204 15.39ZM224.034 25.125C227.7 25.125 230.744 26.5183 233.164 29.305C235.62 32.0917 236.849 35.5017 236.849 39.535V49.215C236.849 50.0583 236.812 50.7 236.739 51.14C236.702 51.5433 236.537 52.02 236.244 52.57C235.767 53.5233 234.355 54 232.009 54C229.772 54 228.379 53.5233 227.829 52.57C227.535 52.02 227.352 51.525 227.279 51.085C227.242 50.645 227.224 49.985 227.224 49.105V39.48C227.224 37.9767 226.802 36.8033 225.959 35.96C225.115 35.1167 224.034 34.695 222.714 34.695C221.43 34.695 220.294 35.0983 219.304 35.905C218.314 36.675 217.745 37.555 217.599 38.545V49.215C217.599 50.0583 217.562 50.7 217.489 51.14C217.452 51.5433 217.287 52.02 216.994 52.57C216.517 53.5233 215.105 54 212.759 54C210.449 54 209.037 53.505 208.524 52.515C208.267 51.965 208.102 51.4883 208.029 51.085C207.992 50.6817 207.974 50.04 207.974 49.16V16.27C207.974 15.4267 207.992 14.8033 208.029 14.4C208.102 13.96 208.267 13.4833 208.524 12.97C209.037 11.98 210.467 11.485 212.814 11.485C215.124 11.485 216.517 11.98 216.994 12.97C217.287 13.52 217.452 14.015 217.489 14.455C217.562 14.8583 217.599 15.4817 217.599 16.325V28.48C219.432 26.2433 221.577 25.125 224.034 25.125ZM242.649 39.535C242.649 35.135 244.189 31.505 247.269 28.645C250.349 25.785 253.869 24.355 257.829 24.355C261.789 24.355 265.291 25.785 268.334 28.645C271.378 31.4683 272.899 35.08 272.899 39.48C272.899 42.5233 272.111 45.2367 270.534 47.62C268.958 49.9667 267.033 51.7083 264.759 52.845C262.523 53.945 260.194 54.495 257.774 54.495C255.354 54.495 253.008 53.9083 250.734 52.735C248.461 51.525 246.536 49.765 244.959 47.455C243.419 45.1083 242.649 42.4683 242.649 39.535ZM254.144 43.495C255.318 44.375 256.509 44.815 257.719 44.815C258.929 44.815 260.139 44.3567 261.349 43.44C262.559 42.5233 263.164 41.1667 263.164 39.37C263.164 37.5733 262.596 36.235 261.459 35.355C260.323 34.475 259.094 34.035 257.774 34.035C256.454 34.035 255.226 34.4933 254.089 35.41C252.953 36.3267 252.384 37.6833 252.384 39.48C252.384 41.24 252.971 42.5783 254.144 43.495ZM287.728 39.535C287.728 41.075 288.241 42.285 289.268 43.165C290.295 44.0083 291.376 44.43 292.513 44.43C293.686 44.43 294.768 44.1 295.758 43.44C296.785 42.7433 297.61 42.395 298.233 42.395C299.333 42.395 300.671 43.3667 302.248 45.31C303.091 46.3733 303.513 47.3267 303.513 48.17C303.513 49.5633 302.505 50.865 300.488 52.075C298.398 53.5417 295.831 54.275 292.788 54.275C289.378 54.275 286.096 53.0467 282.943 50.59C281.44 49.4167 280.211 47.8583 279.258 45.915C278.305 43.935 277.828 41.7717 277.828 39.425C277.828 37.0417 278.305 34.8967 279.258 32.99C280.211 31.0467 281.44 29.4883 282.943 28.315C285.986 25.895 289.231 24.685 292.678 24.685C294.071 24.685 295.428 24.8867 296.748 25.29C298.068 25.6567 299.04 26.0233 299.663 26.39L300.543 26.94C301.203 27.38 301.716 27.7283 302.083 27.985C303.036 28.7183 303.513 29.5617 303.513 30.515C303.513 31.4317 303.128 32.4767 302.358 33.65C301.038 35.6667 299.773 36.675 298.563 36.675C297.866 36.675 296.876 36.2717 295.593 35.465C294.933 34.8417 293.98 34.53 292.733 34.53C291.523 34.53 290.386 34.97 289.323 35.85C288.26 36.73 287.728 37.9583 287.728 39.535ZM309.816 45.64C310.183 44.9067 310.733 44.4117 311.466 44.155C312.236 43.8983 313.409 43.77 314.986 43.77C316.599 43.77 317.754 44.1183 318.451 44.815C319.184 45.5117 319.551 46.6117 319.551 48.115V48.995C319.551 49.875 319.514 50.535 319.441 50.975C319.404 51.3783 319.239 51.8733 318.946 52.46C318.359 53.5233 316.948 54.055 314.711 54.055C312.511 54.055 311.044 53.7067 310.311 53.01C309.614 52.2767 309.266 50.8833 309.266 48.83C309.266 47.4 309.449 46.3367 309.816 45.64ZM317.186 39.205C316.489 39.3883 315.554 39.48 314.381 39.48C313.208 39.48 312.273 39.3883 311.576 39.205C310.879 39.0217 310.384 38.6917 310.091 38.215C309.834 37.7383 309.669 37.3167 309.596 36.95C309.559 36.5833 309.541 36.015 309.541 35.245V17.81C309.541 17.04 309.559 16.4717 309.596 16.105C309.669 15.7017 309.853 15.2617 310.146 14.785C310.439 14.3083 310.934 13.9783 311.631 13.795C312.328 13.575 313.263 13.465 314.436 13.465C315.609 13.465 316.544 13.575 317.241 13.795C317.938 13.9783 318.414 14.3267 318.671 14.84C318.964 15.3167 319.129 15.7567 319.166 16.16C319.239 16.5267 319.276 17.095 319.276 17.865V35.3C319.276 36.07 319.239 36.6383 319.166 37.005C319.129 37.3717 318.964 37.7933 318.671 38.27C318.378 38.71 317.883 39.0217 317.186 39.205Z"/>
</mask>
<path d="M33.0152 15.39C33.3819 14.73 33.9135 14.29 34.6102 14.07C35.3069 13.85 36.1685 13.74 37.1952 13.74C38.2585 13.74 39.1019 13.8317 39.7252 14.015C40.3852 14.1983 40.8619 14.4183 41.1552 14.675C41.4852 14.9317 41.7235 15.3167 41.8702 15.83C42.0902 16.4167 42.2002 17.3517 42.2002 18.635V49.16C42.2002 50.04 42.1635 50.6817 42.0902 51.085C42.0535 51.4883 41.8885 51.965 41.5952 52.515C41.0819 53.505 39.6519 54 37.3052 54C35.8752 54 34.8852 53.89 34.3352 53.67C33.7852 53.45 33.3269 53.1017 32.9602 52.625C24.7102 41.625 19.2835 34.4383 16.6802 31.065V49.16C16.6802 50.04 16.6435 50.6817 16.5702 51.085C16.5335 51.4883 16.3685 51.965 16.0752 52.515C15.5619 53.505 14.1319 54 11.7852 54C9.51187 54 8.11853 53.505 7.6052 52.515C7.31187 51.965 7.12853 51.47 7.0552 51.03C7.01853 50.59 7.0002 49.9483 7.0002 49.105V18.415C7.0002 17.0217 7.1652 16.0133 7.4952 15.39C7.86187 14.73 8.39353 14.29 9.0902 14.07C9.78687 13.85 10.6852 13.74 11.7852 13.74C12.8852 13.74 13.7469 13.85 14.3702 14.07C15.0302 14.2533 15.4885 14.4733 15.7452 14.73C15.8919 14.84 16.3135 15.3167 17.0102 16.16C24.7469 26.6833 29.9169 33.6317 32.5202 37.005V18.415C32.5202 17.0217 32.6852 16.0133 33.0152 15.39ZM64.8452 25.125C68.5118 25.125 71.5552 26.5183 73.9752 29.305C76.4318 32.0917 77.6602 35.5017 77.6602 39.535V49.215C77.6602 50.0583 77.6235 50.7 77.5502 51.14C77.5135 51.5433 77.3485 52.02 77.0552 52.57C76.5785 53.5233 75.1668 54 72.8202 54C70.5835 54 69.1902 53.5233 68.6402 52.57C68.3468 52.02 68.1635 51.525 68.0902 51.085C68.0535 50.645 68.0352 49.985 68.0352 49.105V39.48C68.0352 37.9767 67.6135 36.8033 66.7702 35.96C65.9268 35.1167 64.8452 34.695 63.5252 34.695C62.2418 34.695 61.1052 35.0983 60.1152 35.905C59.1252 36.675 58.5568 37.555 58.4102 38.545V49.215C58.4102 50.0583 58.3735 50.7 58.3002 51.14C58.2635 51.5433 58.0985 52.02 57.8052 52.57C57.3285 53.5233 55.9168 54 53.5702 54C51.2602 54 49.8485 53.505 49.3352 52.515C49.0785 51.965 48.9135 51.4883 48.8402 51.085C48.8035 50.6817 48.7852 50.04 48.7852 49.16V16.27C48.7852 15.4267 48.8035 14.8033 48.8402 14.4C48.9135 13.96 49.0785 13.4833 49.3352 12.97C49.8485 11.98 51.2785 11.485 53.6252 11.485C55.9352 11.485 57.3285 11.98 57.8052 12.97C58.0985 13.52 58.2635 14.015 58.3002 14.455C58.3735 14.8583 58.4102 15.4817 58.4102 16.325V28.48C60.2435 26.2433 62.3885 25.125 64.8452 25.125ZM83.4609 39.535C83.4609 35.135 85.0009 31.505 88.0809 28.645C91.1609 25.785 94.6809 24.355 98.6409 24.355C102.601 24.355 106.103 25.785 109.146 28.645C112.189 31.4683 113.711 35.08 113.711 39.48C113.711 42.5233 112.923 45.2367 111.346 47.62C109.769 49.9667 107.844 51.7083 105.571 52.845C103.334 53.945 101.006 54.495 98.5859 54.495C96.1659 54.495 93.8193 53.9083 91.5459 52.735C89.2726 51.525 87.3476 49.765 85.7709 47.455C84.2309 45.1083 83.4609 42.4683 83.4609 39.535ZM94.9559 43.495C96.1293 44.375 97.3209 44.815 98.5309 44.815C99.7409 44.815 100.951 44.3567 102.161 43.44C103.371 42.5233 103.976 41.1667 103.976 39.37C103.976 37.5733 103.408 36.235 102.271 35.355C101.134 34.475 99.9059 34.035 98.5859 34.035C97.2659 34.035 96.0376 34.4933 94.9009 35.41C93.7643 36.3267 93.1959 37.6833 93.1959 39.48C93.1959 41.24 93.7826 42.5783 94.9559 43.495ZM128.539 39.535C128.539 41.075 129.053 42.285 130.079 43.165C131.106 44.0083 132.188 44.43 133.324 44.43C134.498 44.43 135.579 44.1 136.569 43.44C137.596 42.7433 138.421 42.395 139.044 42.395C140.144 42.395 141.483 43.3667 143.059 45.31C143.903 46.3733 144.324 47.3267 144.324 48.17C144.324 49.5633 143.316 50.865 141.299 52.075C139.209 53.5417 136.643 54.275 133.599 54.275C130.189 54.275 126.908 53.0467 123.754 50.59C122.251 49.4167 121.023 47.8583 120.069 45.915C119.116 43.935 118.639 41.7717 118.639 39.425C118.639 37.0417 119.116 34.8967 120.069 32.99C121.023 31.0467 122.251 29.4883 123.754 28.315C126.798 25.895 130.043 24.685 133.489 24.685C134.883 24.685 136.239 24.8867 137.559 25.29C138.879 25.6567 139.851 26.0233 140.474 26.39L141.354 26.94C142.014 27.38 142.528 27.7283 142.894 27.985C143.848 28.7183 144.324 29.5617 144.324 30.515C144.324 31.4317 143.939 32.4767 143.169 33.65C141.849 35.6667 140.584 36.675 139.374 36.675C138.678 36.675 137.688 36.2717 136.404 35.465C135.744 34.8417 134.791 34.53 133.544 34.53C132.334 34.53 131.198 34.97 130.134 35.85C129.071 36.73 128.539 37.9583 128.539 39.535ZM192.204 15.39C192.57 14.73 193.102 14.29 193.799 14.07C194.495 13.85 195.357 13.74 196.384 13.74C197.447 13.74 198.29 13.8317 198.914 14.015C199.574 14.1983 200.05 14.4183 200.344 14.675C200.674 14.9317 200.912 15.3167 201.059 15.83C201.279 16.4167 201.389 17.3517 201.389 18.635V49.16C201.389 50.04 201.352 50.6817 201.279 51.085C201.242 51.4883 201.077 51.965 200.784 52.515C200.27 53.505 198.84 54 196.494 54C195.064 54 194.074 53.89 193.524 53.67C192.974 53.45 192.515 53.1017 192.149 52.625C183.899 41.625 178.472 34.4383 175.869 31.065V49.16C175.869 50.04 175.832 50.6817 175.759 51.085C175.722 51.4883 175.557 51.965 175.264 52.515C174.75 53.505 173.32 54 170.974 54C168.7 54 167.307 53.505 166.794 52.515C166.5 51.965 166.317 51.47 166.244 51.03C166.207 50.59 166.189 49.9483 166.189 49.105V18.415C166.189 17.0217 166.354 16.0133 166.684 15.39C167.05 14.73 167.582 14.29 168.279 14.07C168.975 13.85 169.874 13.74 170.974 13.74C172.074 13.74 172.935 13.85 173.559 14.07C174.219 14.2533 174.677 14.4733 174.934 14.73C175.08 14.84 175.502 15.3167 176.199 16.16C183.935 26.6833 189.105 33.6317 191.709 37.005V18.415C191.709 17.0217 191.874 16.0133 192.204 15.39ZM224.034 25.125C227.7 25.125 230.744 26.5183 233.164 29.305C235.62 32.0917 236.849 35.5017 236.849 39.535V49.215C236.849 50.0583 236.812 50.7 236.739 51.14C236.702 51.5433 236.537 52.02 236.244 52.57C235.767 53.5233 234.355 54 232.009 54C229.772 54 228.379 53.5233 227.829 52.57C227.535 52.02 227.352 51.525 227.279 51.085C227.242 50.645 227.224 49.985 227.224 49.105V39.48C227.224 37.9767 226.802 36.8033 225.959 35.96C225.115 35.1167 224.034 34.695 222.714 34.695C221.43 34.695 220.294 35.0983 219.304 35.905C218.314 36.675 217.745 37.555 217.599 38.545V49.215C217.599 50.0583 217.562 50.7 217.489 51.14C217.452 51.5433 217.287 52.02 216.994 52.57C216.517 53.5233 215.105 54 212.759 54C210.449 54 209.037 53.505 208.524 52.515C208.267 51.965 208.102 51.4883 208.029 51.085C207.992 50.6817 207.974 50.04 207.974 49.16V16.27C207.974 15.4267 207.992 14.8033 208.029 14.4C208.102 13.96 208.267 13.4833 208.524 12.97C209.037 11.98 210.467 11.485 212.814 11.485C215.124 11.485 216.517 11.98 216.994 12.97C217.287 13.52 217.452 14.015 217.489 14.455C217.562 14.8583 217.599 15.4817 217.599 16.325V28.48C219.432 26.2433 221.577 25.125 224.034 25.125ZM242.649 39.535C242.649 35.135 244.189 31.505 247.269 28.645C250.349 25.785 253.869 24.355 257.829 24.355C261.789 24.355 265.291 25.785 268.334 28.645C271.378 31.4683 272.899 35.08 272.899 39.48C272.899 42.5233 272.111 45.2367 270.534 47.62C268.958 49.9667 267.033 51.7083 264.759 52.845C262.523 53.945 260.194 54.495 257.774 54.495C255.354 54.495 253.008 53.9083 250.734 52.735C248.461 51.525 246.536 49.765 244.959 47.455C243.419 45.1083 242.649 42.4683 242.649 39.535ZM254.144 43.495C255.318 44.375 256.509 44.815 257.719 44.815C258.929 44.815 260.139 44.3567 261.349 43.44C262.559 42.5233 263.164 41.1667 263.164 39.37C263.164 37.5733 262.596 36.235 261.459 35.355C260.323 34.475 259.094 34.035 257.774 34.035C256.454 34.035 255.226 34.4933 254.089 35.41C252.953 36.3267 252.384 37.6833 252.384 39.48C252.384 41.24 252.971 42.5783 254.144 43.495ZM287.728 39.535C287.728 41.075 288.241 42.285 289.268 43.165C290.295 44.0083 291.376 44.43 292.513 44.43C293.686 44.43 294.768 44.1 295.758 43.44C296.785 42.7433 297.61 42.395 298.233 42.395C299.333 42.395 300.671 43.3667 302.248 45.31C303.091 46.3733 303.513 47.3267 303.513 48.17C303.513 49.5633 302.505 50.865 300.488 52.075C298.398 53.5417 295.831 54.275 292.788 54.275C289.378 54.275 286.096 53.0467 282.943 50.59C281.44 49.4167 280.211 47.8583 279.258 45.915C278.305 43.935 277.828 41.7717 277.828 39.425C277.828 37.0417 278.305 34.8967 279.258 32.99C280.211 31.0467 281.44 29.4883 282.943 28.315C285.986 25.895 289.231 24.685 292.678 24.685C294.071 24.685 295.428 24.8867 296.748 25.29C298.068 25.6567 299.04 26.0233 299.663 26.39L300.543 26.94C301.203 27.38 301.716 27.7283 302.083 27.985C303.036 28.7183 303.513 29.5617 303.513 30.515C303.513 31.4317 303.128 32.4767 302.358 33.65C301.038 35.6667 299.773 36.675 298.563 36.675C297.866 36.675 296.876 36.2717 295.593 35.465C294.933 34.8417 293.98 34.53 292.733 34.53C291.523 34.53 290.386 34.97 289.323 35.85C288.26 36.73 287.728 37.9583 287.728 39.535ZM309.816 45.64C310.183 44.9067 310.733 44.4117 311.466 44.155C312.236 43.8983 313.409 43.77 314.986 43.77C316.599 43.77 317.754 44.1183 318.451 44.815C319.184 45.5117 319.551 46.6117 319.551 48.115V48.995C319.551 49.875 319.514 50.535 319.441 50.975C319.404 51.3783 319.239 51.8733 318.946 52.46C318.359 53.5233 316.948 54.055 314.711 54.055C312.511 54.055 311.044 53.7067 310.311 53.01C309.614 52.2767 309.266 50.8833 309.266 48.83C309.266 47.4 309.449 46.3367 309.816 45.64ZM317.186 39.205C316.489 39.3883 315.554 39.48 314.381 39.48C313.208 39.48 312.273 39.3883 311.576 39.205C310.879 39.0217 310.384 38.6917 310.091 38.215C309.834 37.7383 309.669 37.3167 309.596 36.95C309.559 36.5833 309.541 36.015 309.541 35.245V17.81C309.541 17.04 309.559 16.4717 309.596 16.105C309.669 15.7017 309.853 15.2617 310.146 14.785C310.439 14.3083 310.934 13.9783 311.631 13.795C312.328 13.575 313.263 13.465 314.436 13.465C315.609 13.465 316.544 13.575 317.241 13.795C317.938 13.9783 318.414 14.3267 318.671 14.84C318.964 15.3167 319.129 15.7567 319.166 16.16C319.239 16.5267 319.276 17.095 319.276 17.865V35.3C319.276 36.07 319.239 36.6383 319.166 37.005C319.129 37.3717 318.964 37.7933 318.671 38.27C318.378 38.71 317.883 39.0217 317.186 39.205Z" fill="#4E9A2E"/>
<path d="M33.0152 15.39L26.8961 11.9905L26.8618 12.0523L26.8287 12.1148L33.0152 15.39ZM34.6102 14.07L36.7181 20.7451L36.7181 20.7451L34.6102 14.07ZM39.7252 14.015L37.75 20.7306L37.8008 20.7455L37.8517 20.7596L39.7252 14.015ZM41.1552 14.675L36.5456 19.943L36.6979 20.0762L36.8576 20.2005L41.1552 14.675ZM41.8702 15.83L35.1395 17.7531L35.217 18.024L35.3159 18.2879L41.8702 15.83ZM42.0902 51.085L35.2031 49.8328L35.1472 50.1402L35.1189 50.4513L42.0902 51.085ZM41.5952 52.515L35.4187 49.2209L35.3996 49.2567L35.3809 49.2928L41.5952 52.515ZM34.3352 53.67L31.7355 60.1693L31.7355 60.1693L34.3352 53.67ZM32.9602 52.625L27.3602 56.825L27.3858 56.8591L27.4118 56.893L32.9602 52.625ZM16.6802 31.065L22.2218 26.7883L9.6802 10.5372V31.065H16.6802ZM16.5702 51.085L9.68311 49.8328L9.62723 50.1402L9.59895 50.4512L16.5702 51.085ZM16.0752 52.515L9.89873 49.2209L9.87962 49.2567L9.86092 49.2928L16.0752 52.515ZM7.6052 52.515L13.8195 49.2928L13.8008 49.2567L13.7817 49.2209L7.6052 52.515ZM7.0552 51.03L0.079381 51.6113L0.10323 51.8975L0.150444 52.1808L7.0552 51.03ZM7.4952 15.39L1.3761 11.9905L1.34177 12.0523L1.30869 12.1148L7.4952 15.39ZM9.0902 14.07L11.1981 20.7451L11.1981 20.7451L9.0902 14.07ZM14.3702 14.07L12.0404 20.6709L12.2661 20.7506L12.4967 20.8146L14.3702 14.07ZM15.7452 14.73L10.7955 19.6798L11.1472 20.0315L11.5452 20.33L15.7452 14.73ZM17.0102 16.16L22.65 12.0136L22.5329 11.8543L22.4069 11.7018L17.0102 16.16ZM32.5202 37.005L26.9786 41.2817L39.5202 57.5329V37.005H32.5202ZM33.0152 15.39L39.1343 18.7895C38.9344 19.1494 38.6179 19.5721 38.1519 19.9578C37.6826 20.3462 37.179 20.5995 36.7181 20.7451L34.6102 14.07L32.5023 7.39492C30.0368 8.1735 28.0997 9.82399 26.8961 11.9905L33.0152 15.39ZM34.6102 14.07L36.7181 20.7451C36.6019 20.7818 36.5738 20.7778 36.6654 20.7661C36.7551 20.7547 36.9266 20.74 37.1952 20.74V13.74V6.74C35.7193 6.74 34.095 6.89196 32.5023 7.39492L34.6102 14.07ZM37.1952 13.74V20.74C37.5344 20.74 37.7518 20.755 37.8688 20.7678C37.9951 20.7815 37.9358 20.7852 37.75 20.7306L39.7252 14.015L41.7004 7.29944C40.1592 6.84615 38.5599 6.74 37.1952 6.74V13.74ZM39.7252 14.015L37.8517 20.7596C37.9214 20.779 37.8332 20.7604 37.6443 20.6732C37.4707 20.5931 37.0429 20.3781 36.5456 19.943L41.1552 14.675L45.7648 9.40698C44.2935 8.11964 42.615 7.55267 41.5987 7.27037L39.7252 14.015ZM41.1552 14.675L36.8576 20.2005C35.7258 19.3202 35.2874 18.2706 35.1395 17.7531L41.8702 15.83L48.6009 13.9069C48.1597 12.3627 47.2446 10.5432 45.4528 9.14954L41.1552 14.675ZM41.8702 15.83L35.3159 18.2879C35.2274 18.0519 35.1877 17.8841 35.1736 17.8189C35.1585 17.7493 35.1592 17.7345 35.1656 17.7891C35.1718 17.8415 35.1809 17.9376 35.1882 18.0845C35.1954 18.2302 35.2002 18.4125 35.2002 18.635H42.2002H49.2002C49.2002 17.204 49.1109 15.2026 48.4245 13.3721L41.8702 15.83ZM42.2002 18.635H35.2002V49.16H42.2002H49.2002V18.635H42.2002ZM42.2002 49.16H35.2002C35.2002 49.5116 35.1927 49.7523 35.1841 49.9019C35.18 49.9745 35.1766 50.0065 35.1768 50.005C35.177 50.0033 35.1786 49.9882 35.1823 49.9615C35.1859 49.9352 35.1925 49.8913 35.2031 49.8328L42.0902 51.085L48.9773 52.3372C49.1708 51.2731 49.2002 50.0961 49.2002 49.16H42.2002ZM42.0902 51.085L35.1189 50.4513C35.1626 49.9706 35.2644 49.6276 35.3241 49.4552C35.3852 49.2785 35.4316 49.1967 35.4187 49.2209L41.5952 52.515L47.7717 55.8091C48.2922 54.8332 48.9071 53.4169 49.0615 51.7187L42.0902 51.085ZM41.5952 52.515L35.3809 49.2928C36.2075 47.6987 37.4846 47.1396 37.8479 47.0138C38.159 46.9062 38.0797 47 37.3052 47V54V61C38.8774 61 40.6864 60.8463 42.4275 60.2437C44.2208 59.6229 46.4696 58.3213 47.8095 55.7372L41.5952 52.515ZM37.3052 54V47C37.0354 47 36.8129 46.9948 36.6331 46.9866C36.4515 46.9783 36.3314 46.9679 36.2632 46.9603C36.1909 46.9523 36.2096 46.9511 36.2969 46.9698C36.3433 46.9797 36.4204 46.9977 36.5221 47.0273C36.6228 47.0567 36.7641 47.1023 36.9349 47.1707L34.3352 53.67L31.7355 60.1693C33.6689 60.9427 35.8967 61 37.3052 61V54ZM34.3352 53.67L36.9349 47.1707C37.5686 47.4241 38.1224 47.855 38.5086 48.357L32.9602 52.625L27.4118 56.893C28.5314 58.3484 30.0018 59.4759 31.7355 60.1693L34.3352 53.67ZM32.9602 52.625L38.5602 48.425C30.3166 37.4335 24.86 30.2068 22.2218 26.7883L16.6802 31.065L11.1386 35.3417C13.707 38.6699 19.1038 45.8165 27.3602 56.825L32.9602 52.625ZM16.6802 31.065H9.6802V49.16H16.6802H23.6802V31.065H16.6802ZM16.6802 49.16H9.6802C9.6802 49.5116 9.67265 49.7523 9.6641 49.9019C9.65996 49.9745 9.65663 50.0065 9.65679 50.005C9.65697 50.0033 9.65858 49.9882 9.66228 49.9615C9.66593 49.9352 9.67247 49.8913 9.68311 49.8328L16.5702 51.085L23.4573 52.3372C23.6508 51.2731 23.6802 50.0961 23.6802 49.16H16.6802ZM16.5702 51.085L9.59895 50.4512C9.64265 49.9706 9.74439 49.6276 9.80405 49.4552C9.86524 49.2785 9.91163 49.1967 9.89873 49.2209L16.0752 52.515L22.2517 55.8091C22.7722 54.8332 23.3871 53.4169 23.5415 51.7188L16.5702 51.085ZM16.0752 52.515L9.86092 49.2928C10.6875 47.6987 11.9646 47.1396 12.3279 47.0138C12.639 46.9062 12.5597 47 11.7852 47V54V61C13.3574 61 15.1664 60.8463 16.9075 60.2437C18.7008 59.6229 20.9496 58.3213 22.2895 55.7372L16.0752 52.515ZM11.7852 54V47C11.0649 47 11.0317 46.9094 11.3786 47.0326C11.795 47.1806 13.0229 47.7565 13.8195 49.2928L7.6052 52.515L1.39092 55.7372C2.70084 58.2635 4.88208 59.5819 6.69185 60.2249C8.43199 60.8431 10.2322 61 11.7852 61V54ZM7.6052 52.515L13.7817 49.2209C13.7578 49.1762 13.7765 49.2043 13.8119 49.3C13.8469 49.3945 13.9121 49.5919 13.96 49.8792L7.0552 51.03L0.150444 52.1808C0.387363 53.6023 0.908806 54.8343 1.42873 55.8091L7.6052 52.515ZM7.0552 51.03L14.031 50.4487C14.019 50.3042 14.0002 49.8948 14.0002 49.105H7.0002H0.000201702C0.000201702 50.0019 0.0180893 50.8758 0.079381 51.6113L7.0552 51.03ZM7.0002 49.105H14.0002V18.415H7.0002H0.000201702V49.105H7.0002ZM7.0002 18.415H14.0002C14.0002 18.2025 14.0066 18.04 14.0147 17.922C14.0187 17.8638 14.0229 17.8199 14.0263 17.7893C14.0297 17.7585 14.0321 17.744 14.0321 17.7442C14.0321 17.7442 14.0291 17.7627 14.0212 17.7976C14.0133 17.8323 13.9995 17.8881 13.9772 17.9618C13.9346 18.102 13.8475 18.3521 13.6817 18.6652L7.4952 15.39L1.30869 12.1148C0.139047 14.3241 0.000201702 16.7882 0.000201702 18.415H7.0002ZM7.4952 15.39L13.6143 18.7895C13.4144 19.1494 13.0979 19.5721 12.6319 19.9578C12.1626 20.3462 11.659 20.5995 11.1981 20.7451L9.0902 14.07L6.98229 7.39492C4.51677 8.1735 2.57972 9.82399 1.3761 11.9905L7.4952 15.39ZM9.0902 14.07L11.1981 20.7451C11.0534 20.7908 11.0182 20.7852 11.1372 20.7706C11.2518 20.7566 11.4614 20.74 11.7852 20.74V13.74V6.74C10.2933 6.74 8.6126 6.88008 6.98227 7.39492L9.0902 14.07ZM11.7852 13.74V20.74C11.9447 20.74 12.0732 20.744 12.1736 20.7496C12.2744 20.7553 12.3384 20.7621 12.37 20.7661C12.4023 20.7703 12.3896 20.7701 12.3395 20.7589C12.2902 20.748 12.1861 20.7223 12.0404 20.6709L14.3702 14.07L16.7 7.46907C14.9948 6.86724 13.2245 6.74 11.7852 6.74V13.74ZM14.3702 14.07L12.4967 20.8146C12.5565 20.8312 12.4248 20.8007 12.1798 20.6832C11.9597 20.5775 11.4005 20.2848 10.7955 19.6798L15.7452 14.73L20.6949 9.78024C19.1193 8.20461 17.2027 7.59175 16.2437 7.32537L14.3702 14.07ZM15.7452 14.73L11.5452 20.33C11.398 20.2196 11.2835 20.1241 11.2093 20.0602C11.1321 19.9937 11.071 19.9378 11.0291 19.8986C10.9482 19.8228 10.8952 19.7685 10.8791 19.7518C10.8595 19.7316 10.8542 19.7255 10.8661 19.7385C10.8771 19.7505 10.8975 19.773 10.9285 19.808C10.9916 19.8793 11.0803 19.9817 11.1984 20.1212C11.3153 20.2592 11.4532 20.4242 11.6135 20.6182L17.0102 16.16L22.4069 11.7018C22.0384 11.2558 21.7015 10.8565 21.4144 10.532C21.3354 10.4426 20.7033 9.69858 19.9452 9.13002L15.7452 14.73ZM17.0102 16.16L11.3704 20.3064C19.0982 30.8177 24.3168 37.8327 26.9786 41.2817L32.5202 37.005L38.0618 32.7283C35.5169 29.4307 30.3955 22.549 22.65 12.0136L17.0102 16.16ZM32.5202 37.005H39.5202V18.415H32.5202H25.5202V37.005H32.5202ZM32.5202 18.415H39.5202C39.5202 18.2025 39.5266 18.04 39.5347 17.922C39.5387 17.8638 39.5429 17.8199 39.5463 17.7893C39.5497 17.7585 39.5521 17.744 39.5521 17.7442C39.5521 17.7442 39.5491 17.7627 39.5412 17.7976C39.5333 17.8323 39.5195 17.8881 39.4972 17.9618C39.4547 18.102 39.3675 18.3521 39.2017 18.6652L33.0152 15.39L26.8287 12.1148C25.659 14.3241 25.5202 16.7882 25.5202 18.415H32.5202ZM73.9752 29.305L68.6899 33.8948L68.707 33.9145L68.7243 33.9341L73.9752 29.305ZM77.5502 51.14L70.6454 49.9892L70.6025 50.2465L70.5789 50.5063L77.5502 51.14ZM77.0552 52.57L70.8787 49.2759L70.8354 49.3571L70.7942 49.4395L77.0552 52.57ZM68.6402 52.57L62.4637 55.8641L62.5186 55.967L62.5769 56.0681L68.6402 52.57ZM68.0902 51.085L61.1143 51.6663L61.1382 51.9525L61.1854 52.2358L68.0902 51.085ZM60.1152 35.905L64.4128 41.4305L64.4754 41.3818L64.5369 41.3316L60.1152 35.905ZM58.4102 38.545L51.4857 37.5192L51.4102 38.0293V38.545H58.4102ZM58.3002 51.14L51.3954 49.9892L51.3525 50.2465L51.3289 50.5062L58.3002 51.14ZM57.8052 52.57L51.6287 49.2759L51.5854 49.3571L51.5442 49.4395L57.8052 52.57ZM49.3352 52.515L42.9919 55.4752L43.0536 55.6076L43.1209 55.7372L49.3352 52.515ZM48.8402 51.085L41.8689 51.7188L41.8972 52.0299L41.9531 52.3372L48.8402 51.085ZM48.8402 14.4L41.9354 13.2492L41.8925 13.5065L41.8689 13.7662L48.8402 14.4ZM49.3352 12.97L43.1209 9.74778L43.0972 9.79347L43.0742 9.8395L49.3352 12.97ZM57.8052 12.97L51.4981 16.0067L51.5608 16.1368L51.6287 16.2641L57.8052 12.97ZM58.3002 14.455L51.3243 15.0363L51.3525 15.3739L51.4131 15.7072L58.3002 14.455ZM58.4102 28.48H51.4102V48.0623L63.8239 32.9175L58.4102 28.48ZM64.8452 25.125V32.125C66.4688 32.125 67.5894 32.6275 68.6899 33.8948L73.9752 29.305L79.2604 24.7152C75.521 20.4092 70.5548 18.125 64.8452 18.125V25.125ZM73.9752 29.305L68.7243 33.9341C69.9534 35.3283 70.6602 37.0481 70.6602 39.535H77.6602H84.6602C84.6602 33.9552 82.9102 28.855 79.226 24.6759L73.9752 29.305ZM77.6602 39.535H70.6602V49.215H77.6602H84.6602V39.535H77.6602ZM77.6602 49.215H70.6602C70.6602 49.5419 70.6529 49.7751 70.6441 49.9294C70.6344 50.0978 70.627 50.0999 70.6454 49.9892L77.5502 51.14L84.4549 52.2908C84.6248 51.2713 84.6602 50.1684 84.6602 49.215H77.6602ZM77.5502 51.14L70.5789 50.5063C70.6226 50.0256 70.7243 49.6826 70.784 49.5102C70.8452 49.3335 70.8916 49.2517 70.8787 49.2759L77.0552 52.57L83.2316 55.8641C83.7521 54.8882 84.367 53.4719 84.5214 51.7737L77.5502 51.14ZM77.0552 52.57L70.7942 49.4395C71.6642 47.6994 73.0616 47.1245 73.3995 47.0104C73.707 46.9066 73.6174 47 72.8202 47V54V61C74.3696 61 76.1592 60.8551 77.8783 60.2746C79.6279 59.6839 81.9694 58.3939 83.3162 55.7005L77.0552 52.57ZM72.8202 54V47C72.1154 47 72.0558 46.9141 72.3635 47.0194C72.7212 47.1417 73.882 47.648 74.7035 49.0719L68.6402 52.57L62.5769 56.0681C63.9484 58.4453 66.0808 59.6666 67.8318 60.2656C69.5328 60.8476 71.2883 61 72.8202 61V54ZM68.6402 52.57L74.8166 49.2759C74.7928 49.2312 74.8114 49.2593 74.8469 49.3551C74.8819 49.4495 74.947 49.6469 74.9949 49.9342L68.0902 51.085L61.1854 52.2358C61.4223 53.6573 61.9438 54.8893 62.4637 55.8641L68.6402 52.57ZM68.0902 51.085L75.066 50.5037C75.0544 50.3642 75.0352 49.9413 75.0352 49.105H68.0352H61.0352C61.0352 50.0287 61.0526 50.9258 61.1143 51.6663L68.0902 51.085ZM68.0352 49.105H75.0352V39.48H68.0352H61.0352V49.105H68.0352ZM68.0352 39.48H75.0352C75.0352 36.6296 74.197 33.4873 71.7199 31.0103L66.7702 35.96L61.8204 40.9097C61.4793 40.5686 61.2533 40.179 61.1314 39.8399C61.0197 39.529 61.0352 39.3742 61.0352 39.48H68.0352ZM66.7702 35.96L71.7199 31.0103C69.4177 28.708 66.4843 27.695 63.5252 27.695V34.695V41.695C63.4335 41.695 63.1568 41.6785 62.784 41.5332C62.3973 41.3825 62.0646 41.1539 61.8204 40.9097L66.7702 35.96ZM63.5252 34.695V27.695C60.6395 27.695 57.9391 28.6486 55.6935 30.4784L60.1152 35.905L64.5369 41.3316C64.4472 41.4047 64.2817 41.5126 64.051 41.5945C63.8208 41.6762 63.6297 41.695 63.5252 41.695V34.695ZM60.1152 35.905L55.8176 30.3795C53.7829 31.962 51.959 34.3246 51.4857 37.5192L58.4102 38.545L65.3346 39.5708C65.2547 40.1098 65.0584 40.5814 64.8267 40.9402C64.6094 41.2767 64.4197 41.4251 64.4128 41.4305L60.1152 35.905ZM58.4102 38.545H51.4102V49.215H58.4102H65.4102V38.545H58.4102ZM58.4102 49.215H51.4102C51.4102 49.5419 51.4029 49.7751 51.3941 49.9294C51.3844 50.0978 51.377 50.0999 51.3954 49.9892L58.3002 51.14L65.2049 52.2908C65.3748 51.2713 65.4102 50.1684 65.4102 49.215H58.4102ZM58.3002 51.14L51.3289 50.5062C51.3726 50.0256 51.4743 49.6826 51.534 49.5102C51.5952 49.3335 51.6416 49.2517 51.6287 49.2759L57.8052 52.57L63.9816 55.8641C64.5021 54.8882 65.117 53.4719 65.2714 51.7738L58.3002 51.14ZM57.8052 52.57L51.5442 49.4395C52.4142 47.6994 53.8116 47.1245 54.1495 47.0104C54.457 46.9066 54.3674 47 53.5702 47V54V61C55.1196 61 56.9092 60.8551 58.6283 60.2746C60.3779 59.6839 62.7194 58.3939 64.0662 55.7005L57.8052 52.57ZM53.5702 54V47C52.8226 47 52.7663 46.9078 53.0952 47.0231C53.4853 47.1599 54.7378 47.7274 55.5494 49.2928L49.3352 52.515L43.1209 55.7372C44.4459 58.2926 46.6609 59.6026 48.4626 60.2344C50.2032 60.8447 52.0077 61 53.5702 61V54ZM49.3352 52.515L55.6784 49.5548C55.6324 49.4562 55.6235 49.4253 55.6338 49.4552C55.6429 49.4814 55.6873 49.6128 55.7273 49.8328L48.8402 51.085L41.9531 52.3372C42.1717 53.5399 42.5906 54.6154 42.9919 55.4752L49.3352 52.515ZM48.8402 51.085L55.8114 50.4513C55.8115 50.4519 55.8032 50.3503 55.7961 50.1013C55.7893 49.8663 55.7852 49.5558 55.7852 49.16H48.7852H41.7852C41.7852 50.066 41.8015 50.9775 41.8689 51.7188L48.8402 51.085ZM48.7852 49.16H55.7852V16.27H48.7852H41.7852V49.16H48.7852ZM48.7852 16.27H55.7852C55.7852 15.8948 55.7893 15.5999 55.7959 15.3758C55.7991 15.2649 55.8028 15.18 55.8061 15.1182C55.8095 15.0546 55.8118 15.029 55.8114 15.0337L48.8402 14.4L41.8689 13.7662C41.802 14.5025 41.7852 15.39 41.7852 16.27H48.7852ZM48.8402 14.4L55.7449 15.5508C55.6761 15.9635 55.567 16.1588 55.5962 16.1005L49.3352 12.97L43.0742 9.8395C42.59 10.8079 42.1509 11.9565 41.9354 13.2492L48.8402 14.4ZM49.3352 12.97L55.5494 16.1922C54.7229 17.7863 53.4458 18.3454 53.0824 18.4711C52.7714 18.5788 52.8507 18.485 53.6252 18.485V11.485V4.485C52.053 4.485 50.2439 4.63868 48.5029 5.24134C46.7095 5.86213 44.4608 7.16367 43.1209 9.74778L49.3352 12.97ZM53.6252 11.485V18.485C54.3789 18.485 54.4153 18.5788 54.0593 18.4524C53.6353 18.3017 52.3058 17.6841 51.4981 16.0067L57.8052 12.97L64.1122 9.93329C62.8279 7.26586 60.5633 5.90575 58.746 5.26014C56.9967 4.63866 55.1814 4.485 53.6252 4.485V11.485ZM57.8052 12.97L51.6287 16.2641C51.625 16.2571 51.571 16.1559 51.5081 15.9673C51.4453 15.7788 51.3598 15.4615 51.3243 15.0363L58.3002 14.455L65.276 13.8737C65.1347 12.1787 64.5519 10.7452 63.9816 9.67589L57.8052 12.97ZM58.3002 14.455L51.4131 15.7072C51.3943 15.6038 51.3881 15.5446 51.3881 15.5445C51.3878 15.5414 51.3908 15.5698 51.3947 15.6361C51.4028 15.773 51.4102 15.9965 51.4102 16.325H58.4102H65.4102C65.4102 15.4043 65.3789 14.257 65.1873 13.2028L58.3002 14.455ZM58.4102 16.325H51.4102V28.48H58.4102H65.4102V16.325H58.4102ZM58.4102 28.48L63.8239 32.9175C64.2565 32.3897 64.5424 32.2165 64.6301 32.1708C64.6873 32.1409 64.7254 32.125 64.8452 32.125V25.125V18.125C59.9098 18.125 55.8971 20.5037 52.9964 24.0425L58.4102 28.48ZM88.0809 28.645L92.8441 33.7746V33.7746L88.0809 28.645ZM109.146 28.645L104.352 33.746L104.369 33.7614L104.385 33.7768L109.146 28.645ZM111.346 47.62L117.156 51.5238L117.17 51.503L117.184 51.4822L111.346 47.62ZM105.571 52.845L108.66 59.1264L108.681 59.1163L108.701 59.106L105.571 52.845ZM91.5459 52.735L88.257 58.9142L88.2961 58.935L88.3354 58.9553L91.5459 52.735ZM85.7709 47.455L79.9186 51.2956L79.9535 51.3487L79.9893 51.4012L85.7709 47.455ZM94.9559 43.495L90.6464 49.0112L90.7008 49.0536L90.7559 49.095L94.9559 43.495ZM102.161 43.44L97.9339 37.8604V37.8604L102.161 43.44ZM102.271 35.355L97.9857 40.8901V40.8901L102.271 35.355ZM94.9009 35.41L90.5067 29.9611L90.5067 29.9611L94.9009 35.41ZM83.4609 39.535H90.4609C90.4609 36.9787 91.2641 35.2417 92.8441 33.7746L88.0809 28.645L83.3178 23.5154C78.7378 27.7683 76.4609 33.2913 76.4609 39.535H83.4609ZM88.0809 28.645L92.8441 33.7746C94.7165 32.0359 96.5633 31.355 98.6409 31.355V24.355V17.355C92.7986 17.355 87.6053 19.5341 83.3178 23.5154L88.0809 28.645ZM98.6409 24.355V31.355C100.715 31.355 102.529 32.0325 104.352 33.746L109.146 28.645L113.94 23.544C109.676 19.5375 104.487 17.355 98.6409 17.355V24.355ZM109.146 28.645L104.385 33.7768C105.907 35.1889 106.711 36.8965 106.711 39.48H113.711H120.711C120.711 33.2635 118.471 27.7478 113.907 23.5132L109.146 28.645ZM113.711 39.48H106.711C106.711 41.2436 106.277 42.5958 105.508 43.7578L111.346 47.62L117.184 51.4822C119.569 47.8776 120.711 43.8031 120.711 39.48H113.711ZM111.346 47.62L105.536 43.7162C104.556 45.1741 103.514 46.0472 102.44 46.584L105.571 52.845L108.701 59.106C112.175 57.3695 114.982 54.7593 117.156 51.5238L111.346 47.62ZM105.571 52.845L102.482 46.5635C101.176 47.2055 99.9021 47.495 98.5859 47.495V54.495V61.495C102.11 61.495 105.492 60.6845 108.66 59.1264L105.571 52.845ZM98.5859 54.495V47.495C97.3469 47.495 96.0955 47.2058 94.7564 46.5147L91.5459 52.735L88.3354 58.9553C91.543 60.6109 94.985 61.495 98.5859 61.495V54.495ZM91.5459 52.735L94.8349 46.5558C93.6451 45.9225 92.5473 44.9661 91.5526 43.5088L85.7709 47.455L79.9893 51.4012C82.148 54.5639 84.9001 57.1275 88.257 58.9142L91.5459 52.735ZM85.7709 47.455L91.6233 43.6144C90.8668 42.4617 90.4609 41.1685 90.4609 39.535H83.4609H76.4609C76.4609 43.7682 77.5951 47.7549 79.9186 51.2956L85.7709 47.455ZM94.9559 43.495L90.7559 49.095C92.8775 50.6861 95.5071 51.815 98.5309 51.815V44.815V37.815C98.7941 37.815 99.013 37.8662 99.1543 37.9183C99.2832 37.9659 99.2825 37.9899 99.1559 37.895L94.9559 43.495ZM98.5309 44.815V51.815C101.619 51.815 104.276 50.6198 106.388 49.0196L102.161 43.44L97.9339 37.8604C97.7725 37.9827 97.7484 37.9698 97.8664 37.9251C97.9983 37.8752 98.2315 37.815 98.5309 37.815V44.815ZM102.161 43.44L106.388 49.0196C109.677 46.528 110.976 42.9047 110.976 39.37H103.976H96.9759C96.9759 39.4876 96.9568 39.2704 97.1291 38.884C97.318 38.4604 97.62 38.0982 97.9339 37.8604L102.161 43.44ZM103.976 39.37H110.976C110.976 36.0045 109.827 32.3526 106.556 29.8199L102.271 35.355L97.9857 40.8901C97.5959 40.5882 97.2848 40.1746 97.1066 39.7549C96.9476 39.3805 96.9759 39.1968 96.9759 39.37H103.976ZM102.271 35.355L106.556 29.8199C104.309 28.0801 101.598 27.035 98.5859 27.035V34.035V41.035C98.451 41.035 98.2889 41.0095 98.1366 40.955C97.9911 40.9028 97.9407 40.8552 97.9857 40.8901L102.271 35.355ZM98.5859 34.035V27.035C95.4953 27.035 92.7474 28.1541 90.5067 29.9611L94.9009 35.41L99.2952 40.8589C99.3443 40.8193 99.2873 40.8753 99.1218 40.9371C98.9477 41.002 98.7557 41.035 98.5859 41.035V34.035ZM94.9009 35.41L90.5067 29.9611C87.3454 32.5105 86.1959 36.1033 86.1959 39.48H93.1959H100.196C100.196 39.3101 100.223 39.4743 100.079 39.8197C99.9172 40.2049 99.6382 40.5823 99.2952 40.8589L94.9009 35.41ZM93.1959 39.48H86.1959C86.1959 42.955 87.4562 46.5188 90.6464 49.0112L94.9559 43.495L99.2655 37.9788C99.5746 38.2203 99.8657 38.5797 100.047 38.9934C100.213 39.3721 100.196 39.5865 100.196 39.48H93.1959ZM130.079 43.165L125.524 48.4798L125.58 48.5275L125.636 48.5741L130.079 43.165ZM136.569 43.44L140.452 49.2644L140.476 49.2484L140.5 49.2323L136.569 43.44ZM143.059 45.31L148.544 40.9602L148.52 40.9298L148.495 40.8997L143.059 45.31ZM141.299 52.075L137.698 46.0725L137.483 46.2013L137.278 46.3451L141.299 52.075ZM123.754 50.59L119.448 56.1082L119.452 56.112L123.754 50.59ZM120.069 45.915L113.762 48.9517L113.774 48.9749L113.785 48.998L120.069 45.915ZM120.069 32.99L126.33 36.1205L126.342 36.0968L126.354 36.073L120.069 32.99ZM123.754 28.315L128.061 33.8332L128.086 33.8137L128.111 33.7939L123.754 28.315ZM137.559 25.29L135.514 31.9845L135.6 32.0106L135.686 32.0346L137.559 25.29ZM140.474 26.39L144.184 20.454L144.105 20.4042L144.024 20.3565L140.474 26.39ZM141.354 26.94L145.237 21.1156L145.152 21.0586L145.064 21.004L141.354 26.94ZM142.894 27.985L147.162 22.4366L147.038 22.3407L146.909 22.2504L142.894 27.985ZM143.169 33.65L137.317 29.8094L137.313 29.8164L143.169 33.65ZM136.404 35.465L131.598 40.5541L132.098 41.0258L132.679 41.3915L136.404 35.465ZM128.539 39.535H121.539C121.539 42.8018 122.72 46.0768 125.524 48.4798L130.079 43.165L134.635 37.8502C134.918 38.0924 135.191 38.445 135.369 38.8637C135.536 39.2587 135.539 39.5248 135.539 39.535H128.539ZM130.079 43.165L125.636 48.5741C127.693 50.2639 130.302 51.43 133.324 51.43V44.43V37.43C133.645 37.43 133.951 37.4936 134.203 37.5918C134.442 37.6849 134.546 37.7752 134.523 37.7559L130.079 43.165ZM133.324 44.43V51.43C135.9 51.43 138.33 50.6795 140.452 49.2644L136.569 43.44L132.687 37.6156C132.73 37.587 132.828 37.5314 132.973 37.4872C133.119 37.4427 133.245 37.43 133.324 37.43V44.43ZM136.569 43.44L140.5 49.2323C140.767 49.0512 140.818 49.0471 140.681 49.105C140.604 49.1377 140.431 49.2048 140.176 49.2662C139.921 49.3275 139.535 49.395 139.044 49.395V42.395V35.395C136.194 35.395 133.872 36.8108 132.639 37.6477L136.569 43.44ZM139.044 42.395V49.395C138.278 49.395 137.687 49.2249 137.323 49.0799C136.969 48.939 136.781 48.8027 136.761 48.7883C136.736 48.7703 136.807 48.8195 136.972 48.9844C137.133 49.1459 137.351 49.3843 137.624 49.7203L143.059 45.31L148.495 40.8997C147.498 39.6701 146.332 38.4368 144.986 37.4592C143.691 36.5189 141.647 35.395 139.044 35.395V42.395ZM143.059 45.31L137.575 49.6598C137.732 49.8579 137.695 49.855 137.606 49.654C137.513 49.4437 137.324 48.9251 137.324 48.17H144.324H151.324C151.324 45.0393 149.813 42.5599 148.544 40.9602L143.059 45.31ZM144.324 48.17H137.324C137.324 47.6534 137.421 47.1665 137.579 46.7448C137.733 46.3352 137.916 46.0566 138.034 45.9045C138.238 45.6418 138.255 45.7385 137.698 46.0725L141.299 52.075L144.901 58.0774C147.539 56.4945 151.324 53.3645 151.324 48.17H144.324ZM141.299 52.075L137.278 46.3451C136.578 46.8365 135.486 47.275 133.599 47.275V54.275V61.275C137.799 61.275 141.841 60.2468 145.32 57.8049L141.299 52.075ZM133.599 54.275V47.275C132.006 47.275 130.201 46.7385 128.056 45.068L123.754 50.59L119.452 56.112C123.615 59.3548 128.373 61.275 133.599 61.275V54.275ZM123.754 50.59L128.061 45.0718C127.499 44.6331 126.904 43.9534 126.354 42.832L120.069 45.915L113.785 48.998C115.141 51.7632 117.003 54.2002 119.448 56.1082L123.754 50.59ZM120.069 45.915L126.376 42.8783C125.91 41.9092 125.639 40.7931 125.639 39.425H118.639H111.639C111.639 42.7502 112.322 45.9608 113.762 48.9517L120.069 45.915ZM118.639 39.425H125.639C125.639 37.9987 125.918 36.9455 126.33 36.1205L120.069 32.99L113.808 29.8595C112.314 32.8478 111.639 36.0846 111.639 39.425H118.639ZM120.069 32.99L126.354 36.073C126.904 34.9516 127.499 34.2719 128.061 33.8332L123.754 28.315L119.448 22.7968C117.003 24.7048 115.141 27.1418 113.785 29.907L120.069 32.99ZM123.754 28.315L128.111 33.7939C130.083 32.2256 131.827 31.685 133.489 31.685V24.685V17.685C128.259 17.685 123.512 19.5643 119.398 22.8361L123.754 28.315ZM133.489 24.685V31.685C134.196 31.685 134.863 31.7856 135.514 31.9845L137.559 25.29L139.605 18.5955C137.616 17.9877 135.569 17.685 133.489 17.685V24.685ZM137.559 25.29L135.686 32.0346C136.203 32.1784 136.568 32.299 136.807 32.3892C137.066 32.4869 137.07 32.5088 136.925 32.4235L140.474 26.39L144.024 20.3565C142.597 19.5174 140.916 18.9574 139.433 18.5454L137.559 25.29ZM140.474 26.39L136.764 32.326L137.644 32.876L141.354 26.94L145.064 21.004L144.184 20.454L140.474 26.39ZM141.354 26.94L137.472 32.7644C138.115 33.1936 138.578 33.5079 138.88 33.7196L142.894 27.985L146.909 22.2504C146.478 21.9487 145.913 21.5664 145.237 21.1156L141.354 26.94ZM142.894 27.985L138.626 33.5334C138.534 33.462 138.193 33.1784 137.873 32.6119C137.527 32.0005 137.324 31.2656 137.324 30.515H144.324H151.324C151.324 26.8309 149.342 24.1135 147.162 22.4366L142.894 27.985ZM144.324 30.515H137.324C137.324 29.9915 137.434 29.6573 137.467 29.5663C137.499 29.4802 137.482 29.5582 137.317 29.8094L143.169 33.65L149.022 37.4906C150.171 35.7393 151.324 33.342 151.324 30.515H144.324ZM143.169 33.65L137.313 29.8164C136.881 30.4762 136.708 30.5723 136.868 30.4449C137.057 30.2938 137.932 29.675 139.374 29.675V36.675V43.675C142.027 43.675 144.139 42.552 145.594 41.3926C147.019 40.2569 148.138 38.8404 149.026 37.4836L143.169 33.65ZM139.374 36.675V29.675C139.863 29.675 140.226 29.7438 140.425 29.7913C140.628 29.8399 140.742 29.8862 140.751 29.8899C140.763 29.895 140.715 29.8761 140.601 29.8151C140.488 29.7552 140.332 29.6659 140.13 29.5385L136.404 35.465L132.679 41.3915C134.045 42.2499 136.519 43.675 139.374 43.675V36.675ZM136.404 35.465L141.211 30.3759C138.832 28.1288 135.902 27.53 133.544 27.53V34.53V41.53C133.68 41.53 132.657 41.5546 131.598 40.5541L136.404 35.465ZM133.544 34.53V27.53C130.478 27.53 127.803 28.693 125.671 30.4572L130.134 35.85L134.597 41.2428C134.625 41.2201 134.531 41.3028 134.311 41.388C134.08 41.4776 133.81 41.53 133.544 41.53V34.53ZM130.134 35.85L125.671 30.4572C122.761 32.8657 121.539 36.2054 121.539 39.535H128.539H135.539C135.539 39.5334 135.54 39.6004 135.517 39.7214C135.493 39.8448 135.448 40.0145 135.362 40.2118C135.176 40.6431 134.889 41.0016 134.597 41.2428L130.134 35.85ZM192.204 15.39L186.085 11.9905L186.05 12.0523L186.017 12.1148L192.204 15.39ZM193.799 14.07L195.907 20.7451L195.907 20.7451L193.799 14.07ZM198.914 14.015L196.939 20.7306L196.989 20.7455L197.04 20.7596L198.914 14.015ZM200.344 14.675L195.734 19.943L195.886 20.0762L196.046 20.2005L200.344 14.675ZM201.059 15.83L194.328 17.7531L194.405 18.024L194.504 18.2879L201.059 15.83ZM201.279 51.085L194.392 49.8328L194.336 50.1402L194.307 50.4513L201.279 51.085ZM200.784 52.515L194.607 49.2209L194.588 49.2567L194.569 49.2928L200.784 52.515ZM193.524 53.67L190.924 60.1693L190.924 60.1693L193.524 53.67ZM192.149 52.625L186.549 56.825L186.574 56.8591L186.6 56.893L192.149 52.625ZM175.869 31.065L181.41 26.7883L168.869 10.5372V31.065H175.869ZM175.759 51.085L168.872 49.8328L168.816 50.1402L168.787 50.4512L175.759 51.085ZM175.264 52.515L169.087 49.2209L169.068 49.2567L169.049 49.2928L175.264 52.515ZM166.794 52.515L173.008 49.2928L172.989 49.2567L172.97 49.2209L166.794 52.515ZM166.244 51.03L159.268 51.6113L159.292 51.8975L159.339 52.1808L166.244 51.03ZM166.684 15.39L160.565 11.9905L160.53 12.0523L160.497 12.1148L166.684 15.39ZM168.279 14.07L170.387 20.7451L170.387 20.7451L168.279 14.07ZM173.559 14.07L171.229 20.6709L171.455 20.7506L171.685 20.8146L173.559 14.07ZM174.934 14.73L169.984 19.6798L170.336 20.0315L170.734 20.33L174.934 14.73ZM176.199 16.16L181.839 12.0136L181.721 11.8543L181.595 11.7018L176.199 16.16ZM191.709 37.005L186.167 41.2817L198.709 57.5329V37.005H191.709ZM192.204 15.39L198.323 18.7895C198.123 19.1494 197.806 19.5721 197.34 19.9578C196.871 20.3462 196.367 20.5995 195.907 20.7451L193.799 14.07L191.691 7.39492C189.225 8.1735 187.288 9.82399 186.085 11.9905L192.204 15.39ZM193.799 14.07L195.907 20.7451C195.79 20.7818 195.762 20.7778 195.854 20.7661C195.944 20.7547 196.115 20.74 196.384 20.74V13.74V6.74C194.908 6.74 193.283 6.89196 191.691 7.39492L193.799 14.07ZM196.384 13.74V20.74C196.723 20.74 196.94 20.755 197.057 20.7678C197.184 20.7815 197.124 20.7852 196.939 20.7306L198.914 14.015L200.889 7.29944C199.348 6.84615 197.748 6.74 196.384 6.74V13.74ZM198.914 14.015L197.04 20.7596C197.11 20.779 197.022 20.7604 196.833 20.6732C196.659 20.5931 196.231 20.3781 195.734 19.943L200.344 14.675L204.953 9.40698C203.482 8.11964 201.803 7.55267 200.787 7.27037L198.914 14.015ZM200.344 14.675L196.046 20.2005C194.914 19.3202 194.476 18.2706 194.328 17.7531L201.059 15.83L207.789 13.9069C207.348 12.3627 206.433 10.5432 204.641 9.14954L200.344 14.675ZM201.059 15.83L194.504 18.2879C194.416 18.0519 194.376 17.8841 194.362 17.8189C194.347 17.7493 194.348 17.7345 194.354 17.7891C194.36 17.8415 194.369 17.9376 194.377 18.0845C194.384 18.2302 194.389 18.4125 194.389 18.635H201.389H208.389C208.389 17.204 208.299 15.2026 207.613 13.3721L201.059 15.83ZM201.389 18.635H194.389V49.16H201.389H208.389V18.635H201.389ZM201.389 49.16H194.389C194.389 49.5116 194.381 49.7523 194.373 49.9019C194.368 49.9745 194.365 50.0065 194.365 50.005C194.365 50.0033 194.367 49.9882 194.371 49.9615C194.374 49.9352 194.381 49.8913 194.392 49.8328L201.279 51.085L208.166 52.3372C208.359 51.2731 208.389 50.0961 208.389 49.16H201.389ZM201.279 51.085L194.307 50.4513C194.351 49.9706 194.453 49.6276 194.513 49.4552C194.574 49.2785 194.62 49.1967 194.607 49.2209L200.784 52.515L206.96 55.8091C207.481 54.8332 208.096 53.4169 208.25 51.7187L201.279 51.085ZM200.784 52.515L194.569 49.2928C195.396 47.6987 196.673 47.1396 197.036 47.0138C197.347 46.9062 197.268 47 196.494 47V54V61C198.066 61 199.875 60.8463 201.616 60.2437C203.409 59.6229 205.658 58.3213 206.998 55.7372L200.784 52.515ZM196.494 54V47C196.224 47 196.001 46.9948 195.822 46.9866C195.64 46.9783 195.52 46.9679 195.452 46.9603C195.379 46.9523 195.398 46.9511 195.485 46.9698C195.532 46.9797 195.609 46.9977 195.711 47.0273C195.811 47.0567 195.953 47.1023 196.123 47.1707L193.524 53.67L190.924 60.1693C192.857 60.9427 195.085 61 196.494 61V54ZM193.524 53.67L196.123 47.1707C196.757 47.4241 197.311 47.855 197.697 48.357L192.149 52.625L186.6 56.893C187.72 58.3484 189.19 59.4759 190.924 60.1693L193.524 53.67ZM192.149 52.625L197.749 48.425C189.505 37.4335 184.049 30.2068 181.41 26.7883L175.869 31.065L170.327 35.3417C172.896 38.6699 178.292 45.8165 186.549 56.825L192.149 52.625ZM175.869 31.065H168.869V49.16H175.869H182.869V31.065H175.869ZM175.869 49.16H168.869C168.869 49.5116 168.861 49.7523 168.853 49.9019C168.848 49.9745 168.845 50.0065 168.845 50.005C168.845 50.0033 168.847 49.9882 168.851 49.9615C168.854 49.9352 168.861 49.8913 168.872 49.8328L175.759 51.085L182.646 52.3372C182.839 51.2731 182.869 50.0961 182.869 49.16H175.869ZM175.759 51.085L168.787 50.4512C168.831 49.9706 168.933 49.6276 168.993 49.4552C169.054 49.2785 169.1 49.1967 169.087 49.2209L175.264 52.515L181.44 55.8091C181.961 54.8332 182.576 53.4169 182.73 51.7188L175.759 51.085ZM175.264 52.515L169.049 49.2928C169.876 47.6987 171.153 47.1396 171.516 47.0138C171.827 46.9062 171.748 47 170.974 47V54V61C172.546 61 174.355 60.8463 176.096 60.2437C177.889 59.6229 180.138 58.3213 181.478 55.7372L175.264 52.515ZM170.974 54V47C170.253 47 170.22 46.9094 170.567 47.0326C170.983 47.1806 172.211 47.7565 173.008 49.2928L166.794 52.515L160.579 55.7372C161.889 58.2635 164.071 59.5819 165.88 60.2249C167.62 60.8431 169.421 61 170.974 61V54ZM166.794 52.515L172.97 49.2209C172.946 49.1762 172.965 49.2043 173 49.3C173.035 49.3945 173.101 49.5919 173.148 49.8792L166.244 51.03L159.339 52.1808C159.576 53.6023 160.097 54.8343 160.617 55.8091L166.794 52.515ZM166.244 51.03L173.219 50.4487C173.207 50.3042 173.189 49.8948 173.189 49.105H166.189H159.189C159.189 50.0019 159.207 50.8758 159.268 51.6113L166.244 51.03ZM166.189 49.105H173.189V18.415H166.189H159.189V49.105H166.189ZM166.189 18.415H173.189C173.189 18.2025 173.195 18.04 173.203 17.922C173.207 17.8638 173.211 17.8199 173.215 17.7893C173.218 17.7585 173.221 17.744 173.221 17.7442C173.221 17.7442 173.218 17.7627 173.21 17.7976C173.202 17.8323 173.188 17.8881 173.166 17.9618C173.123 18.102 173.036 18.3521 172.87 18.6652L166.684 15.39L160.497 12.1148C159.328 14.3241 159.189 16.7882 159.189 18.415H166.189ZM166.684 15.39L172.803 18.7895C172.603 19.1494 172.286 19.5721 171.82 19.9578C171.351 20.3462 170.847 20.5995 170.387 20.7451L168.279 14.07L166.171 7.39492C163.705 8.1735 161.768 9.82399 160.565 11.9905L166.684 15.39ZM168.279 14.07L170.387 20.7451C170.242 20.7908 170.207 20.7852 170.326 20.7706C170.44 20.7566 170.65 20.74 170.974 20.74V13.74V6.74C169.482 6.74 167.801 6.88008 166.171 7.39492L168.279 14.07ZM170.974 13.74V20.74C171.133 20.74 171.262 20.744 171.362 20.7496C171.463 20.7553 171.527 20.7621 171.559 20.7661C171.591 20.7703 171.578 20.7701 171.528 20.7589C171.479 20.748 171.375 20.7223 171.229 20.6709L173.559 14.07L175.888 7.46907C174.183 6.86724 172.413 6.74 170.974 6.74V13.74ZM173.559 14.07L171.685 20.8146C171.745 20.8312 171.613 20.8007 171.368 20.6832C171.148 20.5775 170.589 20.2848 169.984 19.6798L174.934 14.73L179.883 9.78024C178.308 8.20461 176.391 7.59175 175.432 7.32537L173.559 14.07ZM174.934 14.73L170.734 20.33C170.587 20.2196 170.472 20.1241 170.398 20.0602C170.321 19.9937 170.259 19.9378 170.218 19.8986C170.137 19.8228 170.084 19.7685 170.068 19.7518C170.048 19.7316 170.043 19.7255 170.055 19.7385C170.066 19.7505 170.086 19.773 170.117 19.808C170.18 19.8793 170.269 19.9817 170.387 20.1212C170.504 20.2592 170.642 20.4242 170.802 20.6182L176.199 16.16L181.595 11.7018C181.227 11.2558 180.89 10.8565 180.603 10.532C180.524 10.4426 179.892 9.69858 179.134 9.13002L174.934 14.73ZM176.199 16.16L170.559 20.3064C178.287 30.8177 183.505 37.8327 186.167 41.2817L191.709 37.005L197.25 32.7283C194.705 29.4307 189.584 22.549 181.839 12.0136L176.199 16.16ZM191.709 37.005H198.709V18.415H191.709H184.709V37.005H191.709ZM191.709 18.415H198.709C198.709 18.2025 198.715 18.04 198.723 17.922C198.727 17.8638 198.731 17.8199 198.735 17.7893C198.738 17.7585 198.741 17.744 198.741 17.7442C198.741 17.7442 198.738 17.7627 198.73 17.7976C198.722 17.8323 198.708 17.8881 198.686 17.9618C198.643 18.102 198.556 18.3521 198.39 18.6652L192.204 15.39L186.017 12.1148C184.848 14.3241 184.709 16.7882 184.709 18.415H191.709ZM233.164 29.305L227.878 33.8948L227.896 33.9145L227.913 33.9341L233.164 29.305ZM236.739 51.14L229.834 49.9892L229.791 50.2465L229.767 50.5063L236.739 51.14ZM236.244 52.57L230.067 49.2759L230.024 49.3571L229.983 49.4395L236.244 52.57ZM227.829 52.57L221.652 55.8641L221.707 55.967L221.765 56.0681L227.829 52.57ZM227.279 51.085L220.303 51.6663L220.327 51.9525L220.374 52.2358L227.279 51.085ZM219.304 35.905L223.601 41.4305L223.664 41.3818L223.725 41.3316L219.304 35.905ZM217.599 38.545L210.674 37.5192L210.599 38.0293V38.545H217.599ZM217.489 51.14L210.584 49.9892L210.541 50.2465L210.517 50.5062L217.489 51.14ZM216.994 52.57L210.817 49.2759L210.774 49.3571L210.733 49.4395L216.994 52.57ZM208.524 52.515L202.18 55.4752L202.242 55.6076L202.309 55.7372L208.524 52.515ZM208.029 51.085L201.057 51.7188L201.086 52.0299L201.142 52.3372L208.029 51.085ZM208.029 14.4L201.124 13.2492L201.081 13.5065L201.057 13.7662L208.029 14.4ZM208.524 12.97L202.309 9.74778L202.286 9.79347L202.263 9.8395L208.524 12.97ZM216.994 12.97L210.687 16.0067L210.749 16.1368L210.817 16.2641L216.994 12.97ZM217.489 14.455L210.513 15.0363L210.541 15.3739L210.602 15.7072L217.489 14.455ZM217.599 28.48H210.599V48.0623L223.012 32.9175L217.599 28.48ZM224.034 25.125V32.125C225.657 32.125 226.778 32.6275 227.878 33.8948L233.164 29.305L238.449 24.7152C234.709 20.4092 229.743 18.125 224.034 18.125V25.125ZM233.164 29.305L227.913 33.9341C229.142 35.3283 229.849 37.0481 229.849 39.535H236.849H243.849C243.849 33.9552 242.099 28.855 238.415 24.6759L233.164 29.305ZM236.849 39.535H229.849V49.215H236.849H243.849V39.535H236.849ZM236.849 49.215H229.849C229.849 49.5419 229.841 49.7751 229.833 49.9294C229.823 50.0978 229.815 50.0999 229.834 49.9892L236.739 51.14L243.643 52.2908C243.813 51.2713 243.849 50.1684 243.849 49.215H236.849ZM236.739 51.14L229.767 50.5063C229.811 50.0256 229.913 49.6826 229.972 49.5102C230.034 49.3335 230.08 49.2517 230.067 49.2759L236.244 52.57L242.42 55.8641C242.941 54.8882 243.556 53.4719 243.71 51.7737L236.739 51.14ZM236.244 52.57L229.983 49.4395C230.853 47.6994 232.25 47.1245 232.588 47.0104C232.895 46.9066 232.806 47 232.009 47V54V61C233.558 61 235.348 60.8551 237.067 60.2746C238.816 59.6839 241.158 58.3939 242.505 55.7005L236.244 52.57ZM232.009 54V47C231.304 47 231.244 46.9141 231.552 47.0194C231.91 47.1417 233.07 47.648 233.892 49.0719L227.829 52.57L221.765 56.0681C223.137 58.4453 225.269 59.6666 227.02 60.2656C228.721 60.8476 230.477 61 232.009 61V54ZM227.829 52.57L234.005 49.2759C233.981 49.2312 234 49.2593 234.035 49.3551C234.07 49.4495 234.136 49.6469 234.183 49.9342L227.279 51.085L220.374 52.2358C220.611 53.6573 221.132 54.8893 221.652 55.8641L227.829 52.57ZM227.279 51.085L234.254 50.5037C234.243 50.3642 234.224 49.9413 234.224 49.105H227.224H220.224C220.224 50.0287 220.241 50.9258 220.303 51.6663L227.279 51.085ZM227.224 49.105H234.224V39.48H227.224H220.224V49.105H227.224ZM227.224 39.48H234.224C234.224 36.6296 233.385 33.4873 230.908 31.0103L225.959 35.96L221.009 40.9097C220.668 40.5686 220.442 40.179 220.32 39.8399C220.208 39.529 220.224 39.3742 220.224 39.48H227.224ZM225.959 35.96L230.908 31.0103C228.606 28.708 225.673 27.695 222.714 27.695V34.695V41.695C222.622 41.695 222.345 41.6785 221.972 41.5332C221.586 41.3825 221.253 41.1539 221.009 40.9097L225.959 35.96ZM222.714 34.695V27.695C219.828 27.695 217.128 28.6486 214.882 30.4784L219.304 35.905L223.725 41.3316C223.636 41.4047 223.47 41.5126 223.24 41.5945C223.009 41.6762 222.818 41.695 222.714 41.695V34.695ZM219.304 35.905L215.006 30.3795C212.971 31.962 211.147 34.3246 210.674 37.5192L217.599 38.545L224.523 39.5708C224.443 40.1098 224.247 40.5814 224.015 40.9402C223.798 41.2767 223.608 41.4251 223.601 41.4305L219.304 35.905ZM217.599 38.545H210.599V49.215H217.599H224.599V38.545H217.599ZM217.599 49.215H210.599C210.599 49.5419 210.591 49.7751 210.583 49.9294C210.573 50.0978 210.565 50.0999 210.584 49.9892L217.489 51.14L224.393 52.2908C224.563 51.2713 224.599 50.1684 224.599 49.215H217.599ZM217.489 51.14L210.517 50.5062C210.561 50.0256 210.663 49.6826 210.722 49.5102C210.784 49.3335 210.83 49.2517 210.817 49.2759L216.994 52.57L223.17 55.8641C223.691 54.8882 224.306 53.4719 224.46 51.7738L217.489 51.14ZM216.994 52.57L210.733 49.4395C211.603 47.6994 213 47.1245 213.338 47.0104C213.645 46.9066 213.556 47 212.759 47V54V61C214.308 61 216.098 60.8551 217.817 60.2746C219.566 59.6839 221.908 58.3939 223.255 55.7005L216.994 52.57ZM212.759 54V47C212.011 47 211.955 46.9078 212.284 47.0231C212.674 47.1599 213.926 47.7274 214.738 49.2928L208.524 52.515L202.309 55.7372C203.634 58.2926 205.849 59.6026 207.651 60.2344C209.392 60.8447 211.196 61 212.759 61V54ZM208.524 52.515L214.867 49.5548C214.821 49.4562 214.812 49.4253 214.822 49.4552C214.831 49.4814 214.876 49.6128 214.916 49.8328L208.029 51.085L201.142 52.3372C201.36 53.5399 201.779 54.6154 202.18 55.4752L208.524 52.515ZM208.029 51.085L215 50.4513C215 50.4519 214.992 50.3503 214.985 50.1013C214.978 49.8663 214.974 49.5558 214.974 49.16H207.974H200.974C200.974 50.066 200.99 50.9775 201.057 51.7188L208.029 51.085ZM207.974 49.16H214.974V16.27H207.974H200.974V49.16H207.974ZM207.974 16.27H214.974C214.974 15.8948 214.978 15.5999 214.984 15.3758C214.988 15.2649 214.991 15.18 214.995 15.1182C214.998 15.0546 215 15.029 215 15.0337L208.029 14.4L201.057 13.7662C200.99 14.5025 200.974 15.39 200.974 16.27H207.974ZM208.029 14.4L214.933 15.5508C214.865 15.9635 214.755 16.1588 214.785 16.1005L208.524 12.97L202.263 9.8395C201.778 10.8079 201.339 11.9565 201.124 13.2492L208.029 14.4ZM208.524 12.97L214.738 16.1922C213.911 17.7863 212.634 18.3454 212.271 18.4711C211.96 18.5788 212.039 18.485 212.814 18.485V11.485V4.485C211.241 4.485 209.432 4.63868 207.691 5.24134C205.898 5.86213 203.649 7.16367 202.309 9.74778L208.524 12.97ZM212.814 11.485V18.485C213.567 18.485 213.604 18.5788 213.248 18.4524C212.824 18.3017 211.494 17.6841 210.687 16.0067L216.994 12.97L223.301 9.93329C222.016 7.26586 219.752 5.90575 217.934 5.26014C216.185 4.63866 214.37 4.485 212.814 4.485V11.485ZM216.994 12.97L210.817 16.2641C210.813 16.2571 210.759 16.1559 210.697 15.9673C210.634 15.7788 210.548 15.4615 210.513 15.0363L217.489 14.455L224.464 13.8737C224.323 12.1787 223.74 10.7452 223.17 9.67589L216.994 12.97ZM217.489 14.455L210.602 15.7072C210.583 15.6038 210.577 15.5446 210.577 15.5445C210.576 15.5414 210.579 15.5698 210.583 15.6361C210.591 15.773 210.599 15.9965 210.599 16.325H217.599H224.599C224.599 15.4043 224.567 14.257 224.376 13.2028L217.489 14.455ZM217.599 16.325H210.599V28.48H217.599H224.599V16.325H217.599ZM217.599 28.48L223.012 32.9175C223.445 32.3897 223.731 32.2165 223.819 32.1708C223.876 32.1409 223.914 32.125 224.034 32.125V25.125V18.125C219.098 18.125 215.086 20.5037 212.185 24.0425L217.599 28.48ZM247.269 28.645L252.033 33.7746V33.7746L247.269 28.645ZM268.334 28.645L263.541 33.746L263.557 33.7614L263.574 33.7768L268.334 28.645ZM270.534 47.62L276.345 51.5238L276.359 51.503L276.373 51.4822L270.534 47.62ZM264.759 52.845L267.849 59.1264L267.869 59.1163L267.89 59.106L264.759 52.845ZM250.734 52.735L247.445 58.9142L247.485 58.935L247.524 58.9553L250.734 52.735ZM244.959 47.455L239.107 51.2956L239.142 51.3487L239.178 51.4012L244.959 47.455ZM254.144 43.495L249.835 49.0112L249.889 49.0536L249.944 49.095L254.144 43.495ZM261.349 43.44L257.122 37.8604V37.8604L261.349 43.44ZM261.459 35.355L257.174 40.8901V40.8901L261.459 35.355ZM254.089 35.41L249.695 29.9611V29.9611L254.089 35.41ZM242.649 39.535H249.649C249.649 36.9787 250.453 35.2417 252.033 33.7746L247.269 28.645L242.506 23.5154C237.926 27.7683 235.649 33.2913 235.649 39.535H242.649ZM247.269 28.645L252.033 33.7746C253.905 32.0359 255.752 31.355 257.829 31.355V24.355V17.355C251.987 17.355 246.794 19.5341 242.506 23.5154L247.269 28.645ZM257.829 24.355V31.355C259.904 31.355 261.717 32.0325 263.541 33.746L268.334 28.645L273.128 23.544C268.865 19.5375 263.675 17.355 257.829 17.355V24.355ZM268.334 28.645L263.574 33.7768C265.096 35.1889 265.899 36.8965 265.899 39.48H272.899H279.899C279.899 33.2635 277.66 27.7478 273.095 23.5132L268.334 28.645ZM272.899 39.48H265.899C265.899 41.2436 265.465 42.5958 264.696 43.7578L270.534 47.62L276.373 51.4822C278.757 47.8776 279.899 43.8031 279.899 39.48H272.899ZM270.534 47.62L264.724 43.7162C263.745 45.1741 262.703 46.0472 261.629 46.584L264.759 52.845L267.89 59.106C271.363 57.3695 274.171 54.7593 276.345 51.5238L270.534 47.62ZM264.759 52.845L261.67 46.5635C260.365 47.2055 259.091 47.495 257.774 47.495V54.495V61.495C261.298 61.495 264.681 60.6845 267.849 59.1264L264.759 52.845ZM257.774 54.495V47.495C256.535 47.495 255.284 47.2058 253.945 46.5147L250.734 52.735L247.524 58.9553C250.732 60.6109 254.173 61.495 257.774 61.495V54.495ZM250.734 52.735L254.023 46.5558C252.834 45.9225 251.736 44.9661 250.741 43.5088L244.959 47.455L239.178 51.4012C241.336 54.5639 244.089 57.1275 247.445 58.9142L250.734 52.735ZM244.959 47.455L250.812 43.6144C250.055 42.4617 249.649 41.1685 249.649 39.535H242.649H235.649C235.649 43.7682 236.784 47.7549 239.107 51.2956L244.959 47.455ZM254.144 43.495L249.944 49.095C252.066 50.6861 254.696 51.815 257.719 51.815V44.815V37.815C257.983 37.815 258.201 37.8662 258.343 37.9183C258.472 37.9659 258.471 37.9899 258.344 37.895L254.144 43.495ZM257.719 44.815V51.815C260.808 51.815 263.464 50.6198 265.576 49.0196L261.349 43.44L257.122 37.8604C256.961 37.9827 256.937 37.9698 257.055 37.9251C257.187 37.8752 257.42 37.815 257.719 37.815V44.815ZM261.349 43.44L265.576 49.0196C268.865 46.528 270.164 42.9047 270.164 39.37H263.164H256.164C256.164 39.4876 256.145 39.2704 256.318 38.884C256.506 38.4604 256.808 38.0982 257.122 37.8604L261.349 43.44ZM263.164 39.37H270.164C270.164 36.0045 269.016 32.3526 265.745 29.8199L261.459 35.355L257.174 40.8901C256.784 40.5882 256.473 40.1746 256.295 39.7549C256.136 39.3805 256.164 39.1968 256.164 39.37H263.164ZM261.459 35.355L265.745 29.8199C263.497 28.0801 260.786 27.035 257.774 27.035V34.035V41.035C257.639 41.035 257.477 41.0095 257.325 40.955C257.18 40.9028 257.129 40.8552 257.174 40.8901L261.459 35.355ZM257.774 34.035V27.035C254.684 27.035 251.936 28.1541 249.695 29.9611L254.089 35.41L258.484 40.8589C258.533 40.8193 258.476 40.8753 258.31 40.9371C258.136 41.002 257.944 41.035 257.774 41.035V34.035ZM254.089 35.41L249.695 29.9611C246.534 32.5105 245.384 36.1033 245.384 39.48H252.384H259.384C259.384 39.3101 259.412 39.4743 259.267 39.8197C259.106 40.2049 258.827 40.5823 258.484 40.8589L254.089 35.41ZM252.384 39.48H245.384C245.384 42.955 246.645 46.5188 249.835 49.0112L254.144 43.495L258.454 37.9788C258.763 38.2203 259.054 38.5797 259.236 38.9934C259.401 39.3721 259.384 39.5865 259.384 39.48H252.384ZM289.268 43.165L284.712 48.4798L284.768 48.5275L284.825 48.5741L289.268 43.165ZM295.758 43.44L299.641 49.2644L299.665 49.2484L299.688 49.2323L295.758 43.44ZM302.248 45.31L307.732 40.9602L307.708 40.9298L307.684 40.8997L302.248 45.31ZM300.488 52.075L296.886 46.0725L296.672 46.2013L296.467 46.3451L300.488 52.075ZM282.943 50.59L278.636 56.1082L278.641 56.112L282.943 50.59ZM279.258 45.915L272.951 48.9517L272.962 48.9749L272.973 48.998L279.258 45.915ZM279.258 32.99L285.519 36.1205L285.531 36.0968L285.542 36.073L279.258 32.99ZM282.943 28.315L287.25 33.8332L287.275 33.8137L287.3 33.7939L282.943 28.315ZM296.748 25.29L294.702 31.9845L294.788 32.0106L294.874 32.0346L296.748 25.29ZM299.663 26.39L303.373 20.454L303.293 20.4042L303.212 20.3565L299.663 26.39ZM300.543 26.94L304.426 21.1156L304.34 21.0586L304.253 21.004L300.543 26.94ZM302.083 27.985L306.351 22.4366L306.226 22.3407L306.097 22.2504L302.083 27.985ZM302.358 33.65L296.506 29.8094L296.501 29.8164L302.358 33.65ZM295.593 35.465L290.787 40.5541L291.286 41.0258L291.868 41.3915L295.593 35.465ZM287.728 39.535H280.728C280.728 42.8018 281.909 46.0768 284.712 48.4798L289.268 43.165L293.823 37.8502C294.106 38.0924 294.379 38.445 294.557 38.8637C294.725 39.2587 294.728 39.5248 294.728 39.535H287.728ZM289.268 43.165L284.825 48.5741C286.882 50.2639 289.49 51.43 292.513 51.43V44.43V37.43C292.833 37.43 293.14 37.4936 293.392 37.5918C293.63 37.6849 293.735 37.7752 293.711 37.7559L289.268 43.165ZM292.513 44.43V51.43C295.089 51.43 297.518 50.6795 299.641 49.2644L295.758 43.44L291.875 37.6156C291.918 37.587 292.017 37.5314 292.162 37.4872C292.307 37.4427 292.434 37.43 292.513 37.43V44.43ZM295.758 43.44L299.688 49.2323C299.955 49.0512 300.007 49.0471 299.87 49.105C299.792 49.1377 299.62 49.2048 299.365 49.2662C299.11 49.3275 298.723 49.395 298.233 49.395V42.395V35.395C295.383 35.395 293.061 36.8108 291.827 37.6477L295.758 43.44ZM298.233 42.395V49.395C297.467 49.395 296.875 49.2249 296.511 49.0799C296.158 48.939 295.969 48.8027 295.949 48.7883C295.924 48.7703 295.995 48.8195 296.16 48.9844C296.322 49.1459 296.539 49.3843 296.812 49.7203L302.248 45.31L307.684 40.8997C306.686 39.6701 305.521 38.4368 304.174 37.4592C302.879 36.5189 300.836 35.395 298.233 35.395V42.395ZM302.248 45.31L296.763 49.6598C296.921 49.8579 296.884 49.855 296.795 49.654C296.702 49.4437 296.513 48.9251 296.513 48.17H303.513H310.513C310.513 45.0393 309.001 42.5599 307.732 40.9602L302.248 45.31ZM303.513 48.17H296.513C296.513 47.6534 296.61 47.1665 296.768 46.7448C296.921 46.3352 297.105 46.0566 297.223 45.9045C297.426 45.6418 297.443 45.7385 296.886 46.0725L300.488 52.075L304.089 58.0774C306.728 56.4945 310.513 53.3645 310.513 48.17H303.513ZM300.488 52.075L296.467 46.3451C295.767 46.8365 294.675 47.275 292.788 47.275V54.275V61.275C296.988 61.275 301.029 60.2468 304.509 57.8049L300.488 52.075ZM292.788 54.275V47.275C291.195 47.275 289.389 46.7385 287.245 45.068L282.943 50.59L278.641 56.112C282.803 59.3548 287.561 61.275 292.788 61.275V54.275ZM282.943 50.59L287.25 45.0718C286.688 44.6331 286.093 43.9534 285.542 42.832L279.258 45.915L272.973 48.998C274.33 51.7632 276.191 54.2002 278.636 56.1082L282.943 50.59ZM279.258 45.915L285.565 42.8783C285.098 41.9092 284.828 40.7931 284.828 39.425H277.828H270.828C270.828 42.7502 271.511 45.9608 272.951 48.9517L279.258 45.915ZM277.828 39.425H284.828C284.828 37.9987 285.106 36.9455 285.519 36.1205L279.258 32.99L272.997 29.8595C271.503 32.8478 270.828 36.0846 270.828 39.425H277.828ZM279.258 32.99L285.542 36.073C286.093 34.9516 286.688 34.2719 287.25 33.8332L282.943 28.315L278.636 22.7968C276.191 24.7048 274.33 27.1418 272.973 29.907L279.258 32.99ZM282.943 28.315L287.3 33.7939C289.272 32.2256 291.015 31.685 292.678 31.685V24.685V17.685C287.447 17.685 282.701 19.5643 278.586 22.8361L282.943 28.315ZM292.678 24.685V31.685C293.385 31.685 294.052 31.7856 294.702 31.9845L296.748 25.29L298.793 18.5955C296.804 17.9877 294.758 17.685 292.678 17.685V24.685ZM296.748 25.29L294.874 32.0346C295.392 32.1784 295.756 32.299 295.995 32.3892C296.254 32.4869 296.259 32.5088 296.114 32.4235L299.663 26.39L303.212 20.3565C301.786 19.5174 300.105 18.9574 298.621 18.5454L296.748 25.29ZM299.663 26.39L295.953 32.326L296.833 32.876L300.543 26.94L304.253 21.004L303.373 20.454L299.663 26.39ZM300.543 26.94L296.66 32.7644C297.304 33.1936 297.766 33.5079 298.069 33.7196L302.083 27.985L306.097 22.2504C305.666 21.9487 305.102 21.5664 304.426 21.1156L300.543 26.94ZM302.083 27.985L297.815 33.5334C297.722 33.462 297.382 33.1784 297.061 32.6119C296.716 32.0005 296.513 31.2656 296.513 30.515H303.513H310.513C310.513 26.8309 308.531 24.1135 306.351 22.4366L302.083 27.985ZM303.513 30.515H296.513C296.513 29.9915 296.622 29.6573 296.656 29.5663C296.688 29.4802 296.67 29.5582 296.506 29.8094L302.358 33.65L308.21 37.4906C309.36 35.7393 310.513 33.342 310.513 30.515H303.513ZM302.358 33.65L296.501 29.8164C296.069 30.4762 295.896 30.5723 296.056 30.4449C296.246 30.2938 297.121 29.675 298.563 29.675V36.675V43.675C301.215 43.675 303.328 42.552 304.782 41.3926C306.207 40.2569 307.327 38.8404 308.215 37.4836L302.358 33.65ZM298.563 36.675V29.675C299.051 29.675 299.415 29.7438 299.613 29.7913C299.817 29.8399 299.93 29.8862 299.939 29.8899C299.952 29.895 299.904 29.8761 299.789 29.8151C299.677 29.7552 299.521 29.6659 299.318 29.5385L295.593 35.465L291.868 41.3915C293.233 42.2499 295.708 43.675 298.563 43.675V36.675ZM295.593 35.465L300.399 30.3759C298.02 28.1288 295.091 27.53 292.733 27.53V34.53V41.53C292.868 41.53 291.846 41.5546 290.787 40.5541L295.593 35.465ZM292.733 34.53V27.53C289.667 27.53 286.992 28.693 284.86 30.4572L289.323 35.85L293.786 41.2428C293.813 41.2201 293.72 41.3028 293.5 41.388C293.268 41.4776 292.999 41.53 292.733 41.53V34.53ZM289.323 35.85L284.86 30.4572C281.95 32.8657 280.728 36.2054 280.728 39.535H287.728H294.728C294.728 39.5334 294.728 39.6004 294.705 39.7214C294.682 39.8448 294.636 40.0145 294.551 40.2118C294.364 40.6431 294.077 41.0016 293.786 41.2428L289.323 35.85ZM309.816 45.64L316.01 48.9002L316.044 48.8357L316.077 48.7705L309.816 45.64ZM311.466 44.155L309.252 37.5142L309.203 37.5307L309.154 37.548L311.466 44.155ZM318.451 44.815L313.501 49.7647L313.565 49.8282L313.63 49.89L318.451 44.815ZM319.441 50.975L312.536 49.8242L312.493 50.0815L312.47 50.3412L319.441 50.975ZM318.946 52.46L325.075 55.8415L325.144 55.7174L325.207 55.5905L318.946 52.46ZM310.311 53.01L305.236 57.8312L305.36 57.9614L305.49 58.085L310.311 53.01ZM317.186 39.205L315.405 32.4355H315.405L317.186 39.205ZM311.576 39.205L313.357 32.4355H313.357L311.576 39.205ZM310.091 38.215L303.928 41.5337L304.023 41.7116L304.129 41.8837L310.091 38.215ZM309.596 36.95L302.631 37.6465L302.665 37.9871L302.732 38.3228L309.596 36.95ZM309.596 16.105L302.709 14.8528L302.659 15.1291L302.631 15.4085L309.596 16.105ZM310.146 14.785L304.184 11.1163L304.184 11.1163L310.146 14.785ZM311.631 13.795L313.412 20.5645L313.577 20.5213L313.739 20.4701L311.631 13.795ZM317.241 13.795L315.133 20.4701L315.295 20.5213L315.46 20.5645L317.241 13.795ZM318.671 14.84L312.41 17.9705L312.548 18.2462L312.709 18.5087L318.671 14.84ZM319.166 16.16L312.195 16.7937L312.229 17.1661L312.302 17.5328L319.166 16.16ZM319.166 37.005L312.302 35.6322L312.235 35.9678L312.201 36.3085L319.166 37.005ZM318.671 38.27L324.495 42.1529L324.566 42.047L324.633 41.9387L318.671 38.27ZM309.816 45.64L316.077 48.7705C315.911 49.1028 315.629 49.5232 315.186 49.9218C314.738 50.3255 314.243 50.5996 313.778 50.762L311.466 44.155L309.154 37.548C306.6 38.4418 304.686 40.2475 303.555 42.5095L309.816 45.64ZM311.466 44.155L313.68 50.7958C313.433 50.8779 313.391 50.8569 313.685 50.8248C313.951 50.7956 314.373 50.77 314.986 50.77V43.77V36.77C313.226 36.77 311.127 36.8893 309.252 37.5142L311.466 44.155ZM314.986 43.77V50.77C315.323 50.77 315.297 50.8104 315.041 50.7331C314.758 50.6478 314.133 50.3969 313.501 49.7647L318.451 44.815L323.401 39.8652C320.766 37.23 317.328 36.77 314.986 36.77V43.77ZM318.451 44.815L313.63 49.89C313.05 49.3392 312.761 48.754 312.635 48.3761C312.522 48.0365 312.551 47.9048 312.551 48.115H319.551H326.551C326.551 45.6257 325.953 42.2864 323.272 39.74L318.451 44.815ZM319.551 48.115H312.551V48.995H319.551H326.551V48.115H319.551ZM319.551 48.995H312.551C312.551 49.3449 312.544 49.5952 312.534 49.7617C312.524 49.9453 312.516 49.9453 312.536 49.8242L319.441 50.975L326.346 52.1258C326.517 51.0963 326.551 49.9655 326.551 48.995H319.551ZM319.441 50.975L312.47 50.3412C312.512 49.8771 312.607 49.5612 312.649 49.4352C312.694 49.3007 312.719 49.2608 312.685 49.3295L318.946 52.46L325.207 55.5905C325.679 54.6466 326.263 53.2532 326.412 51.6087L319.441 50.975ZM318.946 52.46L312.817 49.0785C313.509 47.8239 314.517 47.2797 314.98 47.1054C315.346 46.9675 315.355 47.055 314.711 47.055V54.055V61.055C317.356 61.055 322.487 60.5316 325.075 55.8415L318.946 52.46ZM314.711 54.055V47.055C314.341 47.055 314.061 47.0401 313.861 47.0211C313.656 47.0017 313.571 46.9814 313.579 46.9832C313.582 46.984 313.743 47.0214 314.002 47.1442C314.263 47.2683 314.683 47.5081 315.132 47.935L310.311 53.01L305.49 58.085C307.087 59.6026 308.955 60.2746 310.344 60.6043C311.788 60.9474 313.291 61.055 314.711 61.055V54.055ZM310.311 53.01L315.386 48.1888C315.775 48.5982 316.007 48.9853 316.136 49.2492C316.264 49.5089 316.31 49.6831 316.318 49.7173C316.327 49.754 316.312 49.7039 316.296 49.5424C316.28 49.3835 316.266 49.1499 316.266 48.83H309.266H302.266C302.266 51.0974 302.53 54.9828 305.236 57.8312L310.311 53.01ZM309.266 48.83H316.266C316.266 48.62 316.273 48.4582 316.282 48.3396C316.29 48.2199 316.3 48.1596 316.302 48.1493C316.304 48.1377 316.294 48.2002 316.257 48.3192C316.22 48.4372 316.146 48.642 316.01 48.9002L309.816 45.64L303.622 42.3798C302.452 44.6015 302.266 47.0503 302.266 48.83H309.266ZM317.186 39.205L315.405 32.4355C315.506 32.4088 315.481 32.4249 315.279 32.4446C315.086 32.4636 314.793 32.48 314.381 32.48V39.48V46.48C315.83 46.48 317.441 46.3761 318.967 45.9745L317.186 39.205ZM314.381 39.48V32.48C313.969 32.48 313.676 32.4636 313.483 32.4446C313.281 32.4249 313.256 32.4088 313.357 32.4355L311.576 39.205L309.795 45.9745C311.321 46.3761 312.932 46.48 314.381 46.48V39.48ZM311.576 39.205L313.357 32.4355C313.882 32.5735 315.155 33.0876 316.053 34.5463L310.091 38.215L304.129 41.8837C305.614 44.2958 307.877 45.4698 309.795 45.9745L311.576 39.205ZM310.091 38.215L316.254 34.8963C316.235 34.8601 316.256 34.8935 316.293 34.9905C316.33 35.0846 316.402 35.285 316.46 35.5772L309.596 36.95L302.732 38.3228C302.987 39.5989 303.476 40.6944 303.928 41.5337L310.091 38.215ZM309.596 36.95L316.561 36.2535C316.565 36.2865 316.558 36.2244 316.551 36.0231C316.545 35.835 316.541 35.5791 316.541 35.245H309.541H302.541C302.541 36.0543 302.557 36.9137 302.631 37.6465L309.596 36.95ZM309.541 35.245H316.541V17.81H309.541H302.541V35.245H309.541ZM309.541 17.81H316.541C316.541 17.4759 316.545 17.22 316.551 17.0319C316.558 16.8306 316.565 16.7685 316.561 16.8015L309.596 16.105L302.631 15.4085C302.557 16.1413 302.541 17.0007 302.541 17.81H309.541ZM309.596 16.105L316.483 17.3572C316.355 18.0602 316.115 18.4423 316.108 18.4537L310.146 14.785L304.184 11.1163C303.591 12.081 302.983 13.3431 302.709 14.8528L309.596 16.105ZM310.146 14.785L316.108 18.4537C315.21 19.9124 313.937 20.4265 313.412 20.5645L311.631 13.795L309.85 7.02548C307.932 7.53021 305.669 8.70424 304.184 11.1163L310.146 14.785ZM311.631 13.795L313.739 20.4701C313.567 20.5244 313.525 20.5169 313.673 20.4995C313.812 20.4831 314.059 20.465 314.436 20.465V13.465V6.465C312.925 6.465 311.187 6.59455 309.523 7.11993L311.631 13.795ZM314.436 13.465V20.465C314.813 20.465 315.06 20.4831 315.199 20.4995C315.347 20.5169 315.305 20.5244 315.133 20.4701L317.241 13.795L319.349 7.11993C317.685 6.59455 315.947 6.465 314.436 6.465V13.465ZM317.241 13.795L315.46 20.5645C315.143 20.4812 314.595 20.2873 313.991 19.8455C313.355 19.3807 312.795 18.7413 312.41 17.9705L318.671 14.84L324.932 11.7095C323.554 8.95337 321.131 7.58033 319.022 7.02548L317.241 13.795ZM318.671 14.84L312.709 18.5087C312.641 18.3968 312.286 17.7967 312.195 16.7937L319.166 16.16L326.137 15.5262C325.973 13.7167 325.288 12.2365 324.633 11.1713L318.671 14.84ZM319.166 16.16L312.302 17.5328C312.276 17.401 312.265 17.3148 312.262 17.2907C312.259 17.2634 312.26 17.2681 312.263 17.3119C312.269 17.4045 312.276 17.5819 312.276 17.865H319.276H326.276C326.276 17.011 326.246 15.8664 326.03 14.7872L319.166 16.16ZM319.276 17.865H312.276V35.3H319.276H326.276V17.865H319.276ZM319.276 35.3H312.276C312.276 35.5831 312.269 35.7605 312.263 35.8531C312.26 35.8969 312.259 35.9016 312.262 35.8743C312.265 35.8502 312.276 35.764 312.302 35.6322L319.166 37.005L326.03 38.3778C326.246 37.2985 326.276 36.154 326.276 35.3H319.276ZM319.166 37.005L312.201 36.3085C312.259 35.7307 312.397 35.2993 312.496 35.0455C312.596 34.7896 312.686 34.6388 312.709 34.6013L318.671 38.27L324.633 41.9387C325.219 40.9856 325.949 39.5265 326.131 37.7015L319.166 37.005ZM318.671 38.27L312.847 34.3871C313.8 32.9573 315.05 32.5288 315.405 32.4355L317.186 39.205L318.967 45.9745C320.715 45.5145 322.956 44.4627 324.495 42.1529L318.671 38.27Z" fill="white" mask="url(#path-1-outside-1_193_2351)"/>
</svg>
