<svg width="361" height="141" viewBox="0 0 361 141" fill="none" xmlns="http://www.w3.org/2000/svg">
<path d="M259.761 88.9649C259.61 88.9649 259.458 88.9914 259.306 89.0457C254.089 90.9068 250.007 93.6509 247.172 97.2052C244.718 100.284 243.052 104.12 242.22 108.611C241.461 112.698 241.397 116.916 241.435 120.503C241.443 121.185 241.459 121.87 241.475 122.56C241.533 125.043 241.593 127.609 241.212 130.039C241.01 131.322 240.714 132.225 240.249 132.967C239.897 133.531 239.337 133.924 238.585 134.139C238.198 134.249 237.791 134.306 237.379 134.306C236.531 134.306 235.643 134.077 234.727 133.619C236.401 132.309 237.577 130.949 238.303 129.482C238.981 128.115 239.065 126.799 238.552 125.573C237.594 123.283 234.884 122.093 233.354 121.588C231.965 121.128 230.765 120.905 229.683 120.905C228.636 120.905 227.688 121.119 226.868 121.541C225.085 122.454 224.544 124.489 224.636 126.084C224.773 128.537 225.997 131.118 228.107 133.443C227.15 133.936 226.204 134.381 225.364 134.77C223.606 135.586 221.889 136.213 220.262 136.629C219.451 136.837 218.588 136.933 217.546 136.933C216.691 136.933 215.83 136.867 214.949 136.794C209.016 136.299 203.523 134.496 199.069 131.579C197.256 130.393 195.687 128.925 194.472 127.29C196.616 127.116 198.871 126.677 201.195 125.981C206.101 124.51 208.993 122.384 210.039 119.486C211.503 115.425 207.582 111.466 203.423 109.118C201.947 108.282 200.403 107.86 198.832 107.86C195.675 107.86 192.777 109.565 190.882 112.535C188.729 115.911 188.303 120.044 189.643 124.289C187.877 123.978 186.186 123.299 184.279 122.399C180.611 120.67 177.103 118.455 173.71 116.315C170.963 114.581 168.121 112.788 165.187 111.245C162.752 109.963 160.179 108.877 157.689 107.824C157.289 107.655 156.891 107.487 156.494 107.317C153.059 105.856 150.175 104.819 147.421 104.058C144.489 103.245 141.869 102.851 139.409 102.851C138.947 102.851 138.485 102.865 138.035 102.895C136.264 103.006 134.437 103.477 132.601 104.291C132.065 104.007 131.489 103.735 130.885 103.481C126.891 101.803 122.53 101.129 118.314 100.476L117.692 100.381C117.422 100.34 117.151 100.297 116.881 100.256C115.042 99.9798 113.144 99.6925 111.395 99.1127C108.161 98.0418 104.829 96.3739 101.492 94.154C94.2633 89.3461 89.4435 82.5924 87.9212 75.1345C87.7822 74.4554 87.2329 74 86.5551 74C86.0918 74 85.6391 74.2118 85.3426 74.5692C85.0553 74.9161 84.9428 75.3555 85.0275 75.8083C87.1548 87.2242 96.5679 96.9709 110.209 101.882C112.868 102.84 115.753 103.212 118.543 103.572C119.532 103.699 120.555 103.831 121.531 103.987C124.377 104.439 127.142 104.933 129.618 105.9C126.494 107.879 123.807 111.326 125.58 115.101C126.725 117.539 129.597 119.241 132.563 119.241C132.774 119.241 132.985 119.232 133.19 119.214C134.751 119.073 136.088 118.36 137.058 117.15C138.206 115.718 138.733 113.661 138.47 111.65C138.193 109.535 137.141 107.683 135.339 106.129C136.664 105.717 138.112 105.506 139.661 105.506C143.795 105.506 148.169 106.952 152.28 108.514C158.657 110.935 164.722 113.947 170.307 117.464C170.977 117.886 171.644 118.312 172.312 118.736C174.744 120.282 177.259 121.881 179.832 123.313C182.325 124.702 185.427 126.428 188.577 127.028C189.322 127.168 190.102 127.269 190.904 127.324C193.65 132.519 199.032 135.612 203.116 137.304C205.75 138.396 208.581 139.226 211.531 139.769C213.376 140.109 215.554 140.454 217.699 140.454C218.128 140.454 218.551 140.441 218.952 140.413C222.601 140.159 226.228 138.509 229.606 136.766C230.121 136.5 230.573 136.26 230.994 136.027C231.183 136.166 231.374 136.297 231.564 136.425C233.4 137.651 235.587 138.352 237.559 138.352C239.198 138.352 240.654 137.898 241.885 137.005C244.405 135.177 245.041 132.075 245.314 129.58C245.655 126.466 245.587 123.315 245.519 120.263C245.442 116.789 245.364 113.193 245.906 109.709C246.511 105.808 247.752 102.425 249.594 99.6528C251.843 96.268 255.494 93.4669 260.152 91.5475C260.765 91.2947 261.102 90.6567 260.972 89.9974C260.853 89.3912 260.354 88.9649 259.761 88.9649ZM135.855 113.282C135.798 114.491 135.283 115.424 134.326 116.057C133.818 116.393 133.214 116.562 132.534 116.564C130.895 116.564 129.062 115.563 128.176 114.183C127.681 113.412 127.541 112.664 127.747 111.893C128.143 110.417 129.83 108.822 132.514 107.373C132.833 107.583 133.138 107.804 133.423 108.037C134.921 109.245 135.943 111.453 135.855 113.282ZM192.818 124.48C192.029 122.703 191.677 120.879 191.769 119.047C191.971 114.992 194.824 110.652 198.745 110.652C199.145 110.652 199.555 110.695 199.967 110.781C202.656 111.34 205.164 113.572 206.494 115.313C207.189 116.223 207.869 117.605 207.166 119.016C205.685 121.99 201.027 123.248 197.654 123.937C196.054 124.26 194.429 124.444 192.818 124.48ZM231.654 131.298C231.114 130.741 230.612 130.133 230.184 129.515C229.084 127.929 228.566 126.578 228.599 125.382C228.606 125.164 228.618 124.755 229.82 124.755C230.009 124.755 230.219 124.768 230.444 124.792C232.116 124.965 234.198 125.668 234.942 126.676C235.205 127.032 235.222 127.484 234.458 128.562C233.783 129.516 232.862 130.414 231.654 131.298Z" fill="url(#paint0_linear_208_1191)"/>
<path d="M259.568 89.7818C255.028 91.4008 250.819 93.8867 247.784 97.6925C245.236 100.888 243.728 104.759 242.988 108.755C242.269 112.62 242.175 116.576 242.216 120.497C242.25 123.695 242.481 126.989 241.983 130.162C241.794 131.362 241.504 132.437 240.911 133.384C240.448 134.126 239.715 134.631 238.801 134.892C235.214 135.915 231.476 132.749 229.542 129.963C228.627 128.644 227.772 127.011 227.819 125.361C227.859 123.979 229.36 123.899 230.525 124.018C232.084 124.179 234.574 124.866 235.571 126.216C236.238 127.119 235.742 128.103 235.095 129.016C232.965 132.018 228.93 133.979 225.692 135.481C224.008 136.262 222.254 136.925 220.455 137.386C218.619 137.859 216.76 137.73 214.885 137.574C209.201 137.103 203.429 135.37 198.642 132.234C194.218 129.336 190.714 124.488 190.989 119.009C191.226 114.284 194.828 108.919 200.124 110.019C202.795 110.574 205.477 112.701 207.112 114.84C208.125 116.167 208.641 117.804 207.863 119.366C206.182 122.739 201.15 124.023 197.808 124.703C195.684 125.135 193.504 125.326 191.337 125.251C188.67 125.163 186.347 124.24 183.945 123.108C177.259 119.956 171.357 115.375 164.825 111.937C162.036 110.472 159.088 109.27 156.189 108.039C153.261 106.793 150.283 105.661 147.214 104.814C144.257 103.995 141.162 103.483 138.087 103.677C135.192 103.862 132.513 105.006 130.08 106.535C127.285 108.293 124.686 111.363 126.289 114.774C127.438 117.219 130.507 118.675 133.122 118.442C136.477 118.142 138.102 114.845 137.697 111.756C137.191 107.899 133.917 105.606 130.583 104.204C126.483 102.479 121.939 101.832 117.573 101.155C115.426 100.823 113.221 100.544 111.15 99.8594C107.585 98.6773 104.181 96.8837 101.061 94.8094C94.1852 90.2358 88.8307 83.4887 87.1575 75.2961C86.9748 74.3999 85.6299 74.7838 85.7953 75.6708C88.1344 88.2198 98.9837 97.0174 110.475 101.154C114.002 102.425 117.977 102.638 121.655 103.223C125.793 103.88 130.564 104.728 133.913 107.435C136.479 109.507 138.095 114.505 134.756 116.713C132.42 118.259 128.907 116.772 127.52 114.611C124.95 110.611 130.698 107.296 133.589 105.972C139.579 103.227 146.777 105.597 152.558 107.793C158.913 110.207 164.972 113.191 170.724 116.813C173.866 118.79 176.967 120.831 180.214 122.64C182.831 124.097 185.754 125.703 188.724 126.268C192.727 127.031 197.109 126.398 200.97 125.24C204.139 124.288 208.09 122.592 209.304 119.227C210.759 115.195 206.004 111.477 203.04 109.802C198.743 107.374 194.109 108.932 191.54 112.962C188.866 117.157 189.279 122.241 191.385 126.553C193.736 131.364 198.61 134.6 203.416 136.592C206.077 137.695 208.844 138.487 211.674 139.008C214.006 139.438 216.524 139.809 218.899 139.643C222.483 139.393 226.107 137.704 229.25 136.081C232.292 134.511 236.021 132.337 237.604 129.142C239.36 125.601 236.127 123.331 233.109 122.335C231.252 121.721 229.045 121.308 227.224 122.243C225.838 122.955 225.331 124.592 225.414 126.05C225.638 130.005 228.86 133.69 232 135.784C234.713 137.595 238.6 138.436 241.429 136.383C243.631 134.782 244.259 132.063 244.541 129.503C245.266 122.89 244.111 116.213 245.137 109.598C245.708 105.909 246.869 102.355 248.946 99.2307C251.546 95.3204 255.57 92.6014 259.857 90.8355C260.488 90.5694 260.24 89.5422 259.568 89.7818Z" fill="url(#paint1_linear_208_1191)"/>
<path d="M256.078 71.245C251.529 64.8977 246.83 58.1751 245.961 50.4142C245.425 45.6304 246.402 40.8131 247.583 36.1464C248.551 32.3191 249.668 28.507 251.378 24.9492C255.233 16.9303 262.246 9.39888 260.968 0.594198C266.746 6.48312 270.745 13.8962 273.864 21.5338C276.212 27.2836 278.129 33.3894 277.778 39.5905C277.046 52.5576 266.89 62.7573 257.393 71.617C257.09 71.8995 256.657 72.2007 256.3 71.9893C255.944 71.778 256.51 71.0959 256.64 71.4895" fill="#80BE1F"/>
<path d="M256.963 21.3354C257.629 23.2638 258.478 25.1178 259.114 27.0609C259.716 28.8984 260.25 30.7848 261.075 32.5374C261.633 33.7228 263.485 32.8456 263.136 31.639C262.602 29.7918 261.671 28.0309 260.775 26.3373C259.825 24.5426 258.961 22.6539 257.878 20.9374C257.582 20.4693 256.772 20.7791 256.963 21.3354Z" fill="#1E6A30"/>
<path d="M261.893 7.74831C263.955 28.3348 256 47.9567 255.872 68.4013C255.839 73.7577 256.198 79.6776 258.462 84.6015C258.829 85.4009 260.254 84.991 260.13 84.1163C259.433 79.1848 258.427 74.427 258.374 69.4165C258.32 64.3167 258.796 59.242 259.513 54.1972C260.94 44.1673 263.193 34.2588 263.881 24.1315C264.258 18.5772 264.085 13.0442 262.919 7.58866C262.797 7.01207 261.833 7.15494 261.893 7.74831Z" fill="#1E6A30"/>
<path d="M261.867 32.7215C263.289 31.7663 264.676 30.742 265.946 29.5884C267.292 28.3654 268.423 26.9347 269.756 25.7056C271.027 24.5338 268.703 22.6799 267.831 24.2813C266.294 27.1036 263.426 29.5695 260.972 31.5908C260.336 32.1145 261.188 33.177 261.867 32.7215Z" fill="#1E6A30"/>
<path d="M253.127 31.0962C254.858 35.7484 256.606 40.3933 258.383 45.0281C258.678 45.797 259.701 46.4608 260.496 45.8579C265.112 42.3597 269.961 38.9985 274.317 35.1801C275.474 34.166 273.92 32.221 272.646 33.0681C267.924 36.2058 263.51 39.9325 259.024 43.3971C259.679 43.5616 260.335 43.7262 260.99 43.8908C258.794 39.4379 256.571 35.0011 254.332 30.5702C253.995 29.9047 252.863 30.39 253.127 31.0962Z" fill="#1E6A30"/>
<path d="M249.889 45.8791C251.926 50.5795 253.983 55.2713 256.05 59.9581C256.411 60.7767 257.525 60.6795 258.073 60.1938C262.26 56.4792 266.833 53.8085 272.009 51.7063C273.307 51.1786 272.794 49.1668 271.388 49.5707C265.783 51.1812 260.463 54.4105 256.231 58.4022C256.905 58.4806 257.58 58.5596 258.254 58.638C255.972 54.163 253.679 49.6937 251.367 45.2343C250.949 44.4283 249.52 45.0276 249.889 45.8791Z" fill="#1E6A30"/>
<path d="M269.028 67.3478C271.96 61.4877 275.111 55.3697 280.532 51.6886C283.874 49.4196 287.832 48.2605 291.758 47.3115C294.977 46.5328 298.244 45.8703 301.554 45.7481C309.014 45.4726 317.348 47.7321 323.384 43.3392C321.273 49.9314 317.334 55.7997 312.885 61.1028C309.536 65.0951 305.754 68.9065 301.013 71.0722C291.102 75.6011 279.558 72.053 269.266 68.4692C268.938 68.3549 268.545 68.151 268.562 67.8037C268.579 67.4564 269.307 67.6097 269.066 67.8602" fill="#80BE1F"/>
<path d="M306.421 48.4803C305.25 49.7287 304.206 51.0843 303.013 52.3166C301.884 53.4818 300.693 54.6167 299.715 55.9147C299.053 56.7926 300.429 57.8239 301.188 57.0931C302.35 55.9741 303.293 54.5942 304.199 53.2661C305.16 51.8589 306.224 50.4789 307.074 49.0033C307.306 48.6005 306.759 48.1204 306.421 48.4803Z" fill="#1E6A30"/>
<path d="M318.435 46.8239C303.961 56.4084 286.284 58.1794 271.058 66.082C267.069 68.1526 262.815 70.7354 260.046 74.3417C259.596 74.9272 260.458 75.8244 261.058 75.3904C264.447 72.9441 267.585 70.3359 271.283 68.3364C275.047 66.3013 279 64.6691 283.026 63.2281C291.029 60.3634 299.265 58.1599 307.052 54.7086C311.322 52.8159 315.361 50.5229 318.955 47.523C319.335 47.2068 318.852 46.5476 318.435 46.8239Z" fill="#1E6A30"/>
<path d="M299.888 56.5744C301.153 57.2567 302.456 57.8852 303.809 58.3763C305.244 58.8972 306.748 59.177 308.182 59.6857C309.549 60.1705 310.016 57.7204 308.486 57.6998C305.79 57.6628 302.838 56.499 300.377 55.4681C299.74 55.2008 299.284 56.2489 299.888 56.5744Z" fill="#1E6A30"/>
<path d="M297.675 49.451C294.899 52.5563 292.135 55.6707 289.39 58.803C288.934 59.3229 288.842 60.3416 289.6 60.6963C294.003 62.7536 298.395 65.0385 302.933 66.7779C304.138 67.2398 304.974 65.3259 303.847 64.7115C299.671 62.434 295.178 60.615 290.851 58.6403C290.985 59.1913 291.119 59.7422 291.254 60.2932C293.7 56.9214 296.124 53.5356 298.537 50.1397C298.899 49.6292 298.096 48.9792 297.675 49.451Z" fill="#1E6A30"/>
<path d="M285.435 52.8309C282.743 56.1816 280.065 59.5437 277.395 62.9115C276.928 63.4997 277.436 64.289 278.011 64.5054C282.406 66.1605 286.178 68.5101 289.763 71.5294C290.663 72.287 291.955 71.1189 291.105 70.2333C287.717 66.7029 283.239 64.0174 278.62 62.4375C278.826 62.9687 279.031 63.5002 279.237 64.0314C281.666 60.5865 284.086 57.1361 286.492 53.6754C286.927 53.0499 285.923 52.2239 285.435 52.8309Z" fill="#1E6A30"/>
<path d="M247.145 70.4522C241.352 70.8875 235.263 71.2726 229.996 68.8226C226.749 67.3124 224.067 64.8279 221.558 62.2724C219.501 60.1769 217.511 57.9928 215.912 55.5298C212.309 49.9786 210.236 42.6093 204.148 40.0153C210.124 38.6226 216.381 38.9494 222.44 39.9222C227.002 40.6545 231.623 41.7985 235.427 44.4199C243.383 49.9015 245.935 60.2995 247.89 69.7609C247.952 70.0626 247.976 70.4544 247.704 70.5992C247.431 70.744 247.217 70.1205 247.517 70.1901" fill="#80BE1F"/>
<path d="M215.777 50.583C217.259 50.9061 218.766 51.0837 220.246 51.4312C221.646 51.76 223.052 52.15 224.485 52.3037C225.454 52.4078 225.612 50.892 224.711 50.6468C223.331 50.2714 221.852 50.1818 220.429 50.0962C218.921 50.0056 217.387 49.8237 215.877 49.8481C215.466 49.855 215.349 50.4896 215.777 50.583Z" fill="#1E6A30"/>
<path d="M209.051 42.1952C222.929 48.8482 232.318 61.493 245.258 69.4832C248.649 71.5764 252.549 73.638 256.553 74.1046C257.203 74.1803 257.494 73.1166 256.89 72.8569C253.487 71.3918 250.075 70.1907 246.871 68.2862C243.61 66.3477 240.57 64.0825 237.642 61.6752C231.821 56.8889 226.398 51.6242 220.229 47.2697C216.846 44.8814 213.264 42.851 209.346 41.4816C208.933 41.3361 208.651 42.0035 209.051 42.1952Z" fill="#1E6A30"/>
<path d="M224.907 51.8722C224.851 50.5988 224.736 49.3215 224.495 48.0687C224.238 46.7402 223.767 45.4682 223.502 44.1458C223.249 42.8851 221.172 43.6444 221.852 44.8178C223.051 46.8862 223.508 49.6619 223.843 52.003C223.93 52.6098 224.934 52.4795 224.907 51.8722Z" fill="#1E6A30"/>
<path d="M220.494 56.7965C224.12 57.4959 227.747 58.1824 231.379 58.846C231.982 58.9559 232.8 58.563 232.724 57.8244C232.287 53.5388 232.027 49.1573 231.286 44.9128C231.089 43.7856 229.253 44.0202 229.298 45.1574C229.465 49.3712 230.125 53.6177 230.591 57.8082C230.949 57.4554 231.307 57.1026 231.665 56.7498C227.987 56.4223 224.308 56.1184 220.626 55.8275C220.073 55.7841 219.944 56.6907 220.494 56.7965Z" fill="#1E6A30"/>
<path d="M228.634 64.5723C232.408 65.0964 236.185 65.6045 239.962 66.1042C240.622 66.1915 240.992 65.4458 240.895 64.91C240.154 60.8125 240.227 56.874 240.893 52.7726C241.06 51.7432 239.583 51.2912 239.296 52.3408C238.151 56.5249 238.145 61.1541 239.044 65.3871C239.355 64.989 239.666 64.5911 239.976 64.1929C236.25 63.9122 232.524 63.6401 228.796 63.384C228.122 63.3378 227.95 64.4772 228.634 64.5723Z" fill="#1E6A30"/>
<path d="M66.0678 71.382C58.2803 71.9672 50.0945 72.4849 43.0136 69.1912C38.6491 67.161 35.0426 63.821 31.6707 60.3855C28.9051 57.5684 26.2297 54.6322 24.0803 51.3212C19.2357 43.8583 16.4499 33.9514 8.26485 30.4642C16.2993 28.5919 24.7108 29.0313 32.8564 30.339C38.9887 31.3235 45.2008 32.8614 50.3151 36.3856C61.0098 43.7548 64.4407 57.7332 67.0693 70.4526C67.153 70.8582 67.1849 71.3849 66.819 71.5796C66.453 71.7742 66.1648 70.936 66.5686 71.0296" fill="#80BE1F"/>
<path d="M23.8979 44.671C25.891 45.1054 27.9162 45.3442 29.9068 45.8114C31.789 46.2533 33.6783 46.7776 35.6043 46.9842C36.9069 47.1242 37.1206 45.0865 35.9087 44.7568C34.0533 44.2521 32.065 44.1317 30.1522 44.0167C28.1252 43.8949 26.0629 43.6503 24.0334 43.683C23.4796 43.6924 23.323 44.5455 23.8979 44.671Z" fill="#1E6A30"/>
<path d="M14.8562 33.3949C33.5127 42.3388 46.1356 59.3378 63.5315 70.0794C68.0892 72.8934 73.3327 75.6648 78.7154 76.2922C79.5893 76.394 79.9801 74.9639 79.1687 74.6148C74.5942 72.6452 70.0071 71.0305 65.6998 68.4702C61.3157 65.8641 57.2286 62.819 53.2927 59.5827C45.4676 53.1482 38.1762 46.0707 29.8836 40.2168C25.3357 37.006 20.5197 34.2764 15.2533 32.4356C14.6974 32.24 14.3184 33.1371 14.8562 33.3949Z" fill="#1E6A30"/>
<path d="M36.1733 46.404C36.0972 44.6922 35.9434 42.9751 35.6182 41.2909C35.2737 39.5049 34.6398 37.7949 34.2833 36.0171C33.9432 34.3223 31.1513 35.343 32.0657 36.9205C33.677 39.7011 34.2921 43.4327 34.7424 46.58C34.8588 47.3956 36.2094 47.2205 36.1733 46.404Z" fill="#1E6A30"/>
<path d="M30.2399 53.024C35.114 53.9642 39.9904 54.887 44.8733 55.7792C45.6836 55.9269 46.7824 55.3987 46.6811 54.4057C46.0932 48.6444 45.7443 42.7542 44.7479 37.0482C44.4833 35.5327 42.0142 35.8482 42.0751 37.377C42.2996 43.0418 43.187 48.7506 43.8133 54.384C44.2947 53.9097 44.7762 53.4354 45.2576 52.9611C40.3124 52.5208 35.3667 52.1124 30.4172 51.7212C29.6736 51.6629 29.4997 52.8817 30.2399 53.024Z" fill="#1E6A30"/>
<path d="M41.1828 63.4771C46.2568 64.1817 51.3339 64.8648 56.412 65.5366C57.299 65.6539 57.7956 64.6514 57.6655 63.9312C56.6702 58.4227 56.7671 53.128 57.663 47.6143C57.8877 46.2305 55.9023 45.6228 55.5162 47.0338C53.9771 52.6586 53.9688 58.8819 55.1774 64.5726C55.5951 64.0373 56.0133 63.5024 56.4309 62.9672C51.4216 62.5897 46.4118 62.2239 41.4004 61.8796C40.4947 61.8175 40.2636 63.3493 41.1828 63.4771Z" fill="#1E6A30"/>
<path d="M84.6292 68.3674C86.71 60.8402 88.9887 52.961 94.4814 47.4096C97.8671 43.9878 102.229 41.7221 106.602 39.7095C110.188 38.0584 113.856 36.5325 117.698 35.6284C126.359 33.5906 136.625 34.3163 142.672 27.7911C141.72 35.9856 138.464 43.7539 134.481 50.9784C131.482 56.4174 127.935 61.7443 122.89 65.367C112.341 72.9425 98.025 71.4481 85.1656 69.624C84.7555 69.5657 84.249 69.4177 84.1895 69.0076C84.1299 68.5974 85.0162 68.6094 84.7916 68.9578" fill="#80BE1F"/>
<path d="M124.018 37.7042C122.936 39.4334 122.027 41.2588 120.915 42.9743C119.863 44.5965 118.731 46.1975 117.886 47.9404C117.314 49.1191 119.159 50.0088 119.879 48.9796C120.981 47.4038 121.766 45.5733 122.521 43.8118C123.32 41.9452 124.247 40.0868 124.902 38.1656C125.081 37.6413 124.331 37.2056 124.018 37.7042Z" fill="#1E6A30"/>
<path d="M137.687 33.0045C122.965 47.5414 102.7 53.6776 86.7122 66.4205C82.5235 69.7593 78.1433 73.7578 75.734 78.612C75.3429 79.4 76.5568 80.2511 77.1596 79.6053C80.5591 75.9655 83.6288 72.1938 87.494 69.005C91.4282 65.7595 95.6753 62.9417 100.051 60.3309C108.751 55.1404 117.876 50.6695 126.188 44.8428C130.747 41.6474 134.943 38.037 138.455 33.7025C138.827 33.2453 138.111 32.5855 137.687 33.0045Z" fill="#1E6A30"/>
<path d="M118.24 48.6718C119.876 49.1787 121.544 49.6142 123.239 49.8773C125.037 50.1566 126.86 50.1378 128.654 50.4029C130.364 50.6555 130.347 47.6829 128.553 48.0106C125.392 48.5875 121.672 47.9054 118.557 47.2657C117.75 47.0997 117.459 48.43 118.24 48.6718Z" fill="#1E6A30"/>
<path d="M114.014 40.8506C111.482 45.1203 108.966 49.3979 106.476 53.6922C106.063 54.4049 106.189 55.6175 107.158 55.8578C112.779 57.2513 118.441 58.9132 124.148 59.9036C125.664 60.1666 126.201 57.7361 124.742 57.2769C119.334 55.574 113.661 54.4801 108.147 53.1659C108.431 53.7793 108.715 54.3927 108.999 55.0061C111.084 50.5006 113.14 45.9838 115.18 41.4577C115.487 40.7775 114.398 40.202 114.014 40.8506Z" fill="#1E6A30"/>
<path d="M100.478 47.6177C98.1 52.1551 95.7415 56.7027 93.3933 61.2551C92.9832 62.0503 93.7589 62.8564 94.4807 62.9774C100.001 63.902 104.952 65.7824 109.839 68.4887C111.065 69.1678 112.308 67.5045 111.11 66.6643C106.337 63.315 100.482 61.2044 94.7178 60.4189C95.0804 60.9928 95.4425 61.5672 95.8052 62.1411C97.8531 57.554 99.8903 52.9625 101.908 48.3623C102.272 47.5308 100.909 46.7957 100.478 47.6177Z" fill="#1E6A30"/>
<path d="M360.408 90.098L360.403 90.142L360.4 90.167C360.372 90.426 360.342 90.678 360.311 90.925L360.302 90.988C360.27 91.238 360.236 91.481 360.2 91.72L360.195 91.755C360.158 92.005 360.119 92.247 360.079 92.484C359.338 96.865 358.159 99.067 357.816 99.636C357.815 99.638 357.796 99.668 357.796 99.668L357.782 99.69L357.762 99.721C357.591 99.994 357.285 100.169 356.964 100.169C356.956 100.169 356.948 100.168 356.941 100.168C356.314 100.15 293.699 98.389 242.977 98.389C219.839 98.389 202.564 98.751 191.632 99.469C172.217 100.741 132.748 101.565 91.076 101.565C57.887 101.565 19.512 101.01 11.344 99.455C11.18 99.424 11.026 99.348 10.901 99.237C10.901 99.237 10.855 99.196 10.764 99.111L10.746 99.092L10.696 99.045L10.654 99.004L10.674 99.023C10.654 99.003 10.632 98.983 10.598 98.949C10.572 98.923 10.543 98.893 10.529 98.878L10.467 98.815L10.386 98.731L10.355 98.698C10.354 98.696 10.337 98.679 10.335 98.677L10.313 98.653C10.262 98.599 10.208 98.54 10.153 98.477C10.15 98.475 10.147 98.471 10.145 98.468C10.141 98.465 10.138 98.46 10.135 98.458C9.83899 98.126 9.54201 97.763 9.26601 97.395C9.25101 97.375 9.235 97.355 9.22 97.333C9.151 97.24 9.079 97.143 9.007 97.043C9.005 97.04 8.994 97.025 8.993 97.022L8.964 96.981C8.894 96.883 8.823 96.782 8.755 96.68C8.733 96.649 8.712 96.617 8.701 96.601C8.631 96.499 8.561 96.393 8.491 96.284L8.467 96.249L8.431 96.191C8.362 96.084 8.293 95.973 8.23 95.87C8.206 95.83 8.182 95.792 8.164 95.761C8.094 95.646 8.02399 95.527 7.95399 95.404L7.933 95.37L7.892 95.301C7.821 95.175 7.749 95.046 7.677 94.912L7.64999 94.86L7.627 94.818C7.551 94.676 7.477 94.531 7.399 94.378L7.386 94.354L7.362 94.307C7.276 94.134 7.19001 93.956 7.10201 93.767C6.82801 93.178 6.57899 92.568 6.35899 91.953L6.313 91.817C6.253 91.65 6.195 91.48 6.14 91.309L6.09599 91.17L6.076 91.105C6.027 90.95 5.97901 90.795 5.93401 90.637C5.91301 90.568 5.89399 90.497 5.87399 90.427L5.86501 90.392C5.82301 90.243 5.782 90.091 5.742 89.933C5.719 89.842 5.697 89.75 5.675 89.662C5.638 89.512 5.603 89.36 5.571 89.208C5.549 89.11 5.527 89.01 5.506 88.91C5.475 88.759 5.445 88.606 5.416 88.452C5.397 88.349 5.37799 88.243 5.35899 88.136C5.33299 87.981 5.307 87.825 5.284 87.668C5.268 87.559 5.251 87.45 5.235 87.334C5.214 87.175 5.193 87.013 5.172 86.83C5.159 86.725 5.14599 86.62 5.13499 86.514C5.11699 86.343 5.103 86.167 5.089 85.991L5.08 85.891C5.074 85.816 5.068 85.741 5.062 85.664C5.048 85.47 5.03901 85.272 5.02901 85.071L5.024 84.959C5.022 84.901 5.01801 84.846 5.01601 84.788C5.00601 84.491 5 84.191 5 83.887C5 73.768 10.713 69.367 10.956 69.185C11.119 69.064 11.314 69 11.514 69C11.572 69 11.631 69.006 11.688 69.016C11.785 69.035 11.888 69.054 12.002 69.073L12.039 69.08L12.068 69.086C12.176 69.105 12.289 69.123 12.425 69.146L12.472 69.153C12.582 69.172 12.696 69.189 12.807 69.206L12.88 69.217C13.011 69.237 13.147 69.256 13.293 69.277L13.389 69.291C13.522 69.309 13.657 69.328 13.794 69.347L13.85 69.355C14.022 69.377 14.2 69.401 14.388 69.425L15.021 69.503C15.236 69.528 15.458 69.555 15.698 69.582L15.724 69.585L15.762 69.59L16.379 69.659L16.445 69.666L16.524 69.675L16.607 69.684C16.775 69.703 16.946 69.721 17.126 69.74L17.212 69.75L17.298 69.759L17.736 69.805L17.915 69.823L18.096 69.841L18.726 69.904L18.829 69.914L18.926 69.924L19.571 69.987L20.166 70.044L20.263 70.053L20.456 70.072L20.781 70.102L20.989 70.12L21.149 70.135L21.366 70.155L21.528 70.171L21.91 70.205L22.278 70.236C22.48 70.254 22.686 70.273 22.895 70.291C24.146 70.4 25.474 70.511 26.879 70.623C26.899 70.624 26.916 70.625 26.921 70.626L28.033 70.713L28.087 70.718L28.146 70.722C28.495 70.749 28.848 70.777 29.214 70.804L29.36 70.815L29.918 70.858L30.409 70.895L30.601 70.91L31.652 70.987L31.856 71.002L32.633 71.059L32.92 71.08L33.103 71.093L33.128 71.094L34.274 71.176L34.32 71.18L34.414 71.186L35.443 71.257L35.676 71.275L35.725 71.278C38.879 71.497 42.306 71.72 45.893 71.942L45.954 71.945L46.982 72.008L47.453 72.037C47.483 72.039 47.512 72.041 47.521 72.042L49.006 72.131L49.114 72.137C61.117 72.855 74.628 73.54 88.184 74.117L90.054 74.196L91.263 74.246L91.309 74.249L91.351 74.25L92.421 74.295L93.605 74.343L94.178 74.366L94.773 74.39L95.317 74.411L95.859 74.433L97.933 74.514L98.902 74.551L100.273 74.604L101.286 74.642L102.704 74.695L103.565 74.726L103.596 74.727C104.329 74.754 105.061 74.781 105.796 74.806L106.508 74.831L106.532 74.832L108.158 74.889L109.006 74.918C114.187 75.096 119.28 75.253 124.144 75.386C124.16 75.386 124.175 75.387 124.19 75.387C125.89 75.434 127.582 75.478 129.266 75.52L129.984 75.538L130.664 75.555L132.625 75.601L132.818 75.606L133.114 75.612C133.768 75.628 134.421 75.642 135.072 75.656L135.186 75.658L135.301 75.661C136.745 75.691 138.179 75.721 139.604 75.748L139.939 75.754L141.607 75.784L141.764 75.787L141.926 75.79L142.091 75.793C143.492 75.816 144.884 75.839 146.259 75.859L146.597 75.864L146.714 75.865L148.301 75.887L148.519 75.89L148.73 75.893L148.803 75.894C149.428 75.902 150.051 75.909 150.67 75.917C150.678 75.917 150.702 75.917 150.711 75.917C151.388 75.925 152.061 75.932 152.732 75.938L153.084 75.941H153.156L154.683 75.955L155.169 75.958L155.225 75.959L156.782 75.969L156.888 75.971H157.096C157.739 75.975 158.376 75.978 159.013 75.981L159.147 75.982H159.284L159.308 75.983L160.875 75.986L161.117 75.987H161.37L162.819 75.989H163.219C163.833 75.989 164.443 75.987 165.05 75.986H165.171C165.721 75.984 166.267 75.982 166.812 75.979L167.051 75.978L167.289 75.977L167.718 75.975L168.609 75.969L168.726 75.968L169.077 75.966C170.225 75.958 171.356 75.947 172.464 75.933L172.686 75.929L172.909 75.926C173.323 75.921 173.734 75.915 174.144 75.908L174.383 75.905L174.616 75.901L175.995 75.878L176.228 75.874C176.754 75.863 177.276 75.853 177.794 75.842L178.166 75.833H178.193L178.221 75.832L178.255 75.831C178.826 75.817 179.391 75.804 179.946 75.79L180.114 75.784L180.228 75.781C180.692 75.768 181.151 75.757 181.606 75.742L182.087 75.727C182.467 75.715 182.846 75.703 183.219 75.69L183.541 75.678L183.822 75.669C184.151 75.656 184.477 75.645 184.803 75.631C185.089 75.621 185.374 75.609 185.656 75.597C185.656 75.597 185.68 75.596 185.682 75.596L186.026 75.582C186.474 75.563 186.916 75.543 187.346 75.523L187.453 75.517L187.561 75.511C187.925 75.494 188.284 75.476 188.642 75.457L188.857 75.445L189.043 75.435C189.347 75.418 189.647 75.401 189.944 75.384L190.091 75.376L190.309 75.363C190.715 75.339 191.116 75.314 191.508 75.288L191.694 75.276L192.515 75.223L193.198 75.18L193.259 75.177L193.385 75.168L193.538 75.158L194.101 75.123L194.428 75.103L194.564 75.094L194.597 75.092L195.546 75.035L195.611 75.031L195.679 75.027L196.704 74.967L196.744 74.965L196.787 74.962C201.429 74.695 206.969 74.416 213.253 74.134L213.361 74.129C214.339 74.085 215.333 74.041 216.327 73.998C216.354 73.996 216.383 73.995 216.395 73.995C218.965 73.883 221.617 73.771 224.336 73.661L225.601 73.61L226.237 73.585L226.607 73.57L227.011 73.553L227.749 73.525L228.462 73.497L228.635 73.49L229.156 73.469L229.547 73.453L229.993 73.436L230.622 73.412L230.681 73.41L231.225 73.388L231.329 73.384L231.412 73.381L231.496 73.378L232.652 73.333L232.705 73.331L233.424 73.305L233.454 73.303L234.014 73.282L234.101 73.278L234.211 73.274L234.872 73.25L235.741 73.217L236.043 73.206L236.359 73.194L237.179 73.164L237.952 73.135L238.68 73.109L239.309 73.087L240.059 73.06L240.435 73.045L240.829 73.031L241.551 73.006L242.4 72.975L242.611 72.967L243.035 72.953L243.607 72.932L243.886 72.922L244.219 72.91L244.552 72.898L245.288 72.872L246.172 72.842L246.486 72.83L246.798 72.819L247.622 72.79L248.328 72.766L249.218 72.737L249.82 72.716L250.727 72.685L251.471 72.66L251.93 72.644L252.092 72.638L252.889 72.612L253.667 72.585L254.621 72.554L254.883 72.545L255.147 72.535L256.15 72.502L256.429 72.493L256.699 72.484L257.665 72.452L258.353 72.43L259.859 72.38L260.591 72.357L261.04 72.342L261.489 72.327L261.824 72.316L262.158 72.305L262.636 72.289L263.112 72.273L263.627 72.256L264.662 72.223L264.878 72.215L265.093 72.209L266.061 72.179L267.031 72.147L267.579 72.13L268.023 72.116L268.468 72.101L268.817 72.09L269.164 72.079C269.44 72.069 269.716 72.061 269.99 72.053L270.704 72.032L271.181 72.016L271.659 72.001L272.029 71.989C273.154 71.953 274.277 71.919 275.399 71.885L275.61 71.878L276.053 71.864L276.113 71.863L277.086 71.833L277.6 71.817L278.548 71.789L278.574 71.788L279.097 71.771L279.154 71.77L280.955 71.716L281.236 71.706L281.518 71.698L282.388 71.672L282.696 71.663L282.997 71.654L283.961 71.625L284.249 71.616L284.538 71.608L285.453 71.581L285.789 71.571L286.128 71.56L286.466 71.551L289.334 71.466L289.587 71.459L289.839 71.451L290.044 71.445L290.258 71.439L290.372 71.435L290.747 71.424L291.37 71.406L292.309 71.379L292.494 71.373L292.68 71.368L293.295 71.35L293.469 71.345L294.811 71.306L294.959 71.302L295.111 71.298L295.75 71.278L295.96 71.273L296.444 71.259L296.553 71.256L296.656 71.252H296.679L297.488 71.229L297.989 71.215L298.941 71.188L299.483 71.173L299.64 71.168L299.795 71.163L300.3 71.149L301.217 71.124L301.324 71.12L302.522 71.087L302.61 71.085L302.707 71.082L302.894 71.076L303.078 71.071L303.569 71.058L304.1 71.042L304.267 71.038L304.43 71.033L304.95 71.018L305.513 71.002L305.626 70.999L305.741 70.996L306.831 70.966L306.951 70.963L307.071 70.959L308.735 70.913L309.203 70.9L309.306 70.898L309.408 70.895L310.306 70.871L310.924 70.853L311.257 70.844L311.582 70.835L312.308 70.815L312.462 70.811L313.077 70.794L313.636 70.778L314.306 70.76L314.869 70.745L315.094 70.738L315.311 70.732L315.531 70.726L316.019 70.713L316.458 70.701L316.651 70.695L316.85 70.69L317.841 70.664L317.968 70.66L319.986 70.607L320.926 70.583L321.141 70.576L321.464 70.568L322.015 70.553L322.151 70.55L322.405 70.543L322.671 70.535L323.542 70.513L323.788 70.507L324.653 70.485L324.973 70.476L325.135 70.471L326.51 70.436L326.741 70.43L326.977 70.424L327.771 70.403L327.942 70.398L328.104 70.394L328.749 70.377L329.627 70.355L329.74 70.352L329.85 70.349L330.863 70.323L331.67 70.302L332.735 70.275L333.424 70.257L333.698 70.25L334.094 70.24L334.431 70.232L334.7 70.224L334.951 70.217L335.165 70.212L335.364 70.207L336.449 70.18L337.022 70.165L337.209 70.161L337.401 70.156L337.687 70.149L338.013 70.14L338.396 70.13L338.725 70.122L339.005 70.115L339.461 70.104L340.405 70.08L341.314 70.058L341.355 70.057L341.757 70.047L342.332 70.032L342.512 70.028L342.7 70.023L343.141 70.012L343.348 70.007L343.575 70.001L343.961 69.992L344.259 69.984L344.441 69.979L344.67 69.974L346.169 69.937L346.356 69.933L346.945 69.918L347.063 69.915L347.177 69.912L348.062 69.891L348.68 69.875L348.802 69.872L348.883 69.87L349.416 69.857L349.772 69.848L349.856 69.846L349.938 69.844L350.311 69.835L350.364 69.833L350.588 69.828L350.962 69.819L351.205 69.813L352.107 69.792L352.347 69.787L352.668 69.779L352.703 69.777L352.795 69.775L352.885 69.774L353.242 69.765L353.662 69.755L353.986 69.747L354.156 69.743L354.25 69.74L354.344 69.738L354.442 69.736L354.739 69.729L354.774 69.728L355.477 69.712L355.632 69.707L355.694 69.706L355.897 69.701L356.293 69.692L356.544 69.686L356.653 69.683L356.913 69.677L356.972 69.676C357.246 69.677 357.516 69.807 357.692 70.018C357.692 70.018 357.709 70.038 357.73 70.066C357.817 70.182 358.129 70.622 358.518 71.462C358.706 71.869 358.887 72.317 359.058 72.799C359.22 73.257 359.373 73.743 359.514 74.256C359.646 74.735 359.772 75.256 359.888 75.803L359.893 75.826C359.936 76.03 359.977 76.239 360.019 76.459C360.054 76.644 360.087 76.834 360.123 77.04L360.129 77.077C360.348 78.373 360.505 79.795 360.597 81.305L360.601 81.365L360.609 81.493C360.667 82.494 360.695 83.528 360.695 84.563C360.695 84.86 360.692 85.149 360.688 85.434C360.661 87.067 360.567 88.63 360.408 90.098Z" fill="url(#paint2_linear_208_1191)"/>
<path d="M11.52 69.928C26.176 72.72 149.002 79.001 191.572 76.209C234.142 73.417 356.969 70.626 356.969 70.626C356.969 70.626 359.76 74.115 359.76 84.584C359.76 95.052 356.969 99.239 356.969 99.239C356.969 99.239 234.142 95.75 191.572 98.541C149.002 101.333 26.176 101.333 11.52 98.541C11.52 98.541 5.93701 93.655 5.93701 83.886C5.93701 74.116 11.52 69.928 11.52 69.928Z" fill="url(#paint3_linear_208_1191)"/>
<path d="M319.265 93.291C319.184 93.938 319.479 94.272 319.926 94.651L327.603 94.419C324.925 94.088 322.009 93.003 319.265 93.291ZM198.048 79.288C204.637 78.958 210.383 76.8 216.441 74.92C215.378 74.967 214.331 75.013 213.297 75.06C211.132 76.272 208.876 77.268 206.48 77.84C202.849 78.707 199.168 78.595 195.491 78.422C192.01 78.257 188.539 77.508 185.141 76.541C182.978 76.627 180.678 76.697 178.259 76.752C180.391 77.358 182.511 77.996 184.611 78.427C189.216 79.37 193.419 79.52 198.048 79.288ZM30.8358 94.884C30.1258 95.366 28.4348 95.909 27.9768 96.047C35.5088 97.403 43.4938 95.434 51.0388 95.581L44.5258 94.884C36.5848 94.849 28.8368 92.766 21.0728 92.361C20.8678 92.767 20.7828 93.253 20.8368 93.686C23.3928 93.628 28.8048 93.531 30.8358 94.884ZM21.0328 86.51L22.4288 87.207C22.9478 86.883 23.4648 86.318 23.7998 85.858C22.8088 85.661 21.3868 86.149 21.0328 86.51ZM26.3828 82.324L28.2428 82.556C28.0688 81.882 27.2888 81.908 26.3828 82.324ZM24.1278 86.505C33.1038 88.223 42.4418 88.03 51.4458 90.168C59.6958 92.126 68.2948 92.559 76.7908 92.559C71.3658 92.519 65.7458 91.028 60.3418 90.29C59.1878 90.133 53.5258 90.068 53.5778 88.37C53.6298 86.605 59.6688 85.734 61.0408 85.58L64.9948 84.649C62.6648 84.557 60.2668 85.612 58.0178 86.058C55.0538 86.645 52.0468 86.743 48.9458 86.743C40.8618 86.743 32.0788 84.799 24.1278 86.505ZM29.4768 81.806C33.7288 82.112 37.7948 81.875 41.9678 81.62C45.6038 81.398 49.6168 81.778 53.1328 80.928L48.4808 80.696C42.3588 80.695 35.2448 79.803 29.4768 81.806ZM317.434 86.034C320.935 87.186 325.063 87.865 328.533 86.97C331.632 86.17 334.898 85.812 338.076 85.36C341.618 84.856 345.182 84.038 348.822 83.481C352.19 82.965 355.954 82.418 359.707 82.172C359.688 81.733 359.664 81.305 359.635 80.895C345.432 81.885 331.849 86.282 317.434 86.034ZM19.4048 94.884L21.7308 95.349C21.3178 94.422 20.1468 94.147 19.4048 94.884ZM275.5 93.023L279.126 92.81C278.053 92.765 276.572 91.835 275.5 93.023ZM244.169 86.522C250.307 86.423 256.654 87.334 262.706 86.499C266.938 85.914 270.965 84.779 275.279 84.418C283.83 83.702 292.417 83.119 301.074 82.789C307.751 82.534 313.869 81.611 320.392 80.928L312.018 81.16C302.193 80.677 291.551 82.127 281.774 83.197C277.194 83.698 272.628 83.957 268.044 84.474C265.639 84.745 261.203 86.429 259.016 85.294C259.696 84.323 261.084 83.97 262.159 83.474C256.72 83.133 249.258 84.555 244.169 86.522ZM330.394 94.186H332.487C331.755 93.326 330.74 93.166 330.394 94.186ZM111.05 88.138L113.376 88.37C113.694 88.15 113.872 87.842 114.231 87.661C111.667 86.864 108.281 87.207 105.52 87.207C102.931 87.207 99.2468 86.699 97.1288 88.416C97.5578 89.688 99.0698 90.206 100.313 90.197C98.8708 86.918 109.294 87.946 111.05 88.138ZM94.0698 83.952H109.655C108.125 82.322 94.6378 82.513 94.0698 83.952ZM348.304 75.113C351.885 75.153 355.438 75.61 358.979 76.038C358.825 75.302 358.658 74.651 358.488 74.081C353.867 74.021 349.198 73.766 344.635 73.956C340.314 74.136 334.979 73.807 330.93 75.294C336.161 76.243 342.85 75.052 348.304 75.113ZM279.455 92.791L279.126 92.81C279.24 92.815 279.35 92.81 279.455 92.791ZM111.05 96.512L113.376 96.28C112.661 95.573 111.709 95.639 111.05 96.512ZM243.401 92.791L244.797 92.559C244.295 92.523 243.851 92.598 243.401 92.791ZM134.511 89.971L133.846 89.999C134.067 90.01 134.29 90.001 134.511 89.971ZM84.3008 83.952L85.9288 83.487C85.2318 83.317 84.6268 83.442 84.3008 83.952ZM85.2418 93.052C84.6338 93.187 83.8748 93.553 83.4528 94.016C87.6408 95.342 92.4758 95.173 96.8668 95.57C100.746 95.921 104.536 96.28 108.491 96.28L103.374 95.349C98.8538 94.714 93.7278 94.737 89.4808 93.057C87.9098 94.472 86.7268 94.653 85.2418 93.052ZM89.4188 83.719L91.7448 83.951C91.3898 82.71 90.1768 82.822 89.4188 83.719ZM226.421 93.489L229.91 92.791C229.425 91.171 226.969 92.398 226.421 93.489ZM236.887 86.51L239.911 86.044C240.172 85.731 240.574 85.792 240.34 85.149C239.108 84.982 237.848 85.843 236.887 86.51ZM205.881 90.279C194.848 92.141 183.722 95.438 172.467 96.564C176.887 98.038 183.927 95.906 188.566 95.173C192.8 94.505 196.929 94.418 201.289 94.418C204.869 94.418 208.243 93.953 211.831 93.953C215.287 93.953 220.398 94.712 223.398 93.488L217.118 92.79C211.758 93.036 206.014 93.068 200.616 92.75C201.931 91.472 204.131 90.966 205.881 90.279ZM238.283 93.255L241.307 93.023C240.474 91.775 239.119 92.045 238.283 93.255ZM65.7758 79.777C69.4058 79.731 73.5868 79.209 77.2608 78.102C78.2028 78.09 79.1518 78.032 80.1138 77.904C85.9938 77.123 91.8708 76.79 97.7878 76.217C99.2258 76.077 100.66 75.918 102.095 75.751C118.403 77.308 134.612 79.918 151.11 79.764C160.896 79.673 170.674 80.129 180.417 80.927C189.943 81.708 199.245 81.24 208.796 81.159C210.387 81.146 211.972 81.053 213.551 80.912C222.778 83.124 230.56 82.1 239.214 78.136H236.723C237.397 78.016 238.073 77.883 238.749 77.729C244.81 76.351 250.947 75.464 257.067 74.552C264.999 75.155 273.245 75.865 281.094 75.061C284.588 74.703 288.077 73.982 291.601 73.541C294.809 73.141 299.143 72.947 302.732 72.016C298.683 72.128 294.52 72.246 290.283 72.37C289.782 72.505 289.285 72.641 288.8 72.787C284.637 74.034 280.832 74.642 276.49 74.647C273.741 74.651 271.01 74.458 268.289 74.181C266.483 73.998 264.31 73.998 262.218 73.767C263.559 73.555 264.898 73.333 266.233 73.1C261.459 73.252 256.687 73.409 251.972 73.569C250.645 74.036 249.32 74.465 247.995 74.828C245.39 75.542 235.794 79.077 233.836 76.734C234.774 75.828 235.862 74.951 237.005 74.099C235.066 74.17 233.148 74.242 231.255 74.316C227.054 76.312 222.991 77.745 218.293 78.595C211.911 79.749 205.268 80.092 198.8 80.41C185.548 81.062 172.665 78.511 159.601 78.368C150.157 78.266 140.921 78.201 131.741 76.792C130.923 76.667 130.103 76.552 129.282 76.442C115.66 76.105 101.465 75.608 87.8168 75.024C85.7248 75.292 83.6348 75.545 81.5448 75.757C74.5288 76.476 67.3708 75.915 60.3958 75.577C54.4748 75.29 48.6008 75.572 42.6718 75.344C36.1468 75.092 28.8188 75.887 23.3488 71.564C23.2118 71.456 23.0788 71.339 22.9488 71.221C21.7128 71.114 20.5538 71.009 19.4768 70.906C20.2758 73.341 19.8818 76.803 22.2328 77.152C23.9438 77.406 26.5268 76.596 28.3028 76.502C30.6898 76.376 33.0908 76.379 35.4608 76.276C41.8428 75.998 48.3738 76.972 54.8138 76.972C59.5068 76.973 64.1138 77.101 68.7708 77.494C69.9168 77.592 71.0478 77.712 72.1738 77.821C70.1688 78.759 67.7568 79.017 65.7758 79.777ZM220.033 80.147C222.297 79.841 224.557 79.526 226.827 79.293C228.738 79.096 230.618 78.939 232.492 78.73C231.557 79.309 230.641 80.13 229.618 80.525C227.515 81.337 225.331 81.218 223.17 80.882C222.122 80.718 221.067 80.42 220.033 80.147ZM126.008 95.809C132.885 97.168 139.681 97.913 146.582 96.693C152.94 95.568 159.017 93.399 165.299 91.918C171.205 90.526 177.286 90.661 183.21 89.527C186.112 88.972 189.119 88.526 191.996 87.919C194.126 87.47 196.3 86.545 198.478 86.184L192.694 86.744C181.843 87.471 171.097 89.596 160.304 91.105C153.565 92.048 146.487 95.949 139.679 95.537C140.833 94.405 142.826 93.954 144.237 93.071C141.472 92.777 138.212 94.321 135.48 94.839C132.489 95.405 129.041 95.88 126.008 95.809ZM199.672 86.046C199.274 86.068 198.876 86.117 198.479 86.184L199.905 86.045C199.826 86.046 199.749 86.046 199.672 86.046ZM283.601 92.819C282.994 92.925 282.187 93.125 281.618 93.494C287.197 95.018 294.559 93.954 300.383 93.954C306.06 93.954 311.716 94.379 317.367 94.419L313.413 93.256C312.246 92.487 310.605 92.791 309.243 92.791H297.602C293.953 92.791 289.788 92.222 286.183 92.792C285.107 92.962 284.296 94.35 283.601 92.819ZM126.003 84.417C128.543 84.664 134.197 84.535 136.246 86.324C138.193 88.024 136.454 89.722 134.511 89.971L139.428 89.767C142.008 89.259 144.455 87.854 147.026 87.215C140.836 84.918 132.755 83.2 126.003 84.417ZM137.591 86.028C138.889 85.389 142.145 86.456 141.056 88.138L138.73 87.906C138.218 87.441 137.813 86.649 137.591 86.028Z" fill="url(#paint4_linear_208_1191)"/>
<path d="M320.948 74.565C330.971 73.132 350.863 72.171 357.671 71.873C357.269 71.004 356.97 70.627 356.97 70.627C356.97 70.627 354.841 70.675 351.052 70.766C331.164 72.083 279.236 76.31 276.29 76.31C272.802 76.31 237.913 80.148 242.797 80.497C247.681 80.845 308.736 76.309 320.948 74.565ZM359.163 92.329C359.323 91.384 359.462 90.333 359.565 89.17C353.901 88.988 348.447 88.827 343.193 88.684C348.333 87.798 355.213 86.687 359.735 86.248C359.751 85.711 359.76 85.159 359.76 84.585C359.76 84.275 359.758 83.972 359.753 83.675L328.274 88.172L328.995 88.328C305.636 87.8 286.72 87.662 271.416 87.772C273.693 87.672 275.443 87.574 275.941 87.473C277.686 87.124 318.505 85.38 331.762 83.286C341.486 81.752 348.956 79.841 352.248 78.932C354.907 79.017 357.326 79.125 359.482 79.242C359.376 78.288 359.247 77.425 359.1 76.648C350.833 76.487 340.288 76.441 333.506 77.007C320.946 78.054 258.495 81.194 252.565 82.938C252.565 82.938 311.486 79.403 335.388 78.83C331.62 80.02 325.322 81.789 319.9 82.24C311.527 82.938 282.22 85.381 276.289 85.729C272.533 85.95 264.72 87.15 259.849 87.913C213.674 88.717 207.558 92.009 207.558 92.009C230.591 89.377 346.094 92.02 359.163 92.329ZM5.93701 83.886C5.93701 93.655 11.52 98.541 11.52 98.541C26.176 101.333 149.002 101.333 191.572 98.541C234.142 95.75 356.969 99.239 356.969 99.239C356.969 99.239 357.455 98.506 358.022 96.894C346.422 96.529 299.257 95.057 280.152 94.65C258.288 94.185 206.649 93.72 192.229 96.511C185.955 97.726 169.378 98.411 151.196 98.723C162.589 96.948 172.16 94.538 182.789 92.705C203.024 89.217 239.657 84.332 239.657 84.332L241.401 83.635C216.979 81.891 169.531 93.752 154.529 96.892C139.528 100.033 113.012 97.939 76.728 95.148C54.908 93.47 32.457 90.403 18.025 88.225C18.084 87.453 18.115 86.627 18.115 85.728C18.115 85.109 18.104 84.499 18.085 83.894C31.986 84.67 52.566 85.379 63.471 83.635C80.915 80.844 125.223 81.541 144.412 84.332C147.931 84.844 151.767 85.179 155.685 85.387C151.63 86.686 147.583 88.247 143.638 89.489C131.96 93.161 118.417 93.903 106.366 92.026C103.803 91.627 101.022 91.414 98.36 90.883C96.254 90.464 91.102 89.805 93.817 87.387C96.017 85.426 103.615 86.18 106.463 86.077C110.458 85.932 114.501 85.701 118.202 87.193C116.795 91.012 105.857 89.583 102.304 89.558C106.482 90.283 110.835 91.221 115.179 91.309C119.782 91.403 129.99 91.634 133.564 88.605C129.784 86.1 124.451 85.745 120.069 85.37C113.043 84.767 106.066 84.682 98.964 84.682C91.783 84.682 84.661 84.808 77.506 85.032C73.676 85.151 63.533 84.711 61.059 87.763C70.233 89.489 79.547 90.109 88.864 90.962C99.799 91.965 110.699 93.941 121.66 94.458C132.71 94.98 143.8 91.69 154.525 89.479C160.028 88.344 165.493 87.88 171.024 87.039C172.84 86.763 179.704 86.274 182.66 85.283C188.415 85.006 192.213 84.681 192.213 84.681L210.703 83.285C210.703 83.285 182.793 82.936 173.025 82.936C163.256 82.936 107.434 79.796 92.78 79.796C78.127 79.796 56.845 81.192 41.145 82.936C33.568 83.778 24.935 83.239 18.03 82.455C18.004 81.957 17.972 81.464 17.936 80.973C24.02 81.275 32.554 79.902 35.204 79.779C46.001 79.28 56.854 78.751 67.661 78.751L17.721 78.441C17.463 75.837 17.124 73.27 16.827 70.638C14.464 70.384 12.666 70.146 11.525 69.928C11.52 69.928 5.93701 74.116 5.93701 83.886ZM16.094 96.085C16.907 94.016 17.505 92.183 17.832 89.965C29.751 91.547 53.859 95.315 76.903 98.032C57.307 97.821 28.412 97.943 16.094 96.085Z" fill="url(#paint5_linear_208_1191)"/>
<path d="M215.372 95.6981C212.116 95.8141 199.556 97.2111 199.556 97.2111C199.556 97.2111 220.49 96.7451 222.001 96.7451C223.514 96.7451 255.962 96.6291 258.172 96.6291C260.382 96.6291 280.617 96.8611 284.804 96.6291C288.992 96.3971 309.576 97.5601 314.577 97.4431C319.578 97.3271 354.818 98.4901 354.818 98.4901L355.98 97.675C355.98 97.675 326.44 96.5121 321.671 96.6281C316.902 96.7441 296.085 96.0471 292.48 95.9311C288.875 95.8141 276.081 95.4651 271.313 95.5811C266.544 95.6971 257.938 95.4651 255.147 95.6971C252.356 95.9301 239.33 95.4651 235.027 95.9301C230.724 96.3961 218.629 95.5821 215.372 95.6981ZM346.559 91.511C348.072 91.511 358.074 91.6271 358.074 91.6271L356.213 90.5801C356.213 90.5801 341.326 90.348 341.094 89.649C340.862 88.952 345.398 86.8581 345.398 86.8581L355.284 85.4621C355.284 85.4621 343.886 86.2771 341.91 86.9741C339.932 87.6721 333.186 89.184 332.605 89.3C332.023 89.416 326.091 90.1151 326.091 90.1151C326.091 90.1151 301.552 88.8361 295.854 88.7191C290.155 88.6031 272.826 88.951 272.477 88.951C272.127 88.951 267.708 88.7191 267.708 88.7191L270.15 87.3231C270.15 87.3231 264.451 88.3701 263.87 88.6031C263.289 88.8351 252.937 89.533 251.542 89.3C250.146 89.068 234.795 89.649 234.213 89.649C233.632 89.649 228.398 90.2311 228.398 90.2311C228.398 90.2311 246.657 90.3471 249.565 90.1151C252.472 89.8831 269.452 90.1151 274.453 90.2311C279.455 90.3471 297.714 90.4631 302.482 90.4631C307.251 90.4631 328.882 91.1611 331.557 91.1611C334.232 91.1631 345.047 91.511 346.559 91.511ZM353.305 78.0201L354.236 77.7881C354.236 77.7881 350.747 76.8571 348.885 77.0911C347.025 77.3221 336.442 77.4401 336.442 77.4401L332.139 77.6721L338.418 78.485C338.418 78.485 335.86 79.416 333.65 80.23C331.44 81.043 325.857 82.3241 325.508 82.4401C325.159 82.5561 322.019 83.1371 322.019 83.1371C322.019 83.1371 327.951 83.1371 330.742 82.3241C333.534 81.5091 340.047 80.23 341.908 79.881C343.768 79.532 346.093 79.998 347.024 79.532C347.955 79.067 349.699 78.3691 350.047 78.2541C350.398 78.1361 353.305 78.0201 353.305 78.0201ZM311.67 84.3L314.112 83.4871C314.112 83.4871 307.133 83.9521 304.808 84.1841C302.482 84.4161 295.503 84.7651 293.875 84.9991C292.526 85.1911 287.828 85.783 285.924 85.98C288.69 85.782 297.904 85.1911 300.504 84.9991C303.644 84.7651 311.67 84.3 311.67 84.3ZM285.153 86.045C285.253 86.045 285.529 86.021 285.924 85.98C285.348 86.021 285.052 86.045 285.153 86.045ZM303.528 75.6951L310.506 74.5311C310.506 74.5311 294.921 75.9281 291.898 76.0441C288.875 76.1601 278.291 76.9751 277.942 76.9751C277.593 76.9751 271.081 77.2071 271.081 77.2071L265.963 78.485C265.963 78.485 287.13 77.0911 289.573 76.8571C292.014 76.6251 303.528 75.6951 303.528 75.6951ZM200.136 88.3711C199.787 88.3711 191.181 89.6501 191.181 89.6501C191.181 89.6501 198.391 89.3011 202.927 88.6041C207.463 87.9061 215.139 86.394 215.489 86.394C215.838 86.394 220.489 86.162 220.489 86.162L230.957 84.5331L225.955 84.649C225.955 84.649 216.769 85.3471 214.442 85.8121C212.116 86.2781 200.485 88.3711 200.136 88.3711ZM153.5 87.0911L146.406 89.1851C146.406 89.1851 153.85 88.7201 158.502 87.6731C163.153 86.6261 168.504 85.8121 169.201 85.6951C169.899 85.5791 175.597 85.23 175.597 85.23L180.947 84.6481L185.948 83.8351C185.948 83.8351 180.249 83.6021 177.226 83.6021C174.201 83.6021 162.805 83.2531 162.106 83.2531C161.408 83.2531 152.453 83.0211 151.988 83.0211C151.523 83.0211 146.288 82.7891 146.288 82.7891C146.288 82.7891 156.058 84.3011 157.337 84.9991C158.618 85.6961 153.5 87.0911 153.5 87.0911ZM128.844 88.7201C127.448 87.5571 118.144 86.5101 118.144 86.5101C118.144 86.5101 120.703 87.7891 120.47 88.7201C120.238 89.6501 117.911 89.7671 117.911 89.7671C125.24 90.0001 128.844 88.7201 128.844 88.7201ZM66.0418 86.743C66.0418 86.743 73.0198 88.1391 77.6708 88.7211C82.3228 89.3021 92.5579 90.4651 92.5579 90.4651L91.0458 89.6511C90.5808 89.6511 84.4168 88.9541 84.4168 88.2551C84.4168 87.5581 92.9069 86.045 92.9069 86.045C92.9069 86.045 69.5308 85.696 66.0418 86.743ZM68.0189 95.6981C68.7169 95.9311 79.9968 98.14 80.5798 98.373C81.1608 98.606 73.9508 99.3041 73.9508 99.3041L69.8799 99.5361C69.8799 99.5361 75.1129 99.886 76.9749 99.769C78.8359 99.652 90.9308 98.9551 92.4428 99.1871C93.9548 99.4191 100.003 99.769 100.003 99.769L111.866 99.071C111.866 99.071 93.7229 97.9081 88.9539 97.3271C84.1859 96.7451 73.6018 95.6981 73.1368 95.8141C72.6708 95.9311 67.3209 95.4661 68.0189 95.6981ZM16.3808 97.0931L14.0548 98.024C14.0548 98.024 22.7778 98.7221 25.3358 98.9551C27.8948 99.1871 44.7578 99.652 44.7578 99.652L54.0628 99.1871C54.0628 99.1871 37.8959 98.6061 35.6859 98.4901C33.4759 98.3731 20.5668 97.675 20.5668 97.675L16.3808 97.0931ZM60.4598 94.7681L50.1078 93.3721C50.1078 93.3721 45.3398 92.907 44.9908 92.907C44.6418 92.907 58.3658 95.2331 60.4598 94.7681ZM55.9229 83.7191C55.9229 83.7191 62.2038 83.2531 63.4828 82.9041C64.7618 82.5551 81.9749 80.9271 81.9749 80.9271L72.9038 81.1591C72.5548 81.1591 67.2048 81.5091 65.4598 81.8571C63.7158 82.2071 59.9939 82.4391 54.9929 82.6711C49.9929 82.9031 42.3158 84.183 42.3158 84.183L55.9229 83.7191ZM22.1958 79.998C24.0568 79.881 28.9418 79.3 28.9418 79.3H23.3588L18.5909 79.4161L17.4278 79.881C17.4278 79.88 20.3358 80.114 22.1958 79.998ZM13.5898 71.5081C13.5898 71.5081 16.1488 74.6481 16.1488 75.5781L16.0318 71.5081H13.5898ZM38.5948 91.86L36.9668 91.2791L33.9428 91.3951C33.9428 91.3951 37.4318 92.092 38.5948 91.86ZM123.262 93.7211C123.262 93.7211 130.124 94.1861 133.962 92.4421C133.962 92.4421 125.007 93.7211 123.262 93.7211ZM117.214 98.9551L115.702 99.5361C117.214 99.7691 123.843 99.1871 123.843 99.1871L117.214 98.9551Z" fill="url(#paint6_linear_208_1191)"/>
<path d="M358.178 73.1299C348.106 72.9649 305.989 72.4219 288.848 74.5649C269.311 77.0069 226.746 75.6119 226.746 75.6119L224.378 74.588C277.625 72.431 356.969 70.6279 356.969 70.6279C356.969 70.6279 357.548 71.3539 358.178 73.1299Z" fill="url(#paint7_radial_208_1191)"/>
<path d="M130.645 76.476C155.144 77.065 177.651 77.122 191.573 76.209C196.821 75.864 203.291 75.521 210.6 75.182C203.475 76.209 177.468 79.847 164.298 80.147C154.119 80.378 139.65 78.003 130.645 76.476Z" fill="url(#paint8_radial_208_1191)"/>
<path d="M66.9572 77.007C57.1892 77.007 21.6022 73.867 21.6022 73.867L13.6792 70.265C25.9772 71.913 67.9322 74.445 109.534 75.86L109.522 75.96C109.522 75.96 76.7262 77.007 66.9572 77.007Z" fill="url(#paint9_radial_208_1191)"/>
<path d="M11.729 98.373L11.42 98.449C10.681 97.748 5.93701 92.895 5.93701 83.886C5.93701 74.115 11.52 69.928 11.52 69.928C11.53 69.93 11.541 69.932 11.552 69.934C12.09 70.483 16.382 75.151 16.382 84.416C16.381 94.302 11.729 98.373 11.729 98.373Z" fill="url(#paint10_linear_208_1191)"/>
<path d="M14.52 79.9979L14.404 87.674C15.534 85.544 15.311 82.2709 14.52 79.9979ZM5.93701 83.8859C5.93701 92.8949 10.681 97.747 11.42 98.449L11.729 98.3729C11.729 98.3729 16.381 94.3029 16.381 84.4169C16.381 75.1509 12.089 70.4829 11.551 69.9349C11.541 69.9329 11.53 69.931 11.519 69.929C11.519 69.929 5.93701 74.1159 5.93701 83.8859ZM7.80702 89.1849C7.03902 86.5729 6.64201 83.4249 6.75401 80.7009C6.85001 78.3339 7.91102 75.5879 9.08002 73.5129C9.48502 72.7939 10.679 71.8849 11.488 70.9559C11.699 71.1669 11.893 71.3869 12.051 71.6229C17.42 79.5829 16.382 89.364 11.8 97.181C10.92 96.534 10.337 94.858 9.83202 93.85C11.295 94.044 12.538 92.682 12.979 90.929C13.92 87.181 13.987 82.857 13.214 79.067C13.04 78.213 12.589 75.537 11.495 75.338C10.086 75.079 8.98601 78.063 8.73001 78.981C8.18501 80.943 8.26101 82.657 8.72801 84.65C9.05401 86.046 9.66802 89.2229 11.153 89.8749C12.139 88.6939 13.087 80.7889 10.801 80.6909C8.79501 80.6059 9.97302 84.779 10.783 85.546C10.441 84.864 9.89702 83.1879 10.097 82.4409C10.597 80.5759 11.355 82.593 11.489 83.494C11.633 84.462 11.576 89.282 10.184 86.976C9.27202 85.467 9.08002 83.006 9.16902 81.278C9.21802 80.319 10.07 76.0359 11.73 76.6429C13.623 77.3349 13.007 85.2399 13.006 86.8539C13.006 88.1289 13.09 91.0839 11.842 91.8669C10.756 92.5479 9.24901 91.356 8.03201 89.924C7.95701 89.682 7.88102 89.4379 7.80702 89.1849ZM11.613 95.4659L12.543 93.489C12.059 93.778 11.563 94.0549 11.069 94.3259C11.329 94.6689 11.536 95.0499 11.613 95.4659ZM8.24002 87.2429C8.24002 88.1559 8.12301 89.104 8.58801 89.884L9.86801 89.7679C9.19501 89.1849 8.42302 88.0909 8.24002 87.2429ZM8.24002 77.4379L9.28601 75.811C10.269 74.924 11.559 73.729 12.666 75.186C12.129 73.814 11.824 72.5569 10.445 73.7139C9.39601 74.5969 8.29102 76.0029 8.24002 77.4379Z" fill="url(#paint11_linear_208_1191)"/>
<defs>
<linearGradient id="paint0_linear_208_1191" x1="173.002" y1="137.923" x2="173.002" y2="105.673" gradientUnits="userSpaceOnUse">
<stop stop-color="#4F2408"/>
<stop offset="1" stop-color="#170000"/>
</linearGradient>
<linearGradient id="paint1_linear_208_1191" x1="173.002" y1="137.923" x2="173.002" y2="105.672" gradientUnits="userSpaceOnUse">
<stop stop-color="#613619"/>
<stop offset="1" stop-color="#301900"/>
</linearGradient>
<linearGradient id="paint2_linear_208_1191" x1="182.849" y1="84.612" x2="182.849" y2="92.3781" gradientUnits="userSpaceOnUse">
<stop stop-color="#3B1C00"/>
<stop offset="1" stop-color="#0F0000"/>
</linearGradient>
<linearGradient id="paint3_linear_208_1191" x1="182.849" y1="84.6715" x2="182.849" y2="91.9842" gradientUnits="userSpaceOnUse">
<stop stop-color="#884C23"/>
<stop offset="1" stop-color="#5C3211"/>
</linearGradient>
<linearGradient id="paint4_linear_208_1191" x1="189.556" y1="86.2213" x2="189.556" y2="93.8176" gradientUnits="userSpaceOnUse">
<stop stop-color="#A96B40"/>
<stop offset="1" stop-color="#7D4D26"/>
</linearGradient>
<linearGradient id="paint5_linear_208_1191" x1="182.849" y1="84.65" x2="182.849" y2="91.9725" gradientUnits="userSpaceOnUse">
<stop stop-color="#613619"/>
<stop offset="1" stop-color="#301900"/>
</linearGradient>
<linearGradient id="paint6_linear_208_1191" x1="185.832" y1="82.2351" x2="185.832" y2="91.0869" gradientUnits="userSpaceOnUse">
<stop stop-color="#964821"/>
<stop offset="1" stop-color="#592C00"/>
</linearGradient>
<radialGradient id="paint7_radial_208_1191" cx="0" cy="0" r="1" gradientUnits="userSpaceOnUse" gradientTransform="translate(298.331 56.4062) rotate(180) scale(63.387 63.3872)">
<stop stop-color="#F5BB97"/>
<stop offset="1" stop-color="#A96B40"/>
</radialGradient>
<radialGradient id="paint8_radial_208_1191" cx="0" cy="0" r="1" gradientUnits="userSpaceOnUse" gradientTransform="translate(162.632 64.4981) rotate(180) scale(36.8773 36.8775)">
<stop stop-color="#F5BB97"/>
<stop offset="1" stop-color="#A96B40"/>
</radialGradient>
<radialGradient id="paint9_radial_208_1191" cx="0" cy="0" r="1" gradientUnits="userSpaceOnUse" gradientTransform="translate(59.001 64.4921) rotate(180) scale(38.659 38.659)">
<stop stop-color="#F5BB97"/>
<stop offset="1" stop-color="#A96B40"/>
</radialGradient>
<linearGradient id="paint10_linear_208_1191" x1="11.1593" y1="87.7252" x2="11.1593" y2="96.7719" gradientUnits="userSpaceOnUse">
<stop stop-color="#D5A370"/>
<stop offset="1" stop-color="#A9764C"/>
</linearGradient>
<linearGradient id="paint11_linear_208_1191" x1="11.1593" y1="86.4713" x2="11.1593" y2="94.6767" gradientUnits="userSpaceOnUse">
<stop stop-color="#AF7E4B"/>
<stop offset="1" stop-color="#83552E"/>
</linearGradient>
</defs>
</svg>
