<svg width="357" height="153" viewBox="0 0 357 153" fill="none" xmlns="http://www.w3.org/2000/svg">
<path d="M170.835 88.2064C175.378 90.0913 179.748 91.1324 183.821 91.3014C184.128 91.3137 184.439 91.3211 184.744 91.3211C186.422 91.3211 188.046 91.1275 189.568 90.7475C191.652 90.227 193.428 89.1081 195.146 88.0287C195.394 87.8733 195.642 87.7167 195.893 87.5625C197.405 86.625 198.889 86.129 200.184 86.129C201.277 86.129 202.26 86.4819 203.106 87.1788C204.645 88.4482 204.34 90.9683 203.903 93.0222C203.261 96.0494 203.853 98.535 205.617 100.211C207.27 101.783 209.622 102.58 212.61 102.58C215.072 102.58 217.978 102.038 221.25 100.969C221.996 100.726 222.731 100.462 223.438 100.187C225.274 100.762 227.374 101.13 230.019 101.345C231.129 101.435 232.259 101.481 233.376 101.481C237.614 101.481 241.743 100.827 245.317 99.5861C250.483 97.7949 252.975 93.3849 255.383 89.1192L255.41 89.0723C256.279 87.5329 257.103 86.3005 257.963 85.2643C262.857 91.9688 271.941 96.5835 280.414 96.5835C281.079 96.5835 281.743 96.5552 282.388 96.4996C285.852 96.1987 289.7 94.8454 293.827 92.4745C300.036 88.907 300.79 85.2532 300.329 82.8157C299.335 77.5632 292.312 76.9513 289.313 76.6898C285.437 76.353 281.303 76.0224 277.128 76.0224C275.709 76.0224 274.334 76.0619 273.042 76.1409C266.944 76.5085 262.019 78.1577 258.39 81.0455C257.863 79.9822 257.452 78.8831 257.167 77.7704C256.125 73.7132 256.656 70.2913 258.74 67.6034C263.863 61.0001 276.657 60.2871 281.919 60.2871C283.304 60.2871 284.665 60.3339 285.966 60.424C286 60.4252 286.032 60.4264 286.064 60.4264C286.734 60.4264 287.258 59.9108 287.281 59.2262C287.306 58.4947 286.784 57.905 286.069 57.8545C284.264 57.7286 282.506 57.6657 280.845 57.6657C273.183 57.6657 266.773 59.0263 261.796 61.7094C257.996 63.7583 255.417 66.8977 254.533 70.5479C253.596 74.4163 254.291 78.872 256.437 82.849C254.837 84.5846 253.694 86.6274 252.584 88.6073C251.362 90.7882 250.209 92.8483 248.499 94.5309C245.101 97.8738 239.449 98.498 234.367 98.6683C233.854 98.6855 233.347 98.6954 232.858 98.6954C230.918 98.6954 229.135 98.5585 227.529 98.2859C231.181 96.2653 233.671 93.8376 234.942 91.0498C235.953 88.8355 235.866 86.5189 234.693 84.3502C232.665 80.6027 228.153 78.3514 224.818 77.8456C224.362 77.7766 223.901 77.7408 223.448 77.7408C219.843 77.7408 216.632 79.9205 215.067 83.4288C213.323 87.3379 213.905 92.1242 216.549 95.6238C217.225 96.5206 218.038 97.3163 218.973 98.0009C217.606 98.3648 216.229 98.6263 214.86 98.7805C214.08 98.8681 213.382 98.9101 212.725 98.9101C211.049 98.9101 209.69 98.6201 208.685 98.0465C207.428 97.3298 206.984 95.9852 207.366 94.0473C207.866 91.5185 208.227 89.0563 207.165 86.7348C206.06 84.3133 203.564 82.775 200.322 82.5159C200.141 82.4999 199.955 82.4937 199.771 82.4937C197.167 82.4937 194.886 83.9555 192.874 85.2446C192.691 85.3618 192.509 85.479 192.329 85.5937C190.588 86.6977 188.918 87.3515 187.075 87.65C186.197 87.7919 185.26 87.8647 184.296 87.8647C181.69 87.8647 178.724 87.3454 175.223 86.2759C170.872 84.9473 166.69 82.8909 162.79 80.166C158.844 77.4077 155.926 74.3053 154.12 70.9426C153.227 69.2822 152.681 67.4911 152.54 65.7616C152.409 64.1654 152.763 62.6432 153.137 61.0297C153.194 60.783 153.252 60.5338 153.307 60.2846C154.628 54.3968 156.066 45.694 153.307 38.1371C152.16 34.9952 150.194 32.4775 147.619 30.8554C145.287 29.3862 142.304 28.6399 138.755 28.6399C138.096 28.6399 137.404 28.6646 136.697 28.7164C131.498 29.0864 125.764 30.6543 120.552 33.135C119.142 33.8061 117.813 34.6819 116.594 35.7428C114.113 35.126 111.419 34.8127 108.578 34.8127C106.181 34.8127 103.725 35.0359 101.282 35.4739C99.3758 35.8156 95.9033 36.7876 94.0677 39.4521C93.2647 40.6178 92.9119 41.865 92.9588 43.3773C92.9699 43.7462 93.0118 44.1175 93.0501 44.4764C93.1697 45.5632 93.2733 46.5032 92.6269 47.1718C92.0509 47.7688 91.1664 48.0451 89.8428 48.0451C89.0323 48.0451 88.1602 47.9403 87.2622 47.8243L87.1104 47.8033C86.2679 47.6948 85.471 47.5912 84.7506 47.5912C81.7913 47.5973 79.4031 49.2528 77.0149 51.0982C75.1781 52.5168 73.5708 54.0292 72.2348 55.5933C71.9857 55.8857 71.9302 56.2804 72.0905 56.6271C72.2496 56.9712 72.5913 57.1933 72.9602 57.1933C73.2155 57.1933 73.4585 57.0884 73.6423 56.8948C74.4812 56.0165 75.4434 55.1456 76.5844 54.2364C77.2863 53.6776 78.0301 53.1829 78.6 52.8129C78.7148 52.7376 78.8332 52.6587 78.9541 52.5785C79.545 52.185 80.216 51.736 80.7909 51.6323C81.2448 51.5522 81.6642 51.3437 82.0688 51.1426C82.3106 51.023 82.5388 50.9095 82.7374 50.8429C83.2506 50.6714 83.7909 50.5875 84.4385 50.5801L84.5557 50.5789C85.4537 50.5789 86.3505 50.7072 87.3016 50.8429C87.7803 50.9107 88.2762 50.981 88.7671 51.0328C89.1828 51.076 89.6047 51.0995 90.0216 51.0995C93.1808 51.0995 95.4148 49.8646 96.15 47.7133C96.5744 46.4723 96.4781 45.2548 96.3844 44.0755C96.3733 43.9287 96.3622 43.7807 96.3511 43.6327C96.2536 42.2844 96.7076 41.3173 97.8215 40.4932C99.7631 39.0574 102.476 38.712 104.864 38.4986C106.025 38.3962 107.208 38.3444 108.381 38.3444C109.915 38.3444 111.466 38.4332 112.992 38.6084C113.283 38.6417 113.573 38.6799 113.857 38.7206C112.988 39.9098 112.295 41.1742 111.793 42.4916C111.035 44.474 111.043 46.534 111.815 48.1487C112.473 49.5254 113.646 50.5209 115.206 51.0267C116.052 51.3005 117.068 51.4449 118.145 51.4449C121.986 51.4449 126.228 49.6821 126.466 45.8099C126.601 43.6191 125.275 41.5418 124.209 39.8728L124.184 39.8345C123.181 38.2654 121.354 37.3131 119.722 36.6975C123.179 34.112 127.796 32.8094 132.317 31.7941C134.668 31.2662 136.748 31.0096 138.678 31.0096C140.841 31.0096 142.82 31.3463 144.559 32.01C151.418 34.6301 152.334 43.08 152.27 47.8835C152.222 51.4954 151.704 55.3651 150.732 59.3841C150.669 59.6468 150.603 59.9096 150.538 60.1723C150.141 61.7661 149.73 63.4142 149.719 65.1523C149.708 66.9681 150.105 68.8838 150.898 70.8439C154.736 80.3461 165.037 85.8009 170.835 88.2064ZM259.984 83.2154C262.046 81.4896 264.749 80.2708 268.245 79.49C270.558 78.9731 273.029 78.7338 276.021 78.7338C278.438 78.7338 280.909 78.8942 283.298 79.0484C284.151 79.1026 285.003 79.1594 285.853 79.2075L286.216 79.2285C288.334 79.3481 290.524 79.4715 292.616 79.9082C295.378 80.4855 296.928 81.4353 297.494 82.8959C298.507 85.5122 296.253 88.2335 290.793 90.9893C286.962 92.9223 283.455 93.8623 280.072 93.8623C279.833 93.8623 279.591 93.8574 279.351 93.8475C271.699 93.5428 263.919 89.3659 259.774 83.393C259.846 83.3326 259.915 83.2733 259.984 83.2154ZM218.023 84.2331C218.806 82.6911 220.09 81.571 221.638 81.0813C222.103 80.9333 222.604 80.858 223.125 80.858C224.432 80.858 225.888 81.3132 227.451 82.2112C230.409 83.9086 231.948 85.5801 232.157 87.3244C232.335 88.8145 231.555 90.4342 229.838 92.1365C227.975 93.9844 225.481 95.5831 222.61 96.7723C221.59 96.2665 220.695 95.6559 219.943 94.9552C217.051 92.2525 216.243 87.7426 218.023 84.2331ZM120.38 40.8818C121.669 41.6565 122.99 43.962 123.096 45.6236C123.2 47.2544 120.333 47.9822 118.801 48.1401C118.417 48.1808 118.05 48.2006 117.712 48.2006C116.221 48.2006 115.201 47.8243 114.682 47.0817C113.948 46.0357 114.319 44.4715 114.662 43.3859C115.078 42.071 115.84 40.7301 116.932 39.3929C118.216 39.7765 119.374 40.2774 120.38 40.8818Z" fill="url(#paint0_linear_208_1088)"/>
<path d="M73.1128 56.3952C74.0515 55.412 75.0667 54.5152 76.1288 53.669C76.7913 53.141 77.4919 52.6649 78.2025 52.2035C78.9229 51.7372 79.8024 51.0736 80.661 50.9181C81.263 50.8108 81.9106 50.3544 82.5051 50.1545C83.1355 49.9436 83.7646 49.8634 84.4271 49.8548C85.8999 49.8363 87.3802 50.1583 88.8407 50.3112C91.2191 50.5616 94.5509 50.1373 95.4588 47.4802C95.8832 46.2367 95.7142 44.9686 95.6217 43.6869C95.5057 42.0784 96.0867 40.8707 97.3857 39.9098C99.4803 38.3604 102.276 37.999 104.797 37.7757C107.547 37.5327 110.331 37.5722 113.072 37.8867C115.73 38.1914 118.448 38.8699 120.756 40.2576C122.312 41.1951 123.705 43.7363 123.822 45.5755C123.968 47.8564 120.572 48.6878 118.877 48.863C117.272 49.0283 115.117 48.9654 114.088 47.4974C113.204 46.2355 113.542 44.5233 113.971 43.1664C114.591 41.1988 115.846 39.4324 117.239 37.9398C121.022 33.8924 126.91 32.2629 132.153 31.0873C136.28 30.1609 140.784 29.7945 144.813 31.334C151.474 33.8776 153.075 41.5331 152.991 47.8959C152.939 51.81 152.353 55.7562 151.433 59.558C150.984 61.4146 150.454 63.234 150.441 65.1584C150.432 67.0149 150.876 68.8616 151.568 70.5738C154.848 78.6808 163.346 84.3095 171.114 87.5341C175.161 89.2142 179.456 90.3923 183.85 90.5748C185.705 90.6513 187.588 90.4922 189.39 90.0407C191.652 89.4745 193.552 88.1533 195.507 86.9432C197.977 85.4136 201.076 84.5624 203.567 86.6163C205.461 88.178 205.062 91.0596 204.615 93.1715C204.123 95.4832 204.316 97.9713 206.117 99.6822C209.846 103.228 216.735 101.677 221.022 100.276C225.921 98.6744 232.015 95.7089 234.28 90.7463C237.059 84.6537 230.129 79.3852 224.707 78.5624C220.794 77.969 217.309 80.1808 215.729 83.7224C214.06 87.4625 214.674 91.9379 217.127 95.1835C220.154 99.1913 225.35 100.235 230.076 100.619C235.031 101.019 240.361 100.532 245.074 98.8977C249.999 97.1892 252.357 92.9877 254.773 88.7122C256.053 86.4461 257.508 84.3355 259.517 82.6541C261.952 80.6175 265.024 79.4616 268.085 78.7782C273.95 77.4682 279.97 78.1417 285.896 78.4797C288.199 78.6105 290.502 78.7215 292.767 79.1952C294.846 79.6306 297.336 80.4731 298.172 82.6319C299.816 86.8754 294.148 90.1098 291.121 91.637C287.425 93.5009 283.491 94.7381 279.322 94.5716C269.759 94.1892 258.936 87.6044 256.458 77.948C252.138 61.1123 274.564 58.8981 286.013 59.6937C286.733 59.7443 286.728 58.6267 286.013 58.5773C278.114 58.0272 269.238 58.5181 262.137 62.3471C258.813 64.1395 256.14 66.9841 255.235 70.7169C254.182 75.0677 255.362 79.8354 257.69 83.5645C262.602 91.4334 273.104 96.5724 282.322 95.7743C286.213 95.4363 290.11 93.7685 293.461 91.8417C296.607 90.0345 300.383 87.0333 299.61 82.9477C298.762 78.4686 292.908 77.7309 289.246 77.4114C283.905 76.9464 278.439 76.5393 273.083 76.8637C267.314 77.2128 261.36 78.8153 257.223 83.0711C253.802 86.5904 252.503 91.6049 249.005 95.0477C245.343 98.6498 239.259 99.2308 234.386 99.3936C229.467 99.5577 223.237 99.026 219.446 95.4844C216.319 92.5633 215.436 87.7191 217.373 83.9012C218.215 82.2433 219.637 80.9481 221.417 80.3856C223.589 79.6985 225.923 80.4941 227.812 81.5784C229.934 82.7959 232.574 84.6932 232.877 87.2356C233.125 89.3116 231.825 91.1855 230.348 92.6509C226.423 96.5453 220.365 98.8903 214.936 99.5009C212.741 99.7477 210.204 99.7514 208.319 98.6769C206.654 97.7271 206.247 95.9335 206.648 93.9055C207.094 91.6443 207.496 89.2191 206.5 87.0357C205.384 84.5945 202.822 83.4448 200.259 83.2401C197.44 83.0131 194.966 84.7783 192.713 86.2068C190.97 87.3121 189.222 88.0362 187.184 88.3655C183.149 89.0193 178.858 88.1459 175.004 86.9703C170.502 85.5949 166.224 83.4559 162.369 80.7606C158.814 78.2762 155.542 75.1355 153.473 71.2855C152.567 69.598 151.966 67.7329 151.809 65.8208C151.649 63.8545 152.166 62.0214 152.591 60.1242C154.143 53.2064 155.107 45.203 152.619 38.3851C151.586 35.5577 149.79 33.0844 147.225 31.4685C144.129 29.5182 140.308 29.1864 136.744 29.4392C131.379 29.8192 125.701 31.4845 120.859 33.7888C117.136 35.5602 113.941 38.8896 112.466 42.7482C111.29 45.8235 112.058 49.2405 115.423 50.3322C118.868 51.4498 125.46 50.1891 125.732 45.7643C125.853 43.7943 124.573 41.807 123.562 40.2243C122.288 38.2284 119.444 37.2921 117.272 36.6741C112.218 35.2383 106.547 35.2642 101.403 36.1869C98.9301 36.6297 96.1398 37.714 94.6607 39.8617C93.9218 40.9336 93.6393 42.0574 93.68 43.3514C93.7269 44.8206 94.2943 46.4822 93.1447 47.6726C91.203 49.6858 87.1582 48.3091 84.7453 48.314C81.9192 48.3202 79.5952 50.0164 77.4537 51.6694C75.7625 52.9769 74.1699 54.435 72.7809 56.0608C72.5934 56.2915 72.9043 56.6135 73.1128 56.3952Z" fill="url(#paint1_linear_208_1088)"/>
<path d="M59.4586 89.2798C59.206 97.0852 58.8436 105.279 54.8101 111.966C52.3238 116.088 48.6166 119.316 44.8396 122.3C41.7424 124.748 38.5364 127.094 35.0141 128.876C27.0751 132.893 16.9267 134.601 12.5825 142.365C11.5819 134.176 12.9201 125.861 15.0932 117.902C16.7291 111.91 18.9238 105.899 22.9757 101.192C31.4485 91.3482 45.7141 89.435 58.6419 88.1845C59.0541 88.1448 59.5813 88.1695 59.7356 88.5541C59.8899 88.9388 59.0256 89.1356 59.162 88.7441" fill="#80BE1F"/>
<path d="M28.3829 128.344C29.0283 126.409 29.4828 124.421 30.1606 122.492C30.8017 120.668 31.5254 118.846 31.9372 116.953C32.216 115.673 30.2129 115.242 29.7552 116.412C29.0546 118.202 28.7219 120.166 28.4025 122.056C28.0642 124.058 27.6001 126.082 27.4151 128.104C27.3651 128.655 28.1965 128.902 28.3829 128.344Z" fill="#1E6A30"/>
<path d="M16.2028 136.126C27.0943 118.535 45.3481 107.807 57.8919 91.6619C61.1781 87.432 64.4955 82.5157 65.696 77.2312C65.8909 76.3732 64.5109 75.8314 64.0768 76.6008C61.6284 80.9379 59.5314 85.3256 56.5243 89.3337C53.4635 93.4133 49.9979 97.1506 46.3585 100.717C39.1226 107.808 31.3045 114.299 24.5956 121.916C20.916 126.094 17.6861 130.59 15.2915 135.628C15.0375 136.16 15.8888 136.633 16.2028 136.126Z" fill="#1E6A30"/>
<path d="M31.4211 116.325C29.711 116.218 27.9873 116.187 26.2779 116.329C24.4653 116.481 22.6972 116.928 20.8915 117.092C19.17 117.248 19.8856 120.133 21.552 119.393C24.4893 118.089 28.2653 117.877 31.4427 117.767C32.2661 117.739 32.2367 116.377 31.4211 116.325Z" fill="#1E6A30"/>
<path d="M37.3672 122.934C38.8243 118.189 40.2644 113.439 41.6746 108.68C41.9083 107.89 41.501 106.741 40.5028 106.735C34.7116 106.703 28.818 106.418 23.038 106.798C21.503 106.898 21.552 109.387 23.0785 109.49C28.7348 109.874 34.5058 109.604 40.1739 109.585C39.7539 109.055 39.3339 108.526 38.9139 107.996C37.9463 112.866 37.0102 117.739 36.091 122.618C35.9533 123.351 37.1465 123.655 37.3672 122.934Z" fill="#1E6A30"/>
<path d="M48.9325 113.174C50.1768 108.205 51.4 103.23 52.6121 98.2533C52.8238 97.384 51.8803 96.7829 51.1503 96.835C45.5669 97.2343 40.3131 96.5705 34.927 95.089C33.5753 94.7173 32.7583 96.6261 34.1199 97.1613C39.5474 99.2942 45.7339 99.9693 51.5214 99.3775C51.034 98.9049 50.5469 98.4318 50.0595 97.9592C49.1474 102.899 48.2469 107.841 47.3676 112.787C47.2088 113.68 48.707 114.074 48.9325 113.174Z" fill="#1E6A30"/>
<path d="M71.4043 81.8467C77.0066 83.189 82.8735 84.6684 87.106 88.5764C89.7149 90.9854 91.4963 94.1437 93.0915 97.3162C94.4 99.9178 95.6183 102.583 96.3827 105.393C98.1056 111.726 97.8319 119.313 102.797 123.605C96.731 123.111 90.9211 120.909 85.4934 118.156C81.4072 116.084 77.3897 113.605 74.5905 109.978C68.7369 102.393 69.4742 91.801 70.4915 82.2741C70.5241 81.9703 70.6202 81.5931 70.9211 81.5388C71.222 81.4844 71.2357 82.1381 70.9732 81.9814" fill="#80BE1F"/>
<path d="M95.0134 110.106C93.7111 109.352 92.3422 108.728 91.0491 107.951C89.8264 107.217 88.6172 106.424 87.3108 105.845C86.4272 105.453 85.8183 106.836 86.5954 107.341C87.7852 108.113 89.1547 108.645 90.4726 109.157C91.869 109.699 93.2627 110.335 94.6958 110.769C95.0869 110.887 95.389 110.323 95.0134 110.106Z" fill="#1E6A30"/>
<path d="M98.826 120.062C87.734 109.579 82.6942 94.7954 72.8925 83.3328C70.3244 80.3298 67.2651 77.2024 63.625 75.5497C63.0341 75.2814 62.4375 76.198 62.929 76.626C65.699 79.0396 68.5578 81.2067 71.0071 83.9751C73.5 86.7929 75.6855 89.8522 77.7217 93.0118C81.7698 99.2938 85.2983 105.907 89.8056 111.887C92.2775 115.166 95.046 118.168 98.331 120.647C98.6775 120.909 99.1457 120.365 98.826 120.062Z" fill="#1E6A30"/>
<path d="M86.7804 106.124C86.4484 107.344 86.1699 108.585 86.019 109.841C85.8589 111.173 85.9192 112.517 85.7694 113.846C85.6267 115.113 87.8178 115.025 87.5306 113.711C87.0247 111.395 87.4329 108.635 87.8252 106.323C87.927 105.724 86.9388 105.543 86.7804 106.124Z" fill="#1E6A30"/>
<path d="M92.4388 102.81C89.2266 101.052 86.0088 99.3055 82.7795 97.5794C82.2436 97.2932 81.3528 97.4168 81.2004 98.1372C80.3161 102.317 79.2351 106.533 78.6502 110.766C78.4949 111.89 80.3004 112.224 80.6019 111.137C81.7196 107.107 82.3816 102.897 83.2101 98.7981C82.7651 99.0229 82.3201 99.2477 81.8751 99.4725C85.2499 100.895 88.6321 102.296 92.0209 103.685C92.5302 103.893 92.9268 103.076 92.4388 102.81Z" fill="#1E6A30"/>
<path d="M87.1053 93.0026C83.6996 91.3652 80.2869 89.7422 76.8709 88.1269C76.2742 87.8448 75.6997 88.4372 75.6289 88.9724C75.0878 93.066 73.8275 96.7636 71.9568 100.435C71.4873 101.357 72.7452 102.231 73.3342 101.326C75.6818 97.7216 77.0888 93.3518 77.5211 89.082C77.1072 89.364 76.693 89.6456 76.2791 89.9276C79.713 91.3206 83.1499 92.7056 86.5928 94.0758C87.2151 94.3233 87.7223 93.2993 87.1053 93.0026Z" fill="#1E6A30"/>
<path d="M294.743 46.4242C293.905 41.1585 293.091 35.618 294.933 30.6144C296.068 27.5302 298.137 24.888 300.285 22.3999C302.046 20.3593 303.893 18.3733 306.024 16.7241C310.829 13.0069 317.412 10.5527 319.323 4.78683C321.05 10.1479 321.226 15.896 320.796 21.5121C320.472 25.7401 319.775 30.0535 317.666 33.7321C313.255 41.4245 303.938 44.5473 295.432 47.0532C295.16 47.133 294.804 47.1844 294.651 46.9464C294.498 46.7084 295.052 46.465 295.011 46.7451" fill="#80BE1F"/>
<path d="M310.538 16.2251C310.355 17.6057 310.307 18.9972 310.101 20.3779C309.907 21.6835 309.657 22.9986 309.625 24.3207C309.603 25.2149 311.001 25.2454 311.157 24.4022C311.396 23.1113 311.366 21.7517 311.336 20.4437C311.305 19.0576 311.355 17.6406 311.218 16.2616C311.181 15.8853 310.591 15.8269 310.538 16.2251Z" fill="#1E6A30"/>
<path d="M317.7 9.437C312.667 22.6355 301.813 32.1829 295.485 44.6251C293.828 47.8849 292.238 51.6089 292.115 55.3068C292.095 55.9071 293.09 56.0924 293.281 55.5205C294.364 52.2969 295.203 49.0847 296.703 46.0096C298.228 42.8797 300.07 39.927 302.05 37.0665C305.987 31.3793 310.391 26.019 313.906 20.0465C315.835 16.771 317.42 13.3402 318.376 9.65314C318.477 9.26382 317.846 9.05658 317.7 9.437Z" fill="#1E6A30"/>
<path d="M310.052 24.6751C311.212 24.5268 312.372 24.3253 313.499 24.0091C314.695 23.674 315.823 23.1462 317.012 22.8033C318.146 22.4763 317.294 20.6343 316.273 21.3455C314.472 22.5986 311.967 23.2276 309.851 23.7114C309.303 23.8367 309.498 24.7458 310.052 24.6751Z" fill="#1E6A30"/>
<path d="M305.213 21.0114C304.848 24.3808 304.495 27.7508 304.163 31.1235C304.108 31.6832 304.53 32.401 305.2 32.2761C309.087 31.5511 313.075 30.9815 316.901 29.9817C317.917 29.7162 317.563 28.054 316.526 28.1817C312.685 28.6539 308.85 29.5797 305.053 30.3235C305.403 30.6244 305.752 30.9252 306.102 31.226C306.123 27.8364 306.122 24.4483 306.109 21.0586C306.107 20.5493 305.268 20.4998 305.213 21.0114Z" fill="#1E6A30"/>
<path d="M298.717 29.0466C298.524 32.5388 298.346 36.0318 298.175 39.5249C298.145 40.1349 298.855 40.4163 299.338 40.2872C303.03 39.2993 306.638 39.0666 310.44 39.3652C311.394 39.44 311.696 38.0549 310.714 37.8717C306.8 37.1418 302.565 37.4871 298.761 38.6305C299.149 38.8844 299.537 39.1388 299.924 39.3928C299.899 35.9631 299.865 32.5338 299.817 29.1046C299.808 28.4848 298.753 28.414 298.717 29.0466Z" fill="#1E6A30"/>
<path d="M286.891 48.4828C281.598 49.1305 276.032 49.745 271.098 47.7249C268.057 46.4796 265.49 44.3169 263.081 42.0816C261.105 40.2487 259.187 38.3317 257.615 36.1422C254.073 31.2073 251.856 24.5398 246.163 22.4229C251.583 20.8895 257.333 20.9205 262.93 21.5522C267.144 22.0278 271.43 22.8783 275.03 25.1185C282.559 29.8027 285.345 39.2263 287.544 47.8169C287.614 48.0909 287.653 48.4491 287.409 48.5935C287.166 48.738 286.943 48.1755 287.221 48.2265" fill="#80BE1F"/>
<path d="M257.279 31.6126C258.652 31.8451 260.041 31.9433 261.413 32.1984C262.711 32.4397 264.016 32.7369 265.336 32.8164C266.229 32.8702 266.31 31.4737 265.473 31.2875C264.191 31.0026 262.832 30.984 261.523 30.9666C260.137 30.9482 258.723 30.8473 257.34 30.9344C256.962 30.9585 256.883 31.5453 257.279 31.6126Z" fill="#1E6A30"/>
<path d="M250.752 24.2111C263.761 29.715 272.913 40.9051 285.119 47.6753C288.318 49.4489 291.982 51.1716 295.673 51.4275C296.272 51.4691 296.493 50.4813 295.929 50.2691C292.746 49.0719 289.566 48.1172 286.547 46.5086C283.474 44.8713 280.589 42.925 277.801 40.8436C272.259 36.7052 267.061 32.1112 261.218 28.3837C258.014 26.3392 254.642 24.6314 250.992 23.5441C250.607 23.4285 250.377 24.0524 250.752 24.2111Z" fill="#1E6A30"/>
<path d="M265.705 32.4026C265.599 31.2375 265.439 30.0714 265.164 28.9332C264.872 27.7261 264.385 26.5802 264.085 25.3791C263.799 24.2341 261.927 25.0194 262.601 26.066C263.789 27.911 264.328 30.4362 264.735 32.5683C264.841 33.1208 265.756 32.9583 265.705 32.4026Z" fill="#1E6A30"/>
<path d="M261.871 37.1066C265.225 37.5922 268.58 38.0658 271.939 38.5184C272.496 38.5932 273.228 38.198 273.128 37.524C272.543 33.6135 272.117 29.6076 271.255 25.7479C271.026 24.7229 269.352 25.0168 269.443 26.0575C269.777 29.9137 270.564 33.7787 271.171 37.6007C271.484 37.2619 271.797 36.923 272.111 36.5842C268.724 36.4418 265.338 36.3212 261.95 36.2125C261.441 36.1965 261.361 37.0333 261.871 37.1066Z" fill="#1E6A30"/>
<path d="M269.667 43.8863C273.15 44.2048 276.634 44.5086 280.119 44.8046C280.728 44.8563 281.034 44.1567 280.923 43.6697C280.068 39.9447 279.965 36.3307 280.4 32.5417C280.509 31.5908 279.136 31.2398 278.917 32.2144C278.047 36.0996 278.24 40.3441 279.246 44.1866C279.514 43.8082 279.782 43.43 280.05 43.0516C276.622 42.9542 273.193 42.8647 269.765 42.7899C269.145 42.7765 269.036 43.8285 269.667 43.8863Z" fill="#1E6A30"/>
<path d="M356.416 69.7379L356.411 69.7819L356.408 69.8069C356.38 70.0659 356.35 70.3179 356.319 70.5649L356.31 70.6279C356.278 70.8779 356.244 71.1209 356.208 71.3599L356.203 71.3949C356.166 71.6449 356.127 71.8869 356.087 72.1239C355.346 76.5049 354.167 78.7069 353.824 79.2759C353.823 79.2779 353.804 79.3079 353.804 79.3079L353.79 79.3299L353.77 79.3609C353.599 79.6339 353.293 79.8089 352.972 79.8089C352.964 79.8089 352.956 79.8079 352.949 79.8079C352.322 79.7899 289.707 78.0289 238.985 78.0289C215.847 78.0289 198.572 78.3909 187.64 79.1089C168.225 80.3809 128.756 81.2049 87.0838 81.2049C53.8948 81.2049 15.5198 80.6499 7.35181 79.0949C7.18781 79.0639 7.03381 78.9879 6.90881 78.8769C6.90881 78.8769 6.8628 78.8359 6.7718 78.7509L6.75381 78.7319L6.70381 78.6849L6.66182 78.6439L6.68181 78.6629C6.66181 78.6429 6.6398 78.6229 6.6058 78.5889C6.5798 78.5629 6.55082 78.5329 6.53682 78.5179L6.47481 78.4549L6.39381 78.3709L6.36281 78.3379C6.36181 78.3359 6.34482 78.3189 6.34282 78.3169L6.32082 78.2929C6.26982 78.2389 6.21581 78.1799 6.16081 78.1169C6.15781 78.1149 6.15482 78.1109 6.15282 78.1079C6.14882 78.1049 6.14581 78.0999 6.14281 78.0979C5.84681 77.7659 5.54982 77.4029 5.27382 77.0349C5.25882 77.0149 5.24281 76.9949 5.22781 76.9729C5.15881 76.8799 5.08682 76.7829 5.01482 76.6829C5.01282 76.6799 5.00181 76.6649 5.00081 76.6619L4.97182 76.6209C4.90182 76.5229 4.83082 76.4219 4.76282 76.3199C4.74082 76.2889 4.71982 76.2569 4.70882 76.2409C4.63882 76.1389 4.56881 76.0329 4.49881 75.9239L4.47481 75.8889L4.43881 75.8309C4.36981 75.7239 4.30081 75.6129 4.23781 75.5099C4.21381 75.4699 4.18981 75.4319 4.17181 75.4009C4.10181 75.2859 4.03181 75.1669 3.96181 75.0439L3.94081 75.0099L3.89981 74.9409C3.82881 74.8149 3.75681 74.6859 3.68481 74.5519L3.65781 74.4999L3.63481 74.4579C3.55881 74.3159 3.48481 74.1709 3.40681 74.0179L3.39381 73.9939L3.36981 73.9469C3.28381 73.7739 3.19782 73.5959 3.10982 73.4069C2.83582 72.8179 2.58681 72.2079 2.36681 71.5929L2.32082 71.4569C2.26082 71.2899 2.20281 71.1199 2.14781 70.9489L2.10381 70.8099L2.08382 70.7449C2.03482 70.5899 1.98682 70.4349 1.94182 70.2769C1.92082 70.2079 1.90181 70.1369 1.88181 70.0669L1.87282 70.0319C1.83082 69.8829 1.78982 69.7309 1.74982 69.5729C1.72682 69.4819 1.70482 69.3899 1.68282 69.3019C1.64582 69.1519 1.61081 68.9999 1.57881 68.8479C1.55681 68.7499 1.53481 68.6499 1.51381 68.5499C1.48281 68.3989 1.45281 68.2459 1.42381 68.0919C1.40481 67.9889 1.38581 67.8829 1.36681 67.7759C1.34081 67.6209 1.31481 67.4649 1.29181 67.3079C1.27581 67.1989 1.25881 67.0899 1.24281 66.9739C1.22181 66.8149 1.20081 66.6529 1.17981 66.4699C1.16681 66.3649 1.15381 66.2599 1.14281 66.1539C1.12481 65.9829 1.11082 65.8069 1.09682 65.6309L1.08781 65.5309C1.08181 65.4559 1.07581 65.3809 1.06981 65.3039C1.05581 65.1099 1.04682 64.9119 1.03682 64.7109L1.03181 64.5989C1.02981 64.5409 1.02582 64.4859 1.02382 64.4279C1.01382 64.1309 1.00781 63.8309 1.00781 63.5269C1.00781 53.4079 6.72081 49.0069 6.96381 48.8249C7.12681 48.7039 7.3218 48.6399 7.5218 48.6399C7.5798 48.6399 7.63882 48.6459 7.69582 48.6559C7.79282 48.6749 7.89581 48.6939 8.00981 48.7129L8.04681 48.7199L8.07581 48.7259C8.18381 48.7449 8.29682 48.7629 8.43282 48.7859L8.47981 48.7929C8.58981 48.8119 8.70382 48.8289 8.81482 48.8459L8.88782 48.8569C9.01882 48.8769 9.15481 48.8959 9.30081 48.9169L9.3968 48.9309C9.5298 48.9489 9.66482 48.9679 9.80182 48.9869L9.85782 48.9949C10.0298 49.0169 10.2078 49.0409 10.3958 49.0649L11.0288 49.1429C11.2438 49.1679 11.4658 49.1949 11.7058 49.2219L11.7318 49.2249L11.7698 49.2299L12.3868 49.2989L12.4528 49.3059L12.5318 49.3149L12.6148 49.3239C12.7828 49.3429 12.9538 49.3609 13.1338 49.3799L13.2198 49.3899L13.3058 49.3989L13.7438 49.4449L13.9228 49.4629L14.1038 49.4809L14.7338 49.5439L14.8368 49.5539L14.9338 49.5639L15.5788 49.6269L16.1738 49.6839L16.2708 49.6929L16.4638 49.7119L16.7888 49.7419L16.9968 49.7599L17.1568 49.7749L17.3738 49.7949L17.5358 49.8109L17.9178 49.8449L18.2858 49.8759C18.4878 49.8939 18.6938 49.9129 18.9028 49.9309C20.1538 50.0399 21.4818 50.1509 22.8868 50.2629C22.9068 50.2639 22.9238 50.2649 22.9288 50.2659L24.0408 50.3529L24.0948 50.3579L24.1538 50.3619C24.5028 50.3889 24.8558 50.4169 25.2218 50.4439L25.3678 50.4549L25.9258 50.4979L26.4168 50.5349L26.6088 50.5499L27.6598 50.6269L27.8638 50.6419L28.6408 50.6989L28.9278 50.7199L29.1108 50.7329L29.1358 50.7339L30.2818 50.8159L30.3278 50.8199L30.4218 50.8259L31.4508 50.8969L31.6838 50.9149L31.7328 50.9179C34.8868 51.1369 38.3138 51.3599 41.9008 51.5819L41.9618 51.5849L42.9898 51.6479L43.4608 51.6769C43.4908 51.6789 43.5198 51.6809 43.5288 51.6819L45.0138 51.7709L45.1218 51.7769C57.1248 52.4949 70.6358 53.1799 84.1918 53.7569L86.0618 53.8359L87.2708 53.8859L87.3168 53.8889L87.3588 53.8899L88.4288 53.9349L89.6128 53.9829L90.1858 54.0059L90.7808 54.0299L91.3248 54.0509L91.8668 54.0729L93.9408 54.1539L94.9098 54.1909L96.2808 54.2439L97.2938 54.2819L98.7118 54.3349L99.5728 54.3659L99.6038 54.3669C100.337 54.3939 101.069 54.4209 101.804 54.4459L102.516 54.4709L102.54 54.4719L104.166 54.5289L105.014 54.5579C110.195 54.7359 115.288 54.8929 120.152 55.0259C120.168 55.0259 120.183 55.0269 120.198 55.0269C121.898 55.0739 123.59 55.1179 125.274 55.1599L125.992 55.1779L126.672 55.1949L128.633 55.2409L128.826 55.2459L129.122 55.2519C129.776 55.2679 130.429 55.2819 131.08 55.2959L131.194 55.2979L131.309 55.3009C132.753 55.3309 134.187 55.3609 135.612 55.3879L135.947 55.3939L137.615 55.4239L137.772 55.4269L137.934 55.4299L138.099 55.4329C139.5 55.4559 140.892 55.4789 142.267 55.4989L142.605 55.5039L142.722 55.5049L144.309 55.5269L144.527 55.5299L144.738 55.5329L144.811 55.5339C145.436 55.5419 146.059 55.5489 146.678 55.5569C146.686 55.5569 146.71 55.5569 146.719 55.5569C147.396 55.5649 148.069 55.5719 148.74 55.5779L149.092 55.5809H149.164L150.691 55.5949L151.177 55.5979L151.233 55.5989L152.79 55.6089L152.896 55.6109H153.104C153.747 55.6149 154.384 55.6179 155.021 55.6209L155.155 55.6219H155.292L155.316 55.6229L156.883 55.6259L157.125 55.6269H157.378L158.827 55.6289H159.227C159.841 55.6289 160.451 55.6269 161.058 55.6259H161.179C161.729 55.6239 162.275 55.6219 162.82 55.6189L163.059 55.6179L163.297 55.6169L163.726 55.6149L164.617 55.6089L164.734 55.6079L165.085 55.6059C166.233 55.5979 167.364 55.5869 168.472 55.5729L168.694 55.5689L168.917 55.5659C169.331 55.5609 169.742 55.5549 170.152 55.5479L170.391 55.5449L170.624 55.5409L172.003 55.5179L172.236 55.5139C172.762 55.5029 173.284 55.4929 173.802 55.4819L174.174 55.4729H174.201L174.229 55.4719L174.263 55.4709C174.834 55.4569 175.399 55.4439 175.954 55.4299L176.122 55.4239L176.236 55.4209C176.7 55.4079 177.159 55.3969 177.614 55.3819L178.095 55.3669C178.475 55.3549 178.854 55.3429 179.227 55.3299L179.549 55.3179L179.83 55.3089C180.159 55.2959 180.485 55.2849 180.811 55.2709C181.097 55.2609 181.382 55.2489 181.664 55.2369C181.664 55.2369 181.688 55.2359 181.69 55.2359L182.034 55.2219C182.482 55.2029 182.924 55.1829 183.354 55.1629L183.461 55.1569L183.569 55.1509C183.933 55.1339 184.292 55.1159 184.65 55.0969L184.865 55.0849L185.051 55.0749C185.355 55.0579 185.655 55.0409 185.952 55.0239L186.099 55.0159L186.317 55.0029C186.723 54.9789 187.124 54.9539 187.516 54.9279L187.702 54.9159L188.523 54.8629L189.206 54.8199L189.267 54.8169L189.393 54.8079L189.546 54.7979L190.109 54.7629L190.436 54.7429L190.572 54.7339L190.605 54.7319L191.554 54.6749L191.619 54.6709L191.687 54.6669L192.712 54.6069L192.752 54.6049L192.795 54.6019C197.437 54.3349 202.977 54.0559 209.261 53.7739L209.369 53.7689C210.347 53.7249 211.341 53.6809 212.335 53.6379C212.362 53.6359 212.391 53.6349 212.403 53.6349C214.973 53.5229 217.625 53.4109 220.344 53.3009L221.609 53.2499L222.245 53.2249L222.615 53.2099L223.019 53.1929L223.757 53.1649L224.47 53.1369L224.643 53.1299L225.164 53.1089L225.555 53.0929L226.001 53.0759L226.63 53.0519L226.689 53.0499L227.233 53.0279L227.337 53.0239L227.42 53.0209L227.504 53.0179L228.66 52.9729L228.713 52.9709L229.432 52.9449L229.462 52.9429L230.022 52.9219L230.109 52.9179L230.219 52.9139L230.88 52.8899L231.749 52.8569L232.051 52.8459L232.367 52.8339L233.187 52.8039L233.96 52.7749L234.688 52.7489L235.317 52.7269L236.067 52.6999L236.443 52.6849L236.837 52.6709L237.559 52.6459L238.408 52.6149L238.619 52.6069L239.043 52.5929L239.615 52.5719L239.894 52.5619L240.227 52.5499L240.56 52.5379L241.296 52.5119L242.18 52.4819L242.494 52.4699L242.806 52.4589L243.63 52.4299L244.336 52.4059L245.226 52.3769L245.828 52.3559L246.735 52.3249L247.479 52.2999L247.938 52.2839L248.1 52.2779L248.897 52.2519L249.675 52.2249L250.629 52.1939L250.891 52.1849L251.155 52.1749L252.158 52.1419L252.437 52.1329L252.707 52.1239L253.673 52.0919L254.361 52.0699L255.867 52.0199L256.599 51.9969L257.048 51.9819L257.497 51.9669L257.832 51.9559L258.166 51.9449L258.644 51.9289L259.12 51.9129L259.635 51.8959L260.67 51.8629L260.886 51.8549L261.101 51.8489L262.069 51.8189L263.039 51.7869L263.587 51.7699L264.031 51.7559L264.476 51.7409L264.825 51.7299L265.172 51.7189C265.448 51.7089 265.724 51.7009 265.998 51.6929L266.712 51.6719L267.189 51.6559L267.667 51.6409L268.037 51.6289C269.162 51.5929 270.285 51.5589 271.407 51.5249L271.618 51.5179L272.061 51.5039L272.121 51.5029L273.094 51.4729L273.608 51.4569L274.556 51.4289L274.582 51.4279L275.105 51.4109L275.162 51.4099L276.963 51.3559L277.244 51.3459L277.526 51.3379L278.396 51.3119L278.704 51.3029L279.005 51.2939L279.969 51.2649L280.257 51.2559L280.546 51.2479L281.461 51.2209L281.797 51.2109L282.136 51.1999L282.474 51.1909L285.342 51.1059L285.595 51.0989L285.847 51.0909L286.052 51.0849L286.266 51.0789L286.38 51.0749L286.755 51.0639L287.378 51.0459L288.317 51.0189L288.502 51.0129L288.688 51.0079L289.303 50.9899L289.477 50.9849L290.819 50.9459L290.967 50.9419L291.119 50.9379L291.758 50.9179L291.968 50.9129L292.452 50.8989L292.561 50.8959L292.664 50.8919H292.687L293.496 50.8689L293.997 50.8549L294.949 50.8279L295.491 50.8129L295.648 50.8079L295.803 50.8029L296.308 50.7889L297.225 50.7639L297.332 50.7599L298.53 50.7269L298.618 50.7249L298.715 50.7219L298.902 50.7159L299.086 50.7109L299.577 50.6979L300.108 50.6819L300.275 50.6779L300.438 50.6729L300.958 50.6579L301.521 50.6419L301.634 50.6389L301.749 50.6359L302.839 50.6059L302.959 50.6029L303.079 50.5989L304.743 50.5529L305.211 50.5399L305.314 50.5379L305.416 50.5349L306.314 50.5109L306.932 50.4929L307.265 50.4839L307.59 50.4749L308.316 50.4549L308.47 50.4509L309.085 50.4339L309.644 50.4179L310.314 50.3999L310.877 50.3849L311.102 50.3779L311.319 50.3719L311.539 50.3659L312.027 50.3529L312.466 50.3409L312.659 50.3349L312.858 50.3299L313.849 50.3039L313.976 50.2999L315.994 50.2469L316.934 50.2229L317.149 50.2159L317.472 50.2079L318.023 50.1929L318.159 50.1899L318.413 50.1829L318.679 50.1749L319.55 50.1529L319.796 50.1469L320.661 50.1249L320.981 50.1159L321.143 50.1109L322.518 50.0759L322.749 50.0699L322.985 50.0639L323.779 50.0429L323.95 50.0379L324.112 50.0339L324.757 50.0169L325.635 49.9949L325.748 49.9919L325.858 49.9889L326.871 49.9629L327.678 49.9419L328.743 49.9149L329.432 49.8969L329.706 49.8899L330.102 49.8799L330.439 49.8719L330.708 49.8639L330.959 49.8569L331.173 49.8519L331.372 49.8469L332.457 49.8199L333.03 49.8049L333.217 49.8009L333.409 49.7959L333.695 49.7889L334.021 49.7799L334.404 49.7699L334.733 49.7619L335.013 49.7549L335.469 49.7439L336.413 49.7199L337.322 49.6979L337.363 49.6969L337.765 49.6869L338.34 49.6719L338.52 49.6679L338.708 49.6629L339.149 49.6519L339.356 49.6469L339.583 49.6409L339.969 49.6319L340.267 49.6239L340.449 49.6189L340.678 49.6139L342.177 49.5769L342.364 49.5729L342.953 49.5579L343.071 49.5549L343.185 49.5519L344.07 49.5309L344.688 49.5149L344.81 49.5119L344.891 49.5099L345.424 49.4969L345.78 49.4879L345.864 49.4859L345.946 49.4839L346.319 49.4749L346.372 49.4729L346.596 49.4679L346.97 49.4589L347.213 49.4529L348.115 49.4319L348.355 49.4269L348.676 49.4189L348.711 49.4169L348.803 49.4149L348.893 49.4139L349.25 49.4049L349.67 49.3949L349.994 49.3869L350.164 49.3829L350.258 49.3799L350.352 49.3779L350.45 49.3759L350.747 49.3689L350.782 49.3679L351.485 49.3519L351.64 49.3469L351.702 49.3459L351.905 49.3409L352.301 49.3319L352.552 49.3259L352.661 49.3229L352.921 49.3169L352.98 49.3159C353.254 49.3169 353.524 49.4469 353.7 49.6579C353.7 49.6579 353.717 49.6779 353.738 49.7059C353.825 49.8219 354.137 50.2619 354.526 51.1019C354.714 51.5089 354.895 51.9569 355.066 52.4389C355.228 52.8969 355.381 53.3829 355.522 53.8959C355.654 54.3749 355.78 54.8959 355.896 55.4429L355.901 55.4659C355.944 55.6699 355.985 55.8789 356.027 56.0989C356.062 56.2839 356.095 56.4739 356.131 56.6799L356.137 56.7169C356.356 58.0129 356.513 59.4349 356.605 60.9449L356.609 61.0049L356.617 61.1329C356.675 62.1339 356.703 63.1679 356.703 64.2029C356.703 64.4999 356.7 64.7889 356.696 65.0739C356.669 66.7069 356.575 68.2699 356.416 69.7379Z" fill="url(#paint2_linear_208_1088)"/>
<path d="M7.52783 49.5679C22.1838 52.3599 145.01 58.6409 187.58 55.8489C230.15 53.0569 352.977 50.2659 352.977 50.2659C352.977 50.2659 355.768 53.7549 355.768 64.2239C355.768 74.6919 352.977 78.8789 352.977 78.8789C352.977 78.8789 230.15 75.3899 187.58 78.1809C145.01 80.9729 22.1838 80.9729 7.52783 78.1809C7.52783 78.1809 1.94482 73.2949 1.94482 63.5259C1.94482 53.7559 7.52783 49.5679 7.52783 49.5679Z" fill="url(#paint3_linear_208_1088)"/>
<path d="M315.273 72.9309C315.192 73.5779 315.487 73.9119 315.934 74.2909L323.611 74.0589C320.933 73.7279 318.017 72.6429 315.273 72.9309ZM194.056 58.9279C200.645 58.5979 206.391 56.4399 212.449 54.5599C211.386 54.6069 210.339 54.6529 209.305 54.6999C207.14 55.9119 204.884 56.9079 202.488 57.4799C198.857 58.3469 195.176 58.2349 191.499 58.0619C188.018 57.8969 184.547 57.1479 181.149 56.1809C178.986 56.2669 176.686 56.3369 174.267 56.3919C176.399 56.9979 178.519 57.6359 180.619 58.0669C185.224 59.0099 189.427 59.1599 194.056 58.9279ZM26.8436 74.5239C26.1336 75.0059 24.4426 75.5489 23.9846 75.6869C31.5166 77.0429 39.5016 75.0739 47.0466 75.2209L40.5336 74.5239C32.5926 74.4889 24.8446 72.4059 17.0806 72.0009C16.8756 72.4069 16.7906 72.8929 16.8446 73.3259C19.4006 73.2679 24.8126 73.1709 26.8436 74.5239ZM17.0406 66.1499L18.4366 66.8469C18.9556 66.5229 19.4726 65.9579 19.8076 65.4979C18.8166 65.3009 17.3946 65.7889 17.0406 66.1499ZM22.3906 61.9639L24.2506 62.1959C24.0766 61.5219 23.2966 61.5479 22.3906 61.9639ZM20.1356 66.1449C29.1116 67.8629 38.4496 67.6699 47.4536 69.8079C55.7036 71.7659 64.3026 72.1989 72.7986 72.1989C67.3736 72.1589 61.7536 70.6679 56.3496 69.9299C55.1956 69.7729 49.5336 69.7079 49.5856 68.0099C49.6376 66.2449 55.6766 65.3739 57.0486 65.2199L61.0026 64.2889C58.6726 64.1969 56.2746 65.2519 54.0256 65.6979C51.0616 66.2849 48.0546 66.3829 44.9536 66.3829C36.8696 66.3829 28.0866 64.4389 20.1356 66.1449ZM25.4846 61.4459C29.7366 61.7519 33.8026 61.5149 37.9756 61.2599C41.6116 61.0379 45.6246 61.4179 49.1406 60.5679L44.4886 60.3359C38.3666 60.3349 31.2526 59.4429 25.4846 61.4459ZM313.442 65.6739C316.943 66.8259 321.071 67.5049 324.541 66.6099C327.64 65.8099 330.906 65.4519 334.084 64.9999C337.626 64.4959 341.19 63.6779 344.83 63.1209C348.198 62.6049 351.962 62.0579 355.715 61.8119C355.696 61.3729 355.672 60.9449 355.643 60.5349C341.44 61.5249 327.857 65.9219 313.442 65.6739ZM15.4126 74.5239L17.7386 74.9889C17.3256 74.0619 16.1546 73.7869 15.4126 74.5239ZM271.508 72.6629L275.134 72.4499C274.061 72.4049 272.58 71.4749 271.508 72.6629ZM240.177 66.1619C246.315 66.0629 252.662 66.9739 258.714 66.1389C262.946 65.5539 266.973 64.4189 271.287 64.0579C279.838 63.3419 288.425 62.7589 297.082 62.4289C303.759 62.1739 309.877 61.2509 316.4 60.5679L308.026 60.7999C298.201 60.3169 287.559 61.7669 277.782 62.8369C273.202 63.3379 268.636 63.5969 264.052 64.1139C261.647 64.3849 257.211 66.0689 255.024 64.9339C255.704 63.9629 257.092 63.6099 258.167 63.1139C252.728 62.7729 245.266 64.1949 240.177 66.1619ZM326.402 73.8259H328.495C327.763 72.9659 326.748 72.8059 326.402 73.8259ZM107.058 67.7779L109.384 68.0099C109.702 67.7899 109.88 67.4819 110.239 67.3009C107.675 66.5039 104.289 66.8469 101.528 66.8469C98.9386 66.8469 95.2546 66.3389 93.1366 68.0559C93.5656 69.3279 95.0776 69.8459 96.3206 69.8369C94.8786 66.5579 105.302 67.5859 107.058 67.7779ZM90.0776 63.5919H105.663C104.133 61.9619 90.6456 62.1529 90.0776 63.5919ZM344.312 54.7529C347.893 54.7929 351.446 55.2499 354.987 55.6779C354.833 54.9419 354.666 54.2909 354.496 53.7209C349.875 53.6609 345.206 53.4059 340.643 53.5959C336.322 53.7759 330.987 53.4469 326.938 54.9339C332.169 55.8829 338.858 54.6919 344.312 54.7529ZM275.463 72.4309L275.134 72.4499C275.248 72.4549 275.358 72.4499 275.463 72.4309ZM107.058 76.1519L109.384 75.9199C108.669 75.2129 107.717 75.2789 107.058 76.1519ZM239.409 72.4309L240.805 72.1989C240.303 72.1629 239.859 72.2379 239.409 72.4309ZM130.519 69.6109L129.854 69.6389C130.075 69.6499 130.298 69.6409 130.519 69.6109ZM80.3086 63.5919L81.9366 63.1269C81.2396 62.9569 80.6346 63.0819 80.3086 63.5919ZM81.2496 72.6919C80.6416 72.8269 79.8826 73.1929 79.4606 73.6559C83.6486 74.9819 88.4836 74.8129 92.8746 75.2099C96.7536 75.5609 100.544 75.9199 104.499 75.9199L99.3816 74.9889C94.8616 74.3539 89.7356 74.3769 85.4886 72.6969C83.9176 74.1119 82.7346 74.2929 81.2496 72.6919ZM85.4266 63.3589L87.7526 63.5909C87.3976 62.3499 86.1846 62.4619 85.4266 63.3589ZM222.429 73.1289L225.918 72.4309C225.433 70.8109 222.977 72.0379 222.429 73.1289ZM232.895 66.1499L235.919 65.6839C236.18 65.3709 236.582 65.4319 236.348 64.7889C235.116 64.6219 233.856 65.4829 232.895 66.1499ZM201.889 69.9189C190.856 71.7809 179.73 75.0779 168.475 76.2039C172.895 77.6779 179.935 75.5459 184.574 74.8129C188.808 74.1449 192.937 74.0579 197.297 74.0579C200.877 74.0579 204.251 73.5929 207.839 73.5929C211.295 73.5929 216.406 74.3519 219.406 73.1279L213.126 72.4299C207.766 72.6759 202.022 72.7079 196.624 72.3899C197.939 71.1119 200.139 70.6059 201.889 69.9189ZM234.291 72.8949L237.315 72.6629C236.482 71.4149 235.127 71.6849 234.291 72.8949ZM61.7836 59.4169C65.4136 59.3709 69.5946 58.8489 73.2686 57.7419C74.2106 57.7299 75.1596 57.6719 76.1216 57.5439C82.0016 56.7629 87.8786 56.4299 93.7956 55.8569C95.2336 55.7169 96.6676 55.5579 98.1026 55.3909C114.411 56.9479 130.62 59.5579 147.118 59.4039C156.904 59.3129 166.682 59.7689 176.425 60.5669C185.951 61.3479 195.253 60.8799 204.804 60.7989C206.395 60.7859 207.98 60.6929 209.559 60.5519C218.786 62.7639 226.568 61.7399 235.222 57.7759H232.731C233.405 57.6559 234.081 57.5229 234.757 57.3689C240.818 55.9909 246.955 55.1039 253.075 54.1919C261.007 54.7949 269.253 55.5049 277.102 54.7009C280.596 54.3429 284.085 53.6219 287.609 53.1809C290.817 52.7809 295.151 52.5869 298.74 51.6559C294.691 51.7679 290.528 51.8859 286.291 52.0099C285.79 52.1449 285.293 52.2809 284.808 52.4269C280.645 53.6739 276.84 54.2819 272.498 54.2869C269.749 54.2909 267.018 54.0979 264.297 53.8209C262.491 53.6379 260.318 53.6379 258.226 53.4069C259.567 53.1949 260.906 52.9729 262.241 52.7399C257.467 52.8919 252.695 53.0489 247.98 53.2089C246.653 53.6759 245.328 54.1049 244.003 54.4679C241.398 55.1819 231.802 58.7169 229.844 56.3739C230.782 55.4679 231.87 54.5909 233.013 53.7389C231.074 53.8099 229.156 53.8819 227.263 53.9559C223.062 55.9519 218.999 57.3849 214.301 58.2349C207.919 59.3889 201.276 59.7319 194.808 60.0499C181.556 60.7019 168.673 58.1509 155.609 58.0079C146.165 57.9059 136.929 57.8409 127.749 56.4319C126.931 56.3069 126.111 56.1919 125.29 56.0819C111.668 55.7449 97.4726 55.2479 83.8246 54.6639C81.7326 54.9319 79.6426 55.1849 77.5526 55.3969C70.5366 56.1159 63.3786 55.5549 56.4036 55.2169C50.4826 54.9299 44.6086 55.2119 38.6796 54.9839C32.1546 54.7319 24.8266 55.5269 19.3566 51.2039C19.2196 51.0959 19.0866 50.9789 18.9566 50.8609C17.7206 50.7539 16.5616 50.6489 15.4846 50.5459C16.2836 52.9809 15.8896 56.4429 18.2406 56.7919C19.9516 57.0459 22.5346 56.2359 24.3106 56.1419C26.6976 56.0159 29.0986 56.0189 31.4686 55.9159C37.8506 55.6379 44.3816 56.6119 50.8216 56.6119C55.5146 56.6129 60.1216 56.7409 64.7786 57.1339C65.9246 57.2319 67.0556 57.3519 68.1816 57.4609C66.1766 58.3989 63.7646 58.6569 61.7836 59.4169ZM216.041 59.7869C218.305 59.4809 220.565 59.1659 222.835 58.9329C224.746 58.7359 226.626 58.5789 228.5 58.3699C227.565 58.9489 226.649 59.7699 225.626 60.1649C223.523 60.9769 221.339 60.8579 219.178 60.5219C218.13 60.3579 217.075 60.0599 216.041 59.7869ZM122.016 75.4489C128.893 76.8079 135.689 77.5529 142.59 76.3329C148.948 75.2079 155.025 73.0389 161.307 71.5579C167.213 70.1659 173.294 70.3009 179.218 69.1669C182.12 68.6119 185.127 68.1659 188.004 67.5589C190.134 67.1099 192.308 66.1849 194.486 65.8239L188.702 66.3839C177.851 67.1109 167.105 69.2359 156.312 70.7449C149.573 71.6879 142.495 75.5889 135.687 75.1769C136.841 74.0449 138.834 73.5939 140.245 72.7109C137.48 72.4169 134.22 73.9609 131.488 74.4789C128.497 75.0449 125.049 75.5199 122.016 75.4489ZM195.68 65.6859C195.282 65.7079 194.884 65.7569 194.487 65.8239L195.913 65.6849C195.834 65.6859 195.757 65.6859 195.68 65.6859ZM279.609 72.4589C279.002 72.5649 278.195 72.7649 277.626 73.1339C283.205 74.6579 290.567 73.5939 296.391 73.5939C302.068 73.5939 307.724 74.0189 313.375 74.0589L309.421 72.8959C308.254 72.1269 306.613 72.4309 305.251 72.4309H293.61C289.961 72.4309 285.796 71.8619 282.191 72.4319C281.115 72.6019 280.304 73.9899 279.609 72.4589ZM122.011 64.0569C124.551 64.3039 130.205 64.1749 132.254 65.9639C134.201 67.6639 132.462 69.3619 130.519 69.6109L135.436 69.4069C138.016 68.8989 140.463 67.4939 143.034 66.8549C136.844 64.5579 128.763 62.8399 122.011 64.0569ZM133.599 65.6679C134.897 65.0289 138.153 66.0959 137.064 67.7779L134.738 67.5459C134.226 67.0809 133.821 66.2889 133.599 65.6679Z" fill="url(#paint4_linear_208_1088)"/>
<path d="M316.956 54.2049C326.979 52.7719 346.871 51.8109 353.679 51.5129C353.277 50.6439 352.978 50.2669 352.978 50.2669C352.978 50.2669 350.849 50.3149 347.06 50.4059C327.172 51.7229 275.244 55.9499 272.298 55.9499C268.81 55.9499 233.921 59.7879 238.805 60.1369C243.689 60.4849 304.744 55.9489 316.956 54.2049ZM355.171 71.9689C355.331 71.0239 355.47 69.9729 355.573 68.8099C349.909 68.6279 344.455 68.4669 339.201 68.3239C344.341 67.4379 351.221 66.3269 355.743 65.8879C355.759 65.3509 355.768 64.7989 355.768 64.2249C355.768 63.9149 355.766 63.6119 355.761 63.3149L324.282 67.8119L325.003 67.9679C301.644 67.4399 282.728 67.3019 267.424 67.4119C269.701 67.3119 271.451 67.2139 271.949 67.1129C273.694 66.7639 314.513 65.0199 327.77 62.9259C337.494 61.3919 344.964 59.4809 348.256 58.5719C350.915 58.6569 353.334 58.7649 355.49 58.8819C355.384 57.9279 355.255 57.0649 355.108 56.2879C346.841 56.1269 336.296 56.0809 329.514 56.6469C316.954 57.6939 254.503 60.8339 248.573 62.5779C248.573 62.5779 307.494 59.0429 331.396 58.4699C327.628 59.6599 321.33 61.4289 315.908 61.8799C307.535 62.5779 278.228 65.0209 272.297 65.3689C268.541 65.5899 260.728 66.7899 255.857 67.5529C209.682 68.3569 203.566 71.6489 203.566 71.6489C226.599 69.0169 342.102 71.6599 355.171 71.9689ZM1.94482 63.5259C1.94482 73.2949 7.52783 78.1809 7.52783 78.1809C22.1838 80.9729 145.01 80.9729 187.58 78.1809C230.15 75.3899 352.977 78.8789 352.977 78.8789C352.977 78.8789 353.463 78.1459 354.03 76.5339C342.43 76.1689 295.265 74.6969 276.16 74.2899C254.296 73.8249 202.657 73.3599 188.237 76.1509C181.963 77.3659 165.386 78.0509 147.204 78.3629C158.597 76.5879 168.168 74.1779 178.797 72.3449C199.032 68.8569 235.665 63.9719 235.665 63.9719L237.409 63.2749C212.987 61.5309 165.539 73.3919 150.537 76.5319C135.536 79.6729 109.02 77.5789 72.7358 74.7879C50.9158 73.1099 28.4648 70.0429 14.0328 67.8649C14.0918 67.0929 14.1228 66.2669 14.1228 65.3679C14.1228 64.7489 14.1118 64.1389 14.0928 63.5339C27.9938 64.3099 48.5738 65.0189 59.4788 63.2749C76.9228 60.4839 121.231 61.1809 140.42 63.9719C143.939 64.4839 147.775 64.8189 151.693 65.0269C147.638 66.3259 143.591 67.8869 139.646 69.1289C127.968 72.8009 114.425 73.5429 102.374 71.6659C99.8108 71.2669 97.0298 71.0539 94.3678 70.5229C92.2618 70.1039 87.1098 69.4449 89.8248 67.0269C92.0248 65.0659 99.6228 65.8199 102.471 65.7169C106.466 65.5719 110.509 65.3409 114.21 66.8329C112.803 70.6519 101.865 69.2229 98.3118 69.1979C102.49 69.9229 106.843 70.8609 111.187 70.9489C115.79 71.0429 125.998 71.2739 129.572 68.2449C125.792 65.7399 120.459 65.3849 116.077 65.0099C109.051 64.4069 102.074 64.3219 94.9718 64.3219C87.7908 64.3219 80.6688 64.4479 73.5138 64.6719C69.6838 64.7909 59.5408 64.3509 57.0668 67.4029C66.2408 69.1289 75.5548 69.7489 84.8718 70.6019C95.8068 71.6049 106.707 73.5809 117.668 74.0979C128.718 74.6199 139.808 71.3299 150.533 69.1189C156.036 67.9839 161.501 67.5199 167.032 66.6789C168.848 66.4029 175.712 65.9139 178.668 64.9229C184.423 64.6459 188.221 64.3209 188.221 64.3209L206.711 62.9249C206.711 62.9249 178.801 62.5759 169.033 62.5759C159.264 62.5759 103.442 59.4359 88.7878 59.4359C74.1348 59.4359 52.8528 60.8319 37.1528 62.5759C29.5758 63.4179 20.9428 62.8789 14.0378 62.0949C14.0118 61.5969 13.9798 61.1039 13.9438 60.6129C20.0278 60.9149 28.5618 59.5419 31.2118 59.4189C42.0088 58.9199 52.8618 58.3909 63.6688 58.3909L13.7288 58.0809C13.4708 55.4769 13.1318 52.9099 12.8348 50.2779C10.4718 50.0239 8.67382 49.7859 7.53282 49.5679C7.52782 49.5679 1.94482 53.7559 1.94482 63.5259ZM12.1018 75.7249C12.9148 73.6559 13.5128 71.8229 13.8398 69.6049C25.7588 71.1869 49.8668 74.9549 72.9108 77.6719C53.3148 77.4609 24.4198 77.5829 12.1018 75.7249Z" fill="url(#paint5_linear_208_1088)"/>
<path d="M211.38 75.338C208.124 75.454 195.564 76.851 195.564 76.851C195.564 76.851 216.498 76.3849 218.009 76.3849C219.522 76.3849 251.97 76.269 254.18 76.269C256.39 76.269 276.625 76.501 280.812 76.269C285 76.037 305.584 77.1999 310.585 77.0829C315.586 76.9669 350.826 78.1299 350.826 78.1299L351.988 77.3149C351.988 77.3149 322.448 76.1519 317.679 76.2679C312.91 76.3839 292.093 75.687 288.488 75.571C284.883 75.454 272.089 75.1049 267.321 75.2209C262.552 75.3369 253.946 75.105 251.155 75.337C248.364 75.57 235.338 75.1049 231.035 75.5699C226.732 76.0359 214.637 75.222 211.38 75.338ZM342.567 71.1509C344.08 71.1509 354.082 71.267 354.082 71.267L352.221 70.22C352.221 70.22 337.334 69.9879 337.102 69.2889C336.87 68.5919 341.406 66.498 341.406 66.498L351.292 65.102C351.292 65.102 339.894 65.917 337.918 66.614C335.94 67.312 329.194 68.8239 328.613 68.9399C328.031 69.0559 322.099 69.7549 322.099 69.7549C322.099 69.7549 297.56 68.4759 291.862 68.3589C286.163 68.2429 268.834 68.5909 268.485 68.5909C268.135 68.5909 263.716 68.3589 263.716 68.3589L266.158 66.963C266.158 66.963 260.459 68.01 259.878 68.243C259.297 68.475 248.945 69.1729 247.55 68.9399C246.154 68.7079 230.803 69.2889 230.221 69.2889C229.64 69.2889 224.406 69.871 224.406 69.871C224.406 69.871 242.665 69.9869 245.573 69.7549C248.48 69.5229 265.46 69.755 270.461 69.871C275.463 69.987 293.722 70.103 298.49 70.103C303.259 70.103 324.89 70.801 327.565 70.801C330.24 70.803 341.055 71.1509 342.567 71.1509ZM349.313 57.66L350.244 57.428C350.244 57.428 346.755 56.497 344.893 56.731C343.033 56.962 332.45 57.08 332.45 57.08L328.147 57.312L334.426 58.1249C334.426 58.1249 331.868 59.0559 329.658 59.8699C327.448 60.6829 321.865 61.964 321.516 62.08C321.167 62.196 318.027 62.777 318.027 62.777C318.027 62.777 323.959 62.777 326.75 61.964C329.542 61.149 336.055 59.8699 337.916 59.5209C339.776 59.1719 342.101 59.6379 343.032 59.1719C343.963 58.7069 345.707 58.009 346.055 57.894C346.406 57.776 349.313 57.66 349.313 57.66ZM307.678 63.9399L310.12 63.127C310.12 63.127 303.141 63.592 300.816 63.824C298.49 64.056 291.511 64.405 289.883 64.639C288.534 64.831 283.836 65.4229 281.932 65.6199C284.698 65.4219 293.912 64.831 296.512 64.639C299.652 64.405 307.678 63.9399 307.678 63.9399ZM281.161 65.6849C281.261 65.6849 281.537 65.6609 281.932 65.6199C281.356 65.6609 281.06 65.6849 281.161 65.6849ZM299.536 55.335L306.514 54.171C306.514 54.171 290.929 55.568 287.906 55.684C284.883 55.8 274.299 56.615 273.95 56.615C273.601 56.615 267.089 56.847 267.089 56.847L261.971 58.1249C261.971 58.1249 283.138 56.7309 285.581 56.4969C288.022 56.2649 299.536 55.335 299.536 55.335ZM196.144 68.011C195.795 68.011 187.189 69.29 187.189 69.29C187.189 69.29 194.399 68.941 198.935 68.244C203.471 67.546 211.147 66.0339 211.497 66.0339C211.846 66.0339 216.497 65.8019 216.497 65.8019L226.965 64.173L221.963 64.2889C221.963 64.2889 212.777 64.987 210.45 65.452C208.124 65.918 196.493 68.011 196.144 68.011ZM149.508 66.731L142.414 68.825C142.414 68.825 149.858 68.36 154.51 67.313C159.161 66.266 164.512 65.452 165.209 65.335C165.907 65.219 171.605 64.8699 171.605 64.8699L176.955 64.288L181.956 63.475C181.956 63.475 176.257 63.2419 173.234 63.2419C170.209 63.2419 158.813 62.8929 158.114 62.8929C157.416 62.8929 148.461 62.6609 147.996 62.6609C147.531 62.6609 142.296 62.429 142.296 62.429C142.296 62.429 152.066 63.941 153.345 64.639C154.626 65.336 149.508 66.731 149.508 66.731ZM124.852 68.36C123.456 67.197 114.152 66.15 114.152 66.15C114.152 66.15 116.711 67.429 116.478 68.36C116.246 69.29 113.919 69.407 113.919 69.407C121.248 69.64 124.852 68.36 124.852 68.36ZM62.0497 66.3829C62.0497 66.3829 69.0276 67.779 73.6786 68.361C78.3306 68.942 88.5657 70.105 88.5657 70.105L87.0536 69.291C86.5886 69.291 80.4247 68.594 80.4247 67.895C80.4247 67.198 88.9147 65.6849 88.9147 65.6849C88.9147 65.6849 65.5387 65.3359 62.0497 66.3829ZM64.0267 75.338C64.7247 75.571 76.0046 77.7799 76.5876 78.0129C77.1686 78.2459 69.9586 78.944 69.9586 78.944L65.8877 79.176C65.8877 79.176 71.1207 79.5259 72.9827 79.4089C74.8437 79.2919 86.9387 78.595 88.4507 78.827C89.9627 79.059 96.0107 79.4089 96.0107 79.4089L107.874 78.7109C107.874 78.7109 89.7307 77.548 84.9617 76.967C80.1937 76.385 69.6097 75.338 69.1447 75.454C68.6787 75.571 63.3287 75.106 64.0267 75.338ZM12.3887 76.733L10.0627 77.6639C10.0627 77.6639 18.7857 78.362 21.3437 78.595C23.9027 78.827 40.7657 79.2919 40.7657 79.2919L50.0706 78.827C50.0706 78.827 33.9037 78.2459 31.6937 78.1299C29.4837 78.0129 16.5747 77.3149 16.5747 77.3149L12.3887 76.733ZM56.4677 74.408L46.1157 73.012C46.1157 73.012 41.3477 72.5469 40.9987 72.5469C40.6497 72.5469 54.3737 74.873 56.4677 74.408ZM51.9307 63.3589C51.9307 63.3589 58.2117 62.8929 59.4907 62.5439C60.7697 62.1949 77.9827 60.567 77.9827 60.567L68.9117 60.799C68.5627 60.799 63.2127 61.1489 61.4677 61.4969C59.7237 61.8469 56.0017 62.079 51.0007 62.311C46.0007 62.543 38.3237 63.8229 38.3237 63.8229L51.9307 63.3589ZM18.2037 59.6379C20.0647 59.5209 24.9497 58.9399 24.9497 58.9399H19.3667L14.5987 59.056L13.4357 59.5209C13.4357 59.5199 16.3437 59.7539 18.2037 59.6379ZM9.59766 51.1479C9.59766 51.1479 12.1567 54.288 12.1567 55.218L12.0397 51.1479H9.59766ZM34.6027 71.4999L32.9747 70.9189L29.9507 71.035C29.9507 71.035 33.4397 71.7319 34.6027 71.4999ZM119.27 73.361C119.27 73.361 126.132 73.826 129.97 72.082C129.97 72.082 121.015 73.361 119.27 73.361ZM113.222 78.595L111.71 79.176C113.222 79.409 119.851 78.827 119.851 78.827L113.222 78.595Z" fill="url(#paint6_linear_208_1088)"/>
<path d="M354.186 52.7698C344.114 52.6048 301.997 52.0618 284.856 54.2048C265.319 56.6468 222.754 55.2518 222.754 55.2518L220.386 54.2278C273.633 52.0708 352.977 50.2678 352.977 50.2678C352.977 50.2678 353.556 50.9938 354.186 52.7698Z" fill="url(#paint7_radial_208_1088)"/>
<path d="M126.653 56.1158C151.152 56.7048 173.659 56.7618 187.581 55.8488C192.829 55.5038 199.299 55.1608 206.608 54.8218C199.483 55.8488 173.476 59.4868 160.306 59.7868C150.127 60.0178 135.658 57.6428 126.653 56.1158Z" fill="url(#paint8_radial_208_1088)"/>
<path d="M62.965 56.6468C53.197 56.6468 17.61 53.5068 17.61 53.5068L9.68701 49.9048C21.985 51.5528 63.94 54.0848 105.542 55.4998L105.53 55.5998C105.53 55.5998 72.734 56.6468 62.965 56.6468Z" fill="url(#paint9_radial_208_1088)"/>
<path d="M7.73683 78.0129L7.42783 78.0889C6.68883 77.3879 1.94482 72.5349 1.94482 63.5259C1.94482 53.7549 7.52783 49.5679 7.52783 49.5679C7.53783 49.5699 7.54883 49.5719 7.55983 49.5739C8.09783 50.1229 12.3898 54.7909 12.3898 64.0559C12.3888 73.9419 7.73683 78.0129 7.73683 78.0129Z" fill="url(#paint10_linear_208_1088)"/>
<path d="M10.5278 59.6378L10.4118 67.3138C11.5418 65.1838 11.3188 61.9108 10.5278 59.6378ZM1.94482 63.5258C1.94482 72.5348 6.68883 77.3869 7.42783 78.0889L7.73683 78.0128C7.73683 78.0128 12.3888 73.9428 12.3888 64.0568C12.3888 54.7908 8.09682 50.1228 7.55882 49.5748C7.54882 49.5728 7.53782 49.5708 7.52682 49.5688C7.52682 49.5688 1.94482 53.7558 1.94482 63.5258ZM3.81483 68.8248C3.04683 66.2128 2.64983 63.0648 2.76183 60.3408C2.85783 57.9738 3.91883 55.2278 5.08783 53.1528C5.49283 52.4338 6.68683 51.5248 7.49583 50.5958C7.70683 50.8068 7.90082 51.0268 8.05882 51.2628C13.4278 59.2228 12.3898 69.0039 7.80783 76.8209C6.92783 76.1739 6.34483 74.4979 5.83983 73.4899C7.30283 73.6839 8.54583 72.3218 8.98683 70.5688C9.92783 66.8208 9.99483 62.4968 9.22183 58.7068C9.04783 57.8528 8.59682 55.1768 7.50282 54.9778C6.09382 54.7188 4.99382 57.7028 4.73782 58.6208C4.19282 60.5828 4.26882 62.2969 4.73582 64.2899C5.06182 65.6859 5.67583 68.8628 7.16083 69.5148C8.14683 68.3338 9.09482 60.4288 6.80882 60.3308C4.80282 60.2458 5.98083 64.4189 6.79083 65.1859C6.44883 64.5039 5.90483 62.8278 6.10483 62.0808C6.60483 60.2158 7.36283 62.2329 7.49683 63.1339C7.64083 64.1019 7.58383 68.9218 6.19183 66.6158C5.27983 65.1068 5.08783 62.6458 5.17683 60.9178C5.22583 59.9588 6.07782 55.6758 7.73782 56.2828C9.63082 56.9748 9.01482 64.8798 9.01382 66.4938C9.01382 67.7688 9.09782 70.7238 7.84982 71.5068C6.76382 72.1878 5.25683 70.9958 4.03983 69.5638C3.96483 69.3218 3.88883 69.0778 3.81483 68.8248ZM7.62083 75.1058L8.55083 73.1288C8.06683 73.4178 7.57083 73.6948 7.07683 73.9658C7.33683 74.3088 7.54383 74.6898 7.62083 75.1058ZM4.24783 66.8828C4.24783 67.7958 4.13083 68.7439 4.59583 69.5239L5.87582 69.4078C5.20282 68.8248 4.43083 67.7308 4.24783 66.8828ZM4.24783 57.0778L5.29382 55.4509C6.27682 54.5639 7.56683 53.3689 8.67383 54.8259C8.13683 53.4539 7.83182 52.1968 6.45282 53.3538C5.40382 54.2368 4.29883 55.6428 4.24783 57.0778Z" fill="url(#paint11_linear_208_1088)"/>
<defs>
<linearGradient id="paint0_linear_208_1088" x1="192.572" y1="64.3831" x2="249.771" y2="94.4371" gradientUnits="userSpaceOnUse">
<stop stop-color="#4F2408"/>
<stop offset="1" stop-color="#170000"/>
</linearGradient>
<linearGradient id="paint1_linear_208_1088" x1="192.571" y1="64.3832" x2="249.771" y2="94.4372" gradientUnits="userSpaceOnUse">
<stop stop-color="#613619"/>
<stop offset="1" stop-color="#301900"/>
</linearGradient>
<linearGradient id="paint2_linear_208_1088" x1="178.857" y1="64.2519" x2="178.857" y2="72.018" gradientUnits="userSpaceOnUse">
<stop stop-color="#3B1C00"/>
<stop offset="1" stop-color="#0F0000"/>
</linearGradient>
<linearGradient id="paint3_linear_208_1088" x1="178.857" y1="64.3114" x2="178.857" y2="71.6241" gradientUnits="userSpaceOnUse">
<stop stop-color="#884C23"/>
<stop offset="1" stop-color="#5C3211"/>
</linearGradient>
<linearGradient id="paint4_linear_208_1088" x1="185.563" y1="65.8612" x2="185.563" y2="73.4575" gradientUnits="userSpaceOnUse">
<stop stop-color="#A96B40"/>
<stop offset="1" stop-color="#7D4D26"/>
</linearGradient>
<linearGradient id="paint5_linear_208_1088" x1="178.857" y1="64.2899" x2="178.857" y2="71.6124" gradientUnits="userSpaceOnUse">
<stop stop-color="#613619"/>
<stop offset="1" stop-color="#301900"/>
</linearGradient>
<linearGradient id="paint6_linear_208_1088" x1="181.84" y1="61.8749" x2="181.84" y2="70.7268" gradientUnits="userSpaceOnUse">
<stop stop-color="#964821"/>
<stop offset="1" stop-color="#592C00"/>
</linearGradient>
<radialGradient id="paint7_radial_208_1088" cx="0" cy="0" r="1" gradientUnits="userSpaceOnUse" gradientTransform="translate(294.339 36.0461) rotate(180) scale(63.387 63.3872)">
<stop stop-color="#F5BB97"/>
<stop offset="1" stop-color="#A96B40"/>
</radialGradient>
<radialGradient id="paint8_radial_208_1088" cx="0" cy="0" r="1" gradientUnits="userSpaceOnUse" gradientTransform="translate(158.639 44.1378) rotate(180) scale(36.8773 36.8775)">
<stop stop-color="#F5BB97"/>
<stop offset="1" stop-color="#A96B40"/>
</radialGradient>
<radialGradient id="paint9_radial_208_1088" cx="0" cy="0" r="1" gradientUnits="userSpaceOnUse" gradientTransform="translate(55.0088 44.1318) rotate(180) scale(38.659 38.659)">
<stop stop-color="#F5BB97"/>
<stop offset="1" stop-color="#A96B40"/>
</radialGradient>
<linearGradient id="paint10_linear_208_1088" x1="7.16713" y1="67.3651" x2="7.16713" y2="76.4118" gradientUnits="userSpaceOnUse">
<stop stop-color="#D5A370"/>
<stop offset="1" stop-color="#A9764C"/>
</linearGradient>
<linearGradient id="paint11_linear_208_1088" x1="7.16712" y1="66.1112" x2="7.16712" y2="74.3166" gradientUnits="userSpaceOnUse">
<stop stop-color="#AF7E4B"/>
<stop offset="1" stop-color="#83552E"/>
</linearGradient>
</defs>
</svg>
