<svg width="735" height="411" viewBox="0 0 735 411" fill="none" xmlns="http://www.w3.org/2000/svg">
<path d="M309.516 227.838C318.289 232.002 326.726 234.301 334.591 234.675C335.184 234.702 335.785 234.718 336.373 234.718C339.615 234.718 342.749 234.29 345.689 233.451C349.712 232.301 353.142 229.83 356.46 227.446C356.939 227.102 357.418 226.756 357.901 226.416C360.822 224.345 363.687 223.249 366.188 223.249C368.299 223.249 370.197 224.029 371.831 225.568C374.801 228.372 374.213 233.939 373.37 238.476C372.129 245.162 373.272 250.653 376.678 254.356C379.87 257.828 384.413 259.588 390.182 259.588C394.936 259.588 400.548 258.392 406.865 256.029C408.306 255.492 409.726 254.909 411.091 254.302C414.635 255.571 418.692 256.386 423.799 256.86C425.943 257.059 428.124 257.16 430.28 257.16C438.465 257.16 446.437 255.716 453.338 252.975C463.313 249.018 468.125 239.277 472.775 229.854L472.827 229.751C474.506 226.35 476.098 223.628 477.758 221.339C487.207 236.149 504.748 246.342 521.11 246.342C522.394 246.342 523.675 246.28 524.921 246.157C531.61 245.492 539.041 242.503 547.009 237.266C559 229.386 560.455 221.315 559.564 215.93C557.645 204.328 544.084 202.977 538.293 202.399C530.809 201.655 522.827 200.925 514.764 200.925C512.025 200.925 509.369 201.012 506.875 201.186C495.099 201.998 485.59 205.641 478.582 212.02C477.565 209.671 476.772 207.244 476.221 204.786C474.209 195.824 475.233 188.265 479.258 182.328C489.151 167.742 513.854 166.167 524.016 166.167C526.691 166.167 529.318 166.27 531.831 166.469C531.895 166.472 531.957 166.475 532.019 166.475C533.313 166.475 534.325 165.336 534.37 163.823C534.418 162.207 533.41 160.905 532.029 160.793C528.544 160.515 525.15 160.376 521.941 160.376C507.147 160.376 494.77 163.382 485.159 169.308C477.822 173.834 472.841 180.769 471.133 188.832C469.326 197.377 470.667 207.219 474.811 216.004C471.722 219.838 469.514 224.35 467.37 228.724C465.012 233.541 462.785 238.092 459.483 241.808C452.921 249.193 442.007 250.571 432.195 250.947C431.204 250.985 430.225 251.007 429.28 251.007C425.535 251.007 422.091 250.705 418.99 250.103C426.043 245.639 430.849 240.277 433.305 234.119C435.256 229.228 435.089 224.11 432.824 219.32C428.908 211.042 420.195 206.069 413.756 204.952C412.875 204.799 411.984 204.72 411.11 204.72C404.15 204.72 397.949 209.535 394.927 217.285C391.559 225.92 392.683 236.492 397.788 244.222C399.093 246.203 400.663 247.961 402.468 249.473C399.829 250.277 397.171 250.855 394.527 251.195C393.021 251.389 391.673 251.481 390.403 251.481C387.169 251.481 384.544 250.841 382.602 249.574C380.175 247.991 379.318 245.021 380.056 240.74C381.021 235.154 381.719 229.715 379.668 224.587C377.534 219.238 372.715 215.84 366.455 215.268C366.105 215.233 365.745 215.219 365.39 215.219C360.362 215.219 355.958 218.448 352.073 221.296C351.72 221.554 351.367 221.813 351.02 222.067C347.659 224.505 344.434 225.95 340.875 226.609C339.179 226.922 337.371 227.083 335.508 227.083C330.477 227.083 324.749 225.936 317.989 223.574C309.588 220.639 301.513 216.097 293.981 210.077C286.361 203.985 280.727 197.132 277.24 189.704C275.516 186.036 274.46 182.08 274.189 178.259C273.936 174.734 274.62 171.371 275.342 167.807C275.451 167.262 275.563 166.712 275.67 166.161C278.222 153.156 280.997 133.932 275.67 117.239C273.455 110.299 269.658 104.738 264.687 101.155C260.183 97.9094 254.423 96.2609 247.57 96.2609C246.298 96.2609 244.962 96.3154 243.597 96.4298C233.557 97.2472 222.486 100.711 212.422 106.19C209.699 107.672 207.131 109.607 204.778 111.95C199.988 110.588 194.786 109.896 189.3 109.896C184.672 109.896 179.929 110.389 175.21 111.357C171.53 112.111 164.825 114.258 161.281 120.144C159.73 122.719 159.049 125.474 159.139 128.815C159.161 129.629 159.242 130.449 159.315 131.242C159.547 133.643 159.747 135.719 158.498 137.196C157.386 138.515 155.678 139.125 153.122 139.125C151.557 139.125 149.873 138.894 148.139 138.638L147.846 138.591C146.219 138.351 144.681 138.123 143.29 138.123C137.575 138.136 132.964 141.793 128.352 145.869C124.805 149.003 121.702 152.344 119.122 155.799C118.641 156.444 118.534 157.316 118.843 158.082C119.151 158.842 119.81 159.333 120.523 159.333C121.016 159.333 121.485 159.101 121.84 158.673C123.46 156.733 125.317 154.81 127.521 152.801C128.876 151.567 130.312 150.474 131.413 149.657C131.634 149.491 131.863 149.316 132.097 149.139C133.238 148.27 134.533 147.278 135.643 147.049C136.52 146.872 137.33 146.412 138.111 145.967C138.578 145.703 139.019 145.452 139.402 145.305C140.393 144.927 141.436 144.741 142.687 144.725L142.913 144.722C144.647 144.722 146.379 145.006 148.215 145.305C149.14 145.455 150.097 145.61 151.045 145.725C151.848 145.82 152.663 145.872 153.468 145.872C159.568 145.872 163.882 143.144 165.301 138.392C166.121 135.651 165.935 132.962 165.754 130.357C165.733 130.033 165.711 129.706 165.69 129.379C165.501 126.4 166.378 124.264 168.529 122.444C172.278 119.272 177.516 118.509 182.128 118.038C184.369 117.812 186.653 117.697 188.919 117.697C191.882 117.697 194.876 117.893 197.823 118.28C198.385 118.354 198.945 118.438 199.492 118.528C197.815 121.155 196.477 123.948 195.507 126.858C194.045 131.237 194.059 135.787 195.55 139.354C196.82 142.395 199.085 144.594 202.098 145.711C203.732 146.316 205.693 146.635 207.772 146.635C215.19 146.635 223.381 142.741 223.841 134.188C224.101 129.349 221.54 124.76 219.482 121.073L219.434 120.989C217.498 117.523 213.97 115.419 210.819 114.06C217.493 108.348 226.409 105.471 235.139 103.228C239.679 102.062 243.695 101.495 247.423 101.495C251.598 101.495 255.419 102.239 258.777 103.705C272.021 109.493 273.791 128.158 273.667 138.768C273.574 146.747 272.574 155.295 270.697 164.172C270.575 164.752 270.449 165.333 270.323 165.913C269.556 169.434 268.763 173.074 268.741 176.913C268.72 180.924 269.487 185.156 271.018 189.486C278.429 210.475 298.321 222.525 309.516 227.838ZM481.659 216.813C485.642 213.001 490.861 210.309 497.612 208.584C502.078 207.443 506.849 206.914 512.628 206.914C517.294 206.914 522.065 207.268 526.679 207.609C528.325 207.729 529.971 207.854 531.612 207.96L532.312 208.007C536.402 208.271 540.632 208.543 544.672 209.508C550.006 210.783 552.997 212.881 554.091 216.107C556.046 221.887 551.694 227.898 541.152 233.985C533.753 238.255 526.981 240.331 520.45 240.331C519.988 240.331 519.521 240.32 519.056 240.299C504.281 239.626 489.258 230.399 481.254 217.206C481.393 217.072 481.526 216.941 481.659 216.813ZM400.634 219.061C402.147 215.655 404.626 213.181 407.616 212.099C408.514 211.772 409.481 211.606 410.486 211.606C413.011 211.606 415.821 212.612 418.839 214.595C424.551 218.345 427.524 222.037 427.927 225.89C428.27 229.181 426.764 232.759 423.449 236.519C419.852 240.601 415.035 244.133 409.493 246.759C407.523 245.642 405.793 244.293 404.343 242.746C398.757 236.775 397.197 226.813 400.634 219.061ZM212.088 123.302C214.577 125.013 217.129 130.106 217.333 133.776C217.533 137.379 211.998 138.986 209.039 139.335C208.299 139.425 207.589 139.469 206.936 139.469C204.059 139.469 202.089 138.638 201.086 136.997C199.669 134.687 200.386 131.231 201.048 128.834C201.851 125.929 203.323 122.967 205.431 120.013C207.91 120.861 210.147 121.967 212.088 123.302Z" fill="url(#paint0_linear_421_343)"/>
<path d="M120.817 157.57C122.63 155.398 124.59 153.417 126.641 151.548C127.92 150.382 129.273 149.33 130.645 148.311C132.037 147.281 133.735 145.815 135.393 145.471C136.555 145.234 137.806 144.226 138.954 143.785C140.171 143.319 141.386 143.142 142.665 143.123C145.509 143.082 148.367 143.793 151.188 144.131C155.78 144.684 162.214 143.747 163.967 137.877C164.786 135.131 164.46 132.33 164.281 129.498C164.058 125.945 165.179 123.278 167.688 121.155C171.732 117.733 177.13 116.934 181.999 116.441C187.308 115.904 192.684 115.991 197.977 116.686C203.11 117.359 208.358 118.858 212.814 121.923C215.82 123.994 218.51 129.607 218.736 133.67C219.017 138.708 212.459 140.545 209.187 140.932C206.088 141.297 201.926 141.158 199.94 137.915C198.232 135.128 198.884 131.346 199.713 128.349C200.912 124.002 203.334 120.1 206.023 116.803C213.329 107.863 224.698 104.264 234.821 101.667C242.792 99.6205 251.488 98.8113 259.268 102.212C272.13 107.83 275.222 124.741 275.06 138.796C274.96 147.441 273.829 156.158 272.052 164.556C271.185 168.657 270.16 172.676 270.137 176.927C270.118 181.028 270.975 185.107 272.311 188.889C278.645 206.797 295.055 219.23 310.054 226.353C317.869 230.064 326.163 232.666 334.648 233.07C338.23 233.239 341.865 232.887 345.345 231.89C349.714 230.639 353.382 227.721 357.158 225.048C361.926 221.669 367.91 219.789 372.721 224.326C376.378 227.775 375.608 234.14 374.744 238.805C373.793 243.912 374.167 249.408 377.645 253.187C384.846 261.018 398.147 257.593 406.426 254.498C415.885 250.961 427.652 244.41 432.026 233.448C437.392 219.99 424.01 208.353 413.541 206.535C405.986 205.224 399.257 210.11 396.205 217.933C392.983 226.195 394.169 236.081 398.904 243.25C404.75 252.103 414.782 254.408 423.908 255.255C433.476 256.141 443.769 255.064 452.87 251.454C462.379 247.68 466.934 238.399 471.597 228.955C474.07 223.95 476.878 219.287 480.759 215.573C485.461 211.075 491.392 208.522 497.304 207.012C508.628 204.118 520.252 205.606 531.695 206.353C536.142 206.641 540.589 206.887 544.962 207.933C548.978 208.895 553.785 210.756 555.4 215.524C558.576 224.898 547.63 232.042 541.785 235.416C534.649 239.533 527.052 242.266 519.001 241.898C500.536 241.053 479.637 226.508 474.851 205.178C466.51 167.989 509.814 163.098 531.921 164.856C533.312 164.968 533.303 162.499 531.921 162.39C516.669 161.175 499.529 162.259 485.818 170.717C479.398 174.676 474.237 180.96 472.491 189.205C470.457 198.816 472.736 209.347 477.231 217.584C486.716 234.966 506.994 246.318 524.794 244.555C532.307 243.808 539.832 240.124 546.304 235.868C552.378 231.876 559.669 225.247 558.178 216.222C556.539 206.328 545.236 204.699 538.164 203.993C527.85 202.966 517.296 202.066 506.953 202.783C495.815 203.554 484.317 207.094 476.328 216.494C469.723 224.268 467.215 235.345 460.459 242.95C453.39 250.906 441.642 252.19 432.23 252.549C422.734 252.912 410.702 251.737 403.382 243.914C397.344 237.462 395.638 226.762 399.381 218.328C401.005 214.666 403.751 211.805 407.189 210.562C411.383 209.045 415.89 210.802 419.537 213.197C423.634 215.887 428.731 220.078 429.317 225.693C429.796 230.279 427.285 234.418 424.434 237.656C416.855 246.258 405.157 251.438 394.674 252.787C390.436 253.332 385.537 253.34 381.897 250.966C378.681 248.868 377.895 244.906 378.669 240.427C379.532 235.432 380.308 230.075 378.383 225.252C376.23 219.86 371.283 217.32 366.333 216.868C360.89 216.366 356.112 220.266 351.762 223.421C348.397 225.862 345.021 227.462 341.086 228.189C333.295 229.634 325.008 227.704 317.567 225.108C308.872 222.069 300.612 217.345 293.168 211.391C286.303 205.903 279.986 198.965 275.992 190.461C274.241 186.734 273.081 182.614 272.778 178.39C272.469 174.047 273.467 169.998 274.288 165.807C277.285 150.526 279.145 132.847 274.341 117.787C272.347 111.542 268.879 106.078 263.927 102.509C257.948 98.2009 250.569 97.4679 243.687 98.0265C233.328 98.8657 222.364 102.544 213.014 107.634C205.826 111.547 199.656 118.901 196.807 127.425C194.537 134.218 196.019 141.766 202.517 144.177C209.17 146.646 221.899 143.861 222.423 134.087C222.657 129.735 220.187 125.346 218.233 121.85C215.773 117.441 210.282 115.373 206.088 114.008C196.329 110.836 185.379 110.893 175.446 112.931C170.67 113.91 165.282 116.305 162.426 121.049C160.999 123.417 160.454 125.899 160.532 128.757C160.623 132.003 161.718 135.673 159.498 138.302C155.749 142.749 147.939 139.708 143.28 139.719C137.822 139.733 133.335 143.48 129.2 147.131C125.934 150.019 122.859 153.24 120.177 156.831C119.815 157.341 120.415 158.052 120.817 157.57Z" fill="url(#paint1_linear_421_343)"/>
<path d="M123.706 259.412C126.555 276.352 129.363 294.183 124.615 310.556C121.688 320.648 116.081 329.408 110.239 337.679C105.448 344.462 100.409 351.077 94.5342 356.633C81.293 369.156 62.9071 377.782 58.0325 396.626C52.66 379.471 51.638 360.902 52.3406 342.697C52.8695 328.991 54.4424 314.97 60.0686 302.854C71.8332 277.517 97.886 266.444 121.702 257.45C122.461 257.164 123.464 256.96 123.919 257.714C124.373 258.467 122.829 259.312 122.92 258.403" fill="#80BE1F"/>
<path d="M81.8191 358.719C82.2104 354.235 82.2195 349.73 82.6744 345.244C83.1049 341.002 83.6917 336.723 83.6611 332.445C83.6408 329.551 79.6846 329.599 79.3209 332.341C78.7641 336.541 78.974 340.934 79.1775 345.161C79.3931 349.639 79.3812 354.227 79.8939 358.672C80.0347 359.885 81.7058 360.012 81.8191 358.719Z" fill="#1E6A30"/>
<path d="M62.1938 381.42C75.2138 338.214 105.023 306.204 121.771 265.308C126.158 254.593 130.312 242.385 130.322 230.414C130.324 228.471 127.494 227.976 127.004 229.845C124.24 240.382 122.16 250.857 118.203 260.958C114.176 271.239 109.241 280.98 103.906 290.437C93.2982 309.239 81.3386 327.034 71.948 346.715C66.7973 357.509 62.6292 368.769 60.2655 380.792C60.0136 382.061 61.8185 382.665 62.1938 381.42Z" fill="#1E6A30"/>
<path d="M82.4218 331.344C79.1549 331.945 75.8953 332.718 72.7368 333.859C69.3872 335.067 66.2477 336.892 62.9165 338.125C59.741 339.301 62.3178 345.169 65.141 342.762C70.1176 338.521 77.1392 336.225 83.0764 334.439C84.6152 333.977 83.9799 331.058 82.4218 331.344Z" fill="#1E6A30"/>
<path d="M96.4365 342.685C97.1595 331.751 97.8486 320.817 98.4774 309.876C98.5811 308.06 97.3244 305.783 95.442 306.257C84.521 309.008 73.2998 311.268 62.5753 314.901C59.7271 315.866 60.8796 321.204 63.7986 320.683C74.6151 318.754 85.3689 315.359 96.0362 312.556C95.0197 311.619 94.0031 310.683 92.9865 309.747C93.2383 320.71 93.5513 331.666 93.8983 342.626C93.9512 344.273 96.3278 344.345 96.4365 342.685Z" fill="#1E6A30"/>
<path d="M114.06 316.022C114.287 304.709 114.472 293.395 114.635 282.082C114.663 280.106 112.63 279.27 111.277 279.738C100.931 283.319 90.7537 284.449 79.9786 283.882C77.2743 283.74 76.5488 288.25 79.3411 288.74C90.4718 290.691 102.411 289.13 113.059 285.035C111.94 284.255 110.821 283.473 109.702 282.692C110.088 293.78 110.497 304.865 110.948 315.949C111.029 317.952 114.019 318.071 114.06 316.022Z" fill="#1E6A30"/>
<path d="M139.553 239.097C150.676 239.259 162.356 239.587 171.992 245.945C177.932 249.863 182.632 255.8 186.988 261.858C190.561 266.825 193.991 271.973 196.627 277.655C202.57 290.46 205.286 306.939 216.465 313.768C204.831 315.66 192.95 313.746 181.555 310.46C172.977 307.986 164.354 304.603 157.537 298.152C143.281 284.663 140.158 261.484 138.016 240.462C137.948 239.792 137.968 238.932 138.512 238.669C139.055 238.405 139.36 239.807 138.798 239.597" fill="#80BE1F"/>
<path d="M196.055 288.475C193.281 287.486 190.437 286.809 187.671 285.766C185.056 284.78 182.44 283.659 179.733 283.049C177.902 282.636 177.345 285.913 179.023 286.621C181.593 287.705 184.399 288.185 187.099 288.644C189.96 289.132 192.856 289.823 195.74 290.06C196.527 290.123 196.855 288.761 196.055 288.475Z" fill="#1E6A30"/>
<path d="M207.478 308.07C182.122 290.888 166.332 261.493 142.989 241.573C136.873 236.354 129.779 231.107 122.22 229.32C120.992 229.03 120.259 231.295 121.367 231.978C127.612 235.828 133.92 239.104 139.712 243.875C145.607 248.731 151.027 254.258 156.207 260.073C166.508 271.635 175.97 284.164 187.006 294.85C193.059 300.712 199.552 305.83 206.795 309.57C207.559 309.967 208.209 308.565 207.478 308.07Z" fill="#1E6A30"/>
<path d="M178.854 283.909C178.749 286.699 178.752 289.508 179.003 292.288C179.269 295.236 179.955 298.102 180.239 301.039C180.51 303.839 184.599 302.58 183.499 299.889C181.56 295.146 181.153 289.001 180.907 283.828C180.843 282.487 178.905 282.579 178.854 283.909Z" fill="#1E6A30"/>
<path d="M188.099 274.011C181.3 271.789 174.496 269.595 167.679 267.449C166.548 267.094 164.923 267.794 164.942 269.42C165.057 278.856 164.817 288.467 165.519 297.871C165.705 300.369 169.248 300.209 169.352 297.719C169.741 288.492 169.195 279.099 169.009 269.865C168.267 270.566 167.524 271.267 166.782 271.969C173.744 273.389 180.711 274.759 187.685 276.1C188.733 276.301 189.132 274.348 188.099 274.011Z" fill="#1E6A30"/>
<path d="M173.877 255.48C166.765 253.612 159.646 251.778 152.524 249.963C151.28 249.646 150.45 251.202 150.545 252.39C151.27 261.473 150.471 270.054 148.512 278.876C148.02 281.09 150.762 282.36 151.486 280.124C154.372 271.214 155.16 261.114 154.156 251.704C153.496 252.513 152.836 253.322 152.177 254.131C159.237 255.459 166.301 256.768 173.368 258.042C174.646 258.273 175.165 255.819 173.877 255.48Z" fill="#1E6A30"/>
<path d="M488.83 137.486C487.213 125.854 485.641 113.616 489.197 102.563C491.389 95.7506 495.385 89.9142 499.531 84.4183C502.931 79.9107 506.498 75.5239 510.614 71.8809C519.891 63.67 532.604 58.2488 536.294 45.5125C539.629 57.3548 539.968 70.0516 539.137 82.4571C538.511 91.7964 537.167 101.324 533.094 109.45C524.577 126.442 506.585 133.34 490.16 138.875C489.636 139.051 488.948 139.165 488.652 138.639C488.356 138.114 489.426 137.576 489.347 138.195" fill="#80BE1F"/>
<path d="M519.331 70.7785C518.977 73.8282 518.884 76.9018 518.487 79.9517C518.111 82.8356 517.628 85.7405 517.567 88.6609C517.525 90.6362 520.225 90.7035 520.526 88.841C520.987 85.9895 520.929 82.9862 520.872 80.097C520.811 77.0353 520.908 73.9052 520.644 70.8591C520.571 70.028 519.433 69.8988 519.331 70.7785Z" fill="#1E6A30"/>
<path d="M533.16 55.7844C523.441 84.9386 502.482 106.028 490.264 133.512C487.063 140.712 483.993 148.938 483.755 157.107C483.716 158.433 485.638 158.842 486.008 157.579C488.098 150.458 489.719 143.363 492.614 136.57C495.561 129.656 499.116 123.134 502.94 116.815C510.541 104.253 519.046 92.4126 525.834 79.2199C529.557 71.9846 532.619 64.4063 534.464 56.2618C534.661 55.4018 533.441 54.9441 533.16 55.7844Z" fill="#1E6A30"/>
<path d="M518.39 89.4436C520.631 89.116 522.87 88.6709 525.047 87.9724C527.356 87.2322 529.534 86.0664 531.831 85.3091C534.02 84.5867 532.375 80.5178 530.402 82.0887C526.925 84.8568 522.089 86.2461 518.003 87.315C516.944 87.5916 517.321 89.5997 518.39 89.4436Z" fill="#1E6A30"/>
<path d="M509.047 81.3512C508.342 88.7939 507.661 96.2378 507.02 103.688C506.915 104.924 507.728 106.51 509.022 106.234C516.527 104.632 524.228 103.374 531.616 101.166C533.579 100.579 532.895 96.9076 530.893 97.1896C523.475 98.2328 516.071 100.278 508.738 101.921C509.414 102.585 510.089 103.25 510.765 103.914C510.805 96.427 510.803 88.9429 510.778 81.4554C510.773 80.3304 509.153 80.221 509.047 81.3512Z" fill="#1E6A30"/>
<path d="M496.505 99.1C496.132 106.814 495.787 114.53 495.458 122.246C495.4 123.593 496.771 124.215 497.703 123.929C504.832 121.747 511.799 121.233 519.141 121.893C520.984 122.058 521.566 118.999 519.67 118.594C512.112 116.982 503.935 117.744 496.59 120.27C497.338 120.831 498.087 121.393 498.835 121.954C498.786 114.378 498.721 106.803 498.627 99.2281C498.61 97.8591 496.573 97.7027 496.505 99.1Z" fill="#1E6A30"/>
<path d="M472.83 133.35C462.565 132.438 451.795 131.335 443.227 124.804C437.947 120.778 433.916 114.973 430.21 109.08C427.17 104.247 424.272 99.2572 422.134 93.8294C417.316 81.5955 415.669 66.1899 405.702 59.117C416.546 58.1665 427.419 60.7481 437.771 64.5632C445.565 67.4354 453.352 71.1507 459.31 77.5754C471.771 91.0097 473.442 112.632 474.321 132.194C474.349 132.818 474.285 133.61 473.769 133.816C473.253 134.023 473.045 132.707 473.553 132.939" fill="#80BE1F"/>
<path d="M423.23 83.8742C425.74 84.9782 428.331 85.7981 430.831 86.9505C433.195 88.0404 435.552 89.2546 438.021 90.0038C439.69 90.5108 440.377 87.5222 438.863 86.7532C436.547 85.5759 433.98 84.941 431.51 84.3315C428.894 83.6856 426.255 82.8487 423.604 82.4326C422.881 82.3197 422.506 83.5554 423.23 83.8742Z" fill="#1E6A30"/>
<path d="M413.705 64.9947C436.224 82.6 449.269 110.83 469.786 130.827C475.161 136.065 481.439 141.397 488.327 143.565C489.446 143.917 490.241 141.875 489.254 141.169C483.687 137.185 478.033 133.728 472.933 128.925C467.743 124.036 463.027 118.56 458.546 112.835C449.638 101.451 441.554 89.2311 431.92 78.6056C426.637 72.7779 420.908 67.606 414.414 63.6557C413.729 63.2368 413.055 64.4872 413.705 64.9947Z" fill="#1E6A30"/>
<path d="M438.877 89.2695C439.121 86.7003 439.264 84.1056 439.178 81.5206C439.087 78.7794 438.603 76.0853 438.494 73.3536C438.391 70.7495 434.548 71.6314 435.424 74.1923C436.967 78.7062 437.021 84.4095 436.978 89.204C436.966 90.4465 438.761 90.4948 438.877 89.2695Z" fill="#1E6A30"/>
<path d="M429.821 97.7781C435.984 100.296 442.154 102.789 448.338 105.237C449.364 105.643 450.901 105.107 450.968 103.604C451.356 94.881 452.081 86.0211 451.925 77.2873C451.883 74.9678 448.603 74.8724 448.376 77.1652C447.534 85.6607 447.548 94.3736 447.236 102.914C447.958 102.318 448.68 101.721 449.403 101.124C443.047 99.3352 436.684 97.5935 430.313 95.8768C429.356 95.6195 428.885 97.3965 429.821 97.7781Z" fill="#1E6A30"/>
<path d="M441.986 115.866C448.457 118.079 454.936 120.26 461.419 122.425C462.551 122.803 463.399 121.422 463.373 120.319C463.18 111.88 464.366 104.009 466.637 95.9957C467.207 93.9845 464.742 92.6239 463.956 94.6387C460.824 102.671 459.568 111.945 460.003 120.705C460.654 120.003 461.306 119.301 461.958 118.599C455.506 116.889 449.051 115.196 442.59 113.535C441.422 113.235 440.814 115.465 441.986 115.866Z" fill="#1E6A30"/>
<path d="M418.459 182.062C417.709 179.452 414.915 178.521 412.861 177.938C411.286 177.491 409.597 177.146 407.865 176.87C403.854 175.29 399.425 174.867 395.208 174.499C390.213 174.059 385.166 174.138 380.149 174.549C370.714 175.323 361.458 177.692 352.383 180.928C349.906 181.81 346.364 182.957 345.06 185.892C343.526 189.333 346.781 191.743 348.836 193.371C353.231 196.854 357.863 200.515 360.672 205.904C362.631 209.667 363.387 213.809 363.742 218.174C364.134 223.01 363.937 228.81 365.569 233.498C366.769 229.997 368.142 226.566 369.481 223.157C370.595 220.315 373.844 221.496 374.232 224.094C374.381 225.084 374.469 226.075 374.52 227.07C375.539 226.535 376.768 227.027 377.5 228.055C377.569 227.802 377.633 227.547 377.701 227.294C377.702 227.258 377.708 227.224 377.708 227.194C377.708 227.194 377.718 227.196 377.728 227.198C377.801 226.951 377.854 226.701 377.926 226.454C378.346 225.071 379.916 224.58 380.977 224.943C381.093 224.984 381.167 225.064 381.27 225.12C381.761 223.858 382.74 222.959 384.034 223.214C385.368 223.478 386.271 225.008 386.014 226.554C385.235 231.159 384.587 235.783 384.17 240.43C384.356 240.306 384.569 240.224 384.742 240.086C387 238.259 387.982 235.017 388.931 232.184C391.002 226.007 392.779 219.688 395.089 213.611C397.411 207.495 400.343 201.742 404.416 196.933C407.54 193.247 411.228 191.631 414.871 188.872C416.806 187.408 419.325 185.075 418.459 182.062Z" fill="#483128"/>
<path d="M412.203 187.675C409.755 189.352 407.106 190.58 404.908 192.716C401.563 195.954 398.726 199.916 396.407 204.176C391.68 212.861 389.244 222.871 386.056 232.329C384.999 235.467 384.236 238.176 381.05 238.521C377.76 238.881 373.733 238.324 371.225 235.711C367.45 231.781 367.775 224.565 367.444 219.13C367.006 211.941 365.681 205.48 361.571 199.958C359.105 196.648 356.036 194.043 352.958 191.561C351.885 190.697 348.441 188.884 348.403 187.055C348.368 185.429 351.539 184.654 352.544 184.288C361.163 181.176 369.871 179.013 378.816 178.077C383.831 177.553 388.846 177.391 393.865 177.42C393.667 177.826 403.486 178.202 407.848 179.228C410.032 179.741 412.598 180.384 414.378 182.005C416.917 184.315 414.321 186.224 412.203 187.675Z" fill="#66483D"/>
<path d="M370.345 234.559C373.709 226.625 374.905 217.308 373.348 209.193C371.611 200.123 364.971 197.116 357.838 195.84C359.159 197.115 360.439 198.448 361.566 199.957C365.676 205.479 367.001 211.94 367.439 219.129C367.745 224.078 367.538 230.481 370.345 234.559Z" fill="#66483D"/>
<path d="M414.374 181.998C412.595 180.377 410.028 179.735 407.845 179.221C403.483 178.195 393.664 177.819 393.861 177.413C388.842 177.39 383.827 177.547 378.812 178.071C369.867 179.006 361.158 181.175 352.541 184.282C351.537 184.641 348.365 185.416 348.4 187.049C348.442 188.879 351.881 190.69 352.954 191.554C355.339 193.478 357.627 195.573 359.721 197.908C362.193 197.571 364.659 197.114 367.031 196.911C371.572 196.525 376.902 196.229 380.891 199.027C384.619 201.638 385.426 206.597 385.261 211.364C385.061 217.151 383.958 222.849 383.248 228.589C382.875 231.625 382.582 234.824 382.749 237.936C384.529 236.935 385.224 234.781 386.052 232.322C389.24 222.864 391.676 212.855 396.404 204.169C398.722 199.909 401.56 195.948 404.904 192.709C407.102 190.579 409.751 189.346 412.199 187.675C414.322 186.224 416.917 184.315 414.374 181.998Z" fill="#9D6F3B"/>
<path d="M704.212 188.419C705.446 185.352 706.91 182.65 708.753 180.011C708.855 179.865 708.947 179.717 709.049 179.571C709.133 178.235 709.176 176.897 709.161 175.565C707.966 175.329 706.775 175.1 705.583 174.877C703.66 174.516 701.579 174.307 699.488 174.061C699.383 173.927 699.318 173.766 699.061 173.71C654.661 163.488 609.492 156.735 564.43 150.827C519.398 144.925 474.14 140.77 428.741 139.074C383.652 137.391 338.483 137.657 293.33 139.391C270.87 140.254 248.41 141.48 225.965 143.005C203.795 144.512 181.556 145.912 159.452 148.75C117.241 154.167 75.0968 163.769 32.6044 160.925C28.7521 160.67 24.9103 160.233 21.0655 159.813C20.6214 160.585 20.2229 161.391 19.8205 162.19C21.2191 169.034 18.9195 175.38 17.3925 182.216C15.542 190.502 14.503 198.989 13.9152 207.477C12.7853 223.79 12.416 240.182 17.2216 255.654C18.0193 258.226 15.6485 259.99 13.9128 259.345C14.2002 260.849 14.4976 262.356 14.8494 263.843C37.3562 266.834 61.2289 259.295 82.6957 251.887C93.4727 248.168 104.129 243.986 114.873 240.16C129.229 235.046 144.004 231.54 158.637 227.81C237.303 207.73 317.166 194.471 397.291 188.948C477.579 183.409 558.191 185.629 637.625 197.312C654.337 199.772 670.942 202.833 687.554 205.942C692.264 206.824 697.109 207.631 701.973 207.967C702.388 206.915 702.783 205.854 703.173 204.798C700.642 199.849 702.073 193.729 704.212 188.419Z" fill="#462F0A"/>
<path d="M709.055 179.655C702.731 178.26 696.339 177.207 690.259 174.738C687.061 174.221 683.868 173.71 680.675 173.163C635.603 165.503 590.648 157.765 545.22 152.711C499.792 147.656 454.169 144.628 408.458 143.464C363.351 142.312 318.18 143.04 273.027 145.171C228.623 147.267 184.01 149.718 139.813 156.263C118.8 159.376 97.793 162.994 76.6753 164.674C57.8027 166.173 38.381 166.2 19.8574 161.971C15.4747 170.559 13.3908 180.608 12.1547 190.285C10.0233 206.911 10.4295 224.138 11.6084 240.77C12.0652 247.215 12.75 253.675 13.9847 259.976C22.1724 261.353 30.8424 261.01 38.8611 259.916C62.3394 256.714 85.0593 247.726 107.561 239.388C136.851 228.539 167.332 221.835 197.401 215.056C272.199 198.188 347.967 187.486 423.838 183.829C499.471 180.185 575.294 183.561 649.98 195.34C664.237 197.588 678.373 200.554 692.608 202.934C695.982 203.498 699.621 204.103 703.314 204.422C706.274 196.331 708.523 187.964 709.055 179.655Z" fill="#7B572C"/>
<path d="M124.486 180.907C120.258 180.661 116.03 180.385 111.81 180.122C101.235 179.46 90.6596 179.25 80.0663 180.383C70.6366 181.395 61.255 182.998 51.8325 184.089C39.3712 185.535 25.6575 186.539 13.25 183.06C12.819 185.473 12.4594 187.888 12.1502 190.278C11.8217 192.841 11.6559 195.443 11.4405 198.035C34.4115 194.169 57.0391 187.079 80.1177 184.57C94.8301 182.968 109.743 182.717 124.486 180.907Z" fill="#A77640"/>
<path d="M67.0088 211.972C48.1667 213.021 29.5221 218.754 10.7242 221.562C10.8113 226.112 11.0083 230.648 11.2668 235.155C16.2999 233.893 21.3104 232.282 26.2793 230.343C40.0887 224.95 53.4083 218.006 67.0088 211.972Z" fill="#A77640"/>
<path d="M312.056 162.853C297.594 162.203 283.074 162.703 268.598 163.729C258.74 164.425 248.894 165.385 239.051 166.387C264.635 169.397 290.17 173.572 315.936 174.097C340.175 174.587 364.87 172.307 388.733 165.912C377.66 165.585 366.573 165.464 355.5 165.197C340.977 164.842 326.554 163.505 312.056 162.853Z" fill="#A77640"/>
<path d="M28.9151 173.298C78.6779 185.17 129.796 169.643 179.561 162.28C206.273 158.327 233.385 156.998 260.22 155.699C287.515 154.377 314.816 153.803 342.104 153.637C396.43 153.302 450.811 151.887 505.115 152.556C528.256 152.842 551.243 154.005 574.22 156.341C564.567 155.048 554.909 153.79 545.214 152.715C499.797 147.657 454.168 144.628 408.459 143.458C363.352 142.306 318.18 143.039 273.028 145.165C228.624 147.261 184.01 149.712 139.813 156.257C118.8 159.37 97.7937 162.988 76.676 164.668C57.8033 166.167 38.3816 166.194 19.8581 161.965C18.6034 164.429 17.577 167.028 16.6638 169.684C20.7054 171.056 24.7773 172.31 28.9151 173.298Z" fill="#A77640"/>
<path d="M698.423 201.321C673.392 196.658 648.488 191.818 623.34 187.897C594.119 183.339 565.101 177.492 535.938 172.56C521.622 170.141 507.283 167.681 492.8 166.7C478.672 165.741 464.481 165.873 450.313 166.628C422.603 168.099 395.001 172.007 367.367 174.989C339.129 178.029 310.866 178.982 282.578 180.417C255.561 181.788 228.518 183.438 201.602 187.167C175.217 190.822 148.502 195.967 123.071 205.524C88.0726 218.683 48.6977 241.053 11.3463 236.072C11.4395 237.633 11.5041 239.213 11.6142 240.765C12.0709 247.21 12.7558 253.67 13.9904 259.971C22.1781 261.348 30.8481 261.005 38.8668 259.91C62.3402 256.707 85.07 247.721 107.565 239.389C136.856 228.54 167.337 221.836 197.406 215.057C272.209 198.189 347.971 187.486 423.843 183.829C499.476 180.185 575.299 183.562 649.985 195.341C664.242 197.589 678.378 200.554 692.613 202.934C695.987 203.499 699.626 204.104 703.319 204.423C703.569 203.736 703.786 203.031 704.027 202.337C702.157 201.998 700.286 201.671 698.423 201.321Z" fill="#9D6F3B"/>
<path d="M674.509 164.079C656.868 160.177 638.386 155.844 624.764 143.161C616.367 135.343 610.48 124.914 605.173 114.416C600.82 105.808 596.742 96.9765 594.068 87.6079C588.04 66.4919 588.123 40.9409 572.174 27.0446C591.176 28.0412 609.554 34.814 626.792 43.4792C639.771 50.0028 652.576 57.902 661.691 69.797C680.752 94.6702 679.526 130.382 677.317 162.541C677.246 163.567 676.984 164.846 676.05 165.062C675.115 165.278 675.006 163.08 675.842 163.579" fill="#80BE1F"/>
<path d="M597.866 71.6044C602.012 73.9978 606.353 75.9461 610.472 78.4162C614.367 80.7522 618.226 83.2896 622.367 85.0936C625.167 86.3142 626.929 81.5939 624.45 79.9821C620.654 77.5145 616.32 75.8741 612.15 74.2979C607.732 72.6277 603.313 70.6404 598.791 69.3376C597.557 68.9832 596.671 70.9135 597.866 71.6044Z" fill="#1E6A30"/>
<path d="M584.939 38.5271C620.663 72.578 637.914 121.757 669.706 159.243C678.035 169.063 687.913 179.249 699.454 184.409C701.328 185.247 703.098 182.098 701.519 180.713C692.619 172.897 683.466 165.92 675.532 156.876C667.456 147.67 660.316 137.618 653.632 127.212C640.345 106.523 628.647 84.6623 613.955 65.0417C605.898 54.2805 596.943 44.4858 586.426 36.5067C585.317 35.6614 583.909 37.5457 584.939 38.5271Z" fill="#1E6A30"/>
<path d="M623.994 84.0954C624.907 79.9561 625.651 75.7514 625.995 71.5087C626.36 67.0097 626.034 62.4954 626.367 58.0078C626.684 53.7296 619.847 54.267 620.878 58.6558C622.694 66.3918 621.7 75.7205 620.709 83.5418C620.452 85.5686 623.558 86.0695 623.994 84.0954Z" fill="#1E6A30"/>
<path d="M606.651 95.8662C616.867 101.428 627.098 106.949 637.364 112.402C639.068 113.306 641.838 112.793 642.241 110.353C644.579 96.1963 647.528 81.8945 648.924 67.5918C649.295 63.7932 643.62 62.8663 642.789 66.5581C639.706 80.2372 638.066 94.4722 635.895 108.35C637.262 107.545 638.63 106.74 639.997 105.935C629.308 101.519 618.598 97.178 607.868 92.8762C606.256 92.2309 605.1 95.0229 606.651 95.8662Z" fill="#1E6A30"/>
<path d="M624.315 128.271C635.123 133.406 645.951 138.492 656.788 143.551C658.681 144.435 660.416 142.379 660.583 140.571C661.857 126.741 665.418 114.164 670.89 101.608C672.263 98.4569 668.244 95.6549 666.496 98.7614C659.527 111.145 655.576 125.999 654.66 140.409C655.924 139.415 657.19 138.423 658.454 137.429C647.583 133.119 636.704 128.837 625.807 124.604C623.837 123.84 622.357 127.34 624.315 128.271Z" fill="#1E6A30"/>
<path d="M686.346 203.6C682.823 216.71 678.971 230.431 669.948 240.018C664.386 245.926 657.261 249.794 650.125 253.22C644.272 256.03 638.29 258.62 632.035 260.119C617.938 263.499 601.29 262.016 591.346 273.292C593.052 258.992 598.488 245.485 605.094 232.944C610.067 223.502 615.927 214.267 624.186 208.042C641.457 195.025 664.663 197.936 685.5 201.393C686.165 201.503 686.984 201.772 687.073 202.49C687.161 203.208 685.723 203.169 686.094 202.565" fill="#80BE1F"/>
<path d="M621.817 256.359C623.607 253.36 625.119 250.189 626.957 247.215C628.696 244.402 630.565 241.628 631.971 238.6C632.922 236.552 629.943 234.958 628.755 236.742C626.936 239.473 625.626 242.655 624.367 245.718C623.032 248.963 621.492 252.191 620.391 255.534C620.092 256.447 621.3 257.224 621.817 256.359Z" fill="#1E6A30"/>
<path d="M599.54 264.286C623.718 239.191 656.729 228.892 682.928 206.959C689.791 201.212 696.979 194.316 700.984 185.884C701.634 184.515 699.68 183.002 698.689 184.118C693.1 190.408 688.045 196.934 681.709 202.426C675.26 208.015 668.312 212.85 661.158 217.321C646.936 226.209 632.038 233.831 618.434 243.84C610.972 249.328 604.091 255.55 598.306 263.051C597.693 263.842 598.843 265.01 599.54 264.286Z" fill="#1E6A30"/>
<path d="M631.41 237.315C628.763 236.395 626.064 235.599 623.318 235.104C620.406 234.578 617.445 234.573 614.539 234.072C611.769 233.594 611.739 238.789 614.656 238.254C619.799 237.313 625.824 238.582 630.866 239.765C632.173 240.072 632.672 237.754 631.41 237.315Z" fill="#1E6A30"/>
<path d="M638.118 251.071C642.311 243.663 646.478 236.24 650.603 228.788C651.287 227.551 651.106 225.429 649.539 224.989C640.442 222.436 631.285 219.414 622.041 217.563C619.586 217.072 618.666 221.308 621.026 222.141C629.77 225.23 638.956 227.261 647.88 229.672C647.432 228.595 646.983 227.517 646.534 226.439C643.062 234.269 639.637 242.119 636.237 249.986C635.727 251.168 637.483 252.196 638.118 251.071Z" fill="#1E6A30"/>
<path d="M660.219 239.529C664.166 231.649 668.083 223.752 671.983 215.846C672.664 214.465 671.421 213.04 670.251 212.813C661.308 211.082 653.31 207.692 645.431 202.861C643.453 201.648 641.404 204.529 643.331 206.022C651.014 211.975 660.476 215.786 669.817 217.279C669.239 216.269 668.663 215.257 668.085 214.247C664.672 222.22 661.276 230.201 657.912 238.198C657.304 239.643 659.503 240.956 660.219 239.529Z" fill="#1E6A30"/>
<defs>
<linearGradient id="paint0_linear_421_343" x1="351.488" y1="175.214" x2="467.877" y2="228.673" gradientUnits="userSpaceOnUse">
<stop stop-color="#4F2408"/>
<stop offset="1" stop-color="#170000"/>
</linearGradient>
<linearGradient id="paint1_linear_421_343" x1="351.488" y1="175.215" x2="467.877" y2="228.673" gradientUnits="userSpaceOnUse">
<stop stop-color="#613619"/>
<stop offset="1" stop-color="#301900"/>
</linearGradient>
</defs>
</svg>
