<svg width="161" height="161" viewBox="0 0 161 161" fill="none" xmlns="http://www.w3.org/2000/svg">
<path d="M80.5002 80.4999C93.5065 80.4999 104.05 69.9562 104.05 56.9499C104.05 43.9436 93.5065 33.3999 80.5002 33.3999C67.4939 33.3999 56.9502 43.9436 56.9502 56.9499C56.9502 69.9562 67.4939 80.4999 80.5002 80.4999Z" stroke="#4E9A2E" stroke-width="4"/>
<path d="M127.363 143.3C126.107 120.598 119.159 104.05 80.4983 104.05C41.837 104.05 34.8898 120.598 33.6338 143.3" stroke="#4E9A2E" stroke-width="4" stroke-linecap="round"/>
<path d="M41.25 12.5034C53.1776 5.60109 66.7191 1.97738 80.4999 2.00011C123.855 2.00011 159 37.1445 159 80.5001C159 123.856 123.855 159 80.4999 159C37.1444 159 2 123.856 2 80.5001C2 66.2052 5.82295 52.7896 12.5033 41.2501" stroke="#4E9A2E" stroke-width="4" stroke-linecap="round"/>
</svg>
